<svg xmlns="http://www.w3.org/2000/svg" viewBox="0 0 512 512" fill="#99a3af">
  <path d="M467 16H45C20.187 16 0 36.187 0 61v300c0 24.813 20.187 45 45 45h46v75a15 15 0 0 0 25.607 10.606L202.213 406H467c24.813 0 45-20.187 45-45V61c0-24.813-20.187-45-45-45zm15 345c0 8.271-6.729 15-15 15H196a15 15 0 0 0-10.606 4.394L121 444.786V391c0-8.284-6.716-15-15-15H45c-8.271 0-15-6.729-15-15V61c0-8.271 6.729-15 15-15h422c8.271 0 15 6.729 15 15v300z"/>
  <path d="M346 106h-30c-24.813 0-45 20.187-45 45v30c0 24.813 20.187 45 45 45h30c4.454 0 8.754-.66 12.82-1.871-5.952 27.254-23.808 50.595-49.529 63.455-7.41 3.705-10.413 12.715-6.708 20.125 3.706 7.412 12.717 10.412 20.125 6.708a123.461 123.461 0 0 0 49.841-45.549A123.46 123.46 0 0 0 391 203.918V151c0-24.813-20.187-45-45-45zm15 75c0 8.271-6.729 15-15 15h-30c-8.271 0-15-6.729-15-15v-30c0-8.271 6.729-15 15-15h30c8.271 0 15 6.729 15 15v30zM196 106h-30c-24.813 0-45 20.187-45 45v30c0 24.813 20.187 45 45 45h30c4.454 0 8.754-.66 12.82-1.871-5.953 27.254-23.808 50.595-49.529 63.455-7.41 3.705-10.413 12.715-6.708 20.125 3.706 7.412 12.717 10.412 20.125 6.708a123.461 123.461 0 0 0 49.841-45.549A123.46 123.46 0 0 0 241 203.918V151c0-24.813-20.187-45-45-45zm15 75c0 8.271-6.729 15-15 15h-30c-8.271 0-15-6.729-15-15v-30c0-8.271 6.729-15 15-15h30c8.271 0 15 6.729 15 15v30z"/>
</svg>