<svg xmlns="http://www.w3.org/2000/svg" viewBox="0 0 26 26">
  <path d="M18.25 15.32l4.15 3.93a.82.82 0 010 1.18l-2 2a.82.82 0 01-1.18 0l-2-2a.55.55 0 00-.6-.12l-1.13.47a.55.55 0 00-.34.51v2.77a.82.82 0 01-.83.83h-2.7a.82.82 0 01-.83-.83V21.3a.55.55 0 00-.34-.51l-1.13-.47a.55.55 0 00-.6.12l-2 2a.82.82 0 01-1.18 0l-2-2a.82.82 0 010-1.18l2-2a.55.55 0 00.12-.6l-.47-1.13a.55.55 0 00-.51-.34H1.94a.82.82 0 01-.83-.83v-2.74a.82.82 0 01.83-.83H4.7a.55.55 0 00.51-.34l.47-1.13a.55.55 0 00-.12-.6l-2-2a.82.82 0 010-1.18l2-2a.82.82 0 011.18 0l2 2a.55.55 0 00.6.12l1.13-.47a.55.55 0 00.34-.51V1.94a.82.82 0 01.83-.83h2.77a.82.82 0 01.83.83V4.7a.55.55 0 00.34.51l1.13.47a.55.55 0 00.6-.12l2-2a.82.82 0 011.18 0l2 2a.82.82 0 010 1.18l-2 2a.55.55 0 00-.12.6l.47 1.13a.55.55 0 00.51.34h2.77a.82.82 0 01.83.83v2.77a.82.82 0 01-.83.83.555.555 0 000 1.11A1.92 1.92 0 0026 14.38v-2.76a1.92 1.92 0 00-1.94-1.94h-2.4l-.19-.45 1.7-1.7a1.92 1.92 0 000-2.75l-2-2a1.92 1.92 0 00-2.75 0l-1.7 1.7-.45-.19V1.94A1.92 1.92 0 0014.38 0h-2.76a1.92 1.92 0 00-1.94 1.94v2.4l-.45.19-1.7-1.7a1.92 1.92 0 00-2.75 0l-2 2a1.92 1.92 0 000 2.75l1.7 1.7-.19.45H1.94A1.92 1.92 0 000 11.62v2.77a1.92 1.92 0 001.94 1.94h2.4l.19.45-1.7 1.7a1.92 1.92 0 000 2.75l2 2a1.92 1.92 0 002.75 0l1.7-1.7.45.19v2.4A1.92 1.92 0 0011.62 26h2.77a1.92 1.92 0 001.94-1.94v-2.4l.45-.19 1.7 1.7a1.92 1.92 0 002.75 0l2-2a1.92 1.92 0 000-2.75l-3.79-3.79c-.3-.3-.26-.22-.26-.2" fill="#99a3af"/>
  <path d="M7.54 13.1l.9-.84 2.71 2.92 3.75-3.48-2.71-2.92.91-.84 6.09 6.55-.91.84-2.62-2.81L11.91 16l2.62 2.81-.9.84z" fill="#99a3af"/>
</svg>