<svg xmlns="http://www.w3.org/2000/svg" width="30pt" height="30pt" viewBox="0 0 30 30">
    <g id="surface1">
        <path style=" stroke:none;fill-rule:nonzero;fill:rgb(60%,63.921569%,68.627451%);fill-opacity:1;"
              d="M 29.988281 23.550781 C 29.976562 23.507812 29.730469 22.519531 28.984375 21.527344 C 28.285156 20.597656 27.003906 19.492188 24.863281 19.492188 C 20.992188 19.492188 17.960938 21.398438 15.027344 23.246094 C 12.089844 25.09375 9.054688 27.007812 5.136719 27.007812 C 3.898438 27.007812 2.800781 26.578125 1.878906 25.734375 C 1.175781 25.09375 0.835938 24.4375 0.832031 24.429688 C 0.726562 24.214844 0.460938 24.125 0.242188 24.234375 C 0.0273438 24.34375 -0.0625 24.609375 0.046875 24.824219 C 0.109375 24.949219 1.617188 27.886719 5.136719 27.886719 C 9.308594 27.886719 12.453125 25.90625 15.496094 23.988281 C 18.453125 22.128906 21.246094 20.371094 24.863281 20.371094 C 26.28125 20.371094 27.421875 20.929688 28.261719 22.03125 C 28.910156 22.878906 29.128906 23.75 29.132812 23.757812 C 29.1875 23.992188 29.425781 24.136719 29.664062 24.082031 C 29.898438 24.023438 30.042969 23.785156 29.988281 23.550781 Z M 29.988281 23.550781 "/>
        <path style=" stroke:none;fill-rule:nonzero;fill:rgb(60%,63.921569%,68.627451%);fill-opacity:1;"
              d="M 19.183594 19.222656 C 19.136719 19.039062 18.96875 18.902344 18.78125 18.894531 L 16.167969 18.757812 L 12.78125 12.378906 C 12.667969 12.164062 12.402344 12.082031 12.1875 12.195312 C 11.972656 12.308594 11.890625 12.578125 12.003906 12.792969 L 15.507812 19.390625 C 15.578125 19.527344 15.71875 19.613281 15.871094 19.621094 L 17.148438 19.691406 L 12.140625 22.347656 L 12.800781 21.253906 C 12.878906 21.121094 12.882812 20.957031 12.8125 20.820312 L 6.820312 9.535156 C 6.707031 9.320312 6.441406 9.238281 6.226562 9.351562 L 3.1875 10.964844 C 3.109375 11.003906 3.046875 11.066406 3.007812 11.144531 L 2.554688 11.980469 L 1.074219 9.1875 L 12.449219 3.148438 L 13.933594 5.941406 L 12.988281 5.847656 C 12.902344 5.835938 12.8125 5.855469 12.738281 5.894531 L 9.699219 7.507812 C 9.488281 7.621094 9.402344 7.890625 9.515625 8.101562 L 10.929688 10.765625 C 11.042969 10.980469 11.308594 11.0625 11.523438 10.949219 C 11.738281 10.832031 11.820312 10.566406 11.707031 10.351562 L 10.5 8.078125 L 13.03125 6.734375 L 14.664062 6.898438 C 15.007812 6.933594 15.257812 6.558594 15.097656 6.253906 L 13.023438 2.347656 C 12.910156 2.132812 12.640625 2.050781 12.425781 2.164062 L 0.273438 8.617188 C 0.0585938 8.730469 -0.0234375 8.996094 0.0898438 9.210938 L 2.164062 13.117188 C 2.324219 13.421875 2.777344 13.425781 2.941406 13.121094 L 3.71875 11.679688 L 6.25 10.335938 L 11.917969 21.011719 L 10.566406 23.253906 C 10.46875 23.414062 10.488281 23.621094 10.605469 23.761719 C 10.738281 23.921875 10.96875 23.964844 11.148438 23.871094 L 18.964844 19.722656 C 19.140625 19.628906 19.234375 19.417969 19.183594 19.222656 Z M 19.183594 19.222656 "/>
    </g>
</svg>
