<?xml version="1.0" encoding="utf-8"?>
<!-- Generator: Adobe Illustrator 21.1.0, SVG Export Plug-In . SVG Version: 6.00 Build 0)  -->
<svg version="1.1" id="Layer_1" xmlns="http://www.w3.org/2000/svg" xmlns:xlink="http://www.w3.org/1999/xlink" x="0px" y="0px"
	 viewBox="0 0 80 80" style="enable-background:new 0 0 80 80;" xml:space="preserve">
<style type="text/css">
	.st0{fill:#99A3AF;}
</style>
<path class="st0" d="M9,18c-1.6,0-3,1.4-3,3v38c0,1.6,1.4,3,3,3h18c0.8,0,1.5-0.3,2-0.8c0.5,0.5,1.2,0.8,2,0.8h18
	c0.8,0,1.5-0.3,2-0.8c0.5,0.5,1.2,0.8,2,0.8h18c1.6,0,3-1.4,3-3V21c0-1.6-1.4-3-3-3H53c-0.8,0-1.5,0.3-2,0.8c-0.5-0.5-1.2-0.8-2-0.8
	H31c-0.8,0-1.5,0.3-2,0.8c-0.5-0.5-1.2-0.8-2-0.8H9z M9,20h18c0.6,0,1,0.4,1,1h2c0-0.6,0.4-1,1-1h18c0.6,0,1,0.4,1,1h2
	c0-0.6,0.4-1,1-1h3.2c0.2,1,0.4,1.8,0.8,2.6c1.1,2.3,3,3.5,5.6,3.5c3.6,0,6.1-2.5,6.1-5.9c0-0.1,0-0.1,0-0.2H71c0.6,0,1,0.4,1,1v38
	c0,0.6-0.4,1-1,1H53c-0.6,0-1-0.4-1-1h-2c0,0.6-0.4,1-1,1H31c-0.6,0-1-0.4-1-1h-2c0,0.6-0.4,1-1,1H9c-0.6,0-1-0.4-1-1V21
	C8,20.4,8.4,20,9,20z M59,20H66c0,0.1,0,0.2,0,0.3c0,2-1.5,3.5-3.6,3.5S59,22.2,59,20.2C59,20.2,59,20.1,59,20z M29,23
	c-0.6,0-1,0.4-1,1s0.4,1,1,1s1-0.4,1-1S29.6,23,29,23z M51,23c-0.6,0-1,0.4-1,1s0.4,1,1,1s1-0.4,1-1S51.6,23,51,23z M29,27
	c-0.6,0-1,0.4-1,1s0.4,1,1,1s1-0.4,1-1S29.6,27,29,27z M51,27c-0.6,0-1,0.4-1,1s0.4,1,1,1s1-0.4,1-1S51.6,27,51,27z M29,31
	c-0.6,0-1,0.4-1,1s0.4,1,1,1s1-0.4,1-1S29.6,31,29,31z M51,31c-0.6,0-1,0.4-1,1s0.4,1,1,1s1-0.4,1-1S51.6,31,51,31z M18,31.4
	c-3.9,0-6.3,3.3-6.3,8.8c0,5.6,2.3,8.9,6.3,8.9c3.9,0,6.2-3.2,6.2-8.9C24.2,34.6,21.9,31.4,18,31.4L18,31.4z M40,31.4
	c-3.9,0-6.3,3.3-6.3,8.8c0,5.6,2.3,8.9,6.3,8.9c3.9,0,6.2-3.2,6.2-8.9C46.2,34.6,43.9,31.4,40,31.4L40,31.4z M18,33.7
	c2.3,0,3.6,2.3,3.6,6.6c0,4.3-1.3,6.6-3.6,6.6s-3.6-2.3-3.6-6.6C14.4,36,15.7,33.7,18,33.7z M40,33.7c2.3,0,3.6,2.3,3.6,6.6
	c0,4.3-1.3,6.6-3.6,6.6c-2.3,0-3.6-2.3-3.6-6.6C36.4,36,37.7,33.7,40,33.7z M29,35c-0.6,0-1,0.4-1,1s0.4,1,1,1s1-0.4,1-1
	S29.6,35,29,35z M51,35c-0.6,0-1,0.4-1,1s0.4,1,1,1s1-0.4,1-1S51.6,35,51,35z M56.4,37.8v2.3H65v0.2l-7.5,14.4h2.8l7.4-14.5v-2.4
	H56.4z M29,39c-0.6,0-1,0.4-1,1s0.4,1,1,1s1-0.4,1-1S29.6,39,29,39z M51,39c-0.6,0-1,0.4-1,1s0.4,1,1,1s1-0.4,1-1S51.6,39,51,39z
	 M29,43c-0.6,0-1,0.4-1,1s0.4,1,1,1s1-0.4,1-1S29.6,43,29,43z M51,43c-0.6,0-1,0.4-1,1s0.4,1,1,1s1-0.4,1-1S51.6,43,51,43z M29,47
	c-0.6,0-1,0.4-1,1s0.4,1,1,1s1-0.4,1-1S29.6,47,29,47z M51,47c-0.6,0-1,0.4-1,1s0.4,1,1,1s1-0.4,1-1S51.6,47,51,47z M29,51
	c-0.6,0-1,0.4-1,1s0.4,1,1,1s1-0.4,1-1S29.6,51,29,51z M51,51c-0.6,0-1,0.4-1,1s0.4,1,1,1s1-0.4,1-1S51.6,51,51,51z M29,55
	c-0.6,0-1,0.4-1,1s0.4,1,1,1s1-0.4,1-1S29.6,55,29,55z M51,55c-0.6,0-1,0.4-1,1s0.4,1,1,1s1-0.4,1-1S51.6,55,51,55z"/>
</svg>
