<svg xmlns="http://www.w3.org/2000/svg" viewBox="0 0 60 60">
  <g fill="#99a3af">
    <path d="M31.634 37.989c1.041-.081 1.99-.612 2.606-1.459l9.363-12.944a1 1 0 0 0-.104-1.293c-.348-.347-.896-.39-1.293-.104L29.26 31.555c-.844.614-1.375 1.563-1.456 2.604s.296 2.06 1.033 2.797a3.5536 3.5536 0 0 0 2.797 1.033zm-1.836-3.674c.035-.457.269-.874.637-1.142l7.897-5.713-5.711 7.895c-.27.371-.687.604-1.144.64-.455.03-.902-.128-1.227-.453a1.564 1.564 0 0 1-.452-1.227z"/>
    <path d="M54.034 19.564c-.01-.021-.01-.043-.021-.064-.012-.02-.031-.031-.044-.05a27.1852 27.1852 0 0 0-3.565-4.809l2.148-2.147 1.414 1.414 4.242-4.243-4.242-4.242-4.243 4.242 1.415 1.415-2.148 2.147a27.154 27.154 0 0 0-4.809-3.566c-.019-.013-.03-.032-.05-.044-.021-.012-.043-.011-.064-.022-3.093-1.782-6.568-2.969-10.273-3.404V5h1.5c1.379 0 2.5-1.121 2.5-2.5S36.672 0 35.293 0h-9c-1.379 0-2.5 1.121-2.5 2.5s1.121 2.5 2.5 2.5h1.5v1.156c-1.08.115-2.158.291-3.224.535-.538.123-.875.66-.751 1.198.123.538.66.876 1.198.751.92-.211 1.849-.37 2.78-.477l1.073-.083c.328-.025.63-.043.924-.057V10c0 .553.447 1 1 1s1-.447 1-1V8.03c3.761.173 7.305 1.183 10.456 2.845l-.986 1.707c-.276.479-.112 1.09.366 1.366a.992.992 0 0 0 .499.134c.346 0 .682-.179.867-.5l.983-1.703a25.1938 25.1938 0 0 1 7.772 7.772l-1.703.983c-.477.276-.641.887-.364 1.366.186.321.521.5.867.5.17 0 .342-.043.499-.134l1.707-.986c1.685 3.196 2.698 6.798 2.849 10.619H53.63c-.553 0-1 .447-1 1s.447 1 1 1h1.975c-.151 3.821-1.164 7.423-2.849 10.619l-1.707-.986c-.478-.276-1.09-.114-1.366.366-.276.479-.112 1.09.366 1.366l1.703.983a25.1938 25.1938 0 0 1-7.772 7.772l-.983-1.703c-.277-.48-.89-.643-1.366-.366-.479.276-.643.888-.366 1.366l.986 1.707c-3.151 1.662-6.695 2.672-10.456 2.845V56c0-.553-.447-1-1-1s-1 .447-1 1v1.976c-1.597-.055-3.199-.255-4.776-.617-.538-.129-1.075.213-1.198.751-.124.538.213 1.075.751 1.198 1.996.46 4.035.692 6.058.692.049 0 .096-.003.145-.004.007 0 .012.004.018.004.008 0 .015-.005.023-.005 4.807-.033 9.317-1.331 13.219-3.573.031-.014.064-.021.094-.039.02-.012.031-.031.05-.044a27.1973 27.1973 0 0 0 9.773-9.761c.019-.027.043-.048.06-.078.012-.021.011-.043.021-.064C56.317 42.476 57.63 37.89 57.63 33s-1.313-9.476-3.596-13.436zm-.069-11.313l1.414 1.414-1.414 1.415-1.415-1.415 1.415-1.414zm-24.172-2.23V3h-3.5c-.275 0-.5-.225-.5-.5s.225-.5.5-.5h9c.275 0 .5.225.5.5s-.225.5-.5.5h-3.5v3.021c-.348-.014-.68-.021-1-.021-.028 0-.06.002-.088.002-.025 0-.05-.002-.075-.002-.164 0-.328.011-.492.014-.116.003-.225.002-.345.007zM21.793 14h-5c-.553 0-1 .447-1 1s.447 1 1 1h5c.553 0 1-.447 1-1s-.447-1-1-1zM21.793 21h-10c-.553 0-1 .447-1 1s.447 1 1 1h10c.553 0 1-.447 1-1s-.447-1-1-1zM21.793 28h-15c-.553 0-1 .447-1 1s.447 1 1 1h15c.553 0 1-.447 1-1s-.447-1-1-1zM21.793 35h-19c-.553 0-1 .447-1 1s.447 1 1 1h19c.553 0 1-.447 1-1s-.447-1-1-1zM21.793 42h-13c-.553 0-1 .447-1 1s.447 1 1 1h13c.553 0 1-.447 1-1s-.447-1-1-1zM21.793 49h-7c-.553 0-1 .447-1 1s.447 1 1 1h7c.553 0 1-.447 1-1s-.447-1-1-1z"/>
  </g>
</svg>
