<svg xmlns="http://www.w3.org/2000/svg" viewBox="0 0 27.52 19">
  <g fill="#99a3af">
    <path d="M3.08 1.89a.34.34 0 00.34-.34v-.23a.64.64 0 01.63-.63h22a.345.345 0 100-.69h-22a1.32 1.32 0 00-1.31 1.32v.22a.34.34 0 00.34.35z"/>
    <path d="M25.85.34a.34.34 0 00.34.34.64.64 0 01.63.63v7.91a.64.64 0 01-.63.63h-1.83a.345.345 0 000 .69h1.84a1.32 1.32 0 001.32-1.32v-7.9A1.32 1.32 0 0026.19 0a.34.34 0 00-.34.34z"/>
    <g>
      <path d="M24.29 6.34a.34.34 0 00-.34.34v4.68a.64.64 0 01-.63.63H14.1a.345.345 0 000 .69h9.22a1.32 1.32 0 001.32-1.32V6.68a.34.34 0 00-.35-.34zM1.66 12.34a.34.34 0 00-.34-.34.64.64 0 01-.63-.63V3.45a.64.64 0 01.63-.63h21a.345.345 0 100-.69h-21A1.32 1.32 0 000 3.45v7.91a1.32 1.32 0 001.32 1.32.34.34 0 00.34-.34z"/>
      <path d="M11.57 6.34l-7.9.47a1.53 1.53 0 00-1 2.61l1.3 1.25-2.82 2.83a2 2 0 000 2.82l2.1 2.1a2 2 0 002.82 0l2.82-2.82 1.25 1.25a1.53 1.53 0 002.61-1l.47-7.9a1.53 1.53 0 00-1.65-1.61zm1 1.58l-.47 7.9a.85.85 0 01-1.44.55l-1.5-1.5a.34.34 0 00-.49 0l-3.1 3.06a1.31 1.31 0 01-1.85 0l-2.1-2.1a1.31 1.31 0 010-1.85l3.06-3.06a.34.34 0 000-.49l-1.5-1.5a.85.85 0 01.55-1.44l7.9-.47a.85.85 0 01.89.89z"/>
    </g>
  </g>
</svg>