<svg xmlns="http://www.w3.org/2000/svg" viewBox="0 0 512 512" fill="#99a3af">
  <path d="M153.4 210.2c-3-3-7.8-3-10.8 0l-80.2 80.2A7.6 7.6 0 1 0 73 301.2l80.3-80.3c3-3 3-7.8 0-10.7zM174.9 231.7c-3-3-7.8-3-10.8 0l-14.8 14.8a7.6 7.6 0 1 0 10.7 10.8l14.9-14.9c3-3 3-7.8 0-10.7zM141 265.6c-3-3-7.8-3-10.7 0l-46.4 46.3a7.6 7.6 0 1 0 10.7 10.8l46.4-46.4c3-3 3-7.8 0-10.7zM218 274.7c-3-3-7.9-3-10.8 0l-80.3 80.2a7.6 7.6 0 1 0 10.7 10.8l80.3-80.3c3-3 3-7.8 0-10.7zM261 317.7c-3-3-7.9-3-10.8 0l-80.3 80.2a7.6 7.6 0 1 0 10.7 10.8l80.3-80.3c3-3 3-7.8 0-10.7zM196.4 253.2c-3-3-7.8-3-10.8 0l-80.2 80.2a7.6 7.6 0 1 0 10.7 10.8l80.3-80.3c3-3 3-7.8 0-10.7zM239.4 296.2c-3-3-7.8-3-10.7 0l-80.3 80.2a7.6 7.6 0 1 0 10.7 10.8l80.3-80.3c3-3 3-7.8 0-10.7zM305 58.5c-3-3-7.8-3-10.7 0L214 138.8a7.6 7.6 0 1 0 10.7 10.8L305 69.3c3-3 3-7.8 0-10.8zM326.5 80c-3-3-7.8-3-10.7 0l-80.3 80.3a7.6 7.6 0 1 0 10.7 10.8l80.3-80.3c3-3 3-7.8 0-10.7zM369.5 123c-3-3-7.8-3-10.7 0l-80.3 80.3a7.6 7.6 0 1 0 10.8 10.8l80.2-80.3c3-3 3-7.8 0-10.7zM412.5 166c-3-3-7.8-3-10.7 0l-80.3 80.3a7.6 7.6 0 1 0 10.8 10.8l80.2-80.3c3-3 3-7.8 0-10.7zM348 101.6c-3-3-7.8-3-10.7 0L257 181.8a7.6 7.6 0 1 0 10.8 10.8l80.2-80.3c3-3 3-7.8 0-10.7zM391 144.6c-3-3-7.8-3-10.7 0l-27.4 27.3a7.6 7.6 0 1 0 10.8 10.8l27.3-27.4c3-3 3-7.8 0-10.7zM343.9 191.7c-3-3-7.8-3-10.8 0L300 224.8a7.6 7.6 0 1 0 10.8 10.8l33.1-33.2c3-3 3-7.8 0-10.7z"/>
  <path d="M503.7 203.7l-19.8-19.8L308.3 8.3a28.5 28.5 0 0 0-40.3 0L169.5 107a52.4 52.4 0 0 0-13.8 48.8 52.3 52.3 0 0 0-48.8 13.8L8.3 268a28.3 28.3 0 0 0 0 40.3l19.8 19.8 175.6 175.6a28.4 28.4 0 0 0 40.3 0L503.7 244a28.5 28.5 0 0 0 0-40.3zM204 477c-3.6 0-6.9-1.4-9.4-3.9L19 297.5a13.3 13.3 0 0 1 0-18.7l98.5-98.6a36.4 36.4 0 0 1 51.9 0l179.1 179.1a51.7 51.7 0 0 0-36.6 15.3L213.5 473a13.2 13.2 0 0 1-9.4 4zm29.1 16a13.3 13.3 0 0 1-18.7 0l-2-2c4.4-1.4 8.4-3.8 11.7-7.1l98.6-98.6a36.5 36.5 0 0 1 28.6-10.6L233.2 492.9zm135.5-174a52 52 0 0 0-9.2 29.7L180.2 169.5l-2.1-2.4-.1-.1a36.6 36.6 0 0 1 2.2-49.4l98.6-98.5a13.3 13.3 0 0 1 18.8 0l19.7 19.8 155.8 155.8a13.2 13.2 0 0 1 0 18.8L374.6 312a51.3 51.3 0 0 0-5.9 7zM493 233.2L374.8 351.4a36.8 36.8 0 0 1 10.6-28.7l98.5-98.5c3.3-3.3 5.7-7.3 7-11.7l2 2a13.3 13.3 0 0 1 0 18.7zM211.4 11.1a7.6 7.6 0 0 0-9-6A255.5 255.5 0 0 0 18.8 154.9L15 135.4a7.6 7.6 0 0 0-15 2.8L9 184.7a7.6 7.6 0 0 0 12 4.7l36.7-27.2a7.6 7.6 0 1 0-9-12.3l-16.4 12.2A241.4 241.4 0 0 1 205.4 20a7.6 7.6 0 0 0 6-9zM507.8 373.8l-8.8-46.5a7.6 7.6 0 0 0-12-4.7l-36.7 27.2a7.6 7.6 0 1 0 9 12.3l16.5-12.2a241.4 241.4 0 0 1-173.3 142 7.6 7.6 0 1 0 3 14.9 255.5 255.5 0 0 0 183.7-149.6l3.7 19.4a7.6 7.6 0 1 0 15-2.8z"/>
</svg>