<svg xmlns="http://www.w3.org/2000/svg" width="512" height="512">
  <path d="M381.156 122.88H130.844c-9.426 0-17.067 7.64-17.067 17.067v232.107c0 9.426 7.64 17.067 17.067 17.067h250.311c9.426 0 17.067-7.64 17.067-17.067V139.947c0-9.427-7.64-17.067-17.066-17.067zm-17.067 232.107H147.911V157.013h216.178v197.974zM73.956 151.324c-9.427 0-17.067 7.64-17.067 17.067v175.218c0 9.427 7.64 17.067 17.067 17.067 9.426 0 17.067-7.64 17.067-17.067V168.391c-.001-9.426-7.641-17.067-17.067-17.067zM17.067 179.769C7.64 179.769 0 187.409 0 196.836v118.329c0 9.426 7.64 17.067 17.067 17.067s17.067-7.64 17.067-17.067V196.836c-.001-9.427-7.641-17.067-17.067-17.067zM438.044 151.324c-9.426 0-17.067 7.64-17.067 17.067v175.218c0 9.427 7.64 17.067 17.067 17.067s17.067-7.64 17.067-17.067V168.391c0-9.426-7.64-17.067-17.067-17.067zM494.933 179.769c-9.426 0-17.067 7.64-17.067 17.067v118.329c0 9.426 7.64 17.067 17.067 17.067S512 324.591 512 315.164V196.836c0-9.427-7.64-17.067-17.067-17.067z" fill="#99a3af"/>
</svg>
