<svg xmlns="http://www.w3.org/2000/svg" viewBox="0 0 28 19.6">
  <path d="M26.6 2.8h-5.38L19.17.34a.93.93 0 00-.72-.34h-3.3a.93.93 0 00-.72.34l-.67.8-.67-.8a.93.93 0 00-.72-.34H9.09a.93.93 0 00-.72.34l-.67.8-.7-.8A.93.93 0 006.28 0H3a.93.93 0 00-.72.34l-2 2.37A1.4 1.4 0 000 3.6v14.6a1.4 1.4 0 001.4 1.4h25.2a1.4 1.4 0 001.4-1.4v-14a1.4 1.4 0 00-1.4-1.4zM15.15.93h3.3L20 2.8h-4.85l-.78-.93zm-6.07 0h3.3l1.56 1.87H9.09l-.78-.93zm18 17.27a.47.47 0 01-.47.47H1.4a.47.47 0 01-.47-.47V3.6A.47.47 0 011 3.31L3 .93h3.3L8.37 3.4a.93.93 0 00.72.34H26.6a.47.47 0 01.47.47z" fill="#99a3af"/>
  <path d="M10.73 6.53H3.27a.89.89 0 00-.93.83v6.61a.89.89 0 00.93.83h7.47a1 1 0 00.69-.28.77.77 0 00.22-.53V7.36a.89.89 0 00-.92-.83zm-2.52 7.44l-.42-.69 1.08-1.75 1.5 2.44zm2.52-6.61v5.44l-1-1.7a1 1 0 00-1.64 0l-.79 1.29L6 10.31a1 1 0 00-1.64 0l-1 1.7V7.36zm-7.46 6.38l1.87-3 2 3.27H3.27zM23.37 7h-9.1a.435.435 0 000 .87h9.1a.435.435 0 000-.87zM22.5 8.73h-8.23a.435.435 0 000 .87h8.23a.435.435 0 000-.87z" fill="#99a3af"/>
  <path d="M21.2 10.47h-6.93a.435.435 0 000 .87h6.93a.435.435 0 100-.87zM19.9 12.2h-5.63a.435.435 0 000 .87h5.63a.435.435 0 100-.87z" fill="#a5b2bf"/>
  <path d="M18.6 13.93h-4.33a.435.435 0 000 .87h4.33a.435.435 0 000-.87z" fill="#bfcbd8"/>
  <path d="M7.93 9.8A.93.93 0 107 8.87a.93.93 0 00.93.93zm0-1.24a.31.31 0 11-.31.31.31.31 0 01.31-.31z" fill="#b6c2ce"/>
</svg>