<svg xmlns="http://www.w3.org/2000/svg" viewBox="-132 171 404 402" fill="#99a3af">
  <path d="M27.2 492.7c-2.7 0-6.7-.9-10.7-5.4-10.8-12-20.8-23.2-50.2-23.2-7.5 0-16.1.8-25.6 2.3-42.3 6.7-44.4 6.7-45.1 6.7l-.9-.1c-3.9-.1-21-1.8-25.9-27l-.2-.7v-1h-.1c-3.3-30 18.3-34.3 18.5-34.4v.2l.3-.1v-.2h.5c5.3-1.3 17.2-3 43.6-6.5 50.1-6.8 58.1-23.8 66.6-41.7 2.7-5.7 7.1-8.9 12.2-8.9 6 0 11.6 4.6 12.5 10.2l16.9 116a12.7 12.7 0 0 1-12.4 13.8zm-61-35.6c32.6 0 44.7 13.5 55.4 25.4 1.9 2.1 3.8 3.2 5.6 3.2 1.5 0 2.9-.7 4-2 1-1.2 1.5-2.6 1.4-3.8L15.5 364c-.3-1.9-2.7-4.1-5.5-4.1-2.9 0-4.7 2.6-5.7 4.7-8.5 18.1-18.1 38.5-72.1 45.8a1444.8 1444.8 0 0 0-44.2 6.5c-.6.1-15.3 3.3-12.8 26.6v.3l.1.3c3.7 20.3 15.7 21.9 19.3 21.9.4-.1.8 0 1.2.1 2-.2 10.3-1.3 43.5-6.6 10-1.6 19-2.4 26.9-2.4z"/>
  <path d="M-44.9 464.8a3.6 3.6 0 0 1-3.5-3l-8.4-57c-.3-1.9 1-3.7 3-4a3.7 3.7 0 0 1 4 3l8.4 57c.3 1.9-1 3.7-3 4h-.5zM-108.4 434.4a3.6 3.6 0 0 1-3.5-3c-.3-1.9 1-3.7 3-4l25.7-3.8c1.9-.2 3.7 1.1 4 3s-1 3.7-3 4l-25.7 3.8h-.5zM-105.9 451.5a3.6 3.6 0 0 1-3.5-3c-.3-1.9 1-3.7 3-4l25.7-3.8c1.9-.2 3.7 1.1 4 3s-1 3.7-3 4l-25.7 3.8h-.5zM-47.8 519.2c-6.7 0-10.5-4.2-10.9-4.6l-36.8-44.2c-.8-1-1-2.3-.6-3.5.5-1.2 1.5-2 2.8-2.2l36-5c1.2-.2 2.5.3 3.3 1.3l31.6 40.1c.6.8.9 1.8.7 2.8-.3 1.7-.3 1.7-14.8 11.6a21.6 21.6 0 0 1-11.3 3.7zm-5.6-9.3s2 2.2 5.5 2.2c2.2 0 4.7-.9 7.2-2.6l10.3-7.1-28.1-35.6-27.7 3.9 32.8 39.2zM79.9 465.6c-.9 0-1.8-.3-2.4-1a3.5 3.5 0 0 1-.1-5 57.6 57.6 0 0 0 15.1-48.7 58.6 58.6 0 0 0-28.9-42.5 3.6 3.6 0 0 1-1.4-4.8c1-1.7 3.1-2.3 4.8-1.4a65.3 65.3 0 0 1 32.4 47.6c3 20.2-3.2 40.1-17 54.6a3 3 0 0 1-2.5 1.2z"/>
  <path d="M55.6 449.2c-.8 0-1.7-.3-2.3-.9a3.5 3.5 0 0 1-.3-5 37.2 37.2 0 0 0 10-29.7 37.5 37.5 0 0 0-18.3-25.7 3.5 3.5 0 0 1-1.1-4.9c1-1.7 3.2-2.2 4.9-1.1A44 44 0 0 1 70 412.5a44.2 44.2 0 0 1-11.7 35.4c-.8.9-1.8 1.3-2.7 1.3z"/>
  <g>
    <path d="M242.1 355.7c-2.3 1-5.8.8-5.8.8 4.5-2 5.6-5.1 5.6-5.1-5.2 1.8-7.1 1-7.1 1a10.5 10.5 0 0 0-19.1 3.8l-.2 1.8c-15.8-4.6-18.2-14.5-18.2-14.5-6.6 7.2 0 14 0 14-2.8-.4-3.9-2.2-3.9-2.2-2.2 8.2 5.8 11.8 5.8 11.8-3.2.2-4.4-.9-4.4-.9 1 7.5 7.8 9 7.8 9-7.7 4.2-15.6 1.3-15.6 1.3l-.1-.1a29.4 29.4 0 0 0 49.3-15.5l.2-.8v-.6c3.9-1.2 5.7-3.8 5.7-3.8z"/>
    <path d="M248.1 421.9c-.8.1-1.6.1-2.3-.1l-82.1-16.2c-2-.4-3.7-1.5-4.8-3.3a8.2 8.2 0 0 1-1.2-5.7l16.2-82.1c.8-4 4.8-6.8 9-6l82.1 16.2c2 .4 3.7 1.6 4.8 3.3s1.5 3.7 1.2 5.7l-16.2 82.1a8 8 0 0 1-6.7 6.1zm-66.8-106.4l-.7.4-16.2 82.1.4.7 82.3 16.2c.2 0 .4-.1.5-.5l16.2-82.1c.1-.2-.2-.6-.4-.7l-82.1-16.1z"/>
  </g>
  <g>
    <path d="M-65.3 323.7c-4 0-7.4-3.1-7.6-7.2l-4.7-83.6c-.2-4.2 3-7.8 7.1-8l83.6-4.7c4.4 0 7.8 3.1 8 7.2l4.7 83.6c.2 4.2-3 7.8-7.1 8l-84 4.7zm78.9-96.4L-70 232c-.3 0-.5.3-.5.6l4.7 83.6c0 .3.3.5.5.5v3.5-3.5l83.6-4.7c.3 0 .5-.3.5-.6l-4.7-83.6c0-.3-.2-.5-.5-.5z"/>
    <path d="M3 250.1l-.5-9.4-8.3.5c-4.7.3-13.3 4.8-12.5 19l.1 2.1-8.1.5.6 9.9 8.1-.5 1.6 28.9 11.5-.6-1.6-28.9 7.5-.4-.6-9.9-7.5.4-.1-1.3c-.5-7.4 2.8-9.9 9.8-10.3z"/>
  </g>
  <g>
    <path d="M173.5 573c-1 0-2.1-.2-3-.6l-76.9-33.2a7.7 7.7 0 0 1-4-10l33.2-76.9a7.8 7.8 0 0 1 10-4l76.9 33.2c1.9.8 3.3 2.3 4.1 4.2.7 1.9.7 4-.1 5.8l-33.2 76.9a7.5 7.5 0 0 1-7 4.6zm-43.4-118.2l-.7.3-33.2 76.8c-.1.3 0 .6.3.7l77.1 33.3c.2 0 .4-.1.5-.3l33.2-76.9c.1-.2 0-.6-.3-.7l-76.9-33.2z"/>
    <path d="M173.5 499.4l-30.4-13.2a9 9 0 0 0-11.9 4.7l-6.9 15.9a9 9 0 0 0 4.7 11.9l30.4 13.2a9 9 0 0 0 11.9-4.7l6.9-15.9a9 9 0 0 0-4.7-11.9zm-31 14.5l6.3-14.6 10.7 13.2-17 1.4z"/>
  </g>
  <path d="M145.3 296.2c-1 0-2.1-.2-3-.6l-76.9-33.2a7.7 7.7 0 0 1-4-10l33.2-76.9a7.8 7.8 0 0 1 10-4l76.9 33.2c1.9.8 3.3 2.3 4.1 4.2.7 1.9.7 4-.1 5.8l-33.2 76.9a7.5 7.5 0 0 1-7 4.6zM101.9 178l-.7.3L68 255.1c-.1.3 0 .6.3.7l77.1 33.3c.2 0 .4-.1.5-.3l33.2-76.9c.1-.2 0-.6-.3-.7L101.9 178z"/>
  <g>
    <path d="M133.4 217l-.7-.2-.5 1.1c0 .3 0 .5.3.6 3.9 2.1 4.9 3.9 3.1 5.5l-22 20c-.7.6-1.3.6-1.3.2l-1.2-30.4c-.1-2.5 1.7-3.1 3-2.7l1 .3c.3.1.5-.1.6-.3l.5-1.1-.6-.4-7.6-2.9c-3.1-1.3-3.9-1.9-5.2-2.4l-.7-.2c-.3.3-.4.9-.5 1.1-.1.3 0 .5.3.6 2.2 1.2 3.4 2 3.5 5.6l1.5 37.8c0 1 .4 1.7 1 2 .6.2 1.3 0 2.1-.7l28-25.4c3.2-2.9 5.3-1.7 7.6-1 .3.1.5 0 .6-.3l.5-1.1-.7-.4c-1.3-.5-2.3-.7-5.4-2-3.2-1.3-5.9-2.7-7.2-3.3z"/>
    <path d="M148.7 223.5l-.7-.2-.5 1.1c0 .3 0 .5.3.6 3.9 2.1 4.9 3.9 3.1 5.5L129 250.4c-.7.6-1.3.6-1.3.2l-1.2-30.4c-.1-2.5 1.7-3.1 3-2.7l1 .3c.3.1.5-.1.6-.3l.5-1.1-.6-.4-7.6-2.9c-3.1-1.3-3.9-1.9-5.2-2.4l-.7-.2c-.3.3-.4.9-.5 1.1-.1.3 0 .5.3.6 2.2 1.2 3.4 2 3.5 5.6l1.5 37.8c0 1 .4 1.7 1 2 .6.2 1.3 0 2.1-.7l28-25.4c3.2-2.9 5.3-1.7 7.6-1 .3.1.5 0 .6-.3l.5-1.1-.7-.4c-1.3-.5-2.3-.7-5.4-2-3.3-1.3-6-2.7-7.3-3.2z"/>
  </g>
</svg>