<svg xmlns="http://www.w3.org/2000/svg" viewBox="0 0 58 58" fill="#99A3AF">
<g>
	<path class="st0" d="M56.2,0.8c-0.7,0-1.1,0.4-1.1,1.1v9.8H2.8V1.8c0-0.7-0.4-1.1-1.1-1.1S0.6,1.2,0.6,1.8v12h56.6v-12
		C57.2,1.2,56.8,0.8,56.2,0.8z"/>
	<path class="st0" d="M0.6,56.3c0,0.7,0.4,1.1,1.1,1.1s1.1-0.4,1.1-1.1V53h52.3v3.3c0,0.7,0.4,1.1,1.1,1.1c0.7,0,1.1-0.4,1.1-1.1
		v-5.4H0.6V56.3z"/>
	<polygon class="st0" points="8,39.1 6.3,40.8 12.6,46.9 18.9,40.8 17.2,39.1 13.7,42.8 13.7,21.9 17.2,25.6 18.9,23.8 12.6,17.7 
		6.3,23.8 8,25.6 11.5,21.9 11.5,42.8 	"/>
	<polygon class="st0" points="40.7,39.1 39,40.8 45.3,46.9 51.6,40.8 49.8,39.1 46.4,42.8 46.4,21.9 49.8,25.6 51.6,23.8 45.3,17.7 
		39,23.8 40.7,25.6 44.2,21.9 44.2,42.8 	"/>
</g>
</svg>
