<svg xmlns="http://www.w3.org/2000/svg" viewBox="0 0 512 511.99">
  <path d="M123.86 71.64h-18.2c2.74-20.26 13.94-21.28 19.1-21.75a10 10 0 0 0 9.09-10V10a10 10 0 0 0-10.56-10C91.68 1.8 54 17.76 54 83.7v52a15.77 15.77 0 0 0 15.75 15.75h54.1a15.77 15.77 0 0 0 15.75-15.76v-48.3a15.77 15.77 0 0 0-15.74-15.75zm-4.25 59.85H74V83.7c0-46 20.46-58.86 39.85-62.49v10.51C100.46 35.8 85 47.84 85 81.64a10 10 0 0 0 10 10h24.56zM226.09 71.64h-18.2c2.74-20.26 13.94-21.28 19.1-21.75a10 10 0 0 0 9.09-10V10a10 10 0 0 0-10.56-10c-31.61 1.8-69.29 17.76-69.29 83.7v52A15.77 15.77 0 0 0 172 151.49h54.1a15.77 15.77 0 0 0 15.75-15.76V87.39a15.77 15.77 0 0 0-15.76-15.75zm-4.25 59.85h-45.61V83.7c0-46 20.46-58.86 39.85-62.49v10.51c-13.39 4.08-28.8 16.11-28.8 49.92a10 10 0 0 0 10 10h24.56v39.85zM285.07 80.79a10 10 0 1 0 2.93 7.07 10.08 10.08 0 0 0-2.93-7.07z" fill="#99a3af"/>
  <path d="M334.27 77.86h-12.6a10 10 0 0 0 0 20h12.6c87 0 157.73 70.76 157.73 157.73 0 74.23-52.65 139.15-125.19 154.37a10 10 0 0 0-7.95 9.79v58.1l-61.59-61.59a10 10 0 0 0-7.07-2.93H177.73C90.76 413.33 20 342.57 20 255.6A157.8 157.8 0 0 1 39.79 179a10.0004 10.0004 0 1 0-17.48-9.72A177.84 177.84 0 0 0 0 255.6c0 98 79.73 177.73 177.73 177.73h108.33l75.74 75.74a10 10 0 0 0 17.07-7.07v-74.33A177.8 177.8 0 0 0 512 255.6c0-98-79.73-177.74-177.73-177.74z" fill="#99a3af"/>
  <path d="M379.06 177.49H132.94a10 10 0 1 0 0 20h246.12a10 10 0 1 0 0-20zM379.06 230.82H132.94a10 10 0 1 0 0 20h246.12a10 10 0 1 0 0-20zM379.06 284.16H132.94a10 10 0 1 0 0 20h246.12a10 10 0 1 0 0-20zM379.06 337.49H247.87a10 10 0 1 0 0 20h131.19a10 10 0 0 0 0-20zM191.61 337.49h-.16a10 10 0 0 0 0 20h.16a10 10 0 0 0 0-20z" fill="#99a3af"/>
  <circle cx="268" cy="478" r="18" fill="none" stroke="#99a3af" stroke-miterlimit="10" stroke-width="7"/>
  <circle cx="220" cy="478" r="18" fill="none" stroke="#99a3af" stroke-miterlimit="10" stroke-width="7"/>
  <circle cx="220" cy="478" r="10" fill="#99a3af"/>
  <circle cx="173" cy="478" r="18" fill="none" stroke="#99a3af" stroke-miterlimit="10" stroke-width="7"/>
</svg>
