<svg xmlns="http://www.w3.org/2000/svg" viewBox="0 0 218.207 218.207">
  <g fill="#99a3af">
    <path d="M214.31 27.276H3.897C1.743 27.276 0 29.019 0 31.172v155.862c0 2.154 1.743 3.897 3.897 3.897H214.31c2.154 0 3.897-1.743 3.897-3.897V31.172c0-2.153-1.743-3.896-3.897-3.896zM7.793 62.345h35.069v70.138H7.793V62.345zm202.621 70.138h-11.69V62.345h11.69v70.138zm0-77.931h-15.586c-2.154 0-3.897 1.743-3.897 3.897v77.931c0 2.154 1.743 3.897 3.897 3.897h15.586v42.862H7.793v-42.863h38.966c2.154 0 3.897-1.743 3.897-3.897V58.448c0-2.154-1.743-3.897-3.897-3.897H7.793V35.069h202.621v19.483z"/>
    <circle cx="113" cy="163.655" r="7.793"/>
    <path d="M66.241 140.277h109.103c2.154 0 3.897-1.743 3.897-3.897V58.448c0-2.153-1.743-3.896-3.896-3.896H66.241c-2.154 0-3.897 1.743-3.897 3.897v77.931c0 2.154 1.743 3.897 3.897 3.897zm3.897-77.932h101.31v70.138H70.138V62.345zM66.241 159.759h11.69v7.793h-11.69zM85.724 159.759h11.69v7.793h-11.69zM128.586 159.759h11.69v7.793h-11.69zM148.069 159.759h11.69v7.793h-11.69z"/>
  </g>
</svg>
