<svg xmlns="http://www.w3.org/2000/svg" viewBox="0 0 64 64">
  <path d="M7 6C5.3 6 4 7.3 4 9v40c0 1.7 1.3 3 3 3h50c1.7 0 3-1.3 3-3V9c0-1.7-1.3-3-3-3H7zm0 2h50c.6 0 1 .4 1 1v40c0 .6-.4 1-1 1H7c-.6 0-1-.4-1-1V9c0-.6.4-1 1-1zm19 6c-1.1 0-2 .9-2 2v2c0 1.1.9 2 2 2h22c1.1 0 2-.9 2-2v-2c0-1.1-.9-2-2-2H26zm-13 2c-.6 0-1 .4-1 1s.4 1 1 1h6c.6 0 1-.4 1-1s-.4-1-1-1h-6zm13 0h22v2H26v-2zm0 8c-1.1 0-2 .9-2 2v6c0 1.1.9 2 2 2h22c1.1 0 2-.9 2-2v-6c0-1.1-.9-2-2-2H26zm-13 2c-.6 0-1 .4-1 1s.4 1 1 1h6c.6 0 1-.4 1-1s-.4-1-1-1h-6zm13 0h22v6H26v-6zm0 12c-1.7 0-3 1.3-3 3s1.3 3 3 3 3-1.3 3-3-1.3-3-3-3zm6 0c-.6 0-1 .4-1 1s.4 1 1 1h17c.6 0 1-.4 1-1s-.4-1-1-1H32zm-6 2c.6 0 1 .4 1 1s-.4 1-1 1-1-.4-1-1 .4-1 1-1zm6 2c-.6 0-1 .4-1 1s.4 1 1 1h13c.6 0 1-.4 1-1s-.4-1-1-1H32z" fill="#99a3af"/>
</svg>
