<?xml version="1.0"?>
<svg xmlns="http://www.w3.org/2000/svg" id="icons" enable-background="new 0 0 64 64" height="512px" viewBox="0 0 64 64" width="512px" class=""><g><path d="m61 3.998h-58c-1.654 0-3 1.346-3 3v52.004c0 .553.447 1 1 1h62c.553 0 1-.447 1-1v-52.004c0-1.654-1.346-3-3-3zm-59 6h60v48.004h-60zm1-4h1.02c-.552 0-.994.448-.994 1s.452 1 1.005 1c.552 0 1-.448 1-1s-.448-1-1-1h2.988c-.552 0-.994.448-.994 1s.452 1 1.005 1c.552 0 1-.448 1-1s-.448-1-1-1h2.992c-.552 0-.994.448-.994 1s.452 1 1.005 1c.552 0 1-.448 1-1s-.448-1-1-1h50.967c.552 0 1 .449 1 1v1h-51.968-3.003-2.999-2.03v-1c0-.551.448-1 1-1z" data-original="#000000" class="active-path" data-old_color="#000000" fill="#99A3AF"/><path d="m21.001 26.002h-16c-.553 0-1 .448-1 1v23c0 .553.447 1 1 1h16c.553 0 1-.447 1-1v-23c0-.552-.447-1-1-1zm-1 23h-14v-21h14z" data-original="#000000" class="active-path" data-old_color="#000000" fill="#99A3AF"/><path d="m58.999 26.002h-16c-.553 0-1 .448-1 1v23c0 .553.447 1 1 1h16c.553 0 1-.447 1-1v-23c0-.552-.447-1-1-1zm-1 23h-14v-21h14z" data-original="#000000" class="active-path" data-old_color="#000000" fill="#99A3AF"/><path d="m39.999 20.999h-16c-.553 0-1 .448-1 1v33.008c0 .553.447 1 1 1h16c.553 0 1-.447 1-1v-33.008c0-.552-.447-1-1-1zm-1 33.008h-14v-31.008h14z" data-original="#000000" class="active-path" data-old_color="#000000" fill="#99A3AF"/><path d="m13.002 15.002h38c.553 0 1-.448 1-1s-.447-1-1-1h-38c-.553 0-1 .448-1 1s.447 1 1 1z" data-original="#000000" class="active-path" data-old_color="#000000" fill="#99A3AF"/><path d="m20.002 16.001c-.553 0-1 .448-1 1s.447 1 1 1h24c.553 0 1-.448 1-1s-.447-1-1-1z" data-original="#000000" class="active-path" data-old_color="#000000" fill="#99A3AF"/><path d="m8.999 31.998h4c.553 0 1-.448 1-1s-.447-1-1-1h-4c-.553 0-1 .448-1 1s.447 1 1 1z" data-original="#000000" class="active-path" data-old_color="#000000" fill="#99A3AF"/><path d="m15 31.998c0 .552.447 1 1 1h1 .001c.118 0 .235-.027.351-.071.02-.007.038-.012.057-.02.013-.006.026-.008.039-.014.045-.022.074-.061.114-.089.059-.042.119-.079.168-.131.044-.048.073-.104.106-.159.034-.054.07-.104.094-.165.025-.068.031-.139.042-.211.007-.048.028-.091.028-.14 0-.011-.006-.02-.006-.03-.002-.066-.024-.13-.04-.196-.016-.065-.023-.131-.052-.19-.004-.01-.003-.021-.008-.03l-.363-.727c.276-.179.469-.474.469-.827 0-.552-.447-1-1-1h-1c-.011 0-.02.006-.029.006-.068.002-.133.024-.2.041-.064.015-.129.024-.188.051-.01.004-.021.003-.03.008-.045.022-.074.061-.114.089-.06.041-.119.078-.168.131-.044.048-.073.104-.107.159-.033.054-.069.104-.092.164-.026.068-.032.139-.043.212-.008.047-.029.09-.029.139 0 .011.006.02.006.03.002.066.024.13.04.197.016.065.023.131.052.19.004.01.003.021.008.03l.363.727c-.276.178-.469.474-.469.826z" data-original="#000000" class="active-path" data-old_color="#000000" fill="#99A3AF"/><path d="m9.031 37.997h-.01c-.552 0-.994.447-.994 1s.452 1 1.005 1c.552 0 1-.447 1-1s-.449-1-1.001-1z" data-original="#000000" class="active-path" data-old_color="#000000" fill="#99A3AF"/><path d="m16.995 37.997h-4.994c-.553 0-1 .447-1 1s.447 1 1 1h4.994c.553 0 1-.447 1-1s-.447-1-1-1z" data-original="#000000" class="active-path" data-old_color="#000000" fill="#99A3AF"/><path d="m9.031 34.996h-.01c-.552 0-.994.447-.994 1s.452 1 1.005 1c.552 0 1-.447 1-1s-.449-1-1.001-1z" data-original="#000000" class="active-path" data-old_color="#000000" fill="#99A3AF"/><path d="m16.995 34.996h-4.994c-.553 0-1 .447-1 1s.447 1 1 1h4.994c.553 0 1-.447 1-1s-.447-1-1-1z" data-original="#000000" class="active-path" data-old_color="#000000" fill="#99A3AF"/><path d="m10.499 46.998h5.002c1.379 0 2.5-1.121 2.5-2.5s-1.121-2.5-2.5-2.5h-5.002c-1.379 0-2.5 1.121-2.5 2.5s1.121 2.5 2.5 2.5zm5.002-3c.275 0 .5.225.5.5s-.225.5-.5.5h-5.002c-.275 0-.5-.225-.5-.5s.225-.5.5-.5z" data-original="#000000" class="active-path" data-old_color="#000000" fill="#99A3AF"/><path d="m46.998 31.998h4c.553 0 1-.448 1-1s-.447-1-1-1h-4c-.553 0-1 .448-1 1s.447 1 1 1z" data-original="#000000" class="active-path" data-old_color="#000000" fill="#99A3AF"/><path d="m52.999 31.998c0 .552.447 1 1 1h1 .001c.118 0 .235-.027.351-.071.02-.007.038-.012.057-.02.013-.006.026-.008.039-.014.045-.022.074-.061.114-.089.059-.042.119-.079.168-.131.044-.048.073-.104.106-.159.034-.054.07-.104.093-.165.026-.068.033-.139.043-.211.007-.048.028-.09.028-.14 0-.011-.006-.02-.006-.03-.002-.066-.024-.13-.04-.196-.016-.065-.023-.131-.052-.19-.004-.01-.003-.021-.008-.03l-.363-.727c.275-.178.469-.473.469-.826 0-.552-.447-1-1-1h-1c-.011 0-.02.006-.029.006-.067.002-.133.024-.199.041-.064.015-.13.024-.188.051-.01.004-.021.003-.03.008-.045.022-.074.061-.114.089-.059.041-.119.078-.168.131-.044.048-.073.104-.107.159-.033.054-.069.104-.092.164-.026.068-.033.139-.043.212-.007.047-.028.09-.028.139 0 .011.006.02.006.03.002.066.024.13.04.197.016.065.023.131.052.19.004.01.003.021.008.03l.363.727c-.278.177-.471.473-.471.825z" data-original="#000000" class="active-path" data-old_color="#000000" fill="#99A3AF"/><path d="m47.03 37.997h-.01c-.552 0-.994.447-.994 1s.452 1 1.005 1c.552 0 1-.447 1-1s-.449-1-1.001-1z" data-original="#000000" class="active-path" data-old_color="#000000" fill="#99A3AF"/><path d="m54.994 37.997h-4.994c-.553 0-1 .447-1 1s.447 1 1 1h4.994c.553 0 1-.447 1-1s-.447-1-1-1z" data-original="#000000" class="active-path" data-old_color="#000000" fill="#99A3AF"/><path d="m47.03 34.996h-.01c-.552 0-.994.447-.994 1s.452 1 1.005 1c.552 0 1-.447 1-1s-.449-1-1.001-1z" data-original="#000000" class="active-path" data-old_color="#000000" fill="#99A3AF"/><path d="m54.994 34.996h-4.994c-.553 0-1 .447-1 1s.447 1 1 1h4.994c.553 0 1-.447 1-1s-.447-1-1-1z" data-original="#000000" class="active-path" data-old_color="#000000" fill="#99A3AF"/><path d="m48.498 46.998h5.002c1.379 0 2.5-1.121 2.5-2.5s-1.121-2.5-2.5-2.5h-5.002c-1.379 0-2.5 1.121-2.5 2.5s1.121 2.5 2.5 2.5zm5.002-3c.275 0 .5.225.5.5s-.225.5-.5.5h-5.002c-.275 0-.5-.225-.5-.5s.225-.5.5-.5z" data-original="#000000" class="active-path" data-old_color="#000000" fill="#99A3AF"/><path d="m27.998 26.996h4c.553 0 1-.448 1-1s-.447-1-1-1h-4c-.553 0-1 .448-1 1s.447 1 1 1z" data-original="#000000" class="active-path" data-old_color="#000000" fill="#99A3AF"/><path d="m33.999 26.996c0 .552.447 1 1 1h1 .001c.118 0 .235-.027.351-.071.02-.007.038-.012.057-.02.013-.006.026-.008.039-.014.045-.022.074-.061.114-.089.059-.042.119-.079.168-.131.044-.048.073-.104.106-.159.034-.054.07-.104.093-.165.026-.068.033-.139.043-.211.007-.048.028-.09.028-.14 0-.011-.006-.02-.006-.03-.002-.066-.024-.13-.04-.196-.016-.065-.023-.131-.052-.19-.004-.01-.003-.021-.008-.03l-.363-.727c.275-.178.469-.473.469-.826 0-.552-.447-1-1-1h-1c-.011 0-.02.006-.03.006-.066.001-.13.024-.195.039-.065.016-.132.024-.191.052-.01.005-.021.003-.03.008-.045.022-.074.061-.114.089-.059.041-.119.078-.168.131-.044.048-.073.104-.107.159-.033.054-.069.104-.092.164-.026.068-.033.139-.043.212-.007.047-.028.09-.028.139 0 .011.006.02.006.03.002.066.024.13.04.197.016.065.023.131.052.19.004.01.003.021.008.03l.363.727c-.278.178-.471.474-.471.826z" data-original="#000000" class="active-path" data-old_color="#000000" fill="#99A3AF"/><path d="m28.03 32.992h-.01c-.552 0-.994.447-.994 1s.452 1 1.005 1c.552 0 1-.447 1-1s-.449-1-1.001-1z" data-original="#000000" class="active-path" data-old_color="#000000" fill="#99A3AF"/><path d="m35.994 32.992h-4.994c-.553 0-1 .447-1 1s.447 1 1 1h4.994c.553 0 1-.447 1-1s-.447-1-1-1z" data-original="#000000" class="active-path" data-old_color="#000000" fill="#99A3AF"/><path d="m28.03 35.992h-.01c-.552 0-.994.447-.994 1s.452 1 1.005 1c.552 0 1-.447 1-1s-.449-1-1.001-1z" data-original="#000000" class="active-path" data-old_color="#000000" fill="#99A3AF"/><path d="m35.994 35.992h-4.994c-.553 0-1 .447-1 1s.447 1 1 1h4.994c.553 0 1-.447 1-1s-.447-1-1-1z" data-original="#000000" class="active-path" data-old_color="#000000" fill="#99A3AF"/><path d="m28.03 38.992h-.01c-.552 0-.994.447-.994 1s.452 1 1.005 1c.552 0 1-.447 1-1s-.449-1-1.001-1z" data-original="#000000" class="active-path" data-old_color="#000000" fill="#99A3AF"/><path d="m35.994 38.992h-4.994c-.553 0-1 .447-1 1s.447 1 1 1h4.994c.553 0 1-.447 1-1s-.447-1-1-1z" data-original="#000000" class="active-path" data-old_color="#000000" fill="#99A3AF"/><path d="m28.03 41.992h-.01c-.552 0-.994.447-.994 1s.452 1 1.005 1c.552 0 1-.447 1-1s-.449-1-1.001-1z" data-original="#000000" class="active-path" data-old_color="#000000" fill="#99A3AF"/><path d="m35.994 41.992h-4.994c-.553 0-1 .447-1 1s.447 1 1 1h4.994c.553 0 1-.447 1-1s-.447-1-1-1z" data-original="#000000" class="active-path" data-old_color="#000000" fill="#99A3AF"/><path d="m28.03 29.992h-.01c-.552 0-.994.448-.994 1s.452 1 1.005 1c.552 0 1-.448 1-1s-.449-1-1.001-1z" data-original="#000000" class="active-path" data-old_color="#000000" fill="#99A3AF"/><path d="m35.994 29.992h-4.994c-.553 0-1 .448-1 1s.447 1 1 1h4.994c.553 0 1-.448 1-1s-.447-1-1-1z" data-original="#000000" class="active-path" data-old_color="#000000" fill="#99A3AF"/><path d="m29.498 52.003h5.002c1.379 0 2.5-1.121 2.5-2.5s-1.121-2.5-2.5-2.5h-5.002c-1.379 0-2.5 1.121-2.5 2.5s1.121 2.5 2.5 2.5zm5.002-3c.275 0 .5.225.5.5s-.225.5-.5.5h-5.002c-.275 0-.5-.225-.5-.5s.225-.5.5-.5z" data-original="#000000" class="active-path" data-old_color="#000000" fill="#99A3AF"/></g> </svg>
