<svg xmlns="http://www.w3.org/2000/svg" viewBox="0 0 30 30" fill="#99a3af">
<path d="M24,10H6c-2.3,0-4.1,1.9-4.1,4.1v0.4c0,2.3,1.9,4.1,4.1,4.1h13.4l0.6,1.6c0.1,0.2,0.2,0.4,0.5,0.4h0.3
	c0.3,0,0.5-0.1,0.6-0.4l0.4-1l1,1.1c0.1,0.1,0.3,0.1,0.4,0.1s0.3,0,0.4-0.1c0.1-0.1,0.2-0.3,0.2-0.4c0-0.1-0.1-0.3-0.2-0.4l-0.8-0.9
	H24c2.3,0,4.1-1.9,4.1-4.1v-0.4C28.1,11.8,26.3,10,24,10z M22.2,17.4l-0.7,0.2c-0.2,0-0.3,0.1-0.4,0.4l-0.3,0.8l-1-2.5L22.2,17.4z
	 M24.2,17.5v-0.2c0-0.3-0.1-0.5-0.4-0.6L19,14.4c-0.1-0.1-0.2-0.1-0.3-0.1c-0.2,0-0.3,0.1-0.4,0.2c-0.1,0.1-0.3,0.5-0.1,0.7l0.8,2.2
	H6c-1.6,0-2.9-1.3-2.9-2.9v-0.4c0-1.6,1.2-2.9,2.9-2.9h18c1.6,0,2.9,1.3,2.9,2.9v0.5C26.9,16.1,25.7,17.4,24.2,17.5z"/>
</svg>
