<?xml version="1.0" standalone="no"?>
<!DOCTYPE svg PUBLIC "-//W3C//DTD SVG 20010904//EN"
 "http://www.w3.org/TR/2001/REC-SVG-20010904/DTD/svg10.dtd">
<svg version="1.0" xmlns="http://www.w3.org/2000/svg"
 viewBox="0 0 512.000000 512.000000"
 preserveAspectRatio="xMidYMid meet">

<g transform="translate(0.000000,512.000000) scale(0.100000,-0.100000)"
fill="currentcolor" stroke="none">
<path d="M3375 4758 c-148 -198 -274 -369 -279 -379 -7 -15 43 -87 269 -389
l277 -370 377 0 376 0 279 371 c219 293 276 375 269 389 -4 10 -129 180 -278
378 l-270 361 -375 0 -375 0 -270 -361z m1038 -164 l168 -225 -168 -225 -168
-224 -226 0 -227 0 -162 217 c-90 119 -163 222 -164 228 -1 6 73 110 164 232
l165 222 225 0 225 0 168 -225z"/>
<path d="M595 4374 c-231 -404 -421 -739 -423 -744 -2 -6 314 -10 851 -10
l856 0 -425 742 c-233 409 -427 744 -431 745 -5 2 -197 -328 -428 -733z m595
-154 c89 -157 164 -288 167 -292 2 -5 -149 -8 -336 -8 l-340 0 156 273 c170
298 183 320 188 315 1 -1 76 -131 165 -288z"/>
<path d="M2070 4370 l0 -150 150 0 150 0 0 150 0 150 -150 0 -150 0 0 -150z"/>
<path d="M2670 4370 l0 -150 150 0 150 0 0 150 0 150 -150 0 -150 0 0 -150z"/>
<path d="M870 3160 l0 -150 150 0 150 0 0 150 0 150 -150 0 -150 0 0 -150z"/>
<path d="M3870 3160 l0 -150 150 0 150 0 0 150 0 150 -150 0 -150 0 0 -150z"/>
<path d="M870 2560 l0 -150 150 0 150 0 0 150 0 150 -150 0 -150 0 0 -150z"/>
<path d="M3870 2560 l0 -150 150 0 150 0 0 150 0 150 -150 0 -150 0 0 -150z"/>
<path d="M870 1960 l0 -150 150 0 150 0 0 150 0 150 -150 0 -150 0 0 -150z"/>
<path d="M3870 1960 l0 -150 150 0 150 0 0 150 0 150 -150 0 -150 0 0 -150z"/>
<path d="M270 750 l0 -750 750 0 750 0 0 750 0 750 -750 0 -750 0 0 -750z
m1200 0 l0 -450 -450 0 -450 0 0 450 0 450 450 0 450 0 0 -450z"/>
<path d="M3894 1490 c-282 -51 -525 -274 -599 -549 -9 -31 -18 -99 -22 -151
-30 -470 398 -855 866 -779 153 24 282 90 399 203 91 88 151 183 193 306 31
89 33 104 33 230 0 125 -2 142 -31 225 -41 120 -90 202 -176 291 -135 143
-310 222 -506 229 -58 2 -129 0 -157 -5z m229 -305 c181 -47 308 -186 340
-370 31 -179 -67 -372 -232 -459 -180 -94 -384 -64 -527 79 -139 138 -172 342
-83 517 93 185 306 284 502 233z"/>
<path d="M2070 750 l0 -150 150 0 150 0 0 150 0 150 -150 0 -150 0 0 -150z"/>
<path d="M2670 750 l0 -150 150 0 150 0 0 150 0 150 -150 0 -150 0 0 -150z"/>
</g>
</svg>
