<?xml version="1.0" standalone="no"?>
<!DOCTYPE svg PUBLIC "-//W3C//DTD SVG 20010904//EN"
 "http://www.w3.org/TR/2001/REC-SVG-20010904/DTD/svg10.dtd">
<svg version="1.0" xmlns="http://www.w3.org/2000/svg"
 viewBox="0 0 512.000000 512.000000"
 preserveAspectRatio="xMidYMid meet">

<g transform="translate(0.000000,512.000000) scale(0.100000,-0.100000)"
fill="currentcolor" stroke="none">
<path d="M2930 5108 c-13 -7 -35 -29 -47 -47 -20 -30 -23 -47 -23 -132 l0 -97
-372 -5 c-400 -5 -436 -9 -608 -67 -283 -98 -497 -298 -634 -591 -88 -191
-100 -260 -47 -288 13 -8 281 -11 840 -11 l821 0 0 -90 c0 -142 31 -190 121
-190 46 0 57 7 490 328 406 299 446 331 468 375 46 93 19 135 -182 284 -73 53
-208 154 -302 223 -399 295 -423 312 -462 316 -21 3 -49 -1 -63 -8z m493 -471
c207 -153 377 -282 377 -285 -1 -7 -764 -573 -782 -580 -4 -2 -8 44 -8 101 0
164 100 147 -856 147 -563 0 -804 3 -804 11 0 20 93 195 135 255 116 163 289
286 480 343 150 44 228 51 605 51 368 0 411 4 430 40 6 10 10 64 10 120 0 96
1 100 18 88 10 -7 188 -138 395 -291z"/>
<path d="M692 3939 c-27 -18 -535 -689 -659 -873 -36 -53 -41 -91 -18 -136 23
-45 51 -55 165 -60 l105 -5 6 -370 c6 -386 9 -411 59 -577 84 -279 283 -509
560 -648 95 -48 235 -100 269 -100 20 0 36 8 50 26 20 26 21 37 21 441 l0 414
-25 24 c-13 14 -36 25 -50 25 -14 0 -37 -11 -50 -25 l-25 -24 0 -351 c0 -192
-2 -350 -5 -350 -3 0 -46 20 -95 45 -301 149 -459 347 -537 673 -12 53 -17
153 -22 484 -7 502 6 461 -151 466 -55 2 -100 6 -100 8 0 3 515 704 561 762
l17 23 291 -393 290 -393 -97 -5 c-105 -6 -127 -13 -142 -41 -6 -10 -10 -146
-10 -327 0 -288 1 -311 19 -333 26 -32 86 -32 112 0 18 21 19 44 19 287 l0
264 106 0 106 0 34 34 c28 28 34 42 34 76 0 23 -5 50 -11 61 -16 30 -607 830
-638 862 -55 60 -129 74 -189 36z"/>
<path d="M3895 3935 l-25 -24 0 -419 c0 -395 1 -421 19 -443 23 -28 83 -32
109 -6 15 16 17 53 22 378 l5 360 93 -45 c298 -146 447 -330 534 -661 19 -73
22 -116 27 -498 l6 -419 28 -24 c25 -22 37 -24 123 -24 53 0 94 -4 92 -9 -1
-5 -131 -182 -288 -395 -224 -303 -287 -383 -297 -373 -7 6 -138 183 -292 392
l-281 380 106 5 c155 7 144 -19 144 362 l0 309 -25 24 c-13 14 -36 25 -50 25
-14 0 -37 -11 -50 -25 l-25 -24 0 -261 0 -260 -105 0 c-100 0 -106 -1 -135
-27 -36 -33 -50 -76 -39 -119 10 -36 633 -884 674 -916 42 -33 120 -36 164 -6
30 20 527 678 651 862 43 63 49 99 25 146 -23 45 -51 55 -165 60 l-105 5 -6
370 c-7 387 -9 411 -60 580 -98 326 -342 570 -709 710 -109 42 -133 43 -165
10z"/>
<path d="M2105 1528 c-16 -5 -226 -154 -465 -331 -397 -293 -437 -326 -459
-370 -29 -58 -23 -103 20 -151 31 -36 840 -638 890 -663 37 -18 93 -12 122 14
34 31 47 77 47 172 l0 89 373 5 c331 4 381 6 457 25 420 101 679 335 835 756
32 87 35 102 24 128 -6 16 -20 33 -30 38 -11 6 -332 10 -838 10 l-821 0 0 90
c0 93 -13 143 -43 168 -24 20 -78 30 -112 20z m32 -408 c25 -20 35 -20 829
-20 541 0 804 -3 804 -10 0 -18 -81 -173 -126 -240 -142 -214 -364 -349 -648
-395 -68 -11 -182 -15 -447 -15 -367 0 -410 -4 -429 -40 -6 -10 -10 -64 -10
-120 l0 -101 -77 57 c-473 348 -713 528 -713 533 0 3 87 69 193 147 105 78
282 208 392 289 l200 148 3 -106 c3 -101 4 -107 29 -127z"/>
</g>
</svg>
