<?xml version="1.0" standalone="no"?>
<!DOCTYPE svg PUBLIC "-//W3C//DTD SVG 20010904//EN"
 "http://www.w3.org/TR/2001/REC-SVG-20010904/DTD/svg10.dtd">
<svg version="1.0" xmlns="http://www.w3.org/2000/svg"
 viewBox="0 0 512.000000 512.000000"
 preserveAspectRatio="xMidYMid meet">

<g transform="translate(0.000000,512.000000) scale(0.100000,-0.100000)"
fill="currentcolor" stroke="none">
<path d="M3827 5100 c-64 -50 -340 -561 -402 -741 l-28 -85 -87 33 c-534 200
-1116 203 -1618 7 -548 -213 -993 -641 -1228 -1181 -59 -134 -124 -337 -124
-384 0 -46 48 -89 98 -89 64 0 85 25 117 136 134 475 439 884 863 1159 99 63
317 167 430 204 233 76 452 107 697 98 183 -6 356 -33 525 -82 141 -41 312
-108 321 -126 4 -8 23 -48 43 -90 39 -84 93 -150 156 -194 35 -24 41 -33 36
-54 -3 -15 -14 -69 -26 -123 -46 -221 -83 -547 -100 -883 -6 -121 -13 -262
-16 -312 l-6 -93 -71 -47 c-208 -140 -382 -368 -462 -607 -51 -151 -58 -212
-60 -486 -1 -261 -5 -297 -46 -406 -36 -96 -88 -174 -173 -260 -131 -131 -273
-200 -463 -225 -181 -23 -355 16 -598 135 -608 298 -1020 873 -1110 1549 -8
63 -38 97 -91 104 -36 5 -46 1 -75 -25 -31 -28 -34 -35 -32 -84 3 -87 50 -303
99 -448 185 -555 590 -1017 1119 -1275 243 -119 387 -157 590 -158 290 -1 520
95 716 300 92 96 130 150 180 257 71 153 82 215 84 511 2 295 11 358 74 511
51 124 118 222 226 329 l90 90 7 -230 c24 -798 91 -1359 198 -1637 99 -262
301 -262 400 0 112 294 182 902 197 1705 l6 357 62 0 c320 0 519 236 502 595
-10 208 -82 388 -238 595 -69 92 -215 243 -306 318 l-62 50 30 39 c110 137
136 308 75 488 -54 159 -346 709 -400 754 -29 25 -88 25 -119 1z m117 -379
c81 -144 189 -368 214 -445 40 -120 23 -218 -50 -301 -114 -129 -310 -139
-430 -22 -101 98 -117 206 -54 367 53 135 243 500 261 500 2 0 29 -44 59 -99z
m15 -1153 c41 -194 101 -671 86 -687 -4 -3 -78 -6 -165 -6 -87 0 -161 3 -165
6 -15 16 45 497 86 687 l22 102 57 0 57 0 22 -102z m338 -68 c163 -161 257
-302 314 -470 29 -84 33 -108 33 -205 1 -179 -40 -273 -145 -330 -45 -24 -68
-30 -139 -33 l-86 -4 -12 228 c-15 281 -44 563 -77 760 -14 82 -28 158 -31
168 -6 18 -5 18 23 -2 16 -11 70 -61 120 -112z m-233 -845 c3 -11 9 -177 12
-370 12 -641 -34 -1365 -111 -1752 -28 -138 -71 -283 -85 -283 -14 0 -57 145
-85 283 -78 392 -123 1099 -111 1747 3 195 9 364 12 375 5 19 13 20 184 20
171 0 179 -1 184 -20z"/>
<path d="M2486 3950 c-63 -16 -153 -70 -197 -117 -22 -24 -55 -74 -72 -111
-29 -61 -32 -76 -32 -163 0 -90 2 -99 37 -171 45 -91 103 -147 196 -191 61
-29 76 -32 162 -32 86 0 101 3 162 32 93 44 151 100 196 191 35 72 37 81 37
172 0 91 -2 100 -37 172 -68 136 -188 217 -336 224 -42 2 -94 -1 -116 -6z
m204 -224 c59 -39 85 -89 85 -166 0 -78 -26 -127 -88 -168 -56 -37 -153 -39
-210 -3 -76 47 -111 140 -88 229 14 51 75 117 123 131 53 16 135 6 178 -23z"/>
<path d="M1386 3450 c-63 -16 -153 -70 -197 -117 -22 -24 -55 -74 -72 -111
-29 -61 -32 -76 -32 -163 0 -90 2 -99 37 -171 45 -91 103 -147 196 -191 61
-29 76 -32 162 -32 86 0 101 3 162 32 93 44 151 100 196 191 35 72 37 81 37
172 0 91 -2 100 -37 172 -68 136 -188 217 -336 224 -42 2 -94 -1 -116 -6z
m204 -224 c59 -39 85 -89 85 -166 0 -78 -26 -127 -88 -168 -56 -37 -153 -39
-210 -3 -76 47 -111 140 -88 229 14 51 75 117 123 131 53 16 135 6 178 -23z"/>
<path d="M331 2446 c-87 -48 -50 -186 49 -186 51 0 100 49 100 99 0 75 -83
124 -149 87z"/>
<path d="M1086 2250 c-63 -16 -153 -70 -197 -117 -22 -24 -55 -74 -72 -111
-29 -61 -32 -76 -32 -163 0 -90 2 -99 37 -171 45 -91 103 -147 196 -191 61
-29 76 -32 162 -32 86 0 101 3 162 32 93 44 151 100 196 191 35 72 37 81 37
172 0 91 -2 100 -37 172 -68 136 -188 217 -336 224 -42 2 -94 -1 -116 -6z
m204 -224 c59 -39 85 -89 85 -166 0 -78 -26 -127 -88 -168 -56 -37 -153 -39
-210 -3 -76 47 -111 140 -88 229 14 51 75 117 123 131 53 16 135 6 178 -23z"/>
<path d="M1986 1450 c-63 -16 -153 -70 -197 -117 -22 -24 -55 -74 -72 -111
-29 -61 -32 -76 -32 -163 0 -90 2 -99 37 -171 45 -91 103 -147 196 -191 61
-29 76 -32 162 -32 86 0 101 3 162 32 93 44 151 100 196 191 35 72 37 81 37
172 0 91 -2 100 -37 172 -68 136 -188 217 -336 224 -42 2 -94 -1 -116 -6z
m204 -224 c59 -39 85 -89 85 -166 0 -78 -26 -127 -88 -168 -56 -37 -153 -39
-210 -3 -76 47 -111 140 -88 229 14 51 75 117 123 131 53 16 135 6 178 -23z"/>
</g>
</svg>
