<?xml version="1.0" standalone="no"?>
<!DOCTYPE svg PUBLIC "-//W3C//DTD SVG 20010904//EN"
 "http://www.w3.org/TR/2001/REC-SVG-20010904/DTD/svg10.dtd">
<svg version="1.0" xmlns="http://www.w3.org/2000/svg"
 viewBox="0 0 512.000000 512.000000"
 preserveAspectRatio="xMidYMid meet">

<g transform="translate(0.000000,512.000000) scale(0.100000,-0.100000)"
fill="currentcolor" stroke="none">
<path d="M2206 4905 c-74 -30 -138 -92 -168 -161 -21 -50 -25 -54 -58 -54 -50
-1 -112 -32 -146 -73 l-29 -36 -385 -3 c-433 -3 -419 -1 -484 -81 l-31 -39 -3
-2061 c-2 -2057 -2 -2060 18 -2103 12 -24 38 -54 62 -70 l41 -29 1537 0 1537
0 41 29 c23 16 50 46 62 70 20 42 20 51 20 2090 0 1865 -1 2050 -16 2079 -21
42 -52 75 -89 95 -26 15 -79 17 -415 20 l-385 3 -29 36 c-35 42 -96 72 -147
73 -34 0 -37 3 -54 47 -24 63 -94 135 -158 164 -51 23 -61 24 -357 27 -304 2
-305 2 -364 -23z m657 -129 c60 -25 107 -93 107 -154 0 -14 10 -36 22 -49 19
-20 31 -23 94 -23 102 0 104 -2 104 -156 l0 -124 -630 0 -630 0 0 124 c0 153
2 156 103 156 59 0 75 4 94 22 13 12 23 33 23 49 0 61 46 128 105 155 44 19
562 20 608 0z m-1073 -468 c0 -121 2 -134 22 -155 15 -16 33 -23 60 -23 31 0
38 -3 38 -20 0 -20 -7 -20 -365 -20 -352 0 -366 -1 -385 -20 -20 -20 -20 -33
-20 -1810 0 -1777 0 -1790 20 -1810 20 -20 33 -20 1400 -20 1367 0 1380 0
1400 20 20 20 20 33 20 1810 0 1777 0 1790 -20 1810 -19 19 -33 20 -385 20
-358 0 -365 0 -365 20 0 16 7 20 37 20 24 0 45 8 60 22 22 20 23 28 23 155 l0
133 353 0 c303 0 356 -2 375 -16 l22 -15 0 -2029 c0 -1996 0 -2029 -19 -2040
-27 -14 -2975 -14 -3002 0 -19 11 -19 44 -19 2040 l0 2029 22 15 c19 14 72 16
375 16 l353 0 0 -132z m1280 -288 l0 -110 -510 0 -510 0 0 110 0 110 510 0
510 0 0 -110z m-1160 -137 c0 -55 4 -71 22 -90 l21 -23 606 0 605 0 23 22 c20
18 23 31 23 90 l0 68 315 0 315 0 0 -1690 0 -1690 -1280 0 -1280 0 0 1690 0
1690 315 0 315 0 0 -67z"/>
<path d="M2485 4711 c-154 -71 -150 -280 7 -346 47 -19 89 -19 136 0 160 67
160 283 0 350 -49 20 -94 19 -143 -4z m109 -137 c21 -20 20 -43 -1 -66 -20
-22 -46 -23 -67 -2 -31 30 -9 84 34 84 10 0 26 -7 34 -16z"/>
<path d="M3507 4320 c-19 -16 -27 -30 -27 -54 0 -60 18 -66 188 -66 145 0 152
1 166 22 22 31 20 71 -5 94 -18 16 -40 19 -158 22 -127 3 -138 2 -164 -18z"/>
<path d="M1439 3541 l-24 -19 0 -392 0 -392 24 -19 c22 -18 44 -19 406 -19
362 0 384 1 406 19 l24 19 0 392 0 392 -24 19 c-22 18 -44 19 -406 19 -362 0
-384 -1 -406 -19z m691 -411 l0 -290 -285 0 -285 0 0 290 0 290 285 0 285 0 0
-290z"/>
<path d="M2005 3320 c-11 -4 -38 -27 -60 -50 -22 -23 -66 -64 -97 -92 l-58
-50 -43 36 c-70 57 -137 42 -137 -31 0 -24 14 -44 74 -101 103 -100 108 -99
239 24 155 146 177 171 177 198 0 47 -53 84 -95 66z"/>
<path d="M2852 3417 c-28 -30 -28 -68 1 -95 23 -22 26 -22 435 -22 399 0 413
1 432 20 11 11 20 33 20 50 0 17 -9 39 -20 50 -19 19 -33 20 -433 20 l-414 0
-21 -23z"/>
<path d="M2402 3184 c-16 -11 -22 -25 -22 -54 0 -74 -34 -70 682 -70 625 0
638 0 658 20 11 11 20 33 20 50 0 17 -9 39 -20 50 -20 20 -33 20 -658 20 -561
0 -640 -2 -660 -16z"/>
<path d="M2402 2944 c-16 -11 -22 -25 -22 -54 0 -74 -34 -70 682 -70 625 0
638 0 658 20 11 11 20 33 20 50 0 17 -9 39 -20 50 -20 20 -33 20 -658 20 -561
0 -640 -2 -660 -16z"/>
<path d="M1439 2581 l-24 -19 0 -392 0 -392 24 -19 c22 -18 44 -19 406 -19
362 0 384 1 406 19 l24 19 0 392 0 392 -24 19 c-22 18 -44 19 -406 19 -362 0
-384 -1 -406 -19z m691 -411 l0 -290 -285 0 -285 0 0 290 0 290 285 0 285 0 0
-290z"/>
<path d="M2005 2360 c-11 -4 -38 -27 -60 -50 -22 -23 -66 -64 -97 -92 l-58
-50 -43 36 c-70 57 -137 42 -137 -31 0 -24 14 -44 74 -101 103 -100 108 -99
239 24 155 146 177 171 177 198 0 47 -53 84 -95 66z"/>
<path d="M2852 2457 c-28 -30 -28 -68 1 -95 23 -22 26 -22 435 -22 399 0 413
1 432 20 11 11 20 33 20 50 0 17 -9 39 -20 50 -19 19 -33 20 -433 20 l-414 0
-21 -23z"/>
<path d="M2402 2224 c-16 -11 -22 -25 -22 -54 0 -74 -34 -70 682 -70 625 0
638 0 658 20 11 11 20 33 20 50 0 17 -9 39 -20 50 -20 20 -33 20 -658 20 -561
0 -640 -2 -660 -16z"/>
<path d="M2402 1984 c-16 -11 -22 -25 -22 -54 0 -74 -34 -70 682 -70 625 0
638 0 658 20 11 11 20 33 20 50 0 17 -9 39 -20 50 -20 20 -33 20 -658 20 -561
0 -640 -2 -660 -16z"/>
<path d="M1439 1621 l-24 -19 0 -392 0 -392 24 -19 c22 -18 44 -19 406 -19
362 0 384 1 406 19 l24 19 0 392 0 392 -24 19 c-22 18 -44 19 -406 19 -362 0
-384 -1 -406 -19z m691 -411 l0 -290 -285 0 -285 0 0 290 0 290 285 0 285 0 0
-290z"/>
<path d="M2005 1400 c-11 -4 -38 -27 -60 -50 -22 -23 -66 -64 -97 -92 l-58
-50 -43 36 c-70 57 -137 42 -137 -31 0 -24 14 -44 74 -101 103 -100 108 -99
239 24 155 146 177 171 177 198 0 47 -53 84 -95 66z"/>
<path d="M2852 1497 c-28 -30 -28 -68 1 -95 23 -22 26 -22 435 -22 399 0 413
1 432 20 11 11 20 33 20 50 0 17 -9 39 -20 50 -19 19 -33 20 -433 20 l-414 0
-21 -23z"/>
<path d="M2402 1264 c-16 -11 -22 -25 -22 -54 0 -74 -34 -70 682 -70 625 0
638 0 658 20 11 11 20 33 20 50 0 17 -9 39 -20 50 -20 20 -33 20 -658 20 -561
0 -640 -2 -660 -16z"/>
<path d="M2402 1024 c-16 -11 -22 -25 -22 -54 0 -74 -34 -70 682 -70 625 0
638 0 658 20 11 11 20 33 20 50 0 17 -9 39 -20 50 -20 20 -33 20 -658 20 -561
0 -640 -2 -660 -16z"/>
</g>
</svg>
