<?xml version="1.0" standalone="no"?>
<!DOCTYPE svg PUBLIC "-//W3C//DTD SVG 20010904//EN"
 "http://www.w3.org/TR/2001/REC-SVG-20010904/DTD/svg10.dtd">
<svg version="1.0" xmlns="http://www.w3.org/2000/svg"
 viewBox="0 0 630.000000 630.000000"
 preserveAspectRatio="xMidYMid meet">

<g transform="translate(0.000000,630.000000) scale(0.100000,-0.100000)"
fill="currentcolor" stroke="none">
<path d="M3635 6286 c-85 -27 -153 -83 -193 -160 -21 -42 -27 -68 -30 -147
l-4 -95 -197 -12 c-715 -44 -1331 -304 -1851 -783 l-96 -87 -176 -4 c-161 -3
-179 -5 -205 -24 -38 -28 -45 -100 -12 -130 20 -18 45 -19 708 -24 757 -6 716
-2 758 -67 17 -25 18 -80 18 -828 0 -748 -1 -803 -18 -828 -32 -50 -52 -55
-202 -60 -127 -4 -146 -7 -192 -31 -102 -51 -132 -118 -133 -293 0 -68 -3
-123 -7 -123 -5 0 -136 93 -293 206 -157 113 -301 213 -320 222 -31 14 -92 17
-480 19 -496 4 -475 1 -512 74 -17 31 -18 91 -18 814 0 723 1 783 18 814 33
65 55 74 213 80 134 6 142 7 160 30 29 36 22 98 -13 124 -55 41 -299 32 -389
-13 -53 -27 -104 -80 -137 -143 l-27 -52 0 -840 0 -840 27 -52 c34 -64 84
-115 141 -145 32 -16 65 -23 137 -26 52 -2 100 -8 106 -13 6 -5 14 -61 17
-126 4 -65 18 -184 31 -264 105 -619 381 -1155 821 -1594 460 -459 1004 -732
1659 -832 238 -36 574 -38 806 -5 636 93 1159 343 1628 778 56 53 109 109 118
126 31 60 -13 128 -83 128 -29 0 -48 -14 -151 -113 -163 -156 -320 -276 -504
-385 l-87 -51 -144 177 c-159 196 -257 328 -257 348 0 29 65 34 487 34 458 0
452 -1 534 56 20 14 50 44 67 68 63 87 62 78 62 964 l-1 803 55 83 c74 110
118 210 152 342 25 96 28 126 28 254 -1 124 -5 159 -28 243 -14 54 -44 135
-66 180 -22 44 -40 84 -40 88 0 4 46 9 103 11 80 3 111 9 144 26 l43 22 40
-85 c124 -263 206 -541 246 -840 24 -176 24 -511 1 -689 -56 -416 -191 -791
-412 -1136 -72 -113 -85 -140 -80 -165 8 -43 42 -75 81 -75 52 0 62 8 123 99
240 360 392 759 457 1201 85 583 -7 1172 -267 1708 l-60 124 -2 861 -2 862
-23 45 c-33 63 -96 125 -156 152 l-51 23 -1015 2 c-796 1 -1024 -1 -1055 -11z
m2052 -183 c20 -9 44 -30 54 -47 18 -30 19 -66 19 -834 l0 -802 -34 -38 -34
-37 -454 -5 c-437 -5 -454 -6 -493 -26 -22 -12 -163 -110 -314 -218 -150 -109
-280 -200 -287 -203 -11 -4 -14 19 -14 128 0 151 -11 189 -70 246 -58 56 -90
66 -252 72 l-148 6 -32 33 -33 32 -5 221 -5 221 -28 24 c-39 33 -81 31 -118
-6 l-30 -30 3 -227 c3 -213 4 -231 26 -278 13 -27 45 -71 73 -96 l49 -47 -14
-73 c-32 -163 -93 -270 -209 -367 -203 -169 -492 -176 -734 -18 l-63 40 0 421
0 421 35 65 c61 115 80 261 54 418 -20 125 -87 284 -161 382 -21 27 -38 51
-38 53 0 7 193 65 300 90 151 36 384 66 540 69 l135 2 5 -246 c4 -222 7 -249
24 -267 40 -45 125 -31 146 24 6 15 10 194 10 422 0 370 1 399 19 428 41 67
-19 64 1064 64 894 0 982 -1 1014 -17z m-3387 -698 c56 -68 127 -216 146 -305
8 -40 14 -102 12 -138 l-3 -65 -30 25 c-85 71 -145 80 -558 76 -215 -2 -326 0
-324 7 7 21 158 140 293 231 142 94 387 227 410 222 6 -2 31 -25 54 -53z
m1628 -1261 c21 -14 22 -21 22 -167 0 -139 2 -157 23 -197 30 -61 76 -90 142
-90 60 0 69 5 303 174 88 64 164 116 168 116 14 0 -8 -115 -36 -189 -34 -87
-85 -165 -171 -260 -74 -82 -117 -163 -133 -249 l-12 -67 -555 -5 -554 -5 -52
-24 c-65 -29 -144 -111 -166 -171 -9 -25 -19 -70 -22 -100 l-6 -55 -67 -34
c-84 -44 -204 -162 -249 -246 -38 -72 -103 -269 -103 -311 0 -45 40 -84 85
-84 55 0 79 32 116 151 17 57 45 128 62 158 30 54 133 164 148 159 5 -2 10
-302 12 -668 2 -613 4 -669 20 -712 25 -63 88 -133 151 -166 47 -24 64 -27
199 -32 132 -4 150 -7 163 -24 11 -15 14 -57 14 -174 0 -140 2 -158 22 -193
36 -65 110 -97 177 -79 23 6 123 71 238 154 110 79 211 151 225 160 25 16 25
16 62 -40 21 -31 103 -138 183 -238 80 -99 150 -186 155 -193 13 -16 -53 -49
-207 -102 -564 -198 -1179 -210 -1740 -34 -499 156 -928 438 -1274 838 -131
152 -311 413 -311 451 0 18 161 137 243 180 72 38 147 52 212 40 30 -6 56 -26
124 -95 126 -127 237 -174 421 -175 107 -1 161 14 274 72 80 42 199 153 222
208 21 50 5 97 -40 118 -48 23 -81 8 -146 -66 -97 -110 -224 -167 -347 -154
-114 12 -167 39 -270 138 -111 107 -156 130 -269 136 -133 7 -265 -44 -429
-168 -44 -33 -83 -60 -86 -60 -8 0 -84 181 -121 290 -43 126 -94 340 -113 468
-25 174 -34 316 -21 324 6 4 117 8 246 8 208 0 240 -2 270 -18 19 -10 167
-113 328 -230 182 -131 309 -216 333 -222 72 -20 151 16 183 84 13 27 16 67
16 188 0 201 -10 191 189 198 136 5 150 7 192 32 142 83 171 166 169 482 -1
99 1 180 4 179 4 -1 35 -15 69 -31 110 -52 194 -74 313 -79 152 -8 247 12 383
79 89 44 117 64 190 137 124 124 185 238 222 411 9 47 18 86 18 88 1 1 38 2
84 2 59 0 89 -5 105 -16z m1401 -43 c103 -148 157 -330 148 -496 -9 -156 -54
-305 -128 -425 l-29 -48 -68 37 -67 36 -382 3 -383 3 0 27 c1 43 34 105 89
166 165 182 238 334 261 547 21 192 19 186 43 197 13 7 110 11 248 11 l226 1
42 -59z m-161 -1091 c18 -11 41 -34 52 -52 19 -32 20 -52 20 -818 0 -728 -1
-788 -18 -819 -9 -19 -30 -44 -45 -55 -28 -20 -43 -21 -486 -26 l-458 -5 -54
-36 c-30 -20 -166 -118 -304 -218 -137 -99 -253 -180 -257 -181 -5 0 -8 53 -8
118 0 169 -21 225 -108 287 -43 29 -47 30 -190 36 -174 6 -203 17 -233 84 -19
42 -19 71 -17 827 l3 783 24 34 c45 63 -8 60 1066 61 961 0 981 0 1013 -20z"/>
<path d="M4612 5907 c-19 -21 -22 -34 -22 -119 0 -78 -3 -97 -16 -102 -9 -3
-126 -6 -260 -6 l-245 0 -24 -25 c-17 -16 -25 -35 -25 -60 0 -25 8 -44 25 -60
23 -23 31 -25 133 -25 110 0 132 -7 132 -40 0 -77 133 -353 234 -486 21 -27
-143 -144 -331 -235 -78 -38 -147 -78 -153 -89 -16 -30 -12 -75 11 -104 30
-38 79 -35 186 13 146 65 276 145 378 234 l39 34 83 -67 c131 -106 388 -240
460 -240 64 0 104 72 72 131 -6 12 -67 47 -145 84 -139 66 -256 140 -311 197
l-32 33 48 70 c66 95 135 234 166 336 45 143 28 129 158 129 108 0 115 1 137
25 31 33 31 87 -1 121 l-22 24 -252 0 c-182 0 -254 3 -263 12 -8 8 -12 46 -12
103 0 83 -2 94 -23 113 -33 31 -96 30 -125 -1z m245 -412 c15 -41 -147 -375
-182 -375 -35 0 -196 336 -181 377 4 10 44 13 181 13 149 0 177 -2 182 -15z"/>
<path d="M3568 2671 c-32 -26 -43 -65 -27 -103 21 -50 51 -58 224 -58 177 0
210 -9 245 -65 32 -53 35 -88 10 -140 -37 -76 -66 -85 -270 -85 -191 0 -220
-7 -239 -61 -13 -37 6 -91 37 -108 13 -7 88 -11 192 -11 189 0 219 -7 262 -58
37 -44 43 -92 19 -147 -29 -67 -66 -85 -171 -85 -143 0 -243 32 -329 104 -31
26 -52 36 -77 36 -49 0 -84 -37 -84 -89 0 -35 6 -45 53 -87 101 -92 253 -142
436 -146 120 -2 185 19 254 82 87 79 128 190 108 292 -6 29 -13 63 -17 76 l-6
22 181 0 181 0 0 -197 c0 -219 4 -238 59 -265 25 -12 39 -14 61 -6 56 19 55 6
60 487 l5 446 75 6 c90 6 106 13 125 50 22 42 18 67 -14 100 l-29 29 -247 0
-247 0 -29 -29 c-36 -37 -38 -79 -5 -118 22 -25 31 -28 105 -31 l81 -4 0 -144
0 -144 -181 0 -181 0 6 23 c21 71 26 125 17 174 -21 109 -91 201 -190 247 -41
19 -67 21 -236 24 -180 3 -192 2 -217 -17z"/>
<path d="M1225 4560 c-28 -11 -60 -49 -73 -85 -5 -16 -72 -192 -147 -390 -196
-517 -265 -704 -265 -716 0 -5 7 -23 15 -38 27 -52 102 -63 140 -21 10 11 35
65 56 121 21 57 42 106 47 111 4 4 127 8 272 9 l265 1 18 -37 c10 -21 30 -70
44 -109 14 -39 34 -81 45 -93 63 -69 175 -5 148 84 -8 29 -52 146 -160 428
-34 88 -70 183 -80 210 -10 28 -46 122 -80 210 -34 88 -69 180 -78 205 -22 65
-42 91 -79 106 -36 16 -59 17 -88 4z m99 -437 c27 -71 64 -168 83 -218 18 -49
40 -105 48 -123 9 -18 13 -38 10 -43 -8 -11 -395 -12 -395 -1 0 5 41 116 90
248 50 131 92 245 95 252 10 27 22 7 69 -115z"/>
</g>
</svg>
