<?xml version="1.0" standalone="no"?>
<!DOCTYPE svg PUBLIC "-//W3C//DTD SVG 20010904//EN"
 "http://www.w3.org/TR/2001/REC-SVG-20010904/DTD/svg10.dtd">
<svg version="1.0" xmlns="http://www.w3.org/2000/svg"
 viewBox="0 0 512.000000 512.000000"
 preserveAspectRatio="xMidYMid meet">

<g transform="translate(0.000000,512.000000) scale(0.100000,-0.100000)"
fill="currentcolor" stroke="none">
<path d="M2348 5105 c-260 -36 -513 -141 -723 -300 -149 -113 -168 -143 -124
-199 35 -44 72 -36 159 36 193 158 399 255 646 305 124 24 396 24 514 -1 295
-63 533 -189 735 -391 199 -199 326 -435 387 -718 31 -146 31 -409 0 -552 -42
-197 -115 -368 -221 -523 -34 -49 -61 -99 -61 -111 0 -31 43 -71 78 -71 35 0
63 28 137 143 347 535 322 1243 -63 1766 -71 97 -226 252 -323 323 -330 243
-738 348 -1141 293z"/>
<path d="M1301 4473 c-15 -16 -53 -72 -85 -126 -223 -379 -275 -826 -145
-1251 58 -188 126 -315 279 -521 209 -280 328 -506 424 -804 47 -144 47 -151
-3 -151 -31 0 -44 -6 -60 -26 -19 -24 -21 -40 -21 -155 l0 -129 -40 0 c-78 0
-116 -74 -65 -125 18 -18 35 -25 65 -25 l40 0 0 -80 c0 -77 -1 -80 -24 -80
-41 0 -83 -20 -95 -46 -15 -35 -14 -47 9 -77 16 -20 31 -27 66 -29 l46 -3 18
-58 c35 -112 124 -214 227 -261 34 -15 42 -24 48 -55 21 -117 109 -262 203
-338 293 -234 725 -145 890 185 22 44 46 106 53 136 11 50 15 56 53 73 102 46
191 148 226 260 l18 58 46 3 c35 2 50 9 66 29 23 30 24 42 9 77 -12 26 -54 46
-95 46 -23 0 -24 3 -24 80 l0 80 40 0 c78 0 116 74 65 125 -18 18 -35 25 -65
25 l-40 0 0 129 c0 115 -2 131 -21 155 -11 14 -28 26 -38 26 -28 0 -29 7 -14
73 41 176 145 443 233 599 28 49 50 98 50 110 -1 51 -56 84 -105 63 -24 -10
-44 -39 -102 -151 -107 -206 -170 -378 -234 -634 l-14 -55 -273 -3 -272 -2 0
565 0 565 47 28 c89 52 239 170 309 243 83 88 125 147 165 235 104 228 28 490
-169 582 -51 24 -69 27 -167 27 -101 0 -114 -2 -165 -28 -30 -16 -65 -38 -77
-49 l-23 -21 -22 21 c-13 11 -48 33 -78 48 -77 39 -218 46 -302 15 -143 -54
-229 -177 -245 -348 -10 -111 30 -245 108 -360 76 -112 261 -276 413 -365 l46
-28 0 -565 0 -565 -254 0 -254 0 -12 52 c-23 98 -98 312 -152 433 -92 205
-180 347 -389 630 -342 464 -357 1097 -38 1596 55 85 60 115 26 147 -32 30
-73 28 -106 -5z m1119 -788 c24 -17 52 -48 65 -70 43 -79 108 -79 149 0 12 21
40 53 64 69 37 26 55 31 116 34 85 5 133 -14 183 -72 42 -47 58 -98 58 -187
-1 -70 -4 -84 -44 -164 -56 -114 -179 -240 -334 -343 -59 -40 -112 -72 -117
-72 -5 0 -58 32 -117 72 -155 103 -278 229 -334 343 -40 80 -43 94 -44 164 0
91 21 154 68 198 56 53 84 64 169 61 67 -3 82 -7 118 -33z m860 -2295 l0 -80
-720 0 -720 0 0 80 0 80 720 0 720 0 0 -80z m0 -310 l0 -80 -720 0 -720 0 0
80 0 80 720 0 720 0 0 -80z m-10 -242 c0 -26 -59 -115 -93 -141 -64 -49 -79
-51 -338 -57 -225 -5 -249 -7 -268 -24 -27 -25 -28 -79 -1 -106 19 -19 33 -20
215 -20 225 0 216 5 165 -97 -61 -122 -183 -212 -318 -235 -186 -32 -377 65
-461 233 -49 99 -49 99 72 99 124 0 147 11 147 69 0 68 -18 75 -199 82 -163 5
-189 12 -248 56 -34 26 -93 115 -93 141 0 9 149 12 710 12 561 0 710 -3 710
-12z"/>
</g>
</svg>
