<?xml version="1.0" standalone="no"?>
<!DOCTYPE svg PUBLIC "-//W3C//DTD SVG 1.1//EN" "http://www.w3.org/Graphics/SVG/1.1/DTD/svg11.dtd" >
<svg xmlns="http://www.w3.org/2000/svg">
<metadata>Generated by IcoMoon</metadata>
<defs>
<font id="icomoon" horiz-adv-x="1024">
<font-face units-per-em="1024" ascent="960" descent="-64" />
<missing-glyph horiz-adv-x="1024" />
<glyph unicode="&#x20;" horiz-adv-x="512" d="" />
<glyph unicode="&#xe900;" d="M201 961c-56.619-99.891-113.286-199.891-170-300 114.659-2 229.326-2.666 344-2-55.722 101.090-112.388 201.757-170 302-1.334 0-2.666 0-4 0zM203 837c22.452-37.547 44.452-75.547 66-114-43.984-2.332-87.985-2.666-132-1 22.276 38.225 44.276 76.558 66 115z" />
<glyph unicode="&#xe901;" d="M725 961c-36.396-50.427-73.062-100.761-110-151 36.534-50.544 73.868-100.544 112-150 50.666-1.334 101.334-1.334 152 0 38.132 49.456 75.466 99.456 112 150-36.968 50.63-74.302 100.964-112 151-51.334 0-102.666 0-154 0zM757 899c30.696 0.665 61.362-0.001 92-2 20.616-28.283 41.616-56.283 63-84 0.63-2.816-0.036-5.482-2-8-21-27.667-42-55.334-63-83-29.334-1.334-58.666-1.334-88 0-21 27.666-42 55.333-63 83-1.964 2.518-2.63 5.184-2 8 22.014 28.075 43.014 56.741 63 86z" />
<glyph unicode="&#xe902;" d="M413 841c20.666 0 41.334 0 62 0 0-20.667 0-41.333 0-62-20.666 0-41.334 0-62 0 0 20.667 0 41.333 0 62z" />
<glyph unicode="&#xe903;" d="M533 841c20.666 0 41.334 0 62 0 0-20.667 0-41.333 0-62-20.666 0-41.334 0-62 0 0 20.667 0 41.333 0 62z" />
<glyph unicode="&#xe904;" d="M173 599c20.667 0 41.334 0 62 0 0-20.666 0-41.334 0-62-20.666 0-41.333 0-62 0 0 20.666 0 41.334 0 62z" />
<glyph unicode="&#xe905;" d="M771 599c20.666 0 41.334 0 62 0 0-20.666 0-41.334 0-62-20.012-0.332-40.012 0-60 1-1.972 20.168-2.638 40.502-2 61z" />
<glyph unicode="&#xe906;" d="M173 479c20.667 0 41.334 0 62 0 0-20.666 0-41.334 0-62-20.666 0-41.333 0-62 0 0 20.666 0 41.334 0 62z" />
<glyph unicode="&#xe907;" d="M771 479c20.666 0 41.334 0 62 0 0-20.666 0-41.334 0-62-20.012-0.332-40.012 0-60 1-1.972 20.168-2.638 40.502-2 61z" />
<glyph unicode="&#xe908;" d="M173 359c20.667 0 41.334 0 62 0 0-20.666 0-41.334 0-62-20.666 0-41.333 0-62 0 0 20.666 0 41.334 0 62z" />
<glyph unicode="&#xe909;" d="M771 359c20.666 0 41.334 0 62 0 0-20.666 0-41.334 0-62-20.012-0.332-40.012 0-60 1-1.972 20.168-2.638 40.502-2 61z" />
<glyph unicode="&#xe90a;" d="M355-63c0 100 0 200 0 300-100.666 0-201.333 0-302 0 0-100 0-200 0-300 100.667 0 201.334 0 302 0zM115 175c59.333 0 118.666 0 178 0 0-59.334 0-118.666 0-178-59.334 0-118.667 0-178 0 0 59.334 0 118.666 0 178z" />
<glyph unicode="&#xe90b;" d="M827-63c53.314 10.53 91.648 40.53 115 90 20.25 55.012 13.582 106.346-20 154-55.792 59.824-120.792 72.156-195 37-60.012-39.052-83.678-94.052-71-165 18.16-63.166 59.16-101.834 123-116 16 0 32 0 48 0zM785 175c53.712 4.334 88.712-19 105-70 5.84-54.128-17.16-89.128-69-105-54.128-5.84-89.128 17.16-105 69-5.426 54.178 17.574 89.512 69 106z" />
<glyph unicode="&#xe90c;" d="M413 117c20.666 0 41.334 0 62 0 0.332-20.012 0-40.012-1-60-20.168-1.972-40.502-2.638-61-2 0 20.666 0 41.334 0 62z" />
<glyph unicode="&#xe90d;" d="M533 117c20.666 0 41.334 0 62 0 0.332-20.012 0-40.012-1-60-20.168-1.972-40.502-2.638-61-2 0 20.666 0 41.334 0 62z" />
<glyph unicode="&#xe90e;" d="M585 961c-5.278-3.618-9.612-8.285-13-14-1-13.984-1.332-27.984-1-42-48.054 0.784-96.054-0.216-144-3-104.374-15.034-169.708-73.701-196-176-0.398-6.548 2.268-11.214 8-14 110.664-1 221.332-1.334 332-1-0.332-14.016 0-28.016 1-42 6.182-13.256 16.514-18.256 31-15 58.666 42.666 117.334 85.334 176 128 16.95 19.192 15.618 37.192-4 54-56.802 41.709-113.468 83.376-170 125-6.666 0-13.334 0-20 0zM603 921c51.908-37.243 103.24-75.243 154-114-50.822-38.244-101.822-76.244-153-114-0.666 12-1.334 24-2 36-0.692 4.696-3.026 8.362-7 11-108.666 0.666-217.334 1.334-326 2 28.36 73.677 81.694 116.343 160 128 54.616 2.502 109.282 3.835 164 4 4.63 2.219 7.63 5.885 9 11 0.998 11.982 1.332 23.982 1 36z" />
<glyph unicode="&#xe90f;" d="M-1 523c0 7.334 0 14.666 0 22 44.17 59.864 88.837 119.532 134 179 19.415 10.732 35.749 7.066 49-11 40.666-55.334 81.334-110.666 122-166 6.71-17.222 1.71-29.556-15-37-13.316-1-26.65-1.332-40-1 0.334-35.34 0-70.672-1-106-5.026-7.424-12.026-9.756-21-7-5.188 2.678-8.188 7.012-9 13-0.334 19.334-0.666 38.666-1 58-0.24 22.11 0.76 44.11 3 66 1 3.666 3.334 6 7 7 13.334 0.666 26.666 1.334 40 2-38.090 51.844-76.423 103.512-115 155-37.602-52.202-75.935-103.868-115-155 13.333-0.666 26.667-1.334 40-2 4.333-1.666 7.333-4.666 9-9 0.667-48 1.333-96 2-144 5.961-85.984 48.628-145.318 128-178 0.666 44.666 1.334 89.334 2 134 1.334 9.334 6.666 14.666 16 16 5.662-0.916 10.328-3.584 14-8 1.334-58 1.334-116 0-174-3.486-4.742-8.154-7.41-14-8-100.908 27.568-159.575 92.9-176 196-2.784 47.946-3.784 95.946-3 144-12.684-0.332-25.351 0-38 1-8.049 1.746-14.049 6.078-18 13z" />
<glyph unicode="&#xe910;" d="M1023 377c0-7.334 0-14.666 0-22-44.17-59.864-88.836-119.532-134-179-19.538-11.276-35.872-7.61-49 11-40.666 55.334-81.334 110.666-122 166-7.004 18.366-1.338 30.698 17 37 12.65 1 25.316 1.332 38 1-0.334 35.34 0 70.672 1 106 9.334 10.666 18.666 10.666 28 0 2.24-21.556 3.24-43.222 3-65 0.24-21.778-0.76-43.444-3-65-1-3.666-3.334-6-7-7-13.334-0.666-26.666-1.334-40-2 38.090-51.844 76.422-103.512 115-155 38.334 51.666 76.666 103.334 115 155-14 0.666-28 1.334-42 2-3.098 2.428-5.43 5.428-7 9-0.666 48-1.334 96-2 144-5.964 85.994-48.63 145.326-128 178-0.666-44.666-1.334-89.334-2-134-3.76-16.202-13.094-20.202-28-12-3.3 59.162-3.968 118.494-2 178 3.558 4.528 8.226 7.194 14 8 100.984-27.636 159.65-92.97 176-196 2.784-47.946 3.784-95.946 3-144 14.812 0.696 29.478-0.304 44-3 5.046-2.72 9.046-6.386 12-11z" />
<glyph unicode="&#xe911;" d="M437-63c5.278 3.618 9.612 8.284 13 14 1 13.984 1.332 27.984 1 42 48.054-0.784 96.054 0.216 144 3 104.374 15.034 169.708 73.7 196 176 0.398 6.548-2.268 11.214-8 14-110.664 1-221.332 1.334-332 1 0.332 14.016 0 28.016-1 42-6.182 13.256-16.514 18.256-31 15-59.376-41.688-118.042-84.354-176-128-16.95-19.192-15.618-37.192 4-54 56.802-41.708 113.468-83.376 170-125 6.666 0 13.334 0 20 0zM417 205c1.656-11.638 2.656-23.638 3-36 0.692-4.696 3.026-8.362 7-11 108.666-0.666 217.334-1.334 326-2-28.36-73.676-81.694-116.344-160-128-54.616-2.502-109.282-3.836-164-4-4.63-2.218-7.63-5.886-9-11-0.666-12-1.334-24-2-36-51.33 37.678-102.33 75.678-153 114 50.802 38.042 101.47 76.042 152 114z" />
<glyph unicode="&#xe912;" d="M767 961c6 0 12 0 18 0 5.894-5.039 10.894-11.039 15-18 22.066-36.124 42.066-73.458 60-112 9.096-19.716 14.762-40.382 17-62-1.16-26.174-10.494-48.842-28-68 44.874-33.866 79.874-75.866 105-126 19.396-42.596 21.396-85.93 6-130-21.328-43.506-56.328-62.172-105-56 2.66-107.126-3.006-213.794-17-320-4.28-32.064-11.612-63.398-22-94-5.692-15.986-15.358-28.652-29-38-8 0-16 0-24 0-11.394 6.406-19.728 15.738-25 28-10.448 25.792-17.782 52.458-22 80-15.294 100.064-22.626 200.732-22 302-42.854-33.682-68.186-77.682-76-132-0.666-33.334-1.334-66.666-2-100-11.754-68.428-48.754-118.094-111-149-62.76-24.136-124.76-22.136-186 6-128.669 58.938-212.335 156.606-251 293-5.084 20.42-8.751 41.086-11 62 1.406 18.734 11.406 25.734 30 21 2.862-0.93 5.195-2.598 7-5 17.774-125.956 78.107-225.622 181-299 38.014-25.12 79.348-42.454 124-52 80.694-6.506 137.028 27.16 169 101 2.316 8.594 4.316 17.262 6 26 0.666 33.334 1.334 66.666 2 100 10.986 78.026 49.986 137.36 117 178 2.478 79.744 9.478 159.076 21 238 2.658 15.972 6.326 31.64 11 47-23.308 15.306-38.974 36.306-47 63-126.736 60.461-252.402 58.128-377-7-99.774-59.822-164.774-146.156-195-259-7.642-11.786-17.975-14.786-31-9-5.429 4.86-8.762 10.86-10 18 38.499 147.666 127.833 251.666 268 312 115.526 42.475 230.194 40.142 344-7 19.53 51.726 43.864 101.059 73 148 4.3 8.005 9.968 14.672 17 20zM775 899c26.966-39.945 46.966-83.278 60-130-10.51-47.914-39.176-64.914-86-51-30.18 18.692-38.848 44.693-26 78 14.47 35.942 31.804 70.275 52 103zM503 687c36.296 2.704 52.63-13.962 49-50-13.644-27.084-33.978-33.418-61-19-15.796 16.51-18.13 34.842-7 55 5.58 5.93 11.914 10.596 19 14zM765 671c5.698-2.182 11.364-2.182 17 0 1.89-0.81 3.224-2.144 4-4 11.752-50.69 18.752-102.022 21-154-21.334-2.666-42.666-2.666-64 0 2.296 53.404 9.63 106.070 22 158zM831 659c37.284-27.166 65.618-61.832 85-104 12.034-29.326 14.034-59.326 6-90-13.214-28.444-35.548-39.776-67-34-2.12 76.67-10.12 152.67-24 228zM283 587c36.296 2.704 52.63-13.962 49-50-13.644-27.084-33.978-33.418-61-19-15.796 16.51-18.13 34.842-7 55 5.58 5.93 11.914 10.596 19 14zM739 471c24.014-2.406 48.014-2.406 72 0 3.322-95.378 2.322-190.712-3-286-3.146-58.028-11.146-115.36-24-172-2.416-8.252-5.416-16.252-9-24-9.132 22.52-15.464 45.854-19 70-18.504 136.942-24.17 274.274-17 412zM223 347c36.296 2.704 52.63-13.962 49-50-13.644-27.084-33.978-33.418-61-19-15.796 16.51-18.13 34.842-7 55 5.58 5.93 11.914 10.596 19 14zM403 187c36.296 2.704 52.63-13.962 49-50-13.644-27.084-33.978-33.418-61-19-15.796 16.51-18.13 34.842-7 55 5.58 5.93 11.914 10.596 19 14z" />
<glyph unicode="&#xe913;" d="M497 729c45.658 5.906 77.326-12.094 95-54 11.436-48.794-5.564-83.128-51-103-48.794-11.436-83.128 5.564-103 51-11.152 53.046 8.514 88.38 59 106zM503 687c-7.086-3.404-13.42-8.070-19-14-11.13-20.158-8.796-38.49 7-55 27.022-14.418 47.356-8.084 61 19 3.63 36.038-12.704 52.704-49 50z" />
<glyph unicode="&#xe914;" d="M277 629c45.658 5.906 77.326-12.094 95-54 11.436-48.794-5.564-83.128-51-103-48.794-11.436-83.128 5.564-103 51-11.152 53.046 8.514 88.38 59 106zM283 587c-7.086-3.404-13.42-8.070-19-14-11.13-20.158-8.796-38.49 7-55 27.022-14.418 47.356-8.084 61 19 3.63 36.038-12.704 52.704-49 50z" />
<glyph unicode="&#xe915;" d="M65 429c23.649 3.352 33.315-6.648 29-30-7.31-9.55-16.977-12.55-29-9-9.549 7.31-12.549 16.976-9 29 2.731 3.724 5.731 7.056 9 10z" />
<glyph unicode="&#xe916;" d="M217 389c45.658 5.906 77.326-12.094 95-54 11.436-48.794-5.564-83.128-51-103-48.794-11.436-83.128 5.564-103 51-11.152 53.046 8.515 88.38 59 106zM223 347c-7.086-3.404-13.42-8.070-19-14-11.13-20.158-8.796-38.49 7-55 27.022-14.418 47.356-8.084 61 19 3.63 36.038-12.704 52.704-49 50z" />
<glyph unicode="&#xe917;" d="M397 229c45.658 5.906 77.326-12.094 95-54 11.436-48.794-5.564-83.128-51-103-48.794-11.436-83.128 5.564-103 51-11.152 53.046 8.514 88.38 59 106zM403 187c-7.086-3.404-13.42-8.070-19-14-11.13-20.158-8.796-38.49 7-55 27.022-14.418 47.356-8.084 61 19 3.63 36.038-12.704 52.704-49 50z" />
<glyph unicode="&#xe918;" glyph-name="bookmark" d="M197 961c210.666 0 421.334 0 632 0 40.394-11.41 63.394-38.076 69-80 1.334-298 1.334-596 0-894-1.086-23.576-12.086-40.244-33-50-9.334 0-18.666 0-28 0-9.13 3.908-17.796 8.908-26 15-88.588 74.584-176.588 149.918-264 226-22.666 17.334-45.334 17.334-68 0-87.706-74.192-175.038-148.86-262-224-9.54-6.762-19.54-12.428-30-17-9.333 0-18.667 0-28 0-21.13 9.548-32.796 26.214-35 50-1.333 298-1.333 596 0 894 7.328 42.322 31.661 68.989 73 80z" />
<glyph unicode="&#xe919;" d="M207 961c226 0 452 0 678 0 56.592-17.776 81.592-56.443 75-116-10.134-43.469-37.134-69.136-81-77-24.658-1-49.324-1.333-74-1-28.666 0-57.334 0-86 0-81.334 0-162.666 0-244 0-90.084-0.646-180.084 0.021-270 2-7.917 9.003-7.917 18.003 0 27 19.79 2.899 39.79 3.899 60 3 202.332-2.332 404.998-2.665 608-1 44.422 12.436 62.756 41.436 55 87-8.864 24.197-25.864 39.197-51 45-14.652 0.999-29.318 1.333-44 1-189.334 0-378.666 0-568 0-20.876-0.902-41.542 0.098-62 3-6.183 10.403-4.849 19.403 4 27z" />
<glyph unicode="&#xe91a;" d="M265 931c189.334 0 378.666 0 568 0 32.324-27.999 40.658-61.999 25-102-5.5-11.305-13.166-20.971-23-29-189.998-1-379.998-1.333-570-1 0 16.667 0 33.333 0 50 116.002-0.333 232.002 0 348 1 11.992 8.598 12.658 17.931 2 28-116.664 1-233.332 1.333-350 1 0 17.333 0 34.667 0 52z" />
<glyph unicode="&#xe91b;" d="M833 931c14.682 0.333 29.348-0.001 44-1 25.136-5.803 42.136-20.803 51-45 7.756-45.564-10.578-74.564-55-87-203.002-1.665-405.668-1.332-608 1 190.002-0.333 380.002 0 570 1 9.834 8.029 17.5 17.695 23 29 15.658 40.001 7.324 74.001-25 102z" />
<glyph unicode="&#xe91c;" d="M265 879c116.668 0.333 233.336 0 350-1 10.658-10.069 9.992-19.402-2-28-115.998-1-231.998-1.333-348-1 0 10 0 20 0 30z" />
<glyph unicode="&#xe91d;" d="M205 769c89.916-1.979 179.916-2.646 270-2 0-71.334 0-142.666 0-214-119.004 0.664-237.672-0.002-356-2-29.333 0-58.667 0-88 0 0 72.666 0 145.334 0 218 58 0 116 0 174 0z" />
<glyph unicode="&#xe91e;" d="M475 767c81.334 0 162.666 0 244 0 0-71.334 0-142.666 0-214-81.334 0-162.666 0-244 0 0 71.334 0 142.666 0 214z" />
<glyph unicode="&#xe91f;" d="M719 767c28.666 0 57.334 0 86 0 0-71.334 0-142.666 0-214-22 0-44 0-66 0-6.666 0-13.334 0-20 0 0 71.334 0 142.666 0 214z" />
<glyph unicode="&#xe920;" d="M535 693c8.206 1.462 15.206-0.538 21-6 1.334-17.334 1.334-34.666 0-52-4.322-7.248-10.656-9.582-19-7-4.104 1.86-7.104 4.86-9 9-1.334 15.334-1.334 30.666 0 46 1.994 3.646 4.328 6.98 7 10z" />
<glyph unicode="&#xe921;" d="M591 693c8.818 1.764 15.818-0.904 21-8 1.334-16 1.334-32 0-48-8.504-12.306-17.838-12.972-28-2-1.334 16.666-1.334 33.334 0 50 1.38 3.7 3.712 6.368 7 8z" />
<glyph unicode="&#xe922;" d="M645 693c4.714 0.326 9.38-0.006 14-1 3.666-1 6-3.334 7-7 1.334-16.666 1.334-33.334 0-50-10.334-11.184-19.666-10.518-28 2-1.334 16-1.334 32 0 48 2.752 2.41 5.084 5.076 7 8z" />
<glyph unicode="&#xe923;" d="M475 553c81.334 0 162.666 0 244 0 6.666 0 13.334 0 20 0 0-60.666 0-121.334 0-182-206.666 0-413.334 0-620 0 0 60 0 120 0 180 118.328 1.998 236.996 2.664 356 2z" />
<glyph unicode="&#xe924;" d="M739 553c22 0 44 0 66 0 69.334 0 138.666 0 208 0 0-61.334 0-122.666 0-184-40 0-80 0-120 0-1.334 0-2 0.666-2 2 14 0 28 0 42 0 0.658 25.688-0.010 51.022-2 76 13.334 10 13.334 20 0 30 1.99 24.31 2.658 48.978 2 74-64 0-128 0-192 0 0-60 0-120 0-180-0.666 0-1.334 0-2 0 0 60.666 0 121.334 0 182z" />
<glyph unicode="&#xe925;" d="M931 477c-36.006 0.334-72.006 0-108-1-12.68-8.168-13.346-17.5-2-28 36.66-1 73.328-1.334 110-1 1.99-24.978 2.658-50.312 2-76-14 0-28 0-42 0-50 0-100 0-150 0 0 60 0 120 0 180 64 0 128 0 192 0 0.658-25.022-0.010-49.69-2-74z" />
<glyph unicode="&#xe926;" d="M211 491c74.67 0.334 149.336 0 224-1 21-8.984 26.668-23.984 17-45-5.556-6.614-12.556-10.948-21-13-72-1.334-144-1.334-216 0-20.306 8.882-26.639 23.882-19 45 4.792 5.134 9.792 9.8 15 14z" />
<glyph unicode="&#xe927;" d="M931 477c13.334-10 13.334-20 0-30-36.672-0.334-73.34 0-110 1-11.346 10.5-10.68 19.832 2 28 35.994 1 71.994 1.334 108 1z" />
<glyph unicode="&#xe928;" d="M119 371c206.666 0 413.334 0 620 0 0.666 0 1.334 0 2 0 50 0 100 0 150 0 0-1.334 0.666-2 2-2 8.424-9.586 7.756-18.586-2-27-17.988-1-35.988-1.332-54-1-253.334 0.334-506.668 0-760-1-33.513-12.022-47.846-35.688-43-71 6.141-21.476 19.808-35.808 41-43 254-1 508-1.334 762-1 18.88 0.89 37.548-0.11 56-3 7.838-8.988 7.838-17.988 0-27-241.276-1.988-482.61-2.656-724-2-30.674-0.334-61.341 0-92 1-61.32 16.948-84.986 56.614-71 119 22.648 47.496 60.314 66.83 113 58z" />
<glyph unicode="&#xe929;" d="M837 341c0-38.666 0-77.334 0-116-254-0.334-508 0-762 1-21.192 7.192-34.859 21.524-41 43-4.846 35.312 9.487 58.978 43 71 253.332 1 506.666 1.334 760 1z" />
<glyph unicode="&#xe92a;" d="M617 293c72.666 0 145.334 0 218 0 0-9.334 0-18.666 0-28-72.004-0.334-144.004 0-216 1-7.424 5.026-9.756 12.026-7 21 2.090 1.746 3.756 3.746 5 6z" />
<glyph unicode="&#xe92b;" d="M893 195c39.338 0.334 78.672 0 118-1 11.518-7.784 12.852-17.118 4-28-16.446-2.876-33.114-3.876-50-3-258.998 2.332-518.332 2.666-778 1-54.354-10.342-83.021-43.010-86-98 2.373-52.382 29.040-85.050 80-98 261.332-1 522.666-1.334 784-1 16.778 0.606 33.444-0.060 50-2 8.15-9.822 7.484-19.156-2-28-279.334 0-558.666 0-838 0-65.81 17.164-101.144 59.832-106 128 4.333 65.632 37.666 108.3 100 128 241.39-0.656 482.724 0.012 724 2z" />
<glyph unicode="&#xe92c;" d="M965 163c0-14.666 0-29.334 0-44-208.002 0.334-416.002 0-624-1-12.458-8.342-13.124-17.674-2-28 208.666-1 417.332-1.334 626-1 0-15.334 0-30.666 0-46-153.334 0.334-306.668 0-460-1-12.458-8.342-13.124-17.674-2-28 153.998-1 307.998-1.334 462-1 0-15.334 0-30.666 0-46-261.334-0.334-522.668 0-784 1-50.96 12.95-77.627 45.618-80 98 2.979 54.99 31.646 87.658 86 98 259.668 1.666 519.002 1.332 778-1z" />
<glyph unicode="&#xe92d;" d="M965 119c0-10 0-20 0-30-208.668-0.334-417.334 0-626 1-11.124 10.326-10.458 19.658 2 28 207.998 1 415.998 1.334 624 1z" />
<glyph unicode="&#xe92e;" d="M965 43c0-10 0-20 0-30-154.002-0.334-308.002 0-462 1-11.124 10.326-10.458 19.658 2 28 153.332 1 306.666 1.334 460 1z" />
<glyph unicode="&#xe92f;" d="M239 841c-2-9.333-4-18.667-6-28-9.532-0.263-17.866-3.597-25-10-7.228-16.292-12.894-32.958-17-50-8.747 1.686-17.413 3.686-26 6 5.385 24.872 11.718 49.539 19 74 9.292 12.655 21.626 16.988 37 13 6.158-1.371 12.158-3.038 18-5z" />
<glyph unicode="&#xe930;" d="M233 813c5.050-1.096 9.718-3.096 14-6-10.38-20.684-19.048-41.351-26-62-10.054 1.744-20.054 3.744-30 6 0 0.666 0 1.334 0 2 4.106 17.042 9.772 33.708 17 50 7.134 6.403 15.468 9.737 25 10z" />
<glyph unicode="&#xe931;" d="M345 813c17.488-2.161 26.822-12.161 28-30-5.472-25.9-12.138-51.234-20-76-0.222 1.234-0.888 2.234-2 3-10.608 3.384-21.276 6.384-32 9 8.35 31.678 17.018 63.012 26 94z" />
<glyph unicode="&#xe932;" d="M239 841c12.552-2.132 24.552-5.465 36-10-2.644 0.34-4.978-0.327-7-2-2.648-7.893-3.982-15.893-4-24 7.52-1.304 14.52-3.971 21-8-8.098-20.403-16.098-40.070-24-59 0.486-1.804 1.154-3.47 2-5-3.87 1.3-7.87 1.966-12 2-6.238 2.74-12.904 4.74-20 6-3.334 1.334-6.666 2.666-10 4 6.952 20.649 15.62 41.316 26 62-4.282 2.904-8.95 4.904-14 6 2 9.333 4 18.667 6 28z" />
<glyph unicode="&#xe933;" d="M275 831c11.188-1.463 21.854-4.13 32-8-2.666 0-5.334 0-8 0-0.848-7.068-2.182-14.068-4-21 2.070-3.675 4.070-7.342 6-11-8.272-20.478-15.606-41.144-22-62-5.334 1.334-10.666 2.666-16 4-0.846 1.53-1.514 3.196-2 5 7.902 18.93 15.902 38.597 24 59-6.48 4.029-13.48 6.696-21 8 0.018 8.107 1.352 16.107 4 24 2.022 1.673 4.356 2.34 7 2z" />
<glyph unicode="&#xe934;" d="M307 823c13.108-2.441 25.776-5.775 38-10-8.982-30.988-17.65-62.322-26-94-11.45 2.364-22.784 5.030-34 8-1.418 1.808-3.418 2.474-6 2 6.394 20.856 13.728 41.522 22 62-1.93 3.658-3.93 7.325-6 11 1.818 6.932 3.152 13.932 4 21 2.666 0 5.334 0 8 0z" />
<glyph unicode="&#xe935;" d="M165 759c8.587-2.314 17.253-4.314 26-6 0-0.666 0-1.334 0-2-2-8-4-16-6-24-9.353 1.16-18.020 3.826-26 8 0.797 8.522 2.797 16.522 6 24z" />
<glyph unicode="&#xe936;" d="M191 751c9.946-2.256 19.946-4.256 30-6 3.334-1.334 6.666-2.666 10-4-2.35 0.438-4.35-0.228-6-2-3.612-5.944-7.612-11.61-12-17 1.112-0.766 1.778-1.766 2-3-10.12 2.362-20.119 5.030-30 8 2 8 4 16 6 24z" />
<glyph unicode="&#xe937;" d="M251 735c4.13-0.034 8.13-0.7 12-2 5.334-1.334 10.666-2.666 16-4 2.582 0.474 4.582-0.192 6-2-10.56-2.986-15.892-10.318-16-22-1.334 0-2.666 0-4 0-4.676 3.080-10.010 4.412-16 4-2.136 1.868-4.802 2.536-8 2-0.684 1.676-2.016 2.344-4 2 1.206 9.792 5.874 17.126 14 22z" />
<glyph unicode="&#xe938;" d="M231 741c7.096-1.26 13.762-3.26 20-6-8.126-4.874-12.794-12.208-14-22-3.87 1.3-7.87 1.966-12 2-0.684 1.676-2.016 2.344-4 2-1.418 1.808-3.418 2.474-6 2-0.222 1.234-0.888 2.234-2 3 4.388 5.39 8.388 11.056 12 17 1.65 1.772 3.65 2.438 6 2z" />
<glyph unicode="&#xe939;" d="M159 735c7.98-4.174 16.647-6.84 26-8-10.728-44.91-22.394-89.578-35-134-4.99-19.27-8.99-38.602-12-58 2.737 5.126 5.403 11.126 8 18 0.667-0.666 1.333-1.334 2-2 1.644 4.576 2.978 9.244 4 14 4.865 3.984 9.532 7.984 14 12 15.571 48.186 32.238 94.186 50 138 1.342 1.504 3.008 2.172 5 2 1.984 0.344 3.316-0.324 4-2-18.778-43.974-35.444-88.974-50-135-13.407-36.292-25.407-70.96-36-104 0.667-0.666 1.333-1.334 2-2-8.763-30.376-18.763-60.376-30-90 0.667-0.666 1.333-1.334 2-2-1.586-2.17-2.92-4.504-4-7 2.040-3.864 2.374-7.864 1-12-9.288-33.816-17.621-67.816-25-102-15.062 4.932-30.396 8.932-46 12 38.484 154.612 78.484 308.612 120 462z" />
<glyph unicode="&#xe93a;" d="M285 727c11.216-2.97 22.55-5.636 34-8 10.724-2.616 21.392-5.616 32-9 1.112-0.766 1.778-1.766 2-3-0.796-8.522-2.796-16.522-6-24-10.898 4.232-22.232 7.564-34 10-13.134 3.95-26.466 7.284-40 10-1.334 0.666-2.666 1.334-4 2 0.108 11.682 5.44 19.014 16 22z" />
<glyph unicode="&#xe93b;" d="M273 703c13.534-2.716 26.866-6.050 40-10-40.902-152.272-80.234-304.94-118-458-2 0-4 0-6 0-16.006 4.002-32.006 8.002-48 12 27.962 105.844 55.629 211.844 83 318 15.586 46.986 31.92 92.986 49 138z" />
<glyph unicode="&#xe93c;" d="M185 727c9.881-2.97 19.88-5.638 30-8 2.582 0.474 4.582-0.192 6-2-1.992 0.172-3.658-0.496-5-2-17.762-43.814-34.429-89.814-50-138-4.468-4.016-9.135-8.016-14-12-1.022-4.756-2.356-9.424-4-14-0.667 0.666-1.333 1.334-2 2-2.597-6.874-5.263-12.874-8-18 3.010 19.398 7.010 38.73 12 58 12.606 44.422 24.272 89.090 35 134z" />
<glyph unicode="&#xe93d;" d="M265 705c1.334 0 2.666 0 4 0 1.334-0.666 2.666-1.334 4-2-17.080-45.014-33.414-91.014-49-138-27.371-106.156-55.038-212.156-83-318-3.432 0.258-6.766 0.924-10 2 23.972 95.224 47.639 190.556 71 286 18.444 55.404 38.112 111.070 59 167 0.672 2.060 2.006 3.060 4 3z" />
<glyph unicode="&#xe93e;" d="M313 693c11.768-2.436 23.102-5.768 34-10-2.716-13.534-6.050-26.866-10-40-3.548-6.852-5.548-14.186-6-22-1.676-0.684-2.344-2.016-2-4-2.984-11.266-5.65-22.598-8-34-6.578-22.298-12.578-44.964-18-68-3.746-14.73-7.746-29.396-12-44 0-0.666 0-1.334 0-2-2.304-7.214-4.304-14.546-6-22-6.628-23.846-12.628-47.846-18-72-3.87-10.146-6.536-20.812-8-32-6.222-18.87-11.556-38.204-16-58-1.806-5.782-2.472-11.782-2-18-4.976-15.24-9.644-30.574-14-46-0.154 2.5-1.488 4.166-4 5-11.81 2.146-23.144 5.146-34 9 2 0 4 0 6 0 37.766 153.060 77.098 305.728 118 458z" />
<glyph unicode="&#xe93f;" d="M249 709c5.99 0.412 11.324-0.92 16-4-1.994 0.060-3.328-0.94-4-3-20.888-55.93-40.556-111.596-59-167-23.361-95.444-47.028-190.776-71-286-2.667 0.666-5.333 1.334-8 2-4 1.334-8 2.666-12 4 22.678 89.182 46.011 176.182 70 261 4.655 11.314 9.321 22.646 14 34-0.667 0.666-1.333 1.334-2 2 18.712 51.772 37.38 104.104 56 157z" />
<glyph unicode="&#xe940;" d="M535 643c60.666 0 121.334 0 182 0 20.17-5.622 39.504-13.622 58-24-88.666 0-177.334 0-266 0 4.858 12.194 13.524 20.194 26 24z" />
<glyph unicode="&#xe941;" d="M717 643c77.402 0.926 154.736-0.074 232-3 40.342-11.998 65.008-38.332 74-79 0-10.666 0-21.334 0-32-4.664-19.994-13.664-37.994-27-54-1.342-1.504-3.008-2.172-5-2-8.848 4.286-17.514 8.952-26 14 14.336 11.994 23.004 27.328 26 46 0 4 0 8 0 12 1.366 12.508-1.3 23.842-8 34-12.128 22.102-30.794 34.768-56 38-50.322 1.996-100.99 2.662-152 2-18.496 10.378-37.83 18.378-58 24z" />
<glyph unicode="&#xe942;" d="M337 643c66 0 132 0 198 0-12.476-3.806-21.142-11.806-26-24-59.676-0.662-119.010 0.004-178 2 0.452 7.814 2.452 15.148 6 22z" />
<glyph unicode="&#xe943;" d="M331 621c58.99-1.996 118.324-2.662 178-2 88.666 0 177.334 0 266 0 51.010 0.662 101.678-0.004 152-2-140 0-280 0-420 0-48 0-96 0-144 0-11.334 0-22.666 0-34 0-0.344 1.984 0.324 3.316 2 4z" />
<glyph unicode="&#xe944;" d="M363 617c48 0 96 0 144 0 0-12.666 0-25.334 0-38-36 0-72 0-108 0-12 12.666-24 25.334-36 38z" />
<glyph unicode="&#xe945;" d="M507 617c140 0 280 0 420 0 25.206-3.232 43.872-15.898 56-38-97.334 0-194.666 0-292 0-61.334 0-122.666 0-184 0 0 12.666 0 25.334 0 38z" />
<glyph unicode="&#xe946;" d="M329 617c11.334 0 22.666 0 34 0 12-12.666 24-25.334 36-38-26.752-1.296-52.752 0.038-78 4 2.35 11.402 5.016 22.734 8 34z" />
<glyph unicode="&#xe947;" d="M321 583c25.248-3.962 51.248-5.296 78-4 36 0 72 0 108 0 0-4.666 0-9.334 0-14-25.72 2.516-52.054 4.516-79 6-12.886-0.724-25.552-2.724-38-6-1.544 0.29-2.878 0.956-4 2-14.1-3.754-28.434-6.754-43-9-5.818-2.058-11.818-4.726-18-8-1.656-1.83-3.656-3.162-6-4 10.646-0.998 21.312-1.332 32-1 1.526-1.536 3.526-2.536 6-3-5.006-0.258-9.006-2.258-12-6-5.452-0.364-10.786-1.364-16-3-7.654-7.546-16.32-13.546-26-18 5.422 23.036 11.422 45.702 18 68z" />
<glyph unicode="&#xe948;" d="M691 579c97.334 0 194.666 0 292 0 6.7-10.158 9.366-21.492 8-34-161.334 0-322.666 0-484 0 0 6 0 12 0 18 140.612 6.296 280.612 10.63 420 13-79.004 0.334-157.67 1.334-236 3z" />
<glyph unicode="&#xe949;" d="M507 579c61.334 0 122.666 0 184 0 78.33-1.666 156.996-2.666 236-3-139.388-2.37-279.388-6.704-420-13 0-6 0-12 0-18 161.334 0 322.666 0 484 0 0-4 0-8 0-12-161.334 0-322.666 0-484 0 0-8 0-16 0-24-49.12 0.252-98.12 0.252-147 0-14.348 0.796-28.68 1.796-43 3 9.502 9.912 20.502 15.578 33 17 19.752 7.022 40.752 11.356 63 13-20.628 1.9-41.294 2.9-62 3-10.688-0.332-21.354 0.002-32 1 2.344 0.838 4.344 2.17 6 4 6.182 3.274 12.182 5.942 18 8 14.566 2.246 28.9 5.246 43 9 1.122-1.044 2.456-1.71 4-2 12.448 3.276 25.114 5.276 38 6 26.946-1.484 53.28-3.484 79-6 0 4.666 0 9.334 0 14z" />
<glyph unicode="&#xe94a;" d="M991 533c-2.996-18.672-11.664-34.006-26-46-0.666 0-1.334 0-2 0-8.324 3.236-16.99 4.236-26 3 4 2 8 4 12 6-8.68-1.482-17.346-0.816-26 2 10.484 3.622 9.816 5.622-2 6 4.538 3.448 9.206 3.448 14 0-0.666-0.666-1.334-1.334-2-2 2.334-0.334 4.666-0.666 7-1 12.258 4.646 24.592 6.98 37 7-156.666 1-313.332 1.334-470 1 0 8 0 16 0 24 161.334 0 322.666 0 484 0z" />
<glyph unicode="&#xe94b;" d="M225 715c4.13-0.034 8.13-0.7 12-2 1.984 0.344 3.316-0.324 4-2-2.77-2.148-5.102-4.814-7-8-28.166-74.72-53.167-148.386-75-221-3.249-1.706-3.916-3.706-2-6-6.614-19.254-13.28-38.588-20-58-12.923-52.562-26.257-105.562-40-159-4.13 0.034-8.13 0.7-12 2 7.379 34.184 15.712 68.184 25 102 1.374 4.136 1.040 8.136-1 12 1.080 2.496 2.414 4.83 4 7-0.667 0.666-1.333 1.334-2 2 11.237 29.624 21.237 59.624 30 90-0.667 0.666-1.333 1.334-2 2 10.593 33.040 22.593 67.708 36 104 14.556 46.026 31.222 91.026 50 135z" />
<glyph unicode="&#xe94c;" d="M351 545c20.706-0.1 41.372-1.1 62-3-22.248-1.644-43.248-5.978-63-13-12.498-1.422-23.498-7.088-33-17 14.32-1.204 28.652-2.204 43-3 48.88 0.252 97.88 0.252 147 0 0-12.666 0-25.334 0-38-72 0-144 0-216 0 4.254 14.604 8.254 29.27 12 44 9.68 4.454 18.346 10.454 26 18 5.214 1.636 10.548 2.636 16 3 2.994 3.742 6.994 5.742 12 6-2.474 0.464-4.474 1.464-6 3z" />
<glyph unicode="&#xe94d;" d="M507 509c156.668 0.334 313.334 0 470-1-12.408-0.020-24.742-2.354-37-7-2.334 0.334-4.666 0.666-7 1 0.666 0.666 1.334 1.334 2 2-4.794 3.448-9.462 3.448-14 0 11.816-0.378 12.484-2.378 2-6 8.654-2.816 17.32-3.482 26-2-4-2-8-4-12-6 9.010 1.236 17.676 0.236 26-3-10.844-9.184-23.512-14.518-38-16-139.334 0-278.666 0-418 0 0 12.666 0 25.334 0 38z" />
<glyph unicode="&#xe94e;" d="M241 711c3.198 0.536 5.864-0.132 8-2-18.62-52.896-37.288-105.228-56-157 0.667-0.666 1.333-1.334 2-2-4.679-11.354-9.345-22.686-14-34-23.989-84.818-47.322-171.818-70-261-5.135 0.442-9.801 1.776-14 4 13.743 53.438 27.077 106.438 40 159 6.72 19.412 13.386 38.746 20 58-1.916 2.294-1.249 4.294 2 6 21.833 72.614 46.834 146.28 75 221 1.898 3.186 4.23 5.852 7 8z" />
<glyph unicode="&#xe94f;" d="M291 469c72.678 0.666 145.346 0 218-2 4.764-8.764 11.432-15.432 20-20-34.666 0-69.334 0-104 0-0.666 0-1.334 0-2 0-8 0-16 0-24 0-0.666 0-1.334 0-2 0-11.334 0-22.666 0-34 0-0.666 0-1.334 0-2 0-8 0-16 0-24 0-0.666 0-1.334 0-2 0-16.666 0-33.334 0-50 0 1.696 7.454 3.696 14.786 6 22z" />
<glyph unicode="&#xe950;" glyph-name="alarm" d="M512 832c-247.424 0-448-200.576-448-448s200.576-448 448-448 448 200.576 448 448-200.576 448-448 448zM512 24c-198.824 0-360 161.178-360 360 0 198.824 161.176 360 360 360 198.822 0 360-161.176 360-360 0-198.822-161.178-360-360-360zM934.784 672.826c16.042 28.052 25.216 60.542 25.216 95.174 0 106.040-85.96 192-192 192-61.818 0-116.802-29.222-151.92-74.596 131.884-27.236 245.206-105.198 318.704-212.578v0zM407.92 885.404c-35.116 45.374-90.102 74.596-151.92 74.596-106.040 0-192-85.96-192-192 0-34.632 9.174-67.122 25.216-95.174 73.5 107.38 186.822 185.342 318.704 212.578zM512 384v256h-64v-320h256v64z" />
<glyph unicode="&#xe951;" d="M291 469c0 0.666 0 1.334 0 2 72 0 144 0 216 0 139.334 0 278.666 0 418 0-41.654-1.994-83.654-2.662-126-2-41.338 0.334-82.672 0-124-1 15.092-6.55 29.758-13.55 44-21-63.334 0-126.666 0-190 0-8.568 4.568-15.236 11.236-20 20-72.654 2-145.322 2.666-218 2z" />
<glyph unicode="&#xe952;" d="M799 469c14.666-7.334 29.334-14.666 44-22-1.334 0-2.666 0-4 0-0.666 0-1.334 0-2 0-39.334 0-78.666 0-118 0-14.242 7.45-28.908 14.45-44 21 41.328 1 82.662 1.334 124 1z" />
<glyph unicode="&#xe953;" d="M963 487c0.666 0 1.334 0 2 0 8.486-5.048 17.152-9.714 26-14-12.692-13.346-28.024-22.012-46-26-6 0-12 0-18 0-0.666 0-1.334 0-2 0-8 0-16 0-24 0-0.666 0-1.334 0-2 0-11.334 0-22.666 0-34 0-0.666 0-1.334 0-2 0-6.666 0-13.334 0-20 0-14.666 7.334-29.334 14.666-44 22 42.346-0.662 84.346 0.006 126 2 14.488 1.482 27.156 6.816 38 16z" />
<glyph unicode="&#xe954;" d="M901 447c8 0 16 0 24 0 0-9.334 0-18.666 0-28-8 0-16 0-24 0 0 9.334 0 18.666 0 28z" />
<glyph unicode="&#xe955;" d="M285 447c16.666 0 33.334 0 50 0 0-25.334 0-50.666 0-76-23.432-1.288-46.098 0.044-68 4 5.372 24.154 11.372 48.154 18 72z" />
<glyph unicode="&#xe956;" d="M927 447c6 0 12 0 18 0 20.012 0.332 40.012 0 60-1 8.37-3.376 14.37-9.042 18-17 0-16.666 0-33.334 0-50-9.334 0-18.666 0-28 0 0 2.666 0 5.334 0 8 0.646 15.038-6.020 25.372-20 31-15.986 1-31.986 1.332-48 1 0 9.334 0 18.666 0 28z" />
<glyph unicode="&#xe957;" d="M337 447c8 0 16 0 24 0 0-16.666 0-33.334 0-50-8 0-16 0-24 0 0 16.666 0 33.334 0 50z" />
<glyph unicode="&#xe958;" d="M925 447c0.666 0 1.334 0 2 0 0-9.334 0-18.666 0-28 16.014 0.332 32.014 0 48-1 13.98-5.628 20.646-15.962 20-31-5.674-0.13-11.34-0.13-17 0-17.162 3.854-33.828 8.522-50 14-0.998-11.982-1.332-23.982-1-36 0-11.334 0-22.666 0-34 0-26 0-52 0-78-0.666 0-1.334 0-2 0 0 25.334 0 50.666 0 76 0 8.666 0 17.334 0 26 0 10 0 20 0 30 0 11.334 0 22.666 0 34 0 9.334 0 18.666 0 28z" />
<glyph unicode="&#xe959;" d="M901 419c8 0 16 0 24 0 0-11.334 0-22.666 0-34-8.032 2.024-16.032 4.024-24 6 0 9.334 0 18.666 0 28z" />
<glyph unicode="&#xe95a;" d="M901 391c7.968-1.976 15.968-3.976 24-6 0-10 0-20 0-30-7.554 3.766-15.554 6.432-24 8 0 9.334 0 18.666 0 28z" />
<glyph unicode="&#xe95b;" d="M995 387c0-2.666 0-5.334 0-8 0-9.334 0-18.666 0-28-6.546-0.728-12.88-0.728-19 0-11.284 3.33-22.618 6.664-34 10-0.666-0.666-1.334-1.334-2-2-4.502 1.824-8.834 3.824-13 6-0.332 12.018 0.002 24.018 1 36 16.172-5.478 32.838-10.146 50-14 5.66-0.13 11.326-0.13 17 0z" />
<glyph unicode="&#xe95c;" d="M337 397c8 0 16 0 24 0 0-22 0-44 0-66-8 0-16 0-24 0 0 22 0 44 0 66z" />
<glyph unicode="&#xe95d;" d="M267 375c21.902-3.956 44.568-5.288 68-4 0-10.666 0-21.334 0-32-26.088-1.294-51.422 0.040-76 4 1.464 11.188 4.13 21.854 8 32z" />
<glyph unicode="&#xe95e;" d="M901 363c8.446-1.568 16.446-4.234 24-8 0-8.666 0-17.334 0-26-8.124 2.264-16.124 4.93-24 8 0 8.666 0 17.334 0 26z" />
<glyph unicode="&#xe95f;" d="M927 365c4.166-2.176 8.498-4.176 13-6 0.666 0.666 1.334 1.334 2 2 11.382-3.336 22.716-6.67 34-10 6.12-0.728 12.454-0.728 19 0 0.91-13.028-0.090-25.694-3-38-10.12 6.644-20.786 9.978-32 10-5.126 1.518-10.126 3.518-15 6-1.884-0.216-3.55-0.882-5-2-4.014 2.338-8.346 3.67-13 4 0 11.334 0 22.666 0 34z" />
<glyph unicode="&#xe960;" d="M259 343c24.578-3.96 49.912-5.294 76-4 0-17.334 0-34.666 0-52-30.822 0.634-61.49-0.034-92-2 4.444 19.796 9.778 39.13 16 58z" />
<glyph unicode="&#xe961;" d="M335 447c0.666 0 1.334 0 2 0 0-16.666 0-33.334 0-50 0-22 0-44 0-66 0-26 0-52 0-78 0-0.666 0-1.334 0-2-6.666 0-13.334 0-20 0-7.334 0-14.666 0-22 0 12.958 1.982 26.292 2.648 40 2 0 11.334 0 22.666 0 34 0 17.334 0 34.666 0 52 0 10.666 0 21.334 0 32 0 25.334 0 50.666 0 76z" />
<glyph unicode="&#xe962;" d="M337 331c8 0 16 0 24 0 0-26 0-52 0-78-8 0-16 0-24 0 0 26 0 52 0 78z" />
<glyph unicode="&#xe963;" d="M901 337c7.876-3.070 15.876-5.736 24-8 0-25.334 0-50.666 0-76-8 0-16 0-24 0 0 28 0 56 0 84z" />
<glyph unicode="&#xe964;" d="M995 379c9.334 0 18.666 0 28 0 0-36 0-72 0-108-7.704-15.524-20.37-22.192-38-20-2.666 0-5.334 0-8 0-16.3 1.986-32.966 2.652-50 2 0 26 0 52 0 78 4.654-0.33 8.986-1.662 13-4 1.45 1.118 3.116 1.784 5 2 4.874-2.482 9.874-4.482 15-6 11.214-0.022 21.88-3.356 32-10 2.91 12.306 3.91 24.972 3 38 0 9.334 0 18.666 0 28z" />
<glyph unicode="&#xe965;" d="M335 287c0-11.334 0-22.666 0-34-13.708 0.648-27.042-0.018-40-2-3.334 0-6.666 0-10 0-18.284-3.692-32.952 1.642-44 16-0.472 6.218 0.194 12.218 2 18 30.51 1.966 61.178 2.634 92 2z" />
<glyph unicode="&#xe966;" glyph-name="redo" d="M0 384c0-152.924 67.048-290.184 173.35-384l84.666 96c-79.726 70.364-130.016 173.304-130.016 288 0 212.076 171.93 384 384 384 106.042 0 202.038-42.986 271.53-112.478l-143.53-143.522h384v384l-149.97-149.978c-92.654 92.658-220.644 149.978-362.030 149.978-282.77 0-512-229.23-512-512z" />
<glyph unicode="&#xe967;" d="M39 273c15.604-3.068 30.938-7.068 46-12 3.87-1.3 7.87-1.966 12-2 4.199-2.224 8.865-3.558 14-4 4-1.334 8-2.666 12-4-3.060-6.966-5.060-14.3-6-22-2.667 0-5.333 0-8 0-4.13 0.034-8.13 0.7-12 2-21.913 5.648-43.913 11.648-66 18 2.695 8.168 5.362 16.168 8 24z" />
<glyph unicode="&#xe968;" d="M361 447c0.666 0 1.334 0 2 0 0-27.334 0-54.666 0-82 0-37.334 0-74.666 0-112 11.334 0 22.666 0 34 0 0 37.334 0 74.666 0 112 0 27.334 0 54.666 0 82 0.666 0 1.334 0 2 0 0-16.666 0-33.334 0-50 0-22 0-44 0-66 0-26 0-52 0-78 8 0 16 0 24 0 0.666 0 1.334 0 2 0 137.334 0 274.666 0 412 0 0 11.334 0 22.666 0 34 0 14 0 28 0 42 0 6 0 12 0 18s0 12 0 18c0 2 0 4 0 6 0 16 0 32 0 48 0 9.334 0 18.666 0 28 0.666 0 1.334 0 2 0 0-9.334 0-18.666 0-28 0-8 0-16 0-24 0-12 0-24 0-36 0-35.334 0-70.666 0-106 8 0 16 0 24 0 0 33.334 0 66.666 0 100 0 10.666 0 21.334 0 32 0 11.334 0 22.666 0 34 0 9.334 0 18.666 0 28 0.666 0 1.334 0 2 0 0-9.334 0-18.666 0-28 0-12 0-24 0-36 0-10.666 0-21.334 0-32 0-32.666 0-65.334 0-98 11.334 0 22.666 0 34 0 0 30.666 0 61.334 0 92 0 10.666 0 21.334 0 32 0 14 0 28 0 42 0 9.334 0 18.666 0 28 0.666 0 1.334 0 2 0 0-9.334 0-18.666 0-28s0-18.666 0-28c0-9.334 0-18.666 0-28 0-8.666 0-17.334 0-26 0-28 0-56 0-84 8 0 16 0 24 0 0.666 0 1.334 0 2 0 17.034 0.652 33.7-0.014 50-2-38.666 0-77.334 0-116 0-46.666 0-93.334 0-140 0-85.334 0-170.666 0-256 0-8 0-16 0-24 0-34 0-68 0-102 0-0.666 0-1.334 0-2 0 0 0.666 0 1.334 0 2 8 0 16 0 24 0 0 26 0 52 0 78 0 22 0 44 0 66 0 16.666 0 33.334 0 50z" />
<glyph unicode="&#xe969;" d="M425 287c137.334 0 274.666 0 412 0 0-11.334 0-22.666 0-34-137.334 0-274.666 0-412 0 0 11.334 0 22.666 0 34z" />
<glyph unicode="&#xe96a;" d="M839 359c7.756-2.85 15.756-4.85 24-6 0-33.334 0-66.666 0-100-8 0-16 0-24 0 0 35.334 0 70.666 0 106z" />
<glyph unicode="&#xe96b;" d="M399 331c8 0 16 0 24 0 0-26 0-52 0-78-8 0-16 0-24 0 0 26 0 52 0 78z" />
<glyph unicode="&#xe96c;" d="M865 351c8.484-2.44 17.484-5.108 27-8 2.022 1.674 4.356 2.34 7 2 0-30.666 0-61.334 0-92-11.334 0-22.666 0-34 0 0 32.666 0 65.334 0 98z" />
<glyph unicode="&#xe96d;" d="M837 329c0-14 0-28 0-42-137.334 0-274.666 0-412 0 0 14 0 28 0 42 137.334 0 274.666 0 412 0z" />
<glyph unicode="&#xe96e;" d="M363 365c11.334 0 22.666 0 34 0 0-37.334 0-74.666 0-112-11.334 0-22.666 0-34 0 0 37.334 0 74.666 0 112z" />
<glyph unicode="&#xe96f;" d="M423 447c0.666 0 1.334 0 2 0 0-20 0-40 0-60 0-7.334 0-14.666 0-22 0-6 0-12 0-18 137.334 0 274.666 0 412 0 0-6 0-12 0-18-137.334 0-274.666 0-412 0 0-14 0-28 0-42 0-11.334 0-22.666 0-34-0.666 0-1.334 0-2 0 0 26 0 52 0 78 0 22 0 44 0 66 0 16.666 0 33.334 0 50z" />
<glyph unicode="&#xe970;" glyph-name="bubbles4" horiz-adv-x="1152" d="M480 832c-50.666 0-99.582-7.95-145.386-23.628-42.924-14.694-81.114-35.436-113.502-61.646-60.044-48.59-93.112-110.802-93.112-175.174 0-35.99 10.066-70.948 29.92-103.898 20.686-34.34 51.898-65.794 90.26-90.958 30.44-19.968 50.936-51.952 56.362-87.95 0.902-5.99 1.63-12.006 2.18-18.032 2.722 2.52 5.424 5.114 8.114 7.794 24.138 24.040 56.688 37.312 90.322 37.312 5.348 0 10.718-0.336 16.094-1.018 19.36-2.452 39.124-3.696 58.748-3.696 50.666 0 99.58 7.948 145.384 23.628 42.926 14.692 81.116 35.434 113.504 61.644 60.046 48.59 93.112 110.802 93.112 175.174s-33.066 126.582-93.112 175.174c-32.388 26.212-70.578 46.952-113.504 61.646-45.804 15.678-94.718 23.628-145.384 23.628zM480 960v0c265.096 0 480-173.914 480-388.448s-214.904-388.448-480-388.448c-25.458 0-50.446 1.62-74.834 4.71-103.106-102.694-222.172-121.108-341.166-123.814v25.134c64.252 31.354 116 88.466 116 153.734 0 9.106-0.712 18.048-2.030 26.794-108.558 71.214-177.97 179.988-177.97 301.89 0 214.534 214.904 388.448 480 388.448zM996 89.314c0-55.942 36.314-104.898 92-131.772v-21.542c-103.126 2.318-197.786 18.102-287.142 106.126-21.14-2.65-42.794-4.040-64.858-4.040-95.47 0-183.408 25.758-253.614 69.040 144.674 0.506 281.26 46.854 384.834 130.672 52.208 42.252 93.394 91.826 122.414 147.348 30.766 58.866 46.366 121.582 46.366 186.406 0 10.448-0.45 20.836-1.258 31.168 72.57-59.934 117.258-141.622 117.258-231.676 0-104.488-60.158-197.722-154.24-258.764-1.142-7.496-1.76-15.16-1.76-22.966z" />
<glyph unicode="&#xe971;" d="M399 397c8 0 16 0 24 0 0-22 0-44 0-66-8 0-16 0-24 0 0 22 0 44 0 66z" />
<glyph unicode="&#xe972;" d="M865 383c11.276-2.428 22.61-4.428 34-6 0-10.666 0-21.334 0-32-2.644 0.34-4.978-0.326-7-2-9.516 2.892-18.516 5.56-27 8 0 10.666 0 21.334 0 32z" />
<glyph unicode="&#xe973;" d="M425 365c137.334 0 274.666 0 412 0 0-6 0-12 0-18-137.334 0-274.666 0-412 0 0 6 0 12 0 18z" />
<glyph unicode="&#xe974;" d="M839 395c7.296-4.88 15.296-8.214 24-10 0-10.666 0-21.334 0-32-8.244 1.15-16.244 3.15-24 6 0 12 0 24 0 36z" />
<glyph unicode="&#xe975;" d="M425 387c121.334 0 242.666 0 364 0 7.326-0.904 14.66-1.904 22-3-6.666-1.334-13.334-2.666-20-4 3.768-0.432 7.102-1.766 10-4 8.246 1.884 15.912 0.218 23-5 4.752 1.18 9.086 1.18 13 0 0-2 0-4 0-6-137.334 0-274.666 0-412 0 0 7.334 0 14.666 0 22z" />
<glyph unicode="&#xe976;" d="M865 419c11.334 0 22.666 0 34 0 0-14 0-28 0-42-11.39 1.572-22.724 3.572-34 6 0 12 0 24 0 36z" />
<glyph unicode="&#xe977;" d="M839 419c8 0 16 0 24 0 0-11.334 0-22.666 0-34-8.704 1.786-16.704 5.12-24 10 0 8 0 16 0 24z" />
<glyph unicode="&#xe978;" d="M837 419c0-16 0-32 0-48-3.914 1.18-8.248 1.18-13 0-7.088 5.218-14.754 6.884-23 5-2.898 2.234-6.232 3.568-10 4 6.666 1.334 13.334 2.666 20 4-7.34 1.096-14.674 2.096-22 3-3.584 1.618-7.584 2.618-12 3 5.334 0.666 10.666 1.334 16 2-0.666 0.666-1.334 1.334-2 2-17.060 4.814-33.726 8.148-50 10-0.666 0.666-1.334 1.334-2 2 2.904 3.034 5.904 3.368 9 1 4.928 1.322 9.928 2.322 15 3-13.416 0.578-26.75 1.91-40 4 2.666 0.666 5.334 1.334 8 2-1.334 0.666-2.666 1.334-4 2 36.66 1 73.328 1.334 110 1z" />
<glyph unicode="&#xe979;" d="M399 447c8 0 16 0 24 0 0-16.666 0-33.334 0-50-8 0-16 0-24 0 0 16.666 0 33.334 0 50z" />
<glyph unicode="&#xe97a;" d="M425 447c34.666 0 69.334 0 104 0 63.334 0 126.666 0 190 0 39.334 0 78.666 0 118 0 0-9.334 0-18.666 0-28-36.672 0.334-73.34 0-110-1 1.334-0.666 2.666-1.334 4-2-2.666-0.666-5.334-1.334-8-2 13.25-2.090 26.584-3.422 40-4-5.072-0.678-10.072-1.678-15-3-3.096 2.368-6.096 2.034-9-1 0.666-0.666 1.334-1.334 2-2 16.274-1.852 32.94-5.186 50-10 0.666-0.666 1.334-1.334 2-2-5.334-0.666-10.666-1.334-16-2 4.416-0.382 8.416-1.382 12-3-121.334 0-242.666 0-364 0 0 20 0 40 0 60z" />
<glyph unicode="&#xe97b;" d="M363 447c11.334 0 22.666 0 34 0 0-27.334 0-54.666 0-82-11.334 0-22.666 0-34 0 0 27.334 0 54.666 0 82z" />
<glyph unicode="&#xe97c;" d="M839 447c1.334 0 2.666 0 4 0 6.666 0 13.334 0 20 0 0-9.334 0-18.666 0-28-8 0-16 0-24 0 0 9.334 0 18.666 0 28z" />
<glyph unicode="&#xe97d;" d="M865 447c11.334 0 22.666 0 34 0 0-9.334 0-18.666 0-28-11.334 0-22.666 0-34 0 0 9.334 0 18.666 0 28z" />
<glyph unicode="&#xe97e;" d="M317 251c6.666 0 13.334 0 20 0 0.666 0 1.334 0 2 0-13.782-5.25-25.114-13.916-34-26-0.666 0-1.334 0-2 0-7.084-0.626-13.75 0.042-20 2 9.158 11.17 20.492 19.17 34 24z" />
<glyph unicode="&#xe97f;" d="M339 251c34 0 68 0 102 0-13.782-5.25-25.114-13.916-34-26-0.666 0-1.334 0-2 0-33.334 0-66.666 0-100 0 8.886 12.084 20.218 20.75 34 26z" />
<glyph unicode="&#xe980;" d="M441 251c8 0 16 0 24 0-14.26-6.146-26.926-14.812-38-26-6.666 0-13.334 0-20 0 8.886 12.084 20.218 20.75 34 26z" />
<glyph unicode="&#xe981;" d="M465 251c85.334 0 170.666 0 256 0-14.666-7.334-29.334-14.666-44-22-52.004 0.334-104.004 0-156-1-22.9-5.258-39.568-18.258-50-39-1.676-0.684-2.344-2.016-2-4-5.122-9.822-7.788-20.488-8-32-8.374-4.52-17.042-8.52-26-12-1.172 0.418-2.172 1.086-3 2-0.996 6.634-1.33 13.3-1 20-4.666 0-9.334 0-14 0 0 10.666 0 21.334 0 32 0 2.666 0 5.334 0 8 3.806 6.958 7.14 14.292 10 22 11.074 11.188 23.74 19.854 38 26z" />
<glyph unicode="&#xe982;" d="M721 251c46.666 0 93.334 0 140 0-14.666-7.334-29.334-14.666-44-22-46.666 0-93.334 0-140 0 14.666 7.334 29.334 14.666 44 22z" />
<glyph unicode="&#xe983;" d="M861 251c38.666 0 77.334 0 116 0 2.666 0 5.334 0 8 0 7.75-5.468 13.082-12.8 16-22-61.334 0-122.666 0-184 0 14.666 7.334 29.334 14.666 44 22z" />
<glyph unicode="&#xe984;" d="M31 249c22.087-6.352 44.087-12.352 66-18-2.98-11.252-5.646-22.586-8-34-21.89 5.638-43.89 10.972-66 16 2.667 12 5.333 24 8 36z" />
<glyph unicode="&#xe985;" d="M123 251c2.667-0.666 5.333-1.334 8-2 3.234-1.076 6.568-1.742 10-2 15.994-3.998 31.994-7.998 48-12 10.856-3.854 22.19-6.854 34-9 2.512-0.834 3.846-2.5 4-5-1.11-7.794-3.11-15.126-6-22-29.146 7.954-58.48 15.286-88 22-8 2.666-16 5.334-24 8 2.667 0 5.333 0 8 0 0.94 7.7 2.94 15.034 6 22z" />
<glyph unicode="&#xe986;" d="M677 229c46.666 0 93.334 0 140 0 61.334 0 122.666 0 184 0 11.248-2.59 18.582-9.258 22-20 0-6.666 0-13.334 0-20-84 0-168 0-252 0-100 0-200 0-300 0 10.432 20.742 27.1 33.742 50 39 51.996 1 103.996 1.334 156 1z" />
<glyph unicode="&#xe987;" d="M97 231c3.87-1.3 7.87-1.966 12-2 8-2.666 16-5.334 24-8-1.725-11.566-4.392-22.9-8-34-5.852 1.922-11.852 3.254-18 4-5.897 1.736-11.897 3.736-18 6 2.354 11.414 5.020 22.748 8 34z" />
<glyph unicode="&#xe988;" d="M133 221c29.52-6.714 58.854-14.046 88-22-1.734-11.598-4.4-22.932-8-34-29.342 7.336-58.675 14.668-88 22 3.608 11.1 6.275 22.434 8 34z" />
<glyph unicode="&#xe989;" d="M405 225c0.666 0 1.334 0 2 0 6.666 0 13.334 0 20 0-2.86-7.708-6.194-15.042-10-22-7.538 0.512-14.872-0.154-22-2 2.264 8.52 5.598 16.52 10 24z" />
<glyph unicode="&#xe98a;" d="M283 227c6.25-1.958 12.916-2.626 20-2-5.186-9.018-9.186-18.35-12-28-7.334 0-14.666 0-22 0 2.782 11.078 7.448 21.078 14 30z" />
<glyph unicode="&#xe98b;" d="M303 225c0.666 0 1.334 0 2 0 33.334 0 66.666 0 100 0-4.402-7.48-7.736-15.48-10-24-1.688-7.198-2.354-14.532-2-22-34 0-68 0-102 0 0 6 0 12 0 18 2.814 9.65 6.814 18.982 12 28z" />
<glyph unicode="&#xe98c;" d="M285 251c3.334 0 6.666 0 10 0 7.334 0 14.666 0 22 0-13.508-4.83-24.842-12.83-34-24-6.552-8.922-11.218-18.922-14-30 0-2 0-4 0-6-1.972-8.94-2.638-18.274-2-28-10.614-1.052-20.614 0.28-30 4-4.498 40.4 11.502 68.4 48 84z" />
<glyph unicode="&#xe98d;" d="M23 213c22.11-5.028 44.11-10.362 66-16 6.103-2.264 12.103-4.264 18-6-0.168-8.674-2.168-16.674-6-24-4.13 0.034-8.13 0.7-12 2-5.437 2.826-11.437 4.16-18 4-18.124 5.030-36.124 10.362-54 16 0.756 8.356 2.756 16.356 6 24z" />
<glyph unicode="&#xe98e;" d="M417 203c0-2.666 0-5.334 0-8-1.946-4.896-2.612-10.23-2-16-7.538 0.512-14.872-0.154-22-2 0 0.666 0 1.334 0 2-0.354 7.468 0.312 14.802 2 22 7.128 1.846 14.462 2.512 22 2z" />
<glyph unicode="&#xe98f;" d="M17 189c17.876-5.638 35.876-10.97 54-16-1.992 0.172-3.658-0.496-5-2-8.304-30.548-15.97-61.216-23-92-10.022 2.676-20.022 5.676-30 9-5.812 4.138-10.479 9.138-14 15 0 8 0 16 0 24 6.311 20.576 12.311 41.242 18 62z" />
<glyph unicode="&#xe990;" d="M771 189c84 0 168 0 252 0 0-4 0-8 0-12-87.3 3.296-174.634 5.628-262 7-1.334 0.666-2.666 1.334-4 2 5.072 0.372 9.738 1.372 14 3z" />
<glyph unicode="&#xe991;" d="M107 191c6.148-0.746 12.148-2.078 18-4 29.325-7.332 58.658-14.664 88-22-2.314-8.586-4.314-17.254-6-26-12.904 2.578-25.571 5.912-38 10-16.676 4.004-33.343 8.004-50 12-6.265 1.72-12.265 3.72-18 6 3.832 7.326 5.832 15.326 6 24z" />
<glyph unicode="&#xe992;" d="M269 197c7.334 0 14.666 0 22 0 0-6 0-12 0-18 0-3.334 0-6.666 0-10-6.662 3.596-13.996 4.928-22 4 0 6 0 12 0 18 0 2 0 4 0 6z" />
<glyph unicode="&#xe993;" d="M291 179c34 0 68 0 102 0 0-0.666 0-1.334 0-2 0-7.334 0-14.666 0-22-34 0-68 0-102 0 0 4.666 0 9.334 0 14 0 3.334 0 6.666 0 10z" />
<glyph unicode="&#xe994;" d="M471 189c100 0 200 0 300 0-4.262-1.628-8.928-2.628-14-3 1.334-0.666 2.666-1.334 4-2 87.366-1.372 174.7-3.704 262-7 0-4.666 0-9.334 0-14-9.954-0.216-19.62 1.118-29 4-19.862-1.902-39.528-2.568-59-2-37.2 3.708-74.2 6.374-111 8-23.726-0.018-47.392-0.018-71 0-95.374 3.62-190.040 7.62-284 12-0.344 1.984 0.324 3.316 2 4z" />
<glyph unicode="&#xe995;" d="M71 173c6.563 0.16 12.563-1.174 18-4-2.5-0.154-4.166-1.488-5-4-6.901-29.272-14.567-58.272-23-87 1.112-0.766 1.779-1.766 2-3-6.667 1.334-13.333 2.666-20 4 7.030 30.784 14.696 61.452 23 92 1.342 1.504 3.008 2.172 5 2z" />
<glyph unicode="&#xe996;" d="M469 185c93.96-4.38 188.626-8.38 284-12 23.608-0.018 47.274-0.018 71 0 36.8-1.626 73.8-4.292 111-8 19.472-0.568 39.138 0.098 59 2 9.38-2.882 19.046-4.216 29-4 0-2.666 0-5.334 0-8-186.666 0-373.334 0-560 0 0-3.334 0-6.666 0-10-1.868 2.136-2.536 4.802-2 8 0.212 11.512 2.878 22.178 8 32z" />
<glyph unicode="&#xe997;" glyph-name="magic-wand" d="M256 768l-128 128h-64v-64l128-128zM320 960h64v-128h-64zM576 640h128v-64h-128zM640 832v64h-64l-128-128 64-64zM0 640h128v-64h-128zM320 384h64v-128h-64zM64 384v-64h64l128 128-64 64zM1010 78l-636.118 636.118c-18.668 18.668-49.214 18.668-67.882 0l-60.118-60.118c-18.668-18.668-18.668-49.214 0-67.882l636.118-636.118c18.668-18.668 49.214-18.668 67.882 0l60.118 60.118c18.668 18.668 18.668 49.214 0 67.882zM480 416l-192 192 64 64 192-192-64-64z" />
<glyph unicode="&#xe998;" d="M269 191c0-6 0-12 0-18 0-4 0-8 0-12-1.922-3.53-2.59-7.53-2-12-10.19 0.558-20.19-0.11-30-2 0 6.666 0 13.334 0 20 9.386-3.72 19.386-5.052 30-4-0.638 9.726 0.028 19.060 2 28z" />
<glyph unicode="&#xe999;" d="M89 169c3.87-1.3 7.87-1.966 12-2 5.735-2.28 11.735-4.28 18-6-7.688-31.418-15.688-62.75-24-94-10.854 2.046-21.52 4.714-32 8-0.221 1.234-0.888 2.234-2 3 8.433 28.728 16.099 57.728 23 87 0.834 2.512 2.5 3.846 5 4z" />
<glyph unicode="&#xe99a;" d="M415 179c0-8.666 0-17.334 0-26 0-1.334 0-2.666 0-4-8.004 0.928-15.338-0.404-22-4 0 3.334 0 6.666 0 10 0 7.334 0 14.666 0 22 7.128 1.846 14.462 2.512 22 2z" />
<glyph unicode="&#xe99b;" d="M119 161c16.657-3.996 33.324-7.996 50-12-6.706-32.158-14.040-64.158-22-96-17.704 4.088-35.037 8.756-52 14 8.312 31.25 16.312 62.582 24 94z" />
<glyph unicode="&#xe99c;" d="M269 173c8.004 0.928 15.338-0.404 22-4 0-4.666 0-9.334 0-14 0-4 0-8 0-12-7.334 0-14.666 0-22 0 0 6 0 12 0 18 0 4 0 8 0 12z" />
<glyph unicode="&#xe99d;" d="M1023 155c0-4 0-8 0-12-186.666 0-373.334 0-560 0 0 0.666 0 1.334 0 2 0 3.334 0 6.666 0 10 186.666 0 373.334 0 560 0z" />
<glyph unicode="&#xe99e;" d="M169 149c12.429-4.088 25.096-7.422 38-10-6.73-26.248-14.397-52.248-23-78-10.7-9.86-23.033-12.526-37-8 7.96 31.842 15.294 63.842 22 96z" />
<glyph unicode="&#xe99f;" d="M291 155c34 0 68 0 102 0 0-3.334 0-6.666 0-10 0-4 0-8 0-12-34 0-68 0-102 0 0 3.334 0 6.666 0 10 0 4 0 8 0 12z" />
<glyph unicode="&#xe9a0;" d="M417 195c0-10.666 0-21.334 0-32 4.666 0 9.334 0 14 0-0.33-6.7 0.004-13.366 1-20 0.828-0.914 1.828-1.582 3-2 8.958 3.48 17.626 7.48 26 12-0.536-3.198 0.132-5.864 2-8 0-0.666 0-1.334 0-2 0.554-8.288 3.22-15.622 8-22 7.266-15.318 18.6-26.652 34-34-9.186-4.638-18.518-9.306-28-14-24.090 15.458-38.756 37.458-44 66-5.334 0-10.666 0-16 0 0.604 5.118-0.064 9.786-2 14 0 8.666 0 17.334 0 26-0.612 5.77 0.054 11.104 2 16z" />
<glyph unicode="&#xe9a1;" d="M463 143c186.666 0 373.334 0 560 0 0-7.334 0-14.666 0-22-184 0-368 0-552 0-4.78 6.378-7.446 13.712-8 22z" />
<glyph unicode="&#xe9a2;" d="M269 161c0-6 0-12 0-18-5.404-43.836 12.596-72.502 54-86-61.876-2.118-90.542 27.882-86 90 9.81 1.89 19.81 2.558 30 2-0.59 4.47 0.078 8.47 2 12z" />
<glyph unicode="&#xe9a3;" d="M415 149c0-10 0-20 0-30-7.658 1.138-14.326-0.196-20-4-1.954 5.574-2.62 11.574-2 18 0 4 0 8 0 12 6.662 3.596 13.996 4.928 22 4z" />
<glyph unicode="&#xe9a4;" glyph-name="leaf" d="M1011.328 825.504c-110.752 83.928-281.184 134.034-455.91 134.034-216.12 0-392.226-75.456-483.16-207.020-42.708-61.79-66.33-134.958-70.208-217.474-3.454-73.474 8.884-154.726 36.684-242.146 94.874 284.384 359.82 507.102 665.266 507.102 0 0-285.826-75.232-465.524-308.192-0.112-0.138-2.494-3.090-6.614-8.698-36.080-48.278-67.538-103.162-91.078-165.328-39.87-94.83-76.784-224.948-76.784-381.782h128c0 0-19.43 122.222 14.36 262.79 55.89-7.556 105.858-11.306 150.852-11.306 117.678 0 201.37 25.46 263.388 80.124 55.568 48.978 86.198 114.786 118.624 184.456 49.524 106.408 105.654 227.010 268.654 320.152 9.33 5.332 15.362 14.992 16.056 25.716s-4.040 21.080-12.606 27.572z" />
<glyph unicode="&#xe9a5;" d="M471 121c184 0 368 0 552 0 0-6 0-12 0-18-4.772-9.438-12.106-16.104-22-20-59.27-1.952-118.604-2.62-178-2-46 0-92 0-138 0-54.67-0.334-109.338 0-164 1-5.558 1.122-10.892 2.788-16 5-15.4 7.348-26.734 18.682-34 34z" />
<glyph unicode="&#xe9a6;" d="M269 143c7.334 0 14.666 0 22 0 0-3.334 0-6.666 0-10-0.33-39.63 18.338-64.964 56-76-8 0-16 0-24 0-41.404 13.498-59.404 42.164-54 86z" />
<glyph unicode="&#xe9a7;" d="M415 119c6.176-32.166 24.842-52.834 56-62-7.334 0-14.666 0-22 0-23.216 6.196-40.216 20.196-51 42-2.158 5.126-3.158 10.458-3 16 5.674 3.804 12.342 5.138 20 4z" />
<glyph unicode="&#xe9a8;" glyph-name="hammer2" d="M1010.174 44.25l-548.634 499.458 25.534 25.598c20.894 20.954 32.188 48.030 33.918 75.61 1.002 0.45 2.002 0.912 2.958 1.442l102.99 64.402c13.934 16.392 12.916 42.268-2.284 57.502l-179.12 179.608c-15.19 15.234-40.998 16.262-57.344 2.284l-64.236-103.268c-0.526-0.966-0.99-1.966-1.44-2.974-27.502-1.736-54.5-13.056-75.398-34.006l-97.428-97.702c-20.898-20.956-32.184-48.026-33.918-75.604-1.004-0.45-2.004-0.916-2.964-1.446l-102.986-64.406c-13.942-16.39-12.916-42.264 2.276-57.496l179.12-179.604c15.194-15.238 40.996-16.262 57.35-2.286l64.228 103.27c0.528 0.958 0.988 1.96 1.442 2.966 27.502 1.738 54.504 13.050 75.398 34.004l28.292 28.372 498.122-550.114c14.436-15.944 36.7-18.518 49.474-5.712l50.356 50.488c12.764 12.808 10.196 35.132-5.706 49.614z" />
<glyph unicode="&#xe9a9;" d="M291 133c34 0 68 0 102 0-0.62-6.426 0.046-12.426 2-18-0.158-5.542 0.842-10.874 3-16 10.784-21.804 27.784-35.804 51-42-34 0-68 0-102 0-37.662 11.036-56.33 36.37-56 76z" />
<glyph unicode="&#xe9aa;" d="M505 87c5.108-2.212 10.442-3.878 16-5 54.662-1 109.33-1.334 164-1-14.242-7.45-28.908-14.45-44-21-19.684-0.34-39.018-1.34-58-3-22.666 0-45.334 0-68 0-13.588 2.98-26.256 8.312-38 16 9.482 4.694 18.814 9.362 28 14z" />
<glyph unicode="&#xe9ab;" d="M685 81c46 0 92 0 138 0-18.346-10.854-37.68-18.854-58-24-60.666 0-121.334 0-182 0 18.982 1.66 38.316 2.66 58 3 15.092 6.55 29.758 13.55 44 21z" />
<glyph unicode="&#xe9ac;" d="M1001 83c-1.988-12.99-9.322-21.324-22-25-71.33-1-142.664-1.334-214-1 20.32 5.146 39.654 13.146 58 24 59.396-0.62 118.73 0.048 178 2z" />
<glyph unicode="&#xe9ad;" d="M415 153c1.936-4.214 2.604-8.882 2-14 5.334 0 10.666 0 16 0 5.244-28.542 19.91-50.542 44-66 11.744-7.688 24.412-13.020 38-16-14.666 0-29.334 0-44 0-31.158 9.166-49.824 29.834-56 62 0 10 0 20 0 30 0 1.334 0 2.666 0 4z" />
<glyph unicode="&#xe9ae;" d="M143 961c285.334 0 570.666 0 856 0 10-6 18-14 24-24 0-8.667 0-17.333 0-26-4.172-10.509-11.504-18.175-22-23-13.152-2.755-26.486-3.755-40-3-28 0-56 0-84 0-244.738 0.981-489.404-0.019-734-3-47.038-17.034-70.038-50.701-69-101 9.504-53.176 41.171-81.176 95-84 276.332-1.666 552.998-2.666 830-3 10.378-5.382 18.378-13.048 24-23 0-8.666 0-17.334 0-26-5.382-13.702-15.382-22.036-30-25-39.328-1-78.662-1.334-118-1-28.666 0-57.334 0-86 0-212 0-424 0-636 0-83.544 13.544-134.877 61.544-154 144 0 18 0 36 0 54 17.333 78.667 65.333 126.667 144 144z" />
<glyph unicode="&#xe9af;" d="M877 885c-31.922-46.265-38.922-96.265-21-150 4.966-13.944 11.966-26.612 21-38-236 0-472 0-708 0-53.829 2.824-85.496 30.824-95 84-1.038 50.299 21.962 83.966 69 101 244.596 2.981 489.262 3.981 734 3z" />
<glyph unicode="&#xe9b0;" d="M877 885c28 0 56 0 84 0-42.516-62.354-42.516-124.687 0-187-27.992-1-55.992-1.334-84-1-9.034 11.388-16.034 24.056-21 38-17.922 53.735-10.922 103.735 21 150z" />
<glyph unicode="&#xe9b1;" d="M153 619c212 0 424 0 636 0 48.878-7.608 88.544-30.94 119-70 9.142-12.95 16.142-26.95 21-42-16.936 19.472-38.27 31.14-64 35-268 1-536 1.334-804 1-13.514-0.754-26.847 0.246-40 3-10.548 4.874-17.881 12.542-22 23 0 8 0 16 0 24 4.964 11.96 13.631 20.294 26 25 42.661 1 85.328 1.334 128 1z" />
<glyph unicode="&#xe9b2;" d="M789 619c28.666 0 57.334 0 86 0 80.202-16.202 129.536-64.202 148-144 0-18 0-36 0-54-16.73-74.73-62.064-122.064-136-142-5.334 0-10.666 0-16 0-25.342-0.334-50.676 0-76 1 49.326 8.030 88.326 32.364 117 73 7.296 11.256 12.962 23.256 17 36 23.872 39.456 23.872 78.79 0 118-4.858 15.050-11.858 29.050-21 42-30.456 39.060-70.122 62.392-119 70z" />
<glyph unicode="&#xe9b3;" d="M61 543c268 0.334 536 0 804-1 25.73-3.86 47.064-15.528 64-35 23.872-39.21 23.872-78.544 0-118-14.824-16.084-32.824-27.084-54-33-35.25-2.828-70.582-3.828-106-3 0 26.666 0 53.334 0 80 19.344-0.332 38.678 0 58 1 6.032 3.058 8.698 8.058 8 15 1.032 6.63-1.634 10.964-8 13-182 1.334-364 1.334-546 0-11.124-10.326-10.458-19.658 2-28 116.664-1 233.332-1.334 350-1 0-26.666 0-53.334 0-80-190.666 0-381.334 0-572 0 42.667 63.334 42.667 126.666 0 190z" />
<glyph unicode="&#xe9b4;" d="M769 433c-22.666 0-45.334 0-68 0s-45.334 0-68 0c-116.668-0.334-233.336 0-350 1-12.458 8.342-13.124 17.674-2 28 182 1.334 364 1.334 546 0 6.366-2.036 9.032-6.37 8-13 0.698-6.942-1.968-11.942-8-15-19.322-1-38.656-1.332-58-1z" />
<glyph unicode="&#xe9b5;" d="M633 433c22.666 0 45.334 0 68 0-0.654-80.812 0.012-161.478 2-242-23.816-19.466-46.816-40.134-69-62-0.338 24.348-1.338 48.348-3 72 0 0.666 0 1.334 0 2 1.99 24.31 2.658 48.978 2 74 0 25.334 0 50.666 0 76 0 26.666 0 53.334 0 80z" />
<glyph unicode="&#xe9b6;" d="M701 433c22.666 0 45.334 0 68 0 0-26.666 0-53.334 0-80 0-25.334 0-50.666 0-76 0-24.666 0-49.334 0-74 0-0.666 0-1.334 0-2 0.664-24.036-0.002-48.036-2-72-21.428 20.764-42.762 41.43-64 62-1.988 80.522-2.654 161.188-2 242z" />
<glyph unicode="&#xe9b7;" d="M929 389c-4.038-12.744-9.704-24.744-17-36-28.674-40.636-67.674-64.97-117-73 25.324-1 50.658-1.334 76-1-33.65-1.994-67.65-2.66-102-2 0 25.334 0 50.666 0 76 35.418-0.828 70.75 0.172 106 3 21.176 5.916 39.176 16.916 54 33z" />
<glyph unicode="&#xe9b8;" d="M61 353c190.666 0 381.334 0 572 0 0-25.334 0-50.666 0-76-164.666 0-329.334 0-494 0-37.339-0.334-74.673 0-112 1-13.56 3.908-22.893 12.24-28 25 0 8.666 0 17.334 0 26 4.852 8.524 11.519 15.524 20 21 13.822 2.768 27.822 3.768 42 3z" />
<glyph unicode="&#xe9b9;" d="M871 279c5.334 0 10.666 0 16 0 35.34 0.334 70.672 0 106-1 14.618-2.964 24.618-11.298 30-25 0-8.666 0-17.334 0-26-5.622-9.952-13.622-17.618-24-23-76.664-1-153.33-1.334-230-1 0 24.666 0 49.334 0 74 34.35-0.66 68.35 0.006 102 2z" />
<glyph unicode="&#xe9ba;" d="M139 277c164.666 0 329.334 0 494 0 0.658-25.022-0.010-49.69-2-74-154.336 0.666-308.336-0.002-462-2-47.952-2.138-78.952-26.138-93-72-7.565-55.926 14.768-93.592 67-113 244.596-2.982 489.262-3.982 734-3 28 0 56 0 84 0 13.514 0.754 26.848-0.246 40-3 10.496-4.824 17.828-12.492 22-23 0-8.666 0-17.334 0-26-6-10-14-18-24-24-285.334 0-570.666 0-856 0-78.667 17.334-126.667 65.334-144 144 0 18 0 36 0 54 17.126 76.46 63.793 123.792 140 142z" />
<glyph unicode="&#xe9bb;" d="M169 201c154 0 308 0 462 0 1.662-23.652 2.662-47.652 3-72 22.184 21.866 45.184 42.534 69 62 21.238-20.57 42.572-41.236 64-62 1.998 23.964 2.664 47.964 2 72 36 0 72 0 108 0-32.706-47.794-39.040-99.128-19-154 5.344-12.034 11.678-23.368 19-34-244.738-0.982-489.404 0.018-734 3-52.232 19.408-74.565 57.074-67 113 14.048 45.862 45.048 69.862 93 72z" />
<glyph unicode="&#xe9bc;" d="M877 201c28.008 0.334 56.008 0 84-1-42.516-62.312-42.516-124.646 0-187-28 0-56 0-84 0-7.322 10.632-13.656 21.966-19 34-20.040 54.872-13.706 106.206 19 154z" />
<glyph unicode="&#xe9bd;" d="M735 961c-66.836-19.214-134.17-37.548-202-55-8.312-1.647-15.978-4.647-23-9-0.666 14-1.334 28-2 42-3.274 4.62-7.608 7.62-13 9-156.666 1.333-313.333 1.333-470 0-8.054-0.854-13.054-5.187-15-13-1.333-324-1.333-648 0-972 1.946-7.812 6.946-12.146 15-13 156.667-1.334 313.334-1.334 470 0 5.392 1.38 9.726 4.38 13 9 0.666 299.334 1.334 598.666 2 898 80.666-301.334 161.334-602.666 242-904 1.25-7.218 4.916-12.552 11-16 6 0 12 0 18 0 71.59 20.236 143.59 39.902 216 59 9.006 2.644 14.34 8.644 16 18-83.154 310.284-166.154 620.618-249 931-1.25 7.219-4.916 12.552-11 16-6 0-12 0-18 0zM731 923c3.216-5.42 5.55-11.42 7-18 77.712-292.186 156.046-584.186 235-876-1.762-2.942-4.428-4.608-8-5-60.522-15.88-120.854-32.212-181-49-80.642 297.902-160.976 595.902-241 894 1.762 2.941 4.428 4.608 8 5 60.41 15.764 120.41 32.097 180 49zM45 913c66 0 132 0 198 0 0-309.334 0-618.666 0-928-66 0-132 0-198 0 0 309.334 0 618.666 0 928zM277 913c66 0 132 0 198 0 0-309.334 0-618.666 0-928-66 0-132 0-198 0 0 309.334 0 618.666 0 928z" />
<glyph unicode="&#xe9be;" d="M89 849c36.006 0.333 72.006 0 108-1 12.622-5.176 16.288-14.176 11-27-2.638-3.975-6.304-6.308-11-7-35.333-1.333-70.667-1.333-106 0-10.097 1.193-14.764 6.86-14 17-0.431 9.178 3.569 15.178 12 18z" />
<glyph unicode="&#xe9bf;" d="M323 849c35.34 0.333 70.672 0 106-1 12.91-3.634 17.242-11.967 13-25-3.274-4.62-7.608-7.62-13-9-35.334-1.333-70.666-1.333-106 0-14.436 5.596-17.77 15.262-10 29 3.29 2.393 6.622 4.393 10 6z" />
<glyph unicode="&#xe9c0;" d="M703 849c15.944-0.273 22.944-8.273 21-24-2.334-5-6-8.667-11-11-33.944-9.203-67.944-18.203-102-27-13.9 2.226-19.566 10.226-17 24 2.334 5 6 8.667 11 11 33.064 8.479 65.73 17.479 98 27z" />
<glyph unicode="&#xe9c1;" d="M723 785c15.636-1.908 21.304-10.575 17-26-1.666-4.334-4.666-7.334-9-9-34.226-9.408-68.558-18.408-103-27-14.972 2.596-20.306 11.264-16 26 3.086 3.756 6.752 6.756 11 9 33.578 9.056 66.91 18.056 100 27z" />
<glyph unicode="&#xe9c2;" d="M91 783c34.673 0.333 69.34 0 104-1 14.274-4.138 18.608-13.138 13-27-2.428-3.098-5.428-5.43-9-7-37.333-1.334-74.667-1.334-112 0-11.463 7.682-13.797 17.349-7 29 3.752 2.217 7.419 4.217 11 6z" />
<glyph unicode="&#xe9c3;" d="M325 783c34.006 0.333 68.006 0 102-1 13.382-3.076 18.382-11.409 15-25-2.454-4.452-6.122-7.452-11-9-36.666-1.334-73.334-1.334-110 0-11.184 4.804-14.85 13.138-11 25 3.826 5.561 8.826 8.894 15 10z" />
<glyph unicode="&#xe9c4;" d="M883 175c15.944-0.272 22.944-8.272 21-24-1.57-3.572-3.902-6.572-7-9-34.864-10.064-69.864-19.73-105-29-12.536 1.414-18.87 8.414-19 21 1.208 4.936 3.876 8.936 8 12 34.262 9.542 68.262 19.208 102 29z" />
<glyph unicode="&#xe9c5;" d="M87 151c37.339 0.334 74.673 0 112-1 11.744-6.032 14.744-15.032 9-27-3.6-3.634-7.932-5.968-13-7-34.667-1.334-69.333-1.334-104 0-14.506 5.738-18.172 15.406-11 29 2.29 2.272 4.623 4.272 7 6z" />
<glyph unicode="&#xe9c6;" d="M321 151c36.672 0.334 73.34 0 110-1 14.396-8.788 15.73-19.454 4-32-2.666-0.666-5.334-1.334-8-2-34-1.334-68-1.334-102 0-14.080 2.768-19.080 11.102-15 25 2.812 4.488 6.478 7.82 11 10z" />
<glyph unicode="&#xe9c7;" d="M901 111c18.724-1.044 25.058-10.376 19-28-2.428-3.098-5.428-5.43-9-7-33.944-9.204-67.944-18.204-102-27-13.9 2.226-19.566 10.226-17 24 2.334 5 6 8.666 11 11 33.064 8.48 65.73 17.48 98 27z" />
<glyph unicode="&#xe9c8;" d="M91 85c35.34 0.334 70.673 0 106-1 12.622-5.176 16.288-14.176 11-27-2.638-3.974-6.304-6.308-11-7-36-1.334-72-1.334-108 0-8.666 2.322-12.666 7.99-12 17-0.434 10.21 4.233 16.21 14 18z" />
<glyph unicode="&#xe9c9;" d="M323 85c35.34 0.334 70.672 0 106-1 12.99-3.692 17.324-12.024 13-25-2.756-5.216-7.090-8.216-13-9-35.334-1.334-70.666-1.334-106 0-14.436 5.596-17.77 15.262-10 29 3.29 2.392 6.622 4.392 10 6z" />
<glyph unicode="&#xe9ca;" d="M375 961c8 0 16 0 24 0 62.618-20.318 125.284-41.318 188-63 66-0.667 132-1.333 198-2 32.334-8.333 52.666-28.667 61-61 0.344-8.742 1.344-17.409 3-26 17.774-6.925 35.774-13.258 54-19 41.176-20.693 56.844-53.694 47-99-34-99.334-68-198.666-102-298-0.666-110-1.334-220-2-330-8.334-32.334-28.666-52.666-61-61-23.334-0.666-46.666-1.334-70-2-10.944-33.954-33.61-54.954-68-63-8 0-16 0-24 0-62.1 19.924-124.1 40.924-186 63-66.666 0.666-133.334 1.334-200 2-42.251 13.294-63.584 42.294-64 87-17.774 6.924-35.774 13.258-54 19-41.177 20.694-56.844 53.694-47 99 34 99.334 68 198.666 102 298 0.667 110 1.333 220 2 330 7.121 29.122 24.788 48.788 53 59 25.888 2.512 51.888 3.846 78 4 10.944 33.953 33.61 54.953 68 63z" />
<glyph unicode="&#xe9cb;" d="M373 927c11.49 0.578 22.824-0.422 34-3 25.184-9.062 50.518-17.728 76-26-46.68-1.666-93.348-1.333-140 1 7.064 12.523 17.064 21.857 30 28z" />
<glyph unicode="&#xe9cc;" d="M243 865c178.002 0.333 356.002 0 534-1 18.146-5.478 30.48-17.145 37-35 1.334-252.666 1.334-505.334 0-758-5.666-19-18-31.334-37-37-178-1.334-356-1.334-534 0-17.854 6.52-29.522 18.854-35 37-1.334 252.666-1.334 505.334 0 758 6.706 17.037 18.372 29.037 35 36z" />
<glyph unicode="&#xe9cd;" d="M255 817c10.666 0 21.334 0 32 0 0-10.667 0-21.333 0-32-10.666 0-21.334 0-32 0 0 10.667 0 21.333 0 32z" />
<glyph unicode="&#xe9ce;" d="M437 791c26.736 3.743 51.402-1.59 74-16 27.774 17.657 57.108 20.657 88 9 22.646-17.958 29.646-40.958 21-69-9.584-24.248-23.916-45.248-43-63-16.624-13.644-33.958-26.312-52-38-4.732-2.466-9.732-4.132-15-5-39.222 17.878-71.222 44.546-96 80-13.806 21.020-17.806 43.688-12 68 6.414 16.988 18.080 28.321 35 34z" />
<glyph unicode="&#xe9cf;" d="M847 773c19.36-5.23 38.028-12.23 56-21 15.046-13.86 20.046-30.86 15-51-23.334-68.666-46.666-137.334-70-206-1 92.664-1.334 185.33-1 278z" />
<glyph unicode="&#xe9d0;" d="M557 761c29.524 1.48 39.858-11.854 31-40-17.948-33.614-43.614-59.614-77-78-33.386 18.386-59.052 44.386-77 78-2.726 8.522-3.392 17.19-2 26 2.334 5 6 8.666 11 11 22.602 4.188 41.936-1.812 58-18 3.068-1.846 6.402-2.846 10-3 14.49 9.578 29.822 17.578 46 24z" />
<glyph unicode="&#xe9d1;" d="M255 753c10.666 0 21.334 0 32 0 0-10.666 0-21.334 0-32-10.666 0-21.334 0-32 0 0 10.666 0 21.334 0 32z" />
<glyph unicode="&#xe9d2;" d="M255 689c10.666 0 21.334 0 32 0 0-10.666 0-21.334 0-32-10.666 0-21.334 0-32 0 0 10.666 0 21.334 0 32z" />
<glyph unicode="&#xe9d3;" d="M437 535c26.736 3.744 51.402-1.59 74-16 27.774 17.656 57.108 20.656 88 9 22.646-17.958 29.646-40.958 21-69-9.584-24.248-23.916-45.248-43-63-16.624-13.644-33.958-26.312-52-38-4.732-2.466-9.732-4.132-15-5-39.222 17.878-71.222 44.546-96 80-13.806 21.020-17.806 43.688-12 68 6.414 16.988 18.080 28.322 35 34z" />
<glyph unicode="&#xe9d4;" d="M557 505c29.524 1.48 39.858-11.854 31-40-17.948-33.614-43.614-59.614-77-78-33.386 18.386-59.052 44.386-77 78-2.726 8.522-3.392 17.19-2 26 2.334 5 6 8.666 11 11 22.602 4.188 41.936-1.812 58-18 3.068-1.846 6.402-2.846 10-3 14.49 9.578 29.822 17.578 46 24z" />
<glyph unicode="&#xe9d5;" d="M173 403c1.998-92.328 2.664-184.994 2-278-19.671 4.444-38.337 11.444-56 21-14.7 14.784-19.7 32.45-15 53 23.213 67.972 46.213 135.972 69 204z" />
<glyph unicode="&#xe9d6;" d="M503 279c5.374 0.328 10.708-0.006 16-1 45.16-23.16 78.828-57.494 101-103 10.25-48.882-9.416-74.882-59-78-18.236 1.634-34.902 7.634-50 18-26.946-18.4-55.612-22.066-86-11-18.428 11.852-27.094 28.852-26 51 2.436 23.536 11.436 44.202 27 62 22.574 24.95 48.24 45.616 77 62z" />
<glyph unicode="&#xe9d7;" d="M507 245c36.152-15.138 63.152-40.472 81-76 8.076-30.594-3.592-43.594-35-39-12.914 4.118-24.248 10.786-34 20-5.334 1.334-10.666 1.334-16 0-16.148-15.828-35.48-22.494-58-20-12.498 7.446-16.83 18.446-13 33 8.122 20.568 20.456 38.236 37 53 12.468 10.16 25.134 19.828 38 29z" />
<glyph unicode="&#xe9d8;" d="M735 241c10.666 0 21.334 0 32 0 0-10.666 0-21.334 0-32-10.666 0-21.334 0-32 0 0 10.666 0 21.334 0 32z" />
<glyph unicode="&#xe9d9;" d="M735 177c10.666 0 21.334 0 32 0 0-10.666 0-21.334 0-32-10.666 0-21.334 0-32 0 0 10.666 0 21.334 0 32z" />
<glyph unicode="&#xe9da;" d="M735 113c10.666 0 21.334 0 32 0 0-10.666 0-21.334 0-32-10.666 0-21.334 0-32 0 0 10.666 0 21.334 0 32z" />
<glyph unicode="&#xe9db;" d="M537-1c46.992 2.326 94.326 2.66 142 1-12.654-24.32-32.654-33.654-60-28-27.036 10.012-54.37 19.012-82 27z" />
<glyph unicode="&#xe9dc;" d="M447 923c-22.964-7.967-38.298-23.634-46-47-18.802 1.601-32.802-5.733-42-22-50.666-0.667-101.334-1.333-152-2-12.683-3.35-21.683-11.016-27-23-2.32-138.246-3.32-276.58-3-415-0.32-138.42 0.68-276.754 3-415 5-10.334 12.667-18 23-23 205.334-1.334 410.666-1.334 616 0 13.532 6.192 21.864 16.526 25 31 1.986 274.086 1.32 548.086-2 822-5.318 11.984-14.318 19.65-27 23-50.666 0.667-101.334 1.333-152 2-9.198 16.267-23.198 23.601-42 22-7.334 23.333-22.666 38.667-46 46-42.662 1-85.328 1.333-128 1zM463 895c32.006 0.333 64.006 0 96-1 12.636-0.643 22.304-6.31 29-17 2.252-7.93 4.252-15.93 6-24 1.666-1.667 3.334-3.333 5-5 12.026-0.017 23.692-1.684 35-5 2.82-17.167 3.82-34.5 3-52-84 0-168 0-252 0-0.82 17.5 0.18 34.833 3 52 11.308 3.316 22.974 4.983 35 5 1.666 1.667 3.334 3.333 5 5 0.532 23.925 12.198 37.925 35 42zM505 853c-5.146-11.493-1.814-16.493 10-15 7.406 11.795 4.072 16.795-10 15zM213 823c48 0 96 0 144 0-0.332-18.012 0-36.012 1-54 1.666-1.667 3.334-3.333 5-5 5.964-0.996 11.964-1.329 18-1 0-2.667 0-5.334 0-8-49.338 0.334-98.672 0-148-1-3.518-2.016-5.852-5.016-7-9-1.334-237.334-1.334-474.666 0-712 1.148-3.984 3.482-6.984 7-9 185.334-1.334 370.666-1.334 556 0 3.518 2.016 5.852 5.016 7 9 1.334 237.334 1.334 474.666 0 712-1.148 3.984-3.482 6.984-7 9-49.328 1-98.662 1.334-148 1 0 2.666 0 5.333 0 8 6.036-0.329 12.036 0.004 18 1 1.666 1.667 3.334 3.333 5 5 1 17.988 1.332 35.988 1 54 48.004 0.333 96.004 0 144-1 1.666-1.667 3.334-3.333 5-5 1.334-268.666 1.334-537.334 0-806-1.304-4.446-4.304-6.78-9-7-196-1.334-392-1.334-588 0-4.696 0.22-7.696 2.554-9 7-1.334 268.666-1.334 537.334 0 806 2.090 1.747 3.756 3.747 5 6zM409 763c68 0 136 0 204 0 0-14.666 0-29.334 0-44-68 0-136 0-204 0 0 14.666 0 29.334 0 44zM255 727c42 0 84 0 126 0-0.332-10.022 0.002-20.022 1-30 1.666-1.666 3.334-3.334 5-5 82.666-1.334 165.334-1.334 248 0 1.666 1.666 3.334 3.334 5 5 0.998 9.978 1.332 19.978 1 30 42 0 84 0 126 0 0-225.334 0-450.666 0-676-170.666 0-341.334 0-512 0 0 225.334 0 450.666 0 676zM311 621c0-38.666 0-77.334 0-116 38 0 76 0 114 0 0 38.666 0 77.334 0 116-38 0-76 0-114 0zM311 429c0-38.666 0-77.334 0-116 38 0 76 0 114 0 0 38.666 0 77.334 0 116-38 0-76 0-114 0zM311 237c0-38.666 0-77.334 0-116 38 0 76 0 114 0 0 38.666 0 77.334 0 116-38 0-76 0-114 0z" />
<glyph unicode="&#xe9dd;" d="M499 883c42.786 0.878 57.786-19.122 45-60-15.49-16.837-33.824-20.504-55-11-15.93 13.845-20.264 30.845-13 51 5.636 9.322 13.302 15.989 23 20zM505 853c-5.146-11.493-1.814-16.493 10-15 7.406 11.795 4.072 16.795-10 15z" />
<glyph unicode="&#xe9de;" d="M701 805c20.012 0.333 40.012 0 60-1 13.334-9.333 13.334-18.667 0-28-19.334-1.333-38.666-1.333-58 0-12.416 8.839-13.084 18.506-2 29z" />
<glyph unicode="&#xe9df;" d="M289 649c52.67 0.334 105.338 0 158-1 1.832-0.748 3.5-1.748 5-3 2.3-27.152 3.3-54.486 3-82 23.816-81.85-5.184-110.516-87-86-26.334 0.334-52.666 0.666-79 1-1.832 0.748-3.5 1.748-5 3-3.296 53.16-3.964 106.492-2 160 1.38 3.7 3.712 6.368 7 8zM311 621c0-38.666 0-77.334 0-116 38 0 76 0 114 0 0 38.666 0 77.334 0 116-38 0-76 0-114 0z" />
<glyph unicode="&#xe9e0;" d="M571 625c56.67 0.334 113.338 0 170-1 10.666-8.666 10.666-17.334 0-26-56.666-1.334-113.334-1.334-170 0-7.918 8.998-7.918 17.998 0 27z" />
<glyph unicode="&#xe9e1;" d="M399 603c16.55 1.588 22.884-5.746 19-22-16.892-16.892-33.892-33.892-51-51-7.732-4.24-15.066-3.572-22 2-7.666 7.666-15.334 15.334-23 23-5.75 16.176-0.084 23.842 17 23 6-4.334 12-8.666 18-13 14.69 12.028 28.69 24.696 42 38z" />
<glyph unicode="&#xe9e2;" d="M481 577c86.67 0.334 173.336 0 260-1 10.666-8.666 10.666-17.334 0-26-86.666-1.334-173.334-1.334-260 0-8.392 5.962-10.058 13.628-5 23 1.99 1.132 3.656 2.466 5 4z" />
<glyph unicode="&#xe9e3;" d="M481 529c86.67 0.334 173.336 0 260-1 10.666-8.666 10.666-17.334 0-26-86.666-1.334-173.334-1.334-260 0-8.392 5.962-10.058 13.628-5 23 1.99 1.132 3.656 2.466 5 4z" />
<glyph unicode="&#xe9e4;" d="M289 457c52.67 0.334 105.338 0 158-1 1.832-0.748 3.5-1.748 5-3 2.3-27.152 3.3-54.486 3-82 23.816-81.85-5.184-110.516-87-86-26.334 0.334-52.666 0.666-79 1-1.832 0.748-3.5 1.748-5 3-3.296 53.16-3.964 106.492-2 160 1.38 3.7 3.712 6.368 7 8zM311 429c0-38.666 0-77.334 0-116 38 0 76 0 114 0 0 38.666 0 77.334 0 116-38 0-76 0-114 0z" />
<glyph unicode="&#xe9e5;" d="M571 433c56.67 0.334 113.338 0 170-1 10.666-8.666 10.666-17.334 0-26-56.666-1.334-113.334-1.334-170 0-7.918 8.998-7.918 17.998 0 27z" />
<glyph unicode="&#xe9e6;" d="M399 411c16.55 1.588 22.884-5.746 19-22-16.892-16.892-33.892-33.892-51-51-7.732-4.24-15.066-3.572-22 2-7.666 7.666-15.334 15.334-23 23-5.75 16.176-0.084 23.842 17 23 6-4.334 12-8.666 18-13 14.69 12.028 28.69 24.696 42 38z" />
<glyph unicode="&#xe9e7;" d="M481 385c86.67 0.334 173.336 0 260-1 10.666-8.666 10.666-17.334 0-26-86.666-1.334-173.334-1.334-260 0-8.392 5.962-10.058 13.628-5 23 1.99 1.132 3.656 2.466 5 4z" />
<glyph unicode="&#xe9e8;" d="M481 337c86.67 0.334 173.336 0 260-1 10.666-8.666 10.666-17.334 0-26-86.666-1.334-173.334-1.334-260 0-8.392 5.962-10.058 13.628-5 23 1.99 1.132 3.656 2.466 5 4z" />
<glyph unicode="&#xe9e9;" d="M289 265c52.67 0.334 105.338 0 158-1 1.832-0.748 3.5-1.748 5-3 2.3-27.152 3.3-54.486 3-82 23.816-81.85-5.184-110.516-87-86-26.334 0.334-52.666 0.666-79 1-1.832 0.748-3.5 1.748-5 3-3.296 53.16-3.964 106.492-2 160 1.38 3.7 3.712 6.368 7 8zM311 237c0-38.666 0-77.334 0-116 38 0 76 0 114 0 0 38.666 0 77.334 0 116-38 0-76 0-114 0z" />
<glyph unicode="&#xe9ea;" d="M571 241c56.67 0.334 113.338 0 170-1 10.666-8.666 10.666-17.334 0-26-56.666-1.334-113.334-1.334-170 0-7.918 8.998-7.918 17.998 0 27z" />
<glyph unicode="&#xe9eb;" d="M399 219c16.55 1.588 22.884-5.746 19-22-16.892-16.892-33.892-33.892-51-51-7.732-4.24-15.066-3.572-22 2-7.666 7.666-15.334 15.334-23 23-5.75 16.176-0.084 23.842 17 23 6-4.334 12-8.666 18-13 14.69 12.028 28.69 24.696 42 38z" />
<glyph unicode="&#xe9ec;" d="M481 193c86.67 0.334 173.336 0 260-1 10.666-8.666 10.666-17.334 0-26-86.666-1.334-173.334-1.334-260 0-8.392 5.962-10.058 13.628-5 23 1.99 1.132 3.656 2.466 5 4z" />
<glyph unicode="&#xe9ed;" d="M481 145c86.67 0.334 173.336 0 260-1 10.666-8.666 10.666-17.334 0-26-86.666-1.334-173.334-1.334-260 0-8.392 5.962-10.058 13.628-5 23 1.99 1.132 3.656 2.466 5 4z" />
<glyph unicode="&#xe9ee;" d="M799 829c-183.334 0-366.666 0-550 0-23.334 0-46.666 0-70 0 102.982 83.092 220.982 119.425 354 109 100.434-8.923 189.1-45.256 266-109z" />
<glyph unicode="&#xe9ef;" d="M249 829c183.334 0 366.666 0 550 0 58.67 0.333 117.338 0 176-1 25.046-6.716 41.046-22.382 48-47 0-182.666 0-365.334 0-548-15.334 0-30.666 0-46 0 0.334 180.002 0 360.002-1 540-2.334 2.333-4.666 4.667-7 7-255.842 2.327-511.842 3.993-768 5 10.384 21.061 26.384 35.727 48 44z" />
<glyph unicode="&#xe9f0;" d="M129 783c23.333 0 46.667 0 70 0-2.938-10.441-4.272-21.108-4-32-30.741-1.3-60.741 0.032-90 4 7.31 9.973 15.31 19.306 24 28z" />
<glyph unicode="&#xe9f1;" d="M179 829c23.334 0 46.666 0 70 0-21.616-8.273-37.616-22.939-48-44 256.158-1.007 512.158-2.673 768-5 2.334-2.333 4.666-4.667 7-7 1-179.998 1.334-359.998 1-540-10.666 0-21.334 0-32 0 0 153.334 0 306.666 0 460 0 19.334 0 38.666 0 58-250 0-500 0-750 0-0.272 10.892 1.062 21.559 4 32-23.333 0-46.667 0-70 0 14.814 17.486 31.481 32.82 50 46z" />
<glyph unicode="&#xe9f2;" d="M105 755c29.259-3.968 59.259-5.3 90-4 0-2 0-4 0-6-17.14-3.62-22.807-13.62-17-30 4.057-6.192 9.724-9.524 17-10 0-4 0-8 0-12-39.333 0-78.667 0-118 0 0.626 7.084-0.041 13.75-2 20 9.288 14.604 19.288 28.604 30 42z" />
<glyph unicode="&#xe9f3;" d="M195 751c250 0 500 0 750 0 0-19.334 0-38.666 0-58-250 0-500 0-750 0 0 4 0 8 0 12 17.14 3.62 22.806 13.62 17 30-4.058 6.192-9.724 9.524-17 10 0 2 0 4 0 6z" />
<glyph unicode="&#xe9f4;" d="M135 745c18.982 0.014 26.649-9.318 23-28-7.911-12.518-18.245-14.852-31-7-5.636 6.676-7.303 14.342-5 23 2.987 5.628 7.321 9.628 13 12z" />
<glyph unicode="&#xe9f5;" d="M195 745c7.276-0.476 12.942-3.808 17-10 5.806-16.38 0.14-26.38-17-30-7.276 0.476-12.943 3.808-17 10-5.807 16.38-0.14 26.38 17 30z" />
<glyph unicode="&#xe9f6;" d="M243 745c20.006 0.996 28.34-8.336 25-28-5.482-9.838-13.816-13.504-25-11-11.050 5.838-14.716 14.838-11 27 2.72 5.046 6.386 9.046 11 12z" />
<glyph unicode="&#xe9f7;" d="M75 713c1.959-6.25 2.626-12.916 2-20 0-153.334 0-306.666 0-460-9.333 0-18.667 0-28 0-2.347 2.028-3.681 4.694-4 8 0 138.666 0 277.334 0 416 7.972 19.954 17.972 38.622 30 56z" />
<glyph unicode="&#xe9f8;" d="M195 691c0 0.666 0 1.334 0 2 250 0 500 0 750 0 0-153.334 0-306.666 0-460-0.666 0-1.334 0-2 0 0 152.666 0 305.334 0 458-249.334 0-498.666 0-748 0z" />
<glyph unicode="&#xe9f9;" d="M77 693c39.333 0 78.667 0 118 0 0-0.666 0-1.334 0-2 0-152.666 0-305.334 0-458-39.333 0-78.667 0-118 0 0 153.334 0 306.666 0 460z" />
<glyph unicode="&#xe9fa;" d="M195 691c249.334 0 498.666 0 748 0 0-152.666 0-305.334 0-458-249.334 0-498.666 0-748 0 0 152.666 0 305.334 0 458z" />
<glyph unicode="&#xe9fb;" d="M45 657c0-138.666 0-277.334 0-416-24.681 51.374-40.015 105.374-46 162 0 30.666 0 61.334 0 92 5.985 56.626 21.319 110.626 46 162z" />
<glyph unicode="&#xe9fc;" d="M503 653c9.252 1.6 16.92-1.068 23-8 1.334-122.666 1.334-245.334 0-368-4.87-9.448-12.538-12.448-23-9-3.098 2.428-5.43 5.428-7 9-1.334 122.666-1.334 245.334 0 368 2.752 2.41 5.084 5.076 7 8z" />
<glyph unicode="&#xe9fd;" d="M125 631c15.348 0.332 30.681 0 46-1 10.136-5.966 12.47-14.298 7-25-2.342-2.786-5.342-4.454-9-5-14-1.334-28-1.334-42 0-9.137 5.082-12.137 12.75-9 23 2.751 2.41 5.085 5.076 7 8z" />
<glyph unicode="&#xe9fe;" d="M215 631c34.006 0.334 68.006 0 102-1 9.892-8.6 10.558-17.934 2-28-2-0.666-4-1.334-6-2-32-1.334-64-1.334-96 0-12.346 9.448-13.012 19.782-2 31z" />
<glyph unicode="&#xe9ff;" d="M361 631c16.222 0.87 32.222-0.13 48-3 6.94-6.674 7.94-14.34 3-23-2.342-2.786-5.342-4.454-9-5-14-1.334-28-1.334-42 0-13.28 10.59-13.28 20.922 0 31z" />
<glyph unicode="&#xea00;" d="M125 569c15.348 0.332 30.681 0 46-1 10.136-5.966 12.47-14.298 7-25-2.342-2.786-5.342-4.454-9-5-14-1.334-28-1.334-42 0-9.137 5.082-12.137 12.75-9 23 2.751 2.41 5.085 5.076 7 8z" />
<glyph unicode="&#xea01;" d="M215 569c22.676 0.334 45.344 0 68-1 10.504-6.172 12.504-14.506 6-25-2.33-2.168-4.996-3.834-8-5-21.334-1.334-42.666-1.334-64 0-12.346 9.448-13.012 19.782-2 31z" />
<glyph unicode="&#xea02;" d="M321 569c10.256 0.776 20.256-0.224 30-3 7.64-7.91 7.974-16.244 1-25-10.792-4.924-21.792-5.258-33-1-8.464 10.382-7.798 20.050 2 29z" />
<glyph unicode="&#xea03;" d="M387 569c16.68 0.332 33.346 0 50-1 13.622-10.66 12.954-20.66-2-30-16-1.334-32-1.334-48 0-10.584 10.33-10.584 20.664 0 31z" />
<glyph unicode="&#xea04;" d="M623 459c-22.31-2.354-32.978 7.646-32 30 18.208 15.862 36.208 32.196 54 49 18.776 8.74 30.776 3.072 36-17-0.526-5.056-2.192-9.722-5-14-18.002-15.8-35.668-31.8-53-48z" />
<glyph unicode="&#xea05;" d="M757 459c-17.62-10.598-31.62-7.266-42 10 5.87 22.608 13.536 44.608 23 66 11.004 10.532 22.004 10.532 33 0 3.348-3.698 5.348-8.032 6-13-6.476-21.092-13.142-42.092-20-63z" />
<glyph unicode="&#xea06;" d="M879 431c-21-2.33-32.334 7.004-34 28-18.65 17.65-36.984 35.65-55 54-3.75 16.92 2.918 26.92 20 30 6.976-1.654 13.308-4.654 19-9 16.74-16.076 34.072-31.41 52-46 7.072-6.402 13.406-13.402 19-21 1.304-6.188 0.636-12.188-2-18-6.072-6.408-12.406-12.408-19-18z" />
<glyph unicode="&#xea07;" d="M125 507c15.348 0.332 30.681 0 46-1 8.722-4.452 11.722-11.452 9-21-1.667-4.334-4.667-7.334-9-9-14.667-1.334-29.333-1.334-44 0-9.137 5.082-12.137 12.75-9 23 2.751 2.41 5.085 5.076 7 8z" />
<glyph unicode="&#xea08;" d="M217 507c9.594 0.758 18.928-0.242 28-3 6.772-6.746 7.772-14.412 3-23-1.806-2.402-4.138-4.070-7-5-9.574-1.758-18.906-1.090-28 2-8.744 11.184-7.412 20.85 4 29z" />
<glyph unicode="&#xea09;" d="M281 507c22.010 0.334 44.010 0 66-1 10.136-5.966 12.47-14.298 7-25-1.806-2.402-4.138-4.070-7-5-22-1.334-44-1.334-66 0-13.25 10.492-13.25 20.826 0 31z" />
<glyph unicode="&#xea0a;" d="M591 489c-0.978-22.354 9.69-32.354 32-30 18.514-14.168 36.18-29.502 53-46 7.202-11.124 6.202-21.458-3-31-8.34-5.576-17.006-6.242-26-2-25 22.334-50 44.666-75 67-6.666 8.666-6.666 17.334 0 26 5.494 6.508 11.828 11.84 19 16z" />
<glyph unicode="&#xea0b;" d="M715 469c10.38-17.266 24.38-20.598 42-10-7.578-26.408-16.912-52.074-28-77-20.132-9.934-32.132-3.934-36 18 5.582 23.74 12.916 46.74 22 69z" />
<glyph unicode="&#xea0c;" d="M845 459c1.666-20.996 13-30.33 34-28-18.208-15.862-36.208-32.196-54-49-14.798-8.752-26.466-5.752-35 9-1.334 6-1.334 12 0 18 18.022 17.024 36.356 33.69 55 50z" />
<glyph unicode="&#xea0d;" d="M127 445c16.222 0.87 32.222-0.13 48-3 6.696-6.838 7.696-14.504 3-23-1.805-2.402-4.138-4.070-7-5-16.209-1.868-32.209-1.202-48 2-8.745 11.184-7.412 20.85 4 29z" />
<glyph unicode="&#xea0e;" d="M217 445c43.338 0.334 86.672 0 130-1 13.118-9.832 13.118-19.832 0-30-43.334-1.334-86.666-1.334-130 0-10.070 6.026-12.404 14.36-7 25 2.29 2.272 4.624 4.272 7 6z" />
<glyph unicode="&#xea0f;" d="M127 383c14.682 0.332 29.348 0 44-1 8.722-4.452 11.722-11.452 9-21-1.667-4.334-4.667-7.334-9-9-15.333-1.334-30.667-1.334-46 0-11.052 11.286-10.385 21.62 2 31z" />
<glyph unicode="&#xea10;" d="M281 383c9.594 0.758 18.928-0.242 28-3 6.772-6.746 7.772-14.412 3-23-1.806-2.402-4.138-4.070-7-5-9.574-1.758-18.906-1.090-28 2-8.744 11.184-7.412 20.85 4 29z" />
<glyph unicode="&#xea11;" d="M127 321c14.682 0.332 29.348 0 44-1 8.722-4.452 11.722-11.452 9-21-1.667-4.334-4.667-7.334-9-9-15.333-1.334-30.667-1.334-46 0-11.052 11.286-10.385 21.62 2 31z" />
<glyph unicode="&#xea12;" d="M281 321c16.014 0.332 32.014 0 48-1 9.286-4.144 12.286-11.144 9-21-1.666-4.334-4.666-7.334-9-9-16-1.334-32-1.334-48 0-13.222 10.404-13.222 20.738 0 31z" />
<glyph unicode="&#xea13;" d="M371 321c9.534 0.618 18.868-0.382 28-3 8.852-10.882 7.518-20.216-4-28-8.666-1.334-17.334-1.334-26 0-11.052 11.286-10.384 21.62 2 31z" />
<glyph unicode="&#xea14;" d="M49 233c9.333 0 18.667 0 28 0 39.333 0 78.667 0 118 0 249.334 0 498.666 0 748 0 0.666 0 1.334 0 2 0 10.666 0 21.334 0 32 0 15.334 0 30.666 0 46 0 0-0.666 0-1.334 0-2-276 0-552 0-828 0-0.856-34.762 0.144-69.428 3-104 4.948-18.598 15.282-33.264 31-44-22 0-44 0-66 0-49.114 41.564-87.114 91.564-114 150z" />
<glyph unicode="&#xea15;" d="M1023 231c0-34 0-68 0-102-7.498-21.834-22.166-36.834-44-45-54.582-2.912-109.248-3.912-164-3-68.992 1.996-138.326 2.664-208 2-64 0-128 0-192 0-62 0-124 0-186 0-15.718 10.736-26.052 25.402-31 44-2.856 34.572-3.856 69.238-3 104 276 0 552 0 828 0z" />
<glyph unicode="&#xea16;" d="M499 187c28.336 4.066 42.67-7.934 43-36-7.084-20.83-21.418-28.496-43-23-15.386 9.46-21.052 23.126-17 41 4.724 7.054 10.392 13.054 17 18z" />
<glyph unicode="&#xea17;" d="M163 83c22 0 44 0 66 0 62 0 124 0 186 0 0.66-34.35-0.006-68.35-2-102 0 33.334 0 66.666 0 100-82.666 0-165.334 0-248 0-1.333 0-2 0.666-2 2z" />
<glyph unicode="&#xea18;" d="M607 83c69.674 0.664 139.008-0.004 208-2-0.666 0-1.334 0-2 0-68 0-136 0-204 0 0-34 0-68 0-102-1.99 21.642-2.656 43.642-2 66 0 12.666 0 25.334 0 38z" />
<glyph unicode="&#xea19;" d="M165 81c82.666 0 165.334 0 248 0 0-33.334 0-66.666 0-100-0.15-5.412-0.816-10.746-2-16-93.848 14.602-175.848 53.268-246 116z" />
<glyph unicode="&#xea1a;" d="M415 83c64 0 128 0 192 0 0-12.666 0-25.334 0-38-26.674 0.334-53.342 0-80-1-28.572-6.57-45.572-24.238-51-53-0.998-10.646-1.332-21.312-1-32-21.84-0.348-43.174 1.652-64 6 1.184 5.254 1.85 10.588 2 16 1.994 33.65 2.66 67.65 2 102z" />
<glyph unicode="&#xea1b;" d="M813 81c-58.644-52.668-126.644-88.668-204-108 0 2 0 4 0 6 0 34 0 68 0 102 68 0 136 0 204 0z" />
<glyph unicode="&#xea1c;" d="M607 45c-0.656-22.358 0.010-44.358 2-66 0-2 0-4 0-6-43.864-11.386-88.532-16.054-134-14-0.332 10.688 0.002 21.354 1 32 5.428 28.762 22.428 46.43 51 53 26.658 1 53.326 1.334 80 1z" />
<glyph unicode="&#xea1d;" d="M107 897c-39.302-10.97-64.302-36.304-75-76-1.333-184-1.333-368 0-552 10.333-39.666 35.333-64.666 75-75 38.661-1 77.328-1.334 116-1-0.334-57.338 0-114.67 1-172 8.946-17.964 23.28-24.298 43-19 80.576 62.572 160.576 125.906 240 190 136 0.666 272 1.334 408 2 39.666 10.334 64.666 35.334 75 75 1.334 184 1.334 368 0 552-10.334 39.667-35.334 64.667-75 75-269.332 1-538.666 1.333-808 1zM127 833c256 0.333 512 0 768-1 18.334-2.333 28.666-12.667 31-31 1.334-170.666 1.334-341.334 0-512-2.334-18.334-12.666-28.666-31-31-137.334-0.666-274.666-1.334-412-2-65.528-49.856-130.196-100.856-194-153-1.666 44.652-2.666 89.318-3 134-3.666 9-10 15.334-19 19-46.666 0.666-93.333 1.334-140 2-14.132 0.894-23.798 7.894-29 21-3.307 173.928-3.974 347.928-2 522 2.692 18.355 13.025 29.022 31 32z" />
<glyph unicode="&#xea1e;" d="M243 641c178.668 0.334 357.334 0 536-1 13.974-5.614 20.64-15.946 20-31 0.64-15.054-6.026-25.386-20-31-178.666-1.334-357.334-1.334-536 0-13.974 5.614-20.64 15.946-20 31-0.396 15.23 6.27 25.898 20 32z" />
<glyph unicode="&#xea1f;" d="M243 513c93.336 0.334 186.67 0 280-1 17.964-8.946 24.298-23.28 19-43-3.666-9-10-15.334-19-19-93.334-1.334-186.666-1.334-280 0-13.974 5.614-20.64 15.946-20 31-0.396 15.23 6.27 25.898 20 32z" />
<glyph unicode="&#xea20;" glyph-name="comment" d="M107 897c-39.302-10.97-64.302-36.304-75-76-1.333-184-1.333-368 0-552 10.333-39.666 35.333-64.666 75-75 38.661-1 77.328-1.334 116-1-0.334-57.338 0-114.67 1-172 8.946-17.964 23.28-24.298 43-19 80.576 62.572 160.576 125.906 240 190 136 0.666 272 1.334 408 2 39.666 10.334 64.666 35.334 75 75 1.334 184 1.334 368 0 552-10.334 39.667-35.334 64.667-75 75-269.332 1-538.666 1.333-808 1zM255 641c170.668 0.334 341.334 0 512-1 27.688-6.374 36.020-22.708 25-49-6.528-7.764-14.86-12.098-25-13-170.666-1.334-341.334-1.334-512 0-27.688 6.374-36.020 22.708-25 49 6.928 7.62 15.262 12.288 25 14zM255 513c85.336 0.334 170.67 0 256-1 23.686-3.694 33.352-17.36 29-41-5.202-13.106-14.868-20.106-29-21-85.334-1.334-170.666-1.334-256 0-27.688 6.374-36.020 22.708-25 49 6.928 7.62 15.262 12.288 25 14z" />
<glyph unicode="&#xea21;" d="M1023 759c0-13.334 0-26.666 0-40-5.774-22.164-17.774-40.498-36-55-140-93.334-280-186.666-420-280-37.334-22.666-74.666-22.666-112 0-140 93.334-280 186.666-420 280-18.225 14.502-30.225 32.836-36 55 0 13.334 0 26.666 0 40 11.405 39.733 37.405 64.066 78 73 289.334 1.333 578.666 1.333 868 0 40.572-8.923 66.572-33.256 78-73z" />
<glyph unicode="&#xea22;" d="M-1 619c144.903-95.89 289.57-192.222 434-289 52-28 104-28 156 0 144.43 96.778 289.096 193.11 434 289 0-160 0-320 0-480-11.428-39.744-37.428-64.076-78-73-289.334-1.334-578.666-1.334-868 0-40.595 8.934-66.595 33.268-78 73 0 160 0 320 0 480z" />
<glyph unicode="&#xea23;" glyph-name="graduated" d="M499 961c-96.132-31.93-192.798-62.93-290-93-8.458-2.229-16.459-5.563-24-10-15.78-17.125-15.78-34.125 0-51 1.998-26.633 2.665-53.3 2-80-14.655-1.168-24.989-8.5-31-22-0.667-17.334-1.333-34.666-2-52-6.614-40.738-13.614-81.404-21-122 1.46-15.974 9.46-26.974 24-33 32.184-1.938 64.184-1.272 96 2 11.376 7.068 17.376 17.402 18 31-7 40.666-14 81.334-21 122-0.666 17.334-1.334 34.666-2 52-5.138 12.142-14.138 19.476-27 22-2.666 23.334-2.666 46.667 0 70 23.148-5.029 46.482-9.029 70-12-0.334-24.009 0-48.010 1-72 1.86-5.724 5.194-10.39 10-14 0.666-44 1.334-88 2-132 3.83-18.054 14.83-28.054 33-30 4.608-50.562 26.942-91.228 67-122 1.334-6.666 1.334-13.334 0-20-42.334-27.666-84.666-55.334-127-83-27.428-8.358-54.76-17.024-82-26-62.685-32.78-92.685-84.78-90-156-0.257-13.206 0.743-26.206 3-39 10.883-8.852 20.216-7.518 28 4 0.244 26.082 1.578 52.082 4 78 11.073 39.868 35.406 68.2 73 85 22.388 7.020 44.722 14.020 67 21 66.834-40.584 133.834-80.918 201-121 9.442-6.054 19.442-11.054 30-15 10.558 3.946 20.558 8.946 30 15 67.166 40.082 134.166 80.416 201 121 22.3-6.988 44.634-13.988 67-21 42.196-18.882 67.196-51.214 75-97 1.334-56 1.334-112 0-168-4.956-14.95-15.288-23.284-31-25-21.99-1-43.99-1.334-66-1 0.334 24.010 0 48.010-1 72-2.334 2.334-4.666 4.666-7 7-10.462 3.448-18.13 0.448-23-9-1-23.324-1.334-46.658-1-70-162.666 0-325.334 0-488 0 0.334 23.342 0 46.676-1 70-2.646 6.994-7.646 10.328-15 10-6.942 0.698-11.942-1.968-15-8-1-23.99-1.334-47.99-1-72-22.010-0.334-44.010 0-66 1-15.712 1.716-26.045 10.050-31 25-0.127 16.206-1.46 32.206-4 48-10.957 9.004-20.29 7.67-28-4-1.782-19.456-1.115-38.788 2-58 9.054-20.732 24.054-34.732 45-42 238.666 0 477.334 0 716 0 24.1 8.442 39.768 25.108 47 50 1.334 59.334 1.334 118.666 0 178-10.008 59.996-43.008 101.662-99 125-24.142 6.936-48.142 14.27-72 22-42.162 27.916-84.496 55.582-127 83-1.334 6.666-1.334 13.334 0 20 40.058 30.772 62.392 71.438 67 122 16.92 3.244 27.92 13.244 33 30 0.666 44 1.334 88 2 132 4.806 3.61 8.14 8.276 10 14 1 23.99 1.334 47.991 1 72 30.678 4.779 61.344 9.779 92 15 5.892 1.612 11.224 4.279 16 8 13.382 17.204 12.716 33.87-2 50-9.522 5.174-19.522 9.174-30 12-95.202 29.403-189.868 59.737-284 91-8 0-16 0-24 0zM505 929c12.958-1.537 25.626-4.537 38-9 91.024-28.564 181.69-57.898 272-88-29.878-5.98-59.878-11.313-90-16-16.096-0.99-32.096 0.010-48 3-16.328-1.978-21.328-10.645-15-26 1.806-2.403 4.138-4.070 7-5 9.8-1.429 19.466-3.096 29-5 1-19.322 1.332-38.656 1-58-125.334 0-250.666 0-376 0-0.638 19.832 0.028 39.499 2 59 54.628 6.995 109.294 13.662 164 20 38.962 1.104 77.628-1.896 116-9 13.564 2.436 18.564 10.436 15 24-1 3.667-3.334 6-7 7-41.658 7.966-83.658 11.3-126 10-59.316-7.164-118.648-14.164-178-21-34.214 4.369-68.214 10.036-102 17 99.514 32.172 198.846 64.505 298 97zM187 695c10 0 20 0 30 0 0-8.666 0-17.334 0-26-10 0-20 0-30 0 0 8.666 0 17.334 0 26zM335 693c11.334 0 22.666 0 34 0 0.332-11.352-0.002-22.686-1-34-1.548-4.878-4.548-8.546-9-11-7.836-2.312-15.836-3.312-24-3 0 16 0 32 0 48zM401 693c73.334 0 146.666 0 220 0-1.16-17.662 0.506-34.996 5-52 14.080-22.386 34.414-31.054 61-26 0.332-14.016 0-28.016-1-42-1.666-1.666-3.334-3.334-5-5-9.624 0.354-17.29-3.312-23-11-5.144-62.396-35.476-107.396-91-135-64.758-22.894-120.426-9.226-167 41-20.258 28.096-32.258 59.428-36 94-5.71 7.688-13.376 11.354-23 11-1.666 1.666-3.334 3.334-5 5-1 13.984-1.332 27.984-1 42 26.586-5.054 46.92 3.614 61 26 4.494 17.004 6.16 34.338 5 52zM653 693c11.334 0 22.666 0 34 0 0-16 0-32 0-48-11.24-1.36-21.24 1.308-30 8-1 2-2 4-3 6-0.998 11.314-1.332 22.648-1 34zM183 637c12.667 0 25.334 0 38 0 4.922-35.526 10.922-70.86 18-106-1.050-1.384-2.384-2.384-4-3-22.486-1.64-44.82-1.306-67 1 3.901 36.084 8.901 72.084 15 108zM437 395c49-21.304 98-21.304 147 0 1.17-27.13-1.83-53.796-9-80-4.764-3.142-10.098-4.808-16-5-36.876-4.682-73.542-3.682-110 3-3.45 6.856-5.784 14.19-7 22-3.356 19.866-5.022 39.866-5 60zM403 357c2.386-0.94 3.72-2.94 4-6 3.506-26.69 9.84-52.69 19-78 9.636-21.262 19.636-41.928 30-62-47.172 29.088-94.838 57.422-143 85 30.132 20.38 60.132 40.712 90 61zM615 357c31.902-19.296 63.234-39.628 94-61-48.162-27.578-95.828-55.912-143-85 10.364 20.072 20.364 40.738 30 62 10.126 27.166 16.458 55.166 19 84zM461 277c33.334-2.666 66.666-2.666 100 0-13.048-30.764-29.716-59.43-50-86-20.284 26.57-36.952 55.236-50 86z" />
<glyph unicode="&#xea24;" d="M531 403c-15.482 18.492-32.148 36.158-50 53-1.334 1.334-2.666 1.334-4 0-135-135-270-270-405-405-1.333-1.334-1.333-2.666 0-4 12.333-12.334 24.667-24.666 37-37 1.333-1.334 2.667-1.334 4 0 128 128 256 256 384 384 5.43-2.338 10.764-5.338 16-9 2.586-3.592 5.586-6.926 9-10 1.334-1.334 1.334-2.666 0-4-48.694-48.36-97.028-97.028-145-146 27.306-28.306 54.972-56.306 83-84 2.966-6.404 3.634-13.072 2-20-17-19.666-35.334-38-55-55-6.928-1.634-13.596-0.966-20 2-11.696 12.030-23.696 23.696-36 35-9.108-6.734-16.108-14.734-21-24 11.334-11.334 22.666-22.666 34-34 2.966-6.404 3.634-13.072 2-20-16.272-18.274-33.272-35.94-51-53-8-4-16-4-24 0-27.694 28.028-55.694 55.694-84 83-28.305-27.306-56.305-54.972-84-83-6.405-2.966-13.071-3.634-20-2-23.608 21.606-46.608 43.94-69 67-2.967 6.404-3.633 13.072-2 20 139.278 141.278 279.278 281.946 420 422 1.334 1.334 1.334 2.666 0 4-21.952 25.418-24.618 52.752-8 82 31.066 32.338 64.066 34.338 99 6 9.97 8.97 19.638 18.302 29 28 1.376 1.664 1.042 2.996-1 4-79.414 35.452-115.080 96.784-107 184 11.508 64.687 47.842 109.020 109 133 5.126 2.159 10.458 3.159 16 3 0.348-4.722 1.014-9.389 2-14 1.076-5.378 2.41-10.711 4-16-70.642-25.909-103.642-76.576-99-152 14.042-66.040 54.376-105.040 121-117 9.554-7.146 10.554-15.48 3-25-18.028-17.696-35.696-35.696-53-54 12.666-14 26-27.334 40-40 19.698 19.366 39.698 38.366 60 57 7.842 1.918 14.176-0.416 19-7 11.96-66.624 50.96-106.958 117-121 83.424-4.15 135.090 34.184 155 115 5.664 50.354-10.336 92.354-48 126-1.334 5.334-1.334 10.666 0 16 43.744 35.236 57.744 79.903 42 134-24.732 52.88-66.398 76.547-125 71-30.508-7.207-55.176-23.207-74-48-5.334-1.333-10.666-1.333-16 0-28.776 32.051-64.776 48.385-108 49 0.612 5.771-0.054 11.104-2 16 0 5.333 0 10.667 0 16 44.742 1.644 83.742-12.356 117-42 45.516 42.172 97.85 53.172 157 33 66.792-31.892 96.458-84.892 89-159-5.512-30.696-19.18-57.030-41-79 44.798-54.468 54.466-114.8 29-181-37.526-73.942-97.858-106.942-181-99-64.708 11.71-109.376 48.044-134 109-10.666-9.334-20.666-19.334-30-30 23.828-27.6 26.162-56.934 7-88-24.422-24.064-52.088-28.398-83-13-9.004 7.34-17.67 15.006-26 23zM617 815c33.106 4.294 55.44-9.039 67-40 5.274-33.134-7.726-55.466-39-67-33.134-5.274-55.466 7.726-67 39-5.024 33.312 7.976 55.978 39 68zM837 815c34.53 0.487 46.196-15.513 35-48-12.502-13.022-26.836-15.354-43-7-13.022 12.502-15.354 26.836-7 43 4.228 5.242 9.228 9.242 15 12zM809 623c33.106 4.294 55.44-9.040 67-40 5.274-33.134-7.726-55.466-39-67-33.134-5.274-55.466 7.726-67 39-5.024 33.312 7.976 55.978 39 68z" />
<glyph unicode="&#xea25;" d="M627 913c1.946-4.896 2.612-10.229 2-16 43.224-0.615 79.224-16.949 108-49 5.334-1.333 10.666-1.333 16 0 18.824 24.793 43.492 40.793 74 48 58.602 5.547 100.268-18.12 125-71 15.744-54.097 1.744-98.764-42-134-1.334-5.334-1.334-10.666 0-16 37.664-33.646 53.664-75.646 48-126-19.91-80.816-71.576-119.15-155-115-66.040 14.042-105.040 54.376-117 121-4.824 6.584-11.158 8.918-19 7-20.302-18.634-40.302-37.634-60-57-14 12.666-27.334 26-40 40 17.304 18.304 34.972 36.304 53 54 7.554 9.52 6.554 17.854-3 25-66.624 11.96-106.958 50.96-121 117-4.642 75.424 28.358 126.091 99 152-1.59 5.289-2.924 10.622-4 16 11.76 3.13 23.76 4.464 36 4zM617 815c-31.024-12.022-44.024-34.688-39-68 11.534-31.274 33.866-44.274 67-39 31.274 11.534 44.274 33.866 39 67-11.56 30.961-33.894 44.294-67 40zM837 815c-5.772-2.758-10.772-6.758-15-12-8.354-16.164-6.022-30.498 7-43 16.164-8.354 30.498-6.022 43 7 11.196 32.487-0.47 48.487-35 48zM809 623c-31.024-12.022-44.024-34.688-39-68 11.534-31.274 33.866-44.274 67-39 31.274 11.534 44.274 33.866 39 67-11.56 30.96-33.894 44.294-67 40z" />
<glyph unicode="&#xea26;" d="M615 849c67.452 1.539 101.786-31.128 103-98-11.9-55.19-46.234-80.858-103-77-51.1 15.144-74.766 49.478-71 103 9.362 38.361 33.030 62.361 71 72zM617 815c-31.024-12.022-44.024-34.688-39-68 11.534-31.274 33.866-44.274 67-39 31.274 11.534 44.274 33.866 39 67-11.56 30.961-33.894 44.294-67 40z" />
<glyph unicode="&#xea27;" d="M833 849c50.766 2.221 76.432-21.779 77-72-9.368-40.652-35.034-58.986-77-55-36.744 12.456-53.078 38.122-49 77 7.366 25.697 23.7 42.364 49 50zM837 815c-5.772-2.758-10.772-6.758-15-12-8.354-16.164-6.022-30.498 7-43 16.164-8.354 30.498-6.022 43 7 11.196 32.487-0.47 48.487-35 48z" />
<glyph unicode="&#xea28;" d="M807 657c68.426 1.236 102.76-32.098 103-100-7.434-41.434-31.766-66.434-73-75-43.914-3.884-75.58 13.782-95 53-16.118 61.11 5.55 101.778 65 122zM809 623c-31.024-12.022-44.024-34.688-39-68 11.534-31.274 33.866-44.274 67-39 31.274 11.534 44.274 33.866 39 67-11.56 30.96-33.894 44.294-67 40z" />
<glyph unicode="&#xea29;" d="M489 559c7.82 0.474 15.154-1.192 22-5 35-35 70-70 105-105 9.538-24.918 1.206-40.25-25-46-5.648 0.66-10.982 2.328-16 5-35 35-70 70-105 105-9.078 21.774-2.746 37.108 19 46z" />
<glyph unicode="&#xea2a;" d="M531 403c-6.666-5.334-12.666-11.334-18-18-5.236 3.662-10.57 6.662-16 9-128-128-256-256-384-384-1.333-1.334-2.667-1.334-4 0-12.333 12.334-24.667 24.666-37 37-1.333 1.334-1.333 2.666 0 4 135 135 270 270 405 405 1.334 1.334 2.666 1.334 4 0 17.852-16.842 34.518-34.508 50-53z" />
<glyph unicode="&#xea2b;" d="M349 201c25.854-22.518 50.522-46.518 74-72-7.334-8.666-15.334-16.666-24-24-12.972 11.97-25.638 24.304-38 37-6.732 3.758-13.4 3.758-20 0-18.394-17.726-36.062-36.060-53-55-1.168-5.514-0.5-10.846 2-16 12.696-12.362 25.030-25.028 37-38-7.334-8.666-15.334-16.666-24-24-24.666 23.334-48.666 47.334-72 72 39.376 40.042 78.71 80.042 118 120z" />
<glyph unicode="&#xea2c;" d="M528 976c64 0 128 0 192 0 52.454-31.12 95.123-73.787 128-128-10.666 0-21.334 0-32 0-62.736 57.99-137.405 89.991-224 96-31.731-5.491-53.066 5.176-64 32z" />
<glyph unicode="&#xea2d;" d="M432 976c32 0 64 0 96 0 10.934-26.824 32.269-37.491 64-32-10.666-21.333-21.334-42.667-32-64-10.666 0-21.334 0-32 0-35.488-1.82-67.488-12.487-96-32 5.491 31.732-5.178 53.065-32 64 0 10.667 0 21.333 0 32 21.334 0 32 10.667 32 32z" />
<glyph unicode="&#xea2e;" d="M592 944c86.595-6.009 161.264-38.010 224-96 5.491-31.732-5.178-53.065-32-64-54.826 75.212-129.491 107.212-224 96 10.666 21.333 21.334 42.667 32 64z" />
<glyph unicode="&#xea2f;" d="M400 944c0-10.667 0-21.333 0-32-23.491-38.653-34.157-81.32-32-128 32 0 64 0 96 0 0-21.333-10.666-32-32-32-51.962-4.478-89.293 16.856-112 64-12.761-7.31-18.094-17.977-16-32-21.333 0-32 10.667-32 32 32 53.333 74.666 96 128 128z" />
<glyph unicode="&#xea30;" d="M400 912c26.822-10.935 37.491-32.268 32-64 10.666-21.333 21.334-42.667 32-64-32 0-64 0-96 0-2.157 46.68 8.509 89.347 32 128z" />
<glyph unicode="&#xea31;" d="M528 880c32-21.333 64-42.667 96-64-54.915-4.117-108.25-14.784-160-32-10.666 21.333-21.334 42.667-32 64 28.512 19.513 60.512 30.18 96 32z" />
<glyph unicode="&#xea32;" d="M528 880c10.666 0 21.334 0 32 0 94.509 11.212 169.174-20.788 224-96 0-21.333 0-42.667 0-64-10.666 0-21.334 0-32 0-24.394 56.397-67.059 88.397-128 96-32 21.333-64 42.667-96 64z" />
<glyph unicode="&#xea33;" d="M816 848c10.666 0 21.334 0 32 0 37.558-32.438 58.893-75.105 64-128-42.666 0-85.334 0-128 0 0 21.333 0 42.667 0 64 26.822 10.935 37.491 32.268 32 64z" />
<glyph unicode="&#xea34;" d="M624 816c60.941-7.603 103.606-39.603 128-96 0-21.333-10.666-32-32-32-32 42.667-64 85.333-96 128z" />
<glyph unicode="&#xea35;" d="M272 816c0-21.333 10.667-32 32-32 0-32 0-64 0-96-28.661-32.203-49.995-32.203-64 0-8.57 51.169 2.097 93.836 32 128z" />
<glyph unicode="&#xea36;" d="M432 752c5.491-31.732-5.178-53.065-32-64-30.435-45.397-41.104-98.73-32-160-21.334 0-32 10.666-32 32-10.666 42.666-21.333 85.333-32 128 0 32 0 64 0 96-2.094 14.023 3.239 24.69 16 32 22.707-47.144 60.038-68.478 112-64z" />
<glyph unicode="&#xea37;" d="M240 688c14.005-32.203 35.339-32.203 64 0 10.667-42.667 21.334-85.334 32-128-27.632 30.816-48.965 30.816-64 0 20.071-29.338 30.738-61.338 32-96-10.667 0-21.333 0-32 0-47.795 75.93-58.462 150.595-32 224z" />
<glyph unicode="&#xea38;" d="M912 688c9.43-71.533-1.235-135.533-32-192-10.666 0-21.334 0-32 0 40.586 41.184 29.92 73.184-32 96 22.022 43.357 54.022 75.358 96 96z" />
<glyph unicode="&#xea39;" d="M400 688c4.118-54.915 14.784-108.25 32-160-21.334 0-42.666 0-64 0-9.104 61.27 1.565 114.603 32 160z" />
<glyph unicode="&#xea3a;" d="M912 720c0-10.667 0-21.333 0-32-41.978-20.642-73.978-52.643-96-96 61.92-22.816 72.586-54.816 32-96-35.488-1.821-67.488-12.486-96-32 7.594 41.312-3.072 73.312-32 96 0 42.666 0 85.333 0 128 21.334 0 32 10.667 32 32 10.666 0 21.334 0 32 0 42.666 0 85.334 0 128 0z" />
<glyph unicode="&#xea3b;" d="M368 528c21.334 0 42.666 0 64 0 21.334-10.666 42.666-21.334 64-32-45.043-75.51-87.709-64.845-128 32z" />
<glyph unicode="&#xea3c;" d="M848 496c10.666 0 21.334 0 32 0 5.491-31.731-5.178-53.066-32-64-32.893 13.626-75.558 13.626-128 0 0 21.334 10.666 32 32 32 28.512 19.514 60.512 30.179 96 32z" />
<glyph unicode="&#xea3d;" d="M336 560c0-21.334 10.666-32 32-32 40.291-96.845 82.957-107.51 128-32 31.731 5.491 53.066-5.178 64-32-10.666-21.334-21.334-42.666-32-64-78.387-6.464-153.056 4.205-224 32 0 10.666 0 21.334 0 32-1.262 34.662-11.929 66.662-32 96 15.035 30.816 36.368 30.816 64 0z" />
<glyph unicode="&#xea3e;" d="M720 560c28.928-22.688 39.594-54.688 32-96-21.334 0-32-10.666-32-32-10.666 0-21.334 0-32 0 5.491 31.731-5.178 53.066-32 64 10.666 32 32 53.334 64 64z" />
<glyph unicode="&#xea3f;" d="M656 496c26.822-10.934 37.491-32.269 32-64-38.653-23.491-81.322-34.157-128-32-10.666 0-21.334 0-32 0 10.666 21.334 21.334 42.666 32 64 28.512 19.514 60.512 30.179 96 32z" />
<glyph unicode="&#xea40;" d="M848 432c-32.877-54.214-75.546-96.88-128-128-32 0-64 0-96 0 35.206 33.872 77.875 60.538 128 80-17.792 12.243-28.458 28.243-32 48 52.442 13.626 95.107 13.626 128 0z" />
<glyph unicode="&#xea41;" d="M272 464c10.667 0 21.333 0 32 0 0-10.666 0-21.334 0-32s0-21.334 0-32c-32-21.334-64-42.666-96-64-10.667 0-21.333 0-32 0 32 42.666 64 85.334 96 128z" />
<glyph unicode="&#xea42;" d="M304 432c70.944-27.795 145.613-38.464 224-32 10.666 0 21.334 0 32 0 1.821-35.488 12.486-67.488 32-96-67.866-5.59-131.866 5.075-192 32-27.13 36-59.13 36-96 0 0 21.334 0 42.666 0 64 0 10.666 0 21.334 0 32z" />
<glyph unicode="&#xea43;" d="M688 432c10.666 0 21.334 0 32 0 3.542-19.757 14.208-35.757 32-48-50.125-19.462-92.794-46.128-128-80-10.666 0-21.334 0-32 0-19.514 28.512-30.179 60.512-32 96 46.678-2.157 89.347 8.509 128 32z" />
<glyph unicode="&#xea44;" d="M304 400c0-21.334 0-42.666 0-64-32-53.334-74.667-96-128-128 0 21.334-10.667 32-32 32 21.333 32 42.667 64 64 96 32 21.334 64 42.666 96 64z" />
<glyph unicode="&#xea45;" d="M176 336c10.667 0 21.333 0 32 0-21.333-32-42.667-64-64-96-96.682-40.723-128.682-104.723-96-192-21.333 10.666-42.667 21.334-64 32 0 32 0 64 0 96 64 53.334 128 106.666 192 160z" />
<glyph unicode="&#xea46;" d="M400 336c-77.248-45.146-130.58-109.146-160-192-21.333 10.666-42.667 21.334-64 32 0 10.666 0 21.334 0 32 53.333 32 96 74.666 128 128 36.87 36 68.87 36 96 0z" />
<glyph unicode="&#xea47;" d="M720 176c-21.334-42.666-53.334-74.666-96-96 7.594 41.312-3.072 73.312-32 96 59.968 117.293 102.634 117.293 128 0z" />
<glyph unicode="&#xea48;" d="M144 240c21.333 0 32-10.666 32-32 0-10.666 0-21.334 0-32-21.333-32-42.667-64-64-96-21.333 0-32-10.666-32-32-10.667 0-21.333 0-32 0-32.682 87.277-0.682 151.277 96 192z" />
<glyph unicode="&#xea49;" d="M624 304c32 0 64 0 96 0 73.002-49.030 73.002-91.699 0-128-25.366 117.293-68.032 117.293-128 0-32-10.666-53.334-32-64-64-21.334 0-32-10.666-32-32-21.334 0-42.666 0-64 0 0 21.334-10.666 32-32 32 0 21.334 0 42.666 0 64 100.195-19.798 174.861 22.867 224 128z" />
<glyph unicode="&#xea4a;" d="M400 176c0-21.334 0-42.666 0-64-10.934-26.822-32.269-37.491-64-32-37.555 59.77-16.221 91.77 64 96z" />
<glyph unicode="&#xea4b;" d="M400 176c-80.221-4.23-101.555-36.23-64-96 0-10.666 0-21.334 0-32-21.333 0-42.667 0-64 0 0 32 0 64 0 96 33.224 64.624 75.891 75.29 128 32z" />
<glyph unicode="&#xea4c;" d="M592 176c28.928-22.688 39.594-54.688 32-96 0-21.334-10.666-32-32-32-10.666 32-32 53.334-64 64 10.666 32 32 53.334 64 64z" />
<glyph unicode="&#xea4d;" d="M528 112c32-10.666 53.334-32 64-64-21.334-32-42.666-64-64-96-10.666 0-21.334 0-32 0 28.973 46.858 28.973 89.523 0 128 0 21.334 10.666 32 32 32z" />
<glyph unicode="&#xea4e;" d="M176 176c21.333-10.666 42.667-21.334 64-32 10.667 0 21.333 0 32 0 0-32 0-64 0-96 0-10.666 0-21.334 0-32-74.694-42.906-128.028-21.571-160 64 21.333 32 42.667 64 64 96z" />
<glyph unicode="&#xea4f;" d="M400 112c21.334 0 32-10.666 32-32-31.069-46.787-20.403-89.453 32-128-21.334 0-42.666 0-64 0-21.334 32-42.666 64-64 96 0 10.666 0 21.334 0 32 31.731-5.491 53.066 5.178 64 32z" />
<glyph unicode="&#xea50;" d="M432 80c21.334 0 42.666 0 64 0 28.973-38.477 28.973-81.142 0-128-10.666 0-21.334 0-32 0-52.403 38.547-63.069 81.213-32 128z" />
<glyph unicode="&#xea51;" d="M112 80c31.972-85.571 85.306-106.906 160-64 0-21.334 0-42.666 0-64-42.667 0-85.333 0-128 0-21.333 32-42.667 64-64 96 0 21.334 10.667 32 32 32z" />
</font>
</defs>
</svg>
