<svg xmlns="http://www.w3.org/2000/svg" viewBox="0 0 310 310">
  <path d="M289.9 65.6c-10.6-12.5-30-17.7-67.2-17.7H87.6c-38.1 0-57.9 5.4-68.4 18.8C9 79.7 9 98.9 9 125.5v50.6c0 51.4 12.2 77.6 78.6 77.6h135.1c32.3 0 50.1-4.5 61.7-15.6 11.9-11.4 16.9-29.9 16.9-62v-50.6c0-28-.8-47.3-11.4-59.9zm-93.2 92.2l-61.3 32.1c-1.4.7-2.9 1.1-4.4 1.1-1.7 0-3.4-.5-4.9-1.4-2.8-1.7-4.5-4.8-4.5-8.1v-63.9c0-3.3 1.7-6.3 4.5-8.1 2.8-1.7 6.3-1.8 9.2-.3l61.3 31.8c3.1 1.6 5.1 4.8 5.1 8.4 0 3.5-1.9 6.7-5 8.4z" fill="none" stroke="#99a3af" stroke-width="6" stroke-miterlimit="10"/>
</svg>