<svg id="Capa_1" xmlns="http://www.w3.org/2000/svg" viewBox="0 0 512 512" fill="#99a3af">
  <path class="st0" d="M409.6 212.8c0-42.4-34.4-76.8-76.8-76.8H179.2c-42.4 0-76.8 34.4-76.8 76.8s34.4 76.8 76.8 76.8h68.3v76.8c0 4.7 3.8 8.5 8.5 8.5 2.3 0 4.4-.9 6-2.5l25.8-25.8 20.3 40.6c2.1 4.2 7.2 5.9 11.4 3.8l34.1-17.1c4.2-2.1 5.9-7.2 3.8-11.4L338 323.6h37.4c4.7 0 8.5-3.8 8.5-8.5 0-2.3-.9-4.4-2.5-6l-23.8-23.8c31.1-10.6 52-39.7 52-72.5zm-85.3 93.9c-4.7 0-8.6 3.8-8.6 8.5 0 1.3.3 2.7.9 3.9l21.8 43.6-18.9 9.4-21.7-43.6c-1.2-2.5-3.6-4.2-6.3-4.6-.5-.1-.9-.1-1.4-.1-2.3 0-4.4.9-6 2.5l-19.6 19.6V216.3l90.3 90.3h-30.5zm19.5-35.2L262 189.7c-3.3-3.3-8.7-3.3-12.1 0-1.6 1.6-2.5 3.8-2.5 6v76.8h-68.3c-33 0-59.7-26.7-59.7-59.7s26.7-59.7 59.7-59.7h153.6c33 .2 59.6 27 59.5 60-.1 28.5-20.4 53-48.4 58.4zM76.8 204.3H42.7c-4.7 0-8.5 3.8-8.5 8.5s3.8 8.5 8.5 8.5h34.1c4.7 0 8.5-3.8 8.5-8.5s-3.8-8.5-8.5-8.5zM91.4 245.1c-1.4-4.5-6.2-7-10.7-5.5-.2.1-.4.1-.7.2l-32 11.7c-4.5 1.5-6.8 6.4-5.3 10.8 1.5 4.5 6.4 6.8 10.8 5.3.1 0 .2-.1.3-.1l32.1-11.7c4.5-1.4 7-6.2 5.5-10.7zM85.9 169.8l-32.1-11.7c-4.4-1.7-9.3.5-11 4.9s.5 9.3 4.9 11c.1 0 .2.1.3.1l32.1 11.7c.9.3 1.9.5 2.9.5 4.7 0 8.5-3.8 8.5-8.6 0-3.5-2.3-6.7-5.6-7.9zM469.3 204.3h-34.1c-4.7 0-8.5 3.8-8.5 8.5s3.8 8.5 8.5 8.5h34.1c4.7 0 8.5-3.8 8.5-8.5.1-4.7-3.8-8.5-8.5-8.5zM469.3 163.3c-1.5-4.5-6.4-6.8-10.8-5.3-.1 0-.2.1-.3.1l-32.1 11.7c-4.4 1.6-6.7 6.5-5.1 10.9 1.2 3.4 4.4 5.6 8 5.6 1 0 2-.2 2.9-.5l32.1-11.7c4.5-1.5 6.9-6.3 5.3-10.8zM464.3 251.6c-.1 0-.2-.1-.3-.1l-32.1-11.7c-4.4-1.8-9.3.3-11.1 4.7s.3 9.3 4.7 11.1c.2.1.4.2.7.2l32.1 11.7c4.4 1.7 9.3-.5 11-4.9 1.6-4.4-.6-9.3-5-11z"/>
</svg>
