<svg xmlns="http://www.w3.org/2000/svg" viewBox="0 0 265 235">
  <g fill="none" fill-rule="evenodd" transform="translate(-36)">
    <g transform="translate(95 48)">
      <path fill="#BF2652" d="M16.0404809,119.776325 C33.2381553,114.809213 72.5649281,119.263705 76.1967351,120.129856 C77.7812,120.501063 85.8459479,121.703069 92.9315321,119.917737 C88.5876061,98.2286063 67.597898,58.1735367 62.9157154,60.5952245 C53.3199116,61.090168 43.7241078,61.5674349 34.128304,62.0623784 C31.244222,67.0118133 18.5863064,104.698225 16.0404809,119.776325 Z"/>
      <g fill-rule="nonzero" transform="translate(23.5 100.403)">
        <path fill="#35489E" d="M46.8396285,28.8304583 L13.085187,28.8304583 C9.29315321,28.8304583 6.33785928,25.401207 6.76513069,21.4770122 L8.45641336,5.92164533 C8.81247287,2.58077677 11.5363281,0.0707062129 14.7764697,0.0707062129 L44.5074388,0.0707062129 C47.6407624,0.0707062129 50.2934058,2.43936435 50.7918891,5.65649703 L53.1240789,21.2118639 C53.7115771,25.2244415 50.7384802,28.8304583 46.8396285,28.8304583 Z"/>
        <g transform="translate(0 10.43)">
          <path fill="#35489E" d="M7.40603781,5.70952669 C5.51892241,18.3659388 3.82763973,41.8404015 4.48634983,60.100281 C4.62877363,60.931079 5.32308967,63.264384 7.9223241,64.8906269 C10.4503466,66.0926325 18.176838,65.8451608 19.9393326,58.120507 C21.8798569,50.8907968 23.3931098,45.9060087 24.2298497,41.6459594 C26.0457532,32.4011221 27.576809,24.1461717 28.7518054,17.7119063 C30.7457387,-1.83836154 9.13292643,-4.1186369 7.40603781,5.70952669 Z"/>
          <path fill="#35489E" d="M19.2806225,59.9235155 C19.636682,73.0748711 18.4794886,92.6251389 12.1416293,116.400103 C11.7677668,116.612222 10.8598151,116.788987 9.68481867,116.488486 C7.06778127,115.551628 3.64960998,114.402653 2.02953921,115.90516 C3.11552071,102.400273 2.63484037,65.5269828 4.55756173,58.5093912 C6.48028308,48.981729 18.3192618,49.7064677 19.2806225,59.9235155 Z"/>
          <path fill="#262F69" d="M16.9840386,53.5246032 C10.5927704,78.4485432 18.2480499,88.3297365 9.68481867,116.470809 C10.8598151,116.788987 11.7499638,116.612222 12.1416293,116.382426 C18.4438826,92.7488748 19.636682,73.2869897 19.2806225,60.1356341 C19.2984254,60.100281 19.3162284,60.0649279 19.3340314,60.0118982 C20.1529683,59.3578658 21.773039,57.7846525 21.6484182,55.6988192 C21.6306152,55.3276116 21.5416004,54.8680212 21.3279646,54.3377246 C22.2537194,53.294808 23.6067455,51.4387699 24.2298497,48.82264 C24.4434854,47.9211358 24.5325002,47.0726613 24.5503032,46.3479226 C24.6037121,43.9262348 25.5116639,36.2546107 26.882493,27.8052182 C27.5234001,24.3759669 28.1108983,21.2118639 28.6271846,18.3836154 C25.9211323,17.9947312 23.7135634,17.4290815 19.7969088,16.6336366 C21.5772063,27.5223934 19.7256969,43.7671458 16.9840386,53.5246032 Z"/>
          <path fill="#5067BC" d="M6.40907118 13.6816522C5.02043909 26.4618002 4.02347246 44.2090596 4.45074388 58.8805988 5.03824207 54.1609591 6.21323845 47.4615454 6.83634259 34.9995754 7.40603781 23.7926406 6.48028308 12.9569135 6.40907118 13.6816522zM3.95226056 63.3527668C3.86324568 63.3527668 3.73862486 65.4739532 3.47158022 69.6986494 3.18673261 74.223847 3.06211179 78.1480418 2.99089988 81.3298214 2.8306731 83.8929216 2.59923442 86.5797577 2.26097789 89.3549766 1.76249457 93.5973494 1.08598151 97.5568973.338256535 101.215944 1.08598151 99.5897009 2.10075111 97.2033662 2.99089988 94.2690584 7.03217532 80.4283172 4.86021231 67.4714037 3.95226056 63.3527668z"/>
        </g>
        <g transform="translate(30.443 9.192)">
          <path fill="#35489E" d="M9.47118297,61.8325832 C9.50678892,63.4411495 9.82724248,65.756778 9.9518633,68.5496734 C10.2901198,76.044532 10.877618,83.998981 11.3939043,88.4357958 C12.0526144,94.0922929 14.7230607,104.026516 19.8503177,118.026346 C22.9836414,118.98088 25.1021955,114.703154 29.0188501,117.301607 C28.6805935,114.597095 27.9506715,110.549164 27.576809,105.44064 C26.7756752,94.9761205 27.0783257,89.9913325 26.6154484,81.4712338 C26.3484037,76.6985645 26.2771918,68.8148217 24.9241657,60.3831058 C23.1082622,48.9994056 9.47118297,51.2796809 9.47118297,61.8325832 Z"/>
          <path fill="#35489E" d="M0.249241657,17.6942298 C1.24620829,24.0931421 2.38559872,30.6511433 3.66741295,37.3859101 C5.3764986,46.3125695 7.61967351,54.3730777 9.57800082,62.5573219 C11.1446627,69.1506762 24.7817419,72.3854855 24.9063627,59.9235155 C25.2446193,53.5246032 25.3692401,46.7191302 25.1556044,39.5601261 C24.8351508,28.9895473 23.8737901,19.1613837 22.502961,10.1640181 C20.0995593,-5.28528942 -2.47461359,-2.88127818 0.249241657,17.6942298 Z"/>
          <path fill="#262F69" d="M24.9241657 60.4361355C26.8468871 74.1354643 26.0991621 74.8248498 26.7756752 84.0873637 27.3453704 90.4155698 28.6983965 97.1149835 29.8733929 102.700774 28.4847608 99.4306119 27.1673406 95.7185357 26.134768 91.5645457 23.0548533 79.1732819 23.6601544 67.9486706 24.9241657 60.4361355zM12.0704174 20.0628879C13.085187 19.7270334 13.815109 19.4618851 14.1889715 18.5603809 13.3700346 17.4114049 11.3226924 17.6412001 9.06171453 18.1361436 6.62270689 18.6841168 5.14505992 19.3911789.587498192 19.7270334.569695216 19.6916803.569695216 19.6740037.551892241 19.6386506 1.6022678 28.0350134 2.65264335 36.4136997 3.68521593 44.8100624 3.89885163 46.1004508 4.30832007 47.7620468 5.12725694 49.6004084 5.76816406 51.0322092 6.51588903 52.1811851 7.17459913 53.0826894 6.96096342 53.7543984 6.65831284 55.0271102 6.92535747 56.5649703 7.28141698 58.5624209 8.42080741 59.8881623 9.09732048 60.5421948 9.22194131 61.0548149 9.82724248 65.915867 9.9518633 68.5496734 10.2901198 76.044532 10.877618 83.998981 11.3939043 88.4357958 12.0526144 94.0922929 14.545031 104.026516 19.654485 118.026346 20.4378159 118.273818 21.2389498 118.185435 21.9510688 117.973316 12.5867037 93.0316997 15.8980571 68.0547299 12.9961721 59.428572 7.88671815 39.4187137 8.45641336 20.6285376 9.15072941 20.6108611 10.0942871 20.575508 11.0022389 20.4694486 12.0704174 20.0628879zM23.3575039 16.1917228C23.3575039 16.1917228 24.7995449 27.6107761 24.9241657 34.3455429 25.458255 44.6863266 25.2446193 53.2594549 24.9241657 59.1811002 24.2654556 55.3629647 23.4465187 49.8655567 22.9302324 43.2191727 21.8798569 29.6966094 23.3575039 16.1917228 23.3575039 16.1917228z"/>
        </g>
        <path fill="#828282" fill-opacity=".3" d="M.142423804 5.2145832C.106817853 5.2145832.0534089265 5.1792301.0534089265 5.14387699.0534089265 5.09084733.0890148775 5.05549422.124620829 5.03781767 1.47764697 4.87872869 3.4893832 4.36610865 5.39430158 2.89895473 6.33785928 2.17421605 7.13899318 1.29038839 7.77990029.282824852 7.79770327.247471745 7.86891517.229795192 7.90452112.247471745 7.94012707.265148298 7.95793005.335854511 7.94012707.371207618 7.28141698 1.39644771 6.46248011 2.29795192 5.50111943 3.0226906 3.57839808 4.54287418 1.53105589 5.05549422.142423804 5.2145832.142423804 5.2145832.142423804 5.2145832.142423804 5.2145832zM45.7358441 4.50752107C44.1157733 4.50752107 41.7123716 4.17166656 39.4513937 2.58077677 38.507836 1.9267443 37.6888991 1.11362285 37.0123861.159088979 36.9767801.123735873 36.9945831.0707062129 37.030189.0353531065 37.065795-4.01935429e-14 37.1192039.0176765532 37.1548099.0530296597 37.8313229.989886981 38.6324568 1.78533188 39.5404086 2.42168779 41.7657805 3.99490103 44.1335763 4.33075554 45.7358441 4.33075554 45.753647 4.33075554 45.77145 4.33075554 45.77145 4.33075554 45.8248589 4.33075554 45.8604649 4.36610865 45.8604649 4.41913831 45.8604649 4.47216797 45.8248589 4.50752107 45.77145 4.50752107 45.753647 4.50752107 45.7358441 4.50752107 45.7358441 4.50752107zM21.078723 10.128665C21.078723 10.128665 21.078723 10.128665 21.078723 10.128665 21.0253141 10.128665 20.9897081 10.0933119 20.9897081 10.0402822 21.0075111 8.83827662 21.0075111 7.636271 20.9897081 6.45194193 20.9719051 4.71963971 20.9006932 2.96966094 20.8116784 1.23735873 20.8116784 1.18432907 20.8472843 1.14897596 20.9006932 1.14897596 20.9541022 1.14897596 20.9897081 1.18432907 20.9897081 1.23735873 21.078723 2.96966094 21.1499349 4.71963971 21.1677379 6.45194193 21.1855408 7.636271 21.1855408 8.85595317 21.1677379 10.0579588 21.1677379 10.0933119 21.1321319 10.128665 21.078723 10.128665zM25.0665895 6.89385576C25.0665895 6.89385576 25.0665895 6.89385576 25.0665895 6.89385576 25.0131806 6.89385576 24.9775746 6.85850265 24.9775746 6.80547299 24.9953776 5.97467499 24.9953776 5.12620044 24.9775746 4.29540244 24.9597717 3.11107337 24.8885597 1.8913912 24.7995449.707062129 24.7995449.65403247 24.8351508.618679363 24.8885597.618679363 24.9419687.618679363 24.9775746.65403247 24.9775746.707062129 25.0665895 1.90906775 25.1378014 3.11107337 25.1556044 4.31307899 25.1734074 5.14387699 25.1734074 5.99235155 25.1556044 6.8408261 25.1556044 6.85850265 25.1199984 6.89385576 25.0665895 6.89385576zM31.7961142 14.3356847C30.3362703 14.3356847 28.9298352 14.1765957 27.9506715 14.0351833 27.8972626 14.0351833 27.8616567 13.9821536 27.8794596 13.9291239 27.8794596 13.8760943 27.9328686 13.8407412 27.9862775 13.8584177 29.784378 14.123566 33.1313374 14.4594205 35.3745123 13.6816522 35.4457242 13.6639756 35.5169361 13.6286225 35.588148 13.610946 36.1222373 13.4341805 36.9411742 13.1690322 37.3862486 12.5680293 37.5108694 12.3912638 37.5286724 12.2321748 37.4218545 12.0907624 36.8343563 11.2246113 34.0036832 11.5074362 31.6358875 12.108439 31.6180845 12.108439 28.4313519 13.1690322 24.674924 13.3634742 23.4999277 13.4341805 22.502961 13.3811508 22.3071283 13.3634742 21.3813736 13.3104446 20.6514516 13.2043853 20.1885742 13.1160025 18.7287302 12.8685308 17.4825219 12.5857059 16.2719196 12.3205576 14.7764697 11.9847031 13.4946554 11.6842017 12.1594323 11.5604658 10.4681496 11.3837003 8.723458 11.4897596 6.94316045 11.8609672 6.88975152 11.8786438 6.85414557 11.8432907 6.83634259 11.790261 6.81853962 11.7372313 6.85414557 11.7018782 6.90755449 11.6842017 8.70565502 11.3129941 10.4859526 11.2069347 12.1772352 11.3837003 13.5124584 11.5251127 14.8120756 11.8079376 16.3075256 12.1437921 17.5181279 12.4089404 18.7643362 12.6917652 20.2063772 12.939237 20.6692546 13.0099432 21.3813736 13.1160025 22.3071283 13.1867087 22.4851581 13.2043853 23.4821247 13.2574149 24.6571211 13.1867087 28.3957459 12.9922666 31.5468726 11.94935 31.5646756 11.9316734 35.0718617 11.0301692 37.1014009 11.3129941 37.5642783 11.9847031 37.7067021 12.1968217 37.6888991 12.4442935 37.5286724 12.6740887 37.065795 13.3104446 36.2112522 13.5932694 35.641557 13.770035 35.570345 13.7877115 35.4991331 13.8230646 35.4279212 13.8407412 34.3597427 14.2119488 33.0601255 14.3356847 31.7961142 14.3356847z" style="mix-blend-mode:normal" transform="translate(6.943 15.555)"/>
      </g>
      <g transform="translate(28.485 36.237)">
        <path fill="#FFF9B0" d="M17.0730535,0.371207618 C19.618879,0.0707062129 21.773039,-1.73472348e-18 23.3575039,0.0176765532 C26.8468871,0.0353531065 29.3393036,0.441913831 33.4873969,1.07826975 C36.3714789,1.53786013 37.8491259,1.76765532 39.0419253,2.26259881 C39.932074,2.63380643 42.7093382,3.8181355 44.8278923,6.52264814 C48.2460636,10.8887568 47.5339446,16.0679869 47.3559148,17.1816097 C45.4331935,26.4264471 44.8278923,34.3278664 44.7032715,40.2671883 C44.5074388,48.6989042 45.2195578,55.3099351 45.789253,60.5068417 C46.519175,67.0825195 47.8900041,72.5445745 49.5634838,76.716241 C35.0006498,81.6126463 10.5037555,80.5343765 0.249241657,77.4233032 C0.587498192,76.557152 1.35302614,74.4182891 1.85150945,72.8097228 C3.88104866,66.3224277 4.41513792,60.7189604 4.62877363,54.4614605 C5.07384802,41.5575766 4.02347246,30.8455854 2.93749096,20.25733 C2.70605228,17.924025 2.49241657,15.9972807 2.33218979,14.6892157 C2.01173623,13.8053881 1.33522316,11.472083 2.20756896,8.7675704 C3.07991476,6.09841086 4.98483314,4.63125695 5.94619382,3.90651826 C7.37043186,2.84592507 8.63444312,2.42168779 10.5393615,1.76765532 C12.0526144,1.27271183 14.2601834,0.671709023 17.0730535,0.371207618 Z"/>
        <path fill="#F9C973" fill-rule="nonzero" d="M36.1400403 54.1786357C35.3745123 51.0852388 36.6385236 47.5852813 35.5347391 46.6307474 30.9593744 42.6004933 22.0934926 43.1307899 12.8715513 48.2216372 14.8654845 30.704173 17.6071428 25.4542367 18.2658529 13.9291239 16.3787375 14.5654799 10.6639823 17.1639332 2.93749096 20.25733 4.02347246 30.8455854 5.07384802 41.5575766 4.62877363 54.4614605 4.41513792 60.7189604 3.88104866 66.3047512 1.85150945 72.8097228 1.35302614 74.4182891.587498192 76.557152.249241657 77.4233032 1.03257258 77.6530983 1.90491838 77.8828935 2.8306731 78.0950122 4.46854685 78.4662198 8.8658818 79.1909585 10.895421 79.4737833 10.9666329 77.0697721 11.0378448 74.7894967 11.1268597 72.6152807 13.8685179 55.274582 28.8942292 55.4159944 36.1400403 54.1786357zM39.0419253 2.26259881C39.932074 2.63380643 42.7093382 3.8181355 44.8278923 6.52264814 48.2460636 10.8887568 47.5339446 16.0679869 47.3559148 17.1816097 45.4331935 26.4264471 44.8278923 34.3278664 44.7032715 40.2671883 44.5074388 48.6989042 45.2195578 55.3099351 45.789253 60.5068417 46.519175 67.0825195 47.8900041 72.5445745 49.5634838 76.716241 48.6021231 77.034419 47.0532642 77.6177452 45.1839518 77.9182466 40.9646466 66.4108105 40.9468437 53.135719 40.0566949 40.1788055 33.3627761 31.1991165 31.1196012 14.2296254 30.7101327 6.75244333 31.3866458.565649703 38.7036687 2.12118639 39.0419253 2.26259881z"/>
        <path fill="#F9C973" fill-rule="nonzero" d="M24.1052288,80.2338751 C23.9093961,80.2338751 23.6957604,80.2338751 23.4999277,80.2338751 C23.3397009,80.2338751 7.63747649,79.9687268 0.213635706,77.4409797 C0.16022678,77.4233032 0.142423804,77.3702735 0.16022678,77.3349204 C0.178029755,77.2818907 0.231438682,77.2642142 0.267044633,77.2818907 C4.13029032,78.6076322 10.2367109,79.2793412 14.6696518,79.6328723 C19.4942582,80.0040799 23.4465187,80.0747861 23.4821247,80.0747861 C23.6779574,80.0747861 23.8915931,80.0747861 24.0874259,80.0747861 C37.7245051,80.0747861 46.9820523,77.5116859 49.5278778,76.716241 C49.5812868,76.6985645 49.6168927,76.7339176 49.6346957,76.7692707 C49.6524987,76.8223003 49.6168927,76.8576535 49.5812868,76.87533 C47.0532642,77.6707749 37.777914,80.2338751 24.1052288,80.2338751 Z"/>
        <path fill="#F9C973" fill-rule="nonzero" d="M24.9063627 78.0596591C20.0639534 78.0596591 14.545031 77.706128 9.54239487 77.0697721 9.48898594 77.0697721 9.45337999 77.0167424 9.47118297 76.9637128 9.47118297 76.9106831 9.52459189 76.87533 9.57800082 76.8930066 15.8090422 77.6884515 22.8234146 78.0419825 28.342337 77.8121873 28.3779429 77.8121873 28.4313519 77.8475404 28.4313519 77.9005701 28.4313519 77.9535998 28.3957459 77.9889529 28.342337 77.9889529 27.2385525 78.0419825 26.0991621 78.0596591 24.9063627 78.0596591zM32.7574749 77.7591577C32.704066 77.7591577 32.66846 77.7238046 32.66846 77.6707749 32.66846 77.6177452 32.704066 77.5823921 32.7574749 77.5823921 36.6919325 77.5116859 41.4987359 76.5041224 43.4036543 76.0622086 43.4570632 76.044532 43.4926691 76.0798851 43.5104721 76.1329148 43.5282751 76.1859444 43.4926691 76.2212975 43.4392602 76.2389741 41.5343418 76.6632114 36.7097355 77.6884515 32.7574749 77.7591577 32.7574749 77.7591577 32.7574749 77.7591577 32.7574749 77.7591577zM23.6957604 6.82314955C22.502961 6.82314955 21.5950093 6.68173712 21.096526 6.59335436 19.9927415 6.41658882 18.888957 6.11608742 17.8207785 5.70952669 17.7673695 5.69185014 17.7495666 5.63882048 17.7673695 5.60346737 17.7851725 5.55043771 17.8385815 5.53276116 17.8741874 5.55043771 18.924563 5.95699844 20.0105445 6.23982329 21.1143289 6.41658882 22.1112956 6.5756778 24.728333 6.98223853 27.8438537 6.0100281 28.5737757 5.78023291 29.2858947 5.4797315 29.9446048 5.14387699 29.9802107 5.12620044 30.0336197 5.14387699 30.0692256 5.1792301 30.0870286 5.2145832 30.0692256 5.26761286 30.0336197 5.30296597 29.3571066 5.65649703 28.6271846 5.95699844 27.8972626 6.18679363 26.3306008 6.68173712 24.8885597 6.82314955 23.6957604 6.82314955z"/>
      </g>
      <g transform="translate(66.761 40.656)">
        <path fill="#FC6C85" d="M9.39997106,0.0353531065 C8.33179253,-0.0883827662 6.49808606,1.25503528 5.82157299,1.60856634 C0.338256535,4.36610865 0.142423804,13.0983259 0.106817853,14.2119488 C0.0534089265,16.2270759 0.284847608,20.098241 2.6882493,24.6057621 C3.15112666,25.6840318 3.61400403,26.8506844 4.04127544,28.1057196 C4.41513792,29.1839894 4.73559148,30.226906 4.98483314,31.216793 C4.96703016,32.4011221 12.1416293,41.8580781 15.1859381,40.832838 C16.9306297,40.2318352 17.8563844,38.7116516 18.3192618,37.9692363 C19.636682,35.8303734 19.4942582,33.709187 19.4052433,32.8960656 C19.1916076,31.4642648 18.888957,29.2900487 18.4616856,26.6562423 C16.7525999,16.1386931 15.6666184,12.6387356 14.9366964,10.5529023 C13.3522316,6.11608742 12.5867037,0.371207618 9.39997106,0.0353531065 Z"/>
        <path fill="#BF2652" d="M8.15376278,31.3405289 C8.49201931,31.1637633 9.0083056,30.9516447 9.64921272,30.7748792 C11.643146,30.2445826 13.2988227,30.6511433 13.9575328,30.8102323 C14.5806369,30.9693213 16.0404809,31.3582054 17.3757041,32.5248579 C18.194641,33.2495966 18.4616856,33.8329229 18.5507005,34.0096884 C18.90676,34.8228099 18.8533511,35.6005782 18.8355481,36.042492 C18.7999421,36.6258183 18.6753213,37.1207618 18.5507005,37.4389397 C18.8355481,37.0677321 19.1381987,36.6081417 19.3518344,36.042492 C20.2775891,33.7268636 19.3696373,31.4996179 19.0669868,30.8102323 C18.8355481,30.4743778 18.4616856,29.9971108 17.8919904,29.5375204 C16.0582839,28.0350134 12.9605662,27.3456278 10.5215585,28.7420756 C10.0408782,29.0249004 8.95489668,29.7496391 8.15376278,31.3405289 Z"/>
        <path fill="#EA2856" d="M7.03217532,28.5122804 C6.99656937,28.5122804 6.9787664,28.4946038 6.96096342,28.4592507 C6.94316045,28.4238976 6.94316045,28.3708679 6.99656937,28.3355148 C8.1359598,27.6814824 9.36436511,27.1865389 10.6461793,26.8860375 C12.9249602,26.3380643 15.3639679,26.3734174 17.6961576,27.0097733 C17.7495666,27.0274499 17.7673695,27.062803 17.7673695,27.1158327 C17.7495666,27.1688623 17.7139606,27.1865389 17.6605517,27.1865389 C15.3639679,26.5678595 12.9427632,26.5325064 10.6995883,27.062803 C9.45337999,27.3633044 8.24277766,27.8405713 7.10338722,28.4946038 C7.06778127,28.5122804 7.0499783,28.5122804 7.03217532,28.5122804 Z"/>
      </g>
      <g transform="translate(16.557 40.656)">
        <path fill="#FC6C85" d="M10.6461793,0.0353531065 C11.7143579,-0.0707062129 13.5480644,1.18432907 14.2245774,1.50250702 C19.7078939,4.0832838 19.9037266,12.2321748 19.9393326,13.2750915 C19.9927415,15.1488061 19.7613028,18.7724995 17.3579011,22.9795192 C16.8950237,23.9870827 16.4321464,25.083029 16.004875,26.2496815 C15.6310125,27.2572451 15.3105589,28.2294555 15.0613173,29.1663128 C15.0791202,30.2799357 7.90452112,39.1182123 4.86021231,38.1460019 C3.11552071,37.5980287 2.18976599,36.1662279 1.72688862,35.4768423 C0.409468437,33.4793918 0.551892241,31.4996179 0.640907118,30.7395261 C0.854542824,29.396108 1.15719341,27.3633044 1.58446482,24.9239401 C3.29355047,15.0957765 4.37953197,11.8256141 5.10945397,9.88119326 C6.69391879,5.70952669 7.45944673,0.353531065 10.6461793,0.0353531065 Z"/>
        <path fill="#BF2652" d="M0.801133898,34.0096884 C0.996966628,29.8380219 7.65527947,27.4340106 11.0556478,28.4415741 C10.3079228,27.9289541 9.15072941,27.0804796 7.51285566,26.7623016 C4.48634983,26.1789753 2.01173623,27.2042154 1.13939043,27.6461293 C-0.605301167,29.9440812 0.071211902,33.3556559 0.801133898,34.0096884 Z"/>
        <path fill="#EA2856" d="M12.9961721,26.7269485 C12.9783691,26.7269485 12.9605662,26.7269485 12.9427632,26.7092719 C10.5571645,24.6941449 4.80680339,23.9694062 1.47764697,25.9668567 C1.44204102,25.9845333 1.38863209,25.9845333 1.35302614,25.9315036 C1.33522316,25.8961505 1.33522316,25.8431208 1.38863209,25.8077677 C2.91968798,24.8885869 5.14505992,24.4643497 7.49505269,24.6411152 C9.7382276,24.8178807 11.8211757,25.5426194 13.049581,26.5678595 C13.085187,26.6032126 13.085187,26.6562423 13.067384,26.6915954 C13.049581,26.7092719 13.0317781,26.7269485 12.9961721,26.7269485 Z"/>
      </g>
      <g transform="translate(59.106 35)">
        <path fill="#F95070" d="M0.106817853,7.76000687 C6.08861762,49.653438 19.9393326,44.8984452 28.8052144,87.5342916 C29.4995304,87.4105557 30.4608911,87.1454074 31.5290696,86.6151108 C32.5794452,86.0848142 33.3627761,85.4484583 33.8790624,84.9535148 C29.784378,51.5094761 12.8715513,43.9085582 12.3908709,26.3380643 C12.0348114,18.8078526 15.292756,10.5882554 18.2480499,6.18679363 C15.951466,4.96711146 4.93142421,1.16665251 3.27574749,0.0530296597 C3.4181713,0.830798002 3.59620105,2.51007056 2.91968798,4.45449141 C2.17196301,6.59335436 0.71211902,7.26506338 0.106817853,7.76000687 Z"/>
        <path fill="#EA2856" d="M12.5154918 22.3431286C12.6045067 22.3431286 11.9992055 25.1183821 12.5154918 28.9895473 12.6579156 30.0501405 13.085187 32.7193 15.7734363 38.5172095 17.5181279 42.2646388 18.5863064 43.8555286 22.1112956 50.2014112 23.6779574 53.0296597 24.9241657 55.4867006 25.7074966 56.9715311 23.6423515 55.787202 20.4556188 53.4892501 17.5893398 49.8478801 13.4768525 44.6332969 12.4086739 39.3833606 11.9814025 37.0854087 10.4325436 29.0602535 12.3908709 22.3254867 12.5154918 22.3431286zM.16022678 8.2019207C.409468437 8.11353793.783330922 8.00747861 1.24620829 7.95444895 1.44204102 7.9367724 2.26097789 7.88374274 3.45377725 8.36100968 4.64657661 8.83827662 5.57233133 9.5630153 6.19543547 10.1816947 6.37346523 10.3584602 6.69391879 10.2170478 6.65831284 9.96957602 6.62270689 9.42160287 6.55149498 8.87362972 6.46248011 8.29030347 6.01740572 5.33831908 5.12725694 2.86360162 4.20150222.936857321 3.20453559 2.36865813 2.18976599 3.78278239 1.19279936 5.2145832.979163653 5.46205495.694316045 5.85093912.462877363 6.38123572.16022678 7.12365095.142423804 7.81303653.16022678 8.2019207zM10.4681496 37.0500556C10.4325436 37.0500556 10.3969377 37.032379 10.3791347 36.9970259 7.65527947 30.7572026 5.53672538 24.2699076 4.09468437 17.6942298 3.5605951 15.2902185 3.11552071 12.8155011 2.7594612 10.3761367 2.7594612 10.3231071 2.79506715 10.287754 2.8306731 10.2700774 2.88408203 10.2700774 2.91968798 10.287754 2.93749096 10.3407836 3.29355047 12.780148 3.73862486 15.2371889 4.27271412 17.6412001 5.71475514 24.2168779 7.81550624 30.704173 10.5393615 36.9263197 10.5571645 36.9793494 10.5393615 37.0147025 10.4859526 37.0500556 10.4859526 37.0500556 10.4681496 37.0500556 10.4681496 37.0500556zM6.21323845 32.9844483C6.1776325 32.9844483 6.14202655 32.9667718 6.12422357 32.9314187 5.67914918 31.7824427 1.69128267 21.2648935.213635706 9.05039525.213635706 8.99736559.249241657 8.96201249.284847608 8.94433594.338256535 8.94433594.373862486 8.97968904.391665461 9.01504215 1.86931243 21.2118639 5.85717894 31.6940599 6.30225333 32.8430359 6.3200563 32.8960656 6.30225333 32.9314187 6.2488444 32.9490952 6.2488444 32.9844483 6.23104143 32.9844483 6.21323845 32.9844483zM28.6805935 87.6226744C28.6449876 87.6226744 28.5915787 87.5873213 28.5915787 87.5519682 28.5737757 87.4282323 26.0991621 72.9334586 20.1529683 60.25937 18.90676 57.5902104 17.5181279 54.9387274 16.0582839 52.3579507 16.0404809 52.3225976 16.0404809 52.2695679 16.0938899 52.2342148 16.1294958 52.2165382 16.1829047 52.2165382 16.2185107 52.2695679 17.6961576 54.8503447 19.0669868 57.5195042 20.330998 60.1886638 26.2949948 72.880429 28.7696084 87.4105557 28.7874114 87.5342916 28.7874114 87.5696447 28.7518054 87.6049978 28.6805935 87.6226744 28.6983965 87.6226744 28.6983965 87.6226744 28.6805935 87.6226744zM31.3510399 84.8651321C31.3154339 84.8651321 31.279828 84.829779 31.262025 84.7944259 29.9980137 78.8020743 28.2177162 72.880429 25.9567383 67.1885788 24.1764407 62.6810578 22.0578866 58.2442429 19.6900909 54.0195467 19.6722879 53.9841936 19.6900909 53.9311639 19.7256969 53.8958108 19.7613028 53.8781342 19.8147117 53.8958108 19.8503177 53.9311639 22.2359164 58.1735367 24.3366675 62.6103515 26.134768 67.1178726 28.3957459 72.8097228 30.1760435 78.7490446 31.4578577 84.7413962 31.4756607 84.7944259 31.4400547 84.829779 31.3866458 84.8474555 31.3510399 84.8651321 31.3510399 84.8651321 31.3510399 84.8651321z"/>
      </g>
      <g transform="translate(15.845 34.646)">
        <path fill="#F95070" d="M30.2294524,8.57312832 C30.2294524,8.57312832 32.8464898,16.775049 28.1108983,26.744625 C22.6631878,39.9666869 12.2484471,51.7215948 5.32308967,86.8979357 C3.59620105,86.3676391 1.86931243,85.8373425 0.124620829,85.3070459 C0.284847608,81.6303228 3.07991476,61.0548149 10.6817853,44.7040031 C12.4442799,40.2141586 13.9397298,36.0601686 16.6635851,28.1057196 C16.8594178,27.575423 17.0908565,26.8330078 17.2688862,25.8961505 C17.5359309,24.4643497 17.5715368,22.9618426 17.2688862,20.8760094 C16.8416148,17.9063484 16.3431315,14.3710378 13.7617001,10.959463 C12.6579156,9.49230909 11.0378448,7.15900406 10.2545139,6.55800125 C11.8923876,4.75499282 25.7074966,0.512620044 26.4196156,0.0707062129 C26.3306008,0.813121449 26.3127978,1.74997877 26.5442365,2.7575423 C27.3809763,6.34588261 30.2294524,8.57312832 30.2294524,8.57312832 Z"/>
        <path fill="#EA2856" d="M25.8143145.848474555C25.3870431 1.80300843 25.2090133 2.20956915 24.7995449 3.64136997 24.2298497 5.79790946 23.9093961 9.33322011 23.7491693 11.3306706 23.7135634 11.7195548 24.2120467 11.9139969 24.4612883 11.5958189 25.5472698 10.2170478 26.5976454 8.27262691 30.3362703 8.97968904 30.3362703 8.80292351 30.1760435 8.39636278 30.1760435 8.39636278 29.1968798 6.77011989 26.3127978 2.1918926 25.8143145.848474555zM17.3044922 25.8077677C16.6635851 27.6814824 15.8980571 29.9087281 15.0079083 32.4011221 13.067384 37.863177 11.9101906 40.832838 8.97269965 48.82264 8.27838361 50.7140312 7.45944673 52.9236004 6.55149498 55.4159944 8.77686692 52.7998645 10.3435288 50.4312064 11.3761013 48.6989042 13.4590495 45.2519763 16.4855553 40.0904227 17.2866892 33.0021249 17.6605517 29.9794343 17.5003249 27.4516872 17.3044922 25.8077677zM22.2181134 38.6055923C22.2003104 38.6055923 22.1825075 38.6055923 22.1825075 38.5879157 22.1469015 38.5702392 22.1290985 38.5172095 22.1469015 38.4641798 23.3040949 36.3429934 24.4434854 34.1687774 25.5294669 31.9945613 27.0961287 28.8304583 27.8972626 27.2395685 28.4313519 25.8961505 29.4283185 23.3507268 31.279828 18.6134106 30.8347536 12.7447949 30.7635417 11.7549079 30.6211179 10.7473444 30.4252851 9.77513394 30.4074822 9.72210428 30.4430881 9.68675117 30.496497 9.66907462 30.549906 9.65139806 30.5855119 9.68675117 30.6033149 9.73978083 30.7991476 10.7296678 30.9415714 11.7372313 31.0127833 12.7271183 31.4578577 18.6310871 29.5885453 23.3860799 28.5915787 25.9491801 28.0574894 27.3102747 27.2741585 28.9011645 25.6896936 32.0652676 24.6037121 34.2571602 23.4643217 36.4313762 22.3071283 38.5525626 22.2893253 38.5879157 22.2537194 38.6055923 22.2181134 38.6055923z"/>
        <path fill="#EA2856" d="M21.6306152 34.7697802C21.6128123 34.7697802 21.5950093 34.7697802 21.5772063 34.7521037 21.5416004 34.7344271 21.5237974 34.6637209 21.5416004 34.6283678 23.0726562 32.1536503 25.8499204 27.221892 27.3275674 22.1840743 28.0930953 19.585621 28.342337 17.5528174 28.4135489 16.8104021 28.5737757 15.1488061 28.5737757 13.451857 28.4135489 11.790261 28.4135489 11.7372313 28.4491548 11.7018782 28.5025638 11.7018782 28.5559727 11.7018782 28.5915787 11.7372313 28.5915787 11.790261 28.7518054 13.4695336 28.7518054 15.1664827 28.5915787 16.8457552 28.5203668 17.605847 28.2711251 19.6563272 27.5055971 22.2547805 26.0101472 27.3102747 23.232883 32.2420331 21.7018271 34.7344271 21.6840242 34.7521037 21.6484182 34.7697802 21.6306152 34.7697802zM2.49241657 84.2641293C2.49241657 84.2641293 2.47461359 84.2641293 2.49241657 84.2641293 2.42120467 84.2464527 2.40340169 84.2110996 2.40340169 84.1580699 3.88104866 76.6455348 5.96399679 69.2213825 8.61664014 62.0977315 9.6670157 59.2871595 10.8242091 56.458911 12.0526144 53.7013687 12.0704174 53.6483391 12.1238263 53.6306625 12.1772352 53.6483391 12.2306442 53.6660156 12.2484471 53.7190453 12.2306442 53.7720749 11.0022389 56.5119407 9.84504545 59.3401892 8.7946699 62.1507612 6.14202655 69.2744121 4.05907841 76.6808879 2.58143145 84.193423 2.56362847 84.2287761 2.52802252 84.2641293 2.49241657 84.2641293zM5.32308967 86.8979357C5.32308967 86.8979357 5.32308967 86.8979357 5.32308967 86.8979357 5.25187777 86.8802591 5.2340748 86.844906 5.2340748 86.7918764 6.87194854 77.8475404 9.27535024 69.0092638 12.355265 60.5421948 13.2098078 58.2088898 14.1177596 55.8755848 15.0791202 53.5953094 15.0969232 53.5422797 15.1503322 53.5246032 15.2037411 53.5422797 15.25715 53.5599563 15.274953 53.612986 15.25715 53.6660156 14.2957893 55.946291 13.3878376 58.2972726 12.5510977 60.612901 9.47118297 69.07997 7.06778127 77.9005701 5.42990753 86.844906 5.41210455 86.8625826 5.3764986 86.8979357 5.32308967 86.8979357z"/>
      </g>
      <g fill-rule="nonzero" transform="translate(42.193 71.06)">
        <path fill="#F7B2B2" d="M32.0809619,1.6262429 C33.0423225,0.813121449 33.9324691,0.477266937 34.5021665,0.300501405 C37.3506426,-0.530296597 41.7479775,1.16665251 42.9585799,3.2878389 C43.635093,4.41913831 43.4036543,5.67417359 43.3146394,6.16911708 C42.9941858,7.98980206 41.6411597,9.68675117 38.2407914,12.4089404 C34.6267873,15.2902185 32.8108838,16.7396959 29.784378,17.8002891 C27.1495376,18.7194699 24.8707568,19.5149148 22.3071283,18.6310871 C19.2806225,17.605847 16.4499494,14.4594205 17.0018416,12.1614686 C17.5359309,9.95189947 20.7938754,10.0226057 25.8143145,6.89385576 C28.7874114,5.02014112 30.8525565,2.96966094 32.0809619,1.6262429 Z"/>
        <path fill="#828282" fill-opacity=".3" d="M23.3931098,19.1967368 C23.7847753,19.2320899 24.3722735,19.1967368 25.0843925,19.1967368 C27.3987793,18.9315885 31.956341,17.0755504 33.433988,16.0326338 C33.433988,16.0326338 29.7309691,16.0503103 27.9328686,15.9972807 C26.4196156,17.0578739 24.9063627,18.1361436 23.3931098,19.1967368 Z" style="mix-blend-mode:normal"/>
        <path fill="#F38484" d="M0.106817853,15.944251 C0.907951751,16.4745476 1.19279936,18.083114 7.63747649,18.6487637 C10.4147407,19.0022947 19.6722879,19.4795617 21.790842,19.4442086 C25.1556044,19.4088554 28.4491548,16.5806069 29.072259,15.944251 C19.4052433,15.944251 9.75603057,15.944251 0.106817853,15.944251 Z"/>
      </g>
      <g transform="translate(28.663 55.681)">
        <path fill="#81DCFC" d="M54.7441497,28.9541942 L45.1305429,23.739611 C44.7566804,23.5451689 44.4006209,23.4391096 43.9911525,23.4391096 L8.8658818,23.4037565 C8.33179253,23.4037565 7.81550624,23.5628455 7.37043186,23.8810234 L0.213635706,28.9895473 C-0.142423804,29.237019 0.035605951,29.8026687 0.480680339,29.8026687 L54.530514,29.8026687 C54.9933913,29.8026687 55.1536181,29.1839894 54.7441497,28.9541942 Z"/>
        <path fill="#A2E9FC" d="M15.8446482 25.8077677L7.15679615 25.8077677C7.0499783 25.8077677 6.9787664 25.7370615 6.9787664 25.6310022 6.9787664 25.5249429 7.0499783 25.4542367 7.15679615 25.4542367L15.8446482 25.4542367C15.951466 25.4542367 16.022678 25.5249429 16.022678 25.6310022 16.022678 25.7370615 15.9336631 25.8077677 15.8446482 25.8077677zM16.4855553 24.7648511L8.59883717 24.7648511C8.49201931 24.7648511 8.42080741 24.6941449 8.42080741 24.5880855 8.42080741 24.4820262 8.49201931 24.41132 8.59883717 24.41132L16.4855553 24.41132C16.5923732 24.41132 16.6635851 24.4820262 16.6635851 24.5880855 16.6635851 24.6941449 16.5923732 24.7648511 16.4855553 24.7648511z"/>
        <ellipse cx="8.973" cy="28.07" fill="#A2E9FC" rx="3.899" ry="1"/>
        <path fill="#0A9CE5" d="M51.8066587,31.3935585 L54.7263467,29.8026687 L0.302650584,29.8026687 L2.43900764,31.2874992 C2.79506715,31.534971 3.20453559,31.6587068 3.631807,31.6587068 L50.8096921,31.6587068 C51.1479486,31.6410303 51.5040081,31.5526475 51.8066587,31.3935585 Z"/>
        <polygon fill="#A2E9FC" points="52.412 29.007 31.422 29.007 29.411 25.719 46.501 25.719"/>
        <polygon fill="#A2E9FC" points="30.051 29.007 15.328 29.007 17.376 25.719 28.289 25.719"/>
        <path fill="#A2E9FC" d="M44.0801673,24.7648511 L18.0166112,24.7648511 C17.9097934,24.7648511 17.8385815,24.6941449 17.8385815,24.5880855 C17.8385815,24.4820262 17.9097934,24.41132 18.0166112,24.41132 L44.0801673,24.41132 C44.1869852,24.41132 44.2581971,24.4820262 44.2581971,24.5880855 C44.2581971,24.6941449 44.1869852,24.7648511 44.0801673,24.7648511 Z"/>
        <path fill="#A2E9FC" d="M69.5562253,0.123735873 C63.5566225,2.12118639 56.2039937,5.4797315 49.0115916,10.800374 C46.7862196,12.46197 44.8991042,13.9821536 43.1900186,15.5553668 C42.7449442,15.9619276 42.0506281,15.431631 42.3354757,14.9013344 C43.2434275,13.2574149 44.2225911,11.5781424 45.3797845,9.73978083 C46.519175,7.9367724 47.7475803,6.09841086 48.9403796,4.3837852 C49.3142421,3.8534886 48.6199261,3.25248579 48.1392458,3.67672307 C44.1869852,7.15900406 39.6828324,11.9847031 35.9620105,18.1361436 C34.3241368,20.8406563 32.8642928,23.8103172 31.8317202,26.2850347 L43.6885019,26.2850347 C45.3975875,24.570409 47.7297773,22.4668992 50.0797701,20.76995 C53.9964247,17.9593781 57.9842912,15.9088979 61.6517042,14.4594205 C62.2926113,14.2119488 61.9721577,13.2574149 61.3134476,13.4341805 C59.1948935,13.9998302 56.9517186,14.7245688 54.6551348,15.6260731 C52.6433986,16.421518 50.898707,17.1816097 49.3498481,17.9770546 C48.7979558,18.2598795 48.2816696,17.5351408 48.7267439,17.1109035 C52.3585509,13.6816522 56.5956591,10.1640181 61.776325,6.5403247 C64.5357862,4.61358039 67.3130504,2.7575423 69.9834967,1.14897596 C70.5709949,0.760091789 70.1615264,-0.0883827662 69.5562253,0.123735873 Z"/>
      </g>
      <g fill-rule="nonzero" transform="translate(17.269 68.231)">
        <path fill="#F38484" d="M7.6596769,11.1390718 C7.14339061,10.8916 2.10075111,10.0582266 1.37082911,9.20975206 C0.907951751,8.67945546 -0.035605951,7.58350916 0.035605951,6.22241456 C0.0890148775,5.0380855 0.890148775,4.2072875 1.37082911,3.71234401 C3.31135344,1.71489349 7.86891517,-0.618411537 10.913224,1.67954038 C12.319659,2.74013358 13.3522316,4.75526065 12.9605662,6.59362218 C12.355265,9.40419415 12.5911011,12.1643119 7.6596769,11.1390718 Z"/>
        <g transform="translate(2.67)">
          <path fill="#F38484" d="M16.3253285,2.79289541 C17.4825219,3.94187137 18.6397153,5.09084733 19.7791058,6.22214674 C20.7226635,7.08829785 20.5446337,7.86606619 20.348801,8.30798002 C19.7256969,9.08574836 19.1203957,9.84584015 18.4972915,10.6236085 C17.7673695,8.00747861 17.0374476,5.39134874 16.3253285,2.79289541 Z"/>
          <path fill="#F7B2B2" d="M7.86891517,13.0099432 C6.60490391,15.1664827 4.61097065,14.2119488 3.82763973,13.610946 C2.43900764,12.5149997 1.6022678,11.7018782 0.409468437,10.1640181 C-0.623104143,8.52009866 0.801133898,6.43426538 2.6170374,6.71709023 C2.13635706,3.62369341 5.39430158,3.19945613 5.57233133,3.18177958 C6.1776325,0.60100281 9.07951751,0.371207618 10.5215585,1.44947736 C11.0200418,0.618679363 11.7855698,0.194442086 12.8715513,0.0707062129 C15.4707857,-0.0530296597 16.4855553,2.47471745 16.4855553,2.47471745 C16.4855553,2.47471745 19.8325147,13.1513556 20.1351653,14.441744 C20.6514516,16.4922242 18.1234291,16.9694911 17.2154773,15.3078951 C16.5923732,14.1589191 16.0760869,12.9569135 15.4707857,11.8079376 C14.1355625,13.0276197 12.6401126,12.8155011 11.5719341,11.8432907 C10.7351942,14.1058895 7.97573302,13.0629728 7.86891517,13.0099432 Z"/>
          <path fill="#F38484" d="M15.3105589 11.4897596C15.274953 11.4897596 15.239347 11.472083 15.2215441 11.4367299L13.6904882 7.28273993 11.9279936 3.8534886C11.9101906 3.8181355 11.9279936 3.76510584 11.9635995 3.72975273 11.9992055 3.71207618 12.0526144 3.72975273 12.0882204 3.76510584L13.8507149 7.19435717 15.3817708 11.3660237C15.3995738 11.4190534 15.3817708 11.4544065 15.3283619 11.472083 15.3283619 11.4897596 15.3283619 11.4897596 15.3105589 11.4897596zM11.2870865 11.6488486C11.2514805 11.6488486 11.2158746 11.631172 11.1980716 11.5958189 10.5927704 10.2700774 9.89845438 8.99736559 9.11512346 7.77768342 8.67004907 7.07062129 8.17156575 6.38123572 7.67308244 5.70952669 7.63747649 5.67417359 7.65527947 5.62114393 7.69088542 5.58579082 7.72649137 5.55043771 7.77990029 5.56811427 7.81550624 5.60346737 8.33179253 6.2751764 8.81247287 6.98223853 9.27535024 7.68930066 10.0586812 8.90898283 10.7708002 10.2170478 11.3761013 11.5427893 11.3939043 11.5958189 11.3761013 11.631172 11.3404954 11.6665251 11.3226924 11.6488486 11.3048894 11.6488486 11.2870865 11.6488486zM7.42384078 12.5326762C7.40603781 12.5326762 7.37043186 12.5149997 7.35262888 12.4973231L4.37953197 8.97968904C4.34392602 8.94433594 4.34392602 8.89130628 4.39733495 8.85595317 4.4329409 8.82060006 4.48634983 8.82060006 4.52195578 8.87362972L7.49505269 12.3912638C7.53065864 12.4266169 7.53065864 12.4796466 7.47724971 12.5149997 7.47724971 12.5149997 7.44164376 12.5326762 7.42384078 12.5326762zM19.0135778 15.8381917C18.9601689 15.8381917 18.924563 15.8028386 18.924563 15.7498089 18.924563 15.6967793 18.9601689 15.6614262 19.0135778 15.6614262 19.0313808 15.6614262 19.4586522 15.6437496 19.654485 15.3432482 19.7613028 15.1841592 19.7434998 15.0073937 19.7256969 14.9190109 19.601076 14.4770971 19.3518344 13.9291239 19.1560016 13.6462991 18.9601689 13.3457977 18.6397153 13.2397384 18.3014588 13.3281211 17.9810053 13.4165039 17.8029755 13.7170053 17.8029755 14.0705364 17.8385815 14.4594205 18.1056261 15.1488061 18.3726707 15.5730434 18.3904737 15.6083965 18.3904737 15.6614262 18.3370648 15.6967793 18.3014588 15.7144558 18.2480499 15.7144558 18.2124439 15.6614262 17.9453993 15.2195123 17.6605517 14.5301268 17.6249457 14.0882129 17.6071428 13.6286225 17.8563844 13.2750915 18.2480499 13.1513556 18.6575183 13.0276197 19.0491838 13.1867087 19.2984254 13.5402398 19.5120611 13.8760943 19.7791058 14.4594205 19.8859236 14.8659813 19.9037266 14.9897171 19.9215296 15.2018358 19.7791058 15.4139544 19.5654701 15.8205151 19.0491838 15.8381917 19.0135778 15.8381917 19.0313808 15.8381917 19.0313808 15.8381917 19.0135778 15.8381917z"/>
        </g>
      </g>
      <g transform="translate(39.879 31.287)">
        <path fill="#FC6C85" d="M6.33785928,0.459590384 C5.62574026,0.689385576 4.48634983,1.14897596 3.38256535,2.13886294 C3.13332369,2.36865813 1.99393326,3.41157477 1.26401126,5.19690665 C0.836739849,6.22214674 0.729921996,7.07062129 0.658710094,7.65394755 C0.462877363,9.20948423 0.302650584,10.7650209 0.16022678,13.3634742 C0.142423804,13.5932694 0.427271412,13.6993288 0.569695216,13.5225632 C1.85150945,12.0377328 3.20453559,11.0478458 6.19543547,11.94935 C5.85717894,10.3407836 5.00263612,9.5630153 3.91665461,7.83071308 C2.34999277,3.64136997 5.98179977,1.9267443 6.69391879,1.41412426 L6.33785928,0.459590384 Z"/>
        <path fill="#BF2652" d="M6.40907118,1.18432907 C5.98179977,1.34341805 5.3052867,1.64391945 4.66437958,2.24492226 C4.14809329,2.7221892 3.27574749,3.53531065 3.20453559,4.79034593 C3.09771774,6.36355916 3.82763973,7.76000687 3.98786651,7.90141929 C3.64960998,6.85850265 4.77119743,5.4797315 5.89278489,5.19690665 C6.48028308,3.64136997 6.49808606,2.05048017 6.40907118,1.18432907 Z"/>
        <path fill="#FC6C85" d="M23.4821247,4.36610865 C23.1616711,3.78278239 22.2359164,2.15653949 20.2775891,1.00756353 C19.4408492,0.512620044 18.6575183,0.247471745 18.1056261,0.106059319 C17.9275963,0.689385576 17.8741874,1.43180081 17.8741874,1.18432907 C18.3726707,1.34341805 19.1916076,1.64391945 20.0105445,2.29795192 C20.6336486,2.81057196 21.6128123,3.60601686 21.8442509,4.9494349 C22.3249313,7.3711227 19.3162284,9.43927943 19.3162284,11.5427893 C19.6900909,11.1715816 20.330998,11.0301692 20.8828903,10.9948161 C22.3427343,10.9417865 23.8737901,11.6842017 24.71053,12.2498514 C24.9419687,12.4089404 25.2446193,12.2144983 25.2090133,11.9316734 C24.9241657,10.2524009 24.4612883,6.75244333 23.4821247,4.36610865 Z"/>
        <path fill="#BF2652" d="M17.8741874,1.18432907 C18.3726707,1.34341805 19.1916076,1.64391945 20.0105445,2.29795192 C20.6336486,2.81057196 21.6128123,3.60601686 21.8442509,4.9494349 C21.8976599,5.32064252 22.0400837,6.3105295 21.2745557,7.54788823 C20.8116784,6.02770465 19.2984254,5.62114393 18.6753213,5.46205495 C17.8029755,3.71207618 17.8385815,1.8913912 17.8741874,1.18432907 Z"/>
        <path fill="#EA2856" d="M6.28445035 12.3735873C6.2488444 12.3735873 6.21323845 12.3382342 6.19543547 12.302881 6.08861762 11.8432907 5.73255811 10.6236085 4.71778851 9.15645457 3.20453559 6.92920887 2.97309691 5.88629223 3.07991476 4.9140818 3.22233857 3.71207618 3.86324568 2.93430784 4.11248734 2.63380643 4.78900041 1.82068498 5.59013431 1.37877115 6.15982952 1.16665251 6.21323845 1.14897596 6.2488444 1.16665251 6.26664738 1.21968217 6.28445035 1.27271183 6.26664738 1.30806494 6.21323845 1.32574149 5.67914918 1.53786013 4.89581826 1.94442086 4.23710817 2.73986575 4.00566949 3.0226906 3.38256535 3.78278239 3.24014154 4.93175835 3.13332369 5.86861567 3.36476237 6.87617921 4.84240934 9.05039525 5.89278489 10.5352257 6.2488444 11.790261 6.35566225 12.2498514 6.37346523 12.302881 6.33785928 12.3382342 6.28445035 12.3559107 6.30225333 12.3735873 6.30225333 12.3735873 6.28445035 12.3735873zM19.4052433 12.0377328C19.3696373 12.0377328 19.3162284 12.0023796 19.3162284 11.9670265 19.1381987 10.6766382 19.9393326 9.42160287 20.6514516 8.30798002 21.078723 7.636271 21.4881914 6.98223853 21.6306152 6.41658882 21.7018271 6.13376397 21.8976599 5.30296597 21.5950093 4.34843209 21.2389498 3.23480924 20.4022099 2.61612988 19.9037266 2.22724571 19.4942582 1.9267443 19.0313808 1.661596 18.5507005 1.48483047 18.4972915 1.46715392 18.4794886 1.41412426 18.4972915 1.37877115 18.5150945 1.32574149 18.5685034 1.30806494 18.6041094 1.32574149 19.1025927 1.52018358 19.5654701 1.78533188 19.9927415 2.10350983 20.5090278 2.49239401 21.3813736 3.14642648 21.7552361 4.31307899 22.0756896 5.32064252 21.8620539 6.18679363 21.790842 6.46961848 21.6484182 7.07062129 21.2389498 7.72465376 20.7938754 8.41403934 20.0995593 9.49230909 19.3162284 10.7296678 19.4764552 11.94935 19.5120611 11.9847031 19.4764552 12.0377328 19.4052433 12.0377328 19.4230463 12.0377328 19.4230463 12.0377328 19.4052433 12.0377328z"/>
      </g>
      <g fill-rule="nonzero" transform="translate(44.863 26.161)">
        <path fill="#F38484" d="M14.3848042,12.9038839 C14.7586667,12.6387356 14.8832875,12.1437921 14.6696518,11.7372313 C14.4204102,11.2599644 14.1533655,10.6943147 13.9397298,10.0049291 C13.4946554,8.57312832 13.5124584,7.45950546 13.5302614,5.53276116 C13.5480644,4.29540244 13.5836703,2.33330503 13.6192763,0.106059319 C11.5719341,0.0883827662 9.52459189,0.0883827662 7.45944673,0.0707062129 L7.45944673,0.0707062129 C7.44164376,0.0707062129 7.42384078,0.0707062129 7.40603781,0.0707062129 C7.38823483,0.0707062129 7.37043186,0.0707062129 7.35262888,0.0707062129 L7.35262888,0.0707062129 C5.3052867,0.0883827662 3.25794452,0.0883827662 1.19279936,0.106059319 C1.22840531,2.33330503 1.24620829,4.29540244 1.28181424,5.53276116 C1.31742019,7.45950546 1.33522316,8.57312832 0.8723458,10.0049291 C0.676513069,10.641285 0.427271412,11.1892582 0.195832731,11.631172 C-0.0534089265,12.108439 0.0890148775,12.6740887 0.534089265,12.9745901 C1.21060233,13.4341805 2.06514516,13.9114474 3.13332369,14.3180081 C4.69998553,14.9013344 6.1776325,15.0957765 7.35262888,15.113453 L7.35262888,15.113453 C7.37043186,15.113453 7.38823483,15.113453 7.40603781,15.113453 C7.42384078,15.113453 7.44164376,15.113453 7.45944673,15.113453 L7.45944673,15.113453 C8.63444312,15.0957765 10.1120901,14.9190109 11.6787519,14.3180081 C12.8003394,13.9114474 13.6904882,13.3811508 14.3848042,12.9038839 Z"/>
        <path fill="#828282" fill-opacity=".3" d="M13.5302614,5.53276116 C13.5480644,4.29540244 13.5836703,2.33330503 13.6192763,0.106059319 C11.5719341,0.0883827662 9.52459189,0.0883827662 7.45944673,0.0707062129 L7.45944673,0.0707062129 C7.44164376,0.0707062129 7.42384078,0.0707062129 7.40603781,0.0707062129 C7.38823483,0.0707062129 7.37043186,0.0707062129 7.35262888,0.0707062129 L7.35262888,0.0707062129 C5.3052867,0.0883827662 3.25794452,0.0883827662 1.19279936,0.106059319 C1.22840531,2.33330503 1.24620829,4.29540244 1.28181424,5.53276116 C4.86021231,9.49230909 9.86284843,9.54533875 13.5302614,5.53276116 Z" style="mix-blend-mode:normal"/>
        <path fill="#F9C973" d="M7.1924021,15.2195123 C6.15982952,15.2195123 4.20150222,15.0957765 2.10075111,14.0705364 C1.47764697,13.770035 0.890148775,13.3988273 0.338256535,12.9745901 C0.302650584,12.939237 0.284847608,12.8862073 0.320453559,12.8508542 C0.35605951,12.8155011 0.409468437,12.7978245 0.445074388,12.8331776 C0.979163653,13.2397384 1.56666184,13.610946 2.17196301,13.9114474 C4.64657661,15.1311296 6.92535747,15.0604234 7.67308244,15.0427468 C9.25754726,14.9897171 10.877618,14.6185095 12.337462,13.9644771 C12.9427632,13.6993288 13.5302614,13.3811508 14.0821536,13.0099432 C14.1177596,12.9745901 14.1711685,12.9922666 14.2067744,13.0276197 C14.2423804,13.0629728 14.2245774,13.1160025 14.1889715,13.1513556 C13.6370792,13.5225632 13.0317781,13.8407412 12.4264769,14.123566 C10.9488299,14.7952751 9.29315321,15.1664827 7.69088542,15.2018358 C7.56626459,15.2195123 7.38823483,15.2195123 7.1924021,15.2195123 Z"/>
      </g>
      <g fill-rule="nonzero" transform="translate(39.7)">
        <path fill="#353437" d="M19.1738046,5.95699844 C18.888957,1.44947736 11.5185251,-1.78533188 2.95529393,1.25503528 C3.38256535,1.34341805 3.89885163,1.50250702 4.46854685,1.80300843 C4.87801529,2.01512707 5.2340748,2.28027537 5.53672538,2.52774711 C5.39430158,2.49239401 5.21627182,2.4570409 4.98483314,2.42168779 C4.11248734,2.26259881 3.09771774,2.08583328 1.8871154,2.22724571 C1.47764697,2.28027537 0.854542824,2.36865813 0.124620829,2.63380643 C0.605301167,2.88127818 1.8871154,3.58834031 2.58143145,5.10852388 C2.90188501,5.78023291 2.99089988,6.41658882 3.02650584,6.85850265 C2.65264335,6.64638402 2.06514516,6.34588261 1.29961721,6.18679363 C0.765527947,6.06305776 0.249241657,6.15144052 0.249241657,6.15144052 C0.249241657,6.15144052 1.10378448,7.22971027 1.53105589,8.66151108 C1.72688862,9.31554355 1.72688862,9.89886981 1.69128267,10.3054305 C1.51325292,11.5604658 1.38863209,13.6816522 2.36779574,15.944251 C2.6170374,16.5099007 2.88408203,16.9871677 3.16892964,17.4290815 C9.43557702,17.4821111 15.7022244,17.5351408 21.9510688,17.5881705 C22.1469015,17.093227 25.404846,7.83071308 19.1738046,5.95699844 Z"/>
        <path fill="#828282" fill-opacity=".3" d="M4.25491114 16.7220194C4.20150222 16.7043428 3.64960998 16.4745476 3.11552071 16.775049 2.72385525 17.0048442 2.51021955 17.4290815 2.56362847 17.8709953 2.58143145 18.436645 2.90188501 21.3355998 3.04430881 22.0603384 3.22233857 22.8204302 4.04127544 23.0502254 4.48634983 22.8734599 4.41513792 20.8229797 4.34392602 18.7724995 4.25491114 16.7220194zM20.9897081 16.7220194C21.0253141 16.7043428 21.5950093 16.4745476 22.1290985 16.775049 22.520764 17.0048442 22.7343997 17.4290815 22.6631878 17.8709953 22.6453848 18.436645 22.3071283 21.3355998 22.1469015 22.0603384 22.0222807 22.8911364 21.1499349 23.0325489 20.7048605 22.8557833 20.8116784 20.8053032 20.9006932 18.7724995 20.9897081 16.7220194z" style="mix-blend-mode:normal"/>
        <path fill="#F7B2B2" d="M21.2923587,18.6487637 C21.3101617,14.6715392 20.4912248,12.1614686 19.4764552,10.5705788 C19.1381987,10.0402822 18.7821392,9.61604496 18.4082767,9.26251389 C17.6427487,8.48474555 17.6071428,7.83071308 17.6071428,7.83071308 C17.6071428,7.83071308 16.681388,8.02515517 15.969269,7.76000687 C14.6340459,7.24738682 13.4056406,7.15900406 12.6223096,7.15900406 C11.8389787,7.15900406 10.6105734,7.24738682 9.27535024,7.76000687 C8.26058063,8.14889104 4.00566949,9.58069185 3.97006354,18.6310871 C3.57839808,24.8002042 7.90452112,29.7849922 9.04391155,30.5274074 C10.6817853,32.047591 14.4560161,32.1006207 16.2007077,30.4567012 C17.3222952,29.714286 21.4881914,24.9239401 21.2923587,18.6487637 Z"/>
        <path fill="#F38484" d="M3.95226056 18.6487637C3.5605951 24.8178807 7.88671815 29.8026687 9.02610858 30.545084 6.64050986 25.6310022 6.51588903 22.590635 3.95226056 18.6487637zM21.2923587 18.595734C21.5416004 24.8532338 17.2866892 29.7496391 16.1472988 30.5097309 18.5328975 25.5956491 18.7287302 22.5376054 21.2923587 18.595734z"/>
        <ellipse cx="12.48" cy="29.979" fill="#FFF" fill-opacity=".3" style="mix-blend-mode:lighten" rx="1.816" ry="1"/>
        <path fill="#828282" fill-opacity=".3" d="M12.5332948,22.5376054 C12.337462,22.5376054 12.1416293,22.4668992 11.9992055,22.3431633 L11.7143579,22.1133681 C11.6787519,22.078015 11.625343,22.078015 11.5897371,22.1133681 C11.4295103,22.2901336 11.1624656,22.2901336 10.9844359,22.1310446 L10.5749674,21.7775136 C10.5037555,21.7068074 10.5037555,21.600748 10.5571645,21.5300418 C10.6283764,21.4593356 10.7351942,21.4593356 10.8064061,21.5123653 L11.2158746,21.8658963 C11.2514805,21.9012495 11.3048894,21.9012495 11.3404954,21.8658963 C11.5007222,21.7068074 11.7677668,21.6891308 11.9457966,21.8305432 L12.2306442,22.0603384 C12.4086739,22.2194274 12.6757186,22.2194274 12.8537483,22.0603384 L13.1207929,21.8305432 C13.2988227,21.6891308 13.5658673,21.6891308 13.7260941,21.8482198 C13.7617001,21.8835729 13.779503,21.8835729 13.797306,21.8835729 C13.815109,21.8835729 13.832912,21.8835729 13.8507149,21.8482198 L14.2423804,21.4593356 C14.3135923,21.3886294 14.4204102,21.3886294 14.4916221,21.4593356 C14.562834,21.5300418 14.562834,21.6361012 14.4916221,21.7068074 L14.0999566,22.0956915 C14.0109417,22.1840743 13.9041239,22.237104 13.779503,22.237104 C13.779503,22.237104 13.779503,22.237104 13.779503,22.237104 C13.6548822,22.237104 13.5480644,22.1840743 13.4768525,22.1133681 C13.4412465,22.078015 13.3878376,22.078015 13.3522316,22.0956915 L13.085187,22.3254867 C12.9249602,22.4668992 12.7291275,22.5376054 12.5332948,22.5376054 Z" style="mix-blend-mode:normal"/>
        <path fill="#FFF" d="M9.54239487,24.6234387 C9.61360677,24.9062635 9.8806514,25.7370615 10.6817853,26.3557409 C11.9814025,27.3456278 13.4946554,26.8683609 13.5836703,26.8330078 C14.6696518,26.4618002 15.4885887,25.5249429 15.7022244,24.3759669 C15.0079083,24.5350559 14.2245774,24.6587918 13.3522316,24.729498 C11.8567817,24.8709104 10.5749674,24.7825276 9.54239487,24.6234387 Z"/>
        <path fill="#828282" fill-opacity=".3" d="M12.3018561,24.9946463 C11.8745847,24.9946463 11.4473132,24.9769697 11.0378448,24.9239401 C10.3435288,24.8532338 9.6670157,24.7118214 8.99050263,24.5173793 C8.90148775,24.4820262 8.84807882,24.3936435 8.8658818,24.3052607 C8.88368477,24.2168779 8.99050263,24.1638483 9.07951751,24.1815248 C9.72042462,24.3759669 10.3969377,24.4997028 11.0556478,24.570409 C12.7647334,24.7471745 14.4738191,24.5527324 16.1651018,23.9870827 C16.2541166,23.9517296 16.3609345,24.0047593 16.3965404,24.0931421 C16.4321464,24.1815248 16.3787375,24.2875841 16.2897226,24.3229372 C14.9723024,24.7648511 13.6370792,24.9946463 12.3018561,24.9946463 Z" style="mix-blend-mode:normal"/>
        <path fill="#353437" d="M5.92839084 14.7775985C6.48028308 14.7422454 7.03217532 14.7068923 7.58406756 14.6715392 7.8511122 14.6538626 8.10035385 14.6892157 8.34959551 14.7599219 8.99050263 14.954364 9.89845438 15.2371889 10.4859526 15.4139544 10.7529972 15.5023372 11.0200418 15.3078951 10.9666329 15.0957765L10.9666329 15.0957765C10.8420121 14.7068923 10.4681496 14.3710378 9.96966628 14.2473019 9.72042462 14.1765957 9.43557702 14.1058895 9.15072941 14.0351833 8.52762526 13.8760943 7.8511122 13.8937708 7.24581103 14.1058895 6.78293367 14.2649785 6.33785928 14.441744 5.87498192 14.600833 5.73255811 14.6361861 5.78596704 14.7775985 5.92839084 14.7775985zM19.1738046 14.7245688C18.6219124 14.6892157 18.0700201 14.6538626 17.5181279 14.6185095 17.2688862 14.600833 17.0018416 14.6361861 16.7525999 14.7068923 16.1116928 14.9013344 15.2037411 15.1841592 14.6162429 15.3609248 14.3491983 15.4493075 14.0821536 15.2548654 14.1355625 15.0427468L14.1355625 15.0427468C14.2601834 14.6538626 14.6340459 14.3180081 15.1325292 14.1942722 15.3817708 14.123566 15.6666184 14.0528598 15.951466 13.9821536 16.5745702 13.8230646 17.2510833 13.8407412 17.8563844 14.0528598 18.3192618 14.2119488 18.7643362 14.3887143 19.2272135 14.5478033 19.3696373 14.5831564 19.3162284 14.7422454 19.1738046 14.7245688zM9.04391155 16.2447524C9.13292643 16.7396959 8.7946699 17.1992863 8.27838361 17.2876691 7.76209732 17.3760518 7.29921996 17.0578739 7.21020508 16.5629304 7.1924021 16.5099007 7.1924021 16.4391945 7.1924021 16.3861648 7.42384078 15.9972807 8.42080741 15.8028386 8.97269965 16.0503103 9.0083056 16.10334 9.02610858 16.1740462 9.04391155 16.2447524zM15.3461649 16.61596C15.4351798 17.0578739 15.8980571 17.3406987 16.3965404 17.252316 16.8950237 17.1639332 17.2154773 16.7220194 17.1442654 16.2801055 17.1264624 16.2270759 17.1086595 16.1740462 17.0908565 16.1210165 16.7525999 15.8558682 15.7556333 16.0326338 15.3461649 16.421518 15.3283619 16.4922242 15.3461649 16.5452538 15.3461649 16.61596z"/>
        <path fill="#353437" d="M18.5328975 17.1992863C18.4794886 17.1992863 18.4260796 17.1816097 18.3904737 17.1285801 17.9810053 16.5629304 17.3935071 16.2447524 16.699191 16.2270759 16.004875 16.2093993 15.3105589 16.5099007 14.9010905 17.0225208 14.8476816 17.093227 14.7230607 17.1109035 14.6518488 17.0578739 14.5806369 17.0048442 14.562834 16.8811083 14.6162429 16.8104021 15.0969232 16.2093993 15.8802541 15.8558682 16.699191 15.8912214 17.5003249 15.9088979 18.194641 16.2801055 18.6753213 16.934138 18.7287302 17.0048442 18.7109273 17.1285801 18.6397153 17.1816097 18.6041094 17.1992863 18.5685034 17.1992863 18.5328975 17.1992863zM6.60490391 17.1992863C6.56929796 17.1992863 6.53369201 17.1816097 6.49808606 17.1639332 6.40907118 17.1109035 6.3912682 17.0048442 6.46248011 16.9164614 6.90755449 16.2977821 7.56626459 15.9265745 8.33179253 15.8735448 9.11512346 15.8205151 9.8806514 16.1210165 10.3969377 16.6689897 10.4681496 16.7396959 10.4681496 16.8457552 10.3969377 16.9164614 10.3257258 16.9871677 10.2189079 16.9871677 10.147696 16.9164614 9.72042462 16.4568711 9.02610858 16.1917228 8.36739849 16.2447524 7.72649137 16.2801055 7.15679615 16.5982835 6.76513069 17.1462566 6.71172176 17.1816097 6.65831284 17.1992863 6.60490391 17.1992863z"/>
      </g>
    </g>
    <g transform="translate(0 38)">
      <g transform="translate(37.647 76.975)">
        <rect width="48.659" height="33.586" x="3.202" y="3.167" fill="#A2E9FC"/>
        <path fill="#0A9CE5" d="M49.046111,33.9930037 L0.0351837238,33.9930037 L0.0351837238,0.0530864191 L49.046111,0.0530864191 L49.046111,33.9930037 Z M0.387020962,33.6390942 L48.6942738,33.6390942 L48.6942738,0.40699588 L0.387020962,0.40699588 L0.387020962,33.6390942 Z"/>
        <path fill="#0A9CE5" d="M43.6278176 20.1728393L7.44135759 20.1728393C7.33580642 20.1728393 7.26543897 20.1020574 7.26543897 19.9958845 7.26543897 19.8897117 7.33580642 19.8189298 7.44135759 19.8189298L43.6278176 19.8189298C43.7333687 19.8189298 43.8037362 19.8897117 43.8037362 19.9958845 43.8037362 20.1020574 43.7157769 20.1728393 43.6278176 20.1728393zM43.6278176 22.5086417L7.44135759 22.5086417C7.33580642 22.5086417 7.26543897 22.4378598 7.26543897 22.331687 7.26543897 22.2255141 7.33580642 22.1547322 7.44135759 22.1547322L43.6278176 22.1547322C43.7333687 22.1547322 43.8037362 22.2255141 43.8037362 22.331687 43.8037362 22.4378598 43.7157769 22.5086417 43.6278176 22.5086417zM43.6278176 24.8621396L7.44135759 24.8621396C7.33580642 24.8621396 7.26543897 24.7913577 7.26543897 24.6851849 7.26543897 24.579012 7.33580642 24.5082302 7.44135759 24.5082302L43.6278176 24.5082302C43.7333687 24.5082302 43.8037362 24.579012 43.8037362 24.6851849 43.8037362 24.7913577 43.7157769 24.8621396 43.6278176 24.8621396zM29.5191443 27.1979421L7.44135759 27.1979421C7.33580642 27.1979421 7.26543897 27.1271602 7.26543897 27.0209873 7.26543897 26.9148145 7.33580642 26.8440326 7.44135759 26.8440326L29.5015524 26.8440326C29.6071036 26.8440326 29.6774711 26.9148145 29.6774711 27.0209873 29.6774711 27.1271602 29.6071036 27.1979421 29.5191443 27.1979421zM43.5398583 17.0407405L7.68764366 17.0407405C7.58209249 17.0407405 7.51172504 16.9699586 7.51172504 16.8637858L7.51172504 7.43209868C7.51172504 7.32592584 7.58209249 7.25514394 7.68764366 7.25514394L43.5398583 7.25514394C43.6454094 7.25514394 43.7157769 7.32592584 43.7157769 7.43209868L43.7157769 16.8637858C43.7157769 16.9699586 43.6454094 17.0407405 43.5398583 17.0407405zM7.86356228 16.6868311L43.3639396 16.6868311 43.3639396 7.60905341 7.86356228 7.60905341 7.86356228 16.6868311z"/>
      </g>
      <g transform="translate(220.074 138.91)">
        <rect width="39.687" height="27.41" x="2.692" y="2.601" fill="#A2E9FC"/>
        <path fill="#0A9CE5" d="M40.1270371,27.7818927 L0.0879593096,27.7818927 L0.0879593096,0.017695473 L40.1270371,0.017695473 L40.1270371,27.7818927 Z M0.422204686,27.4279832 L39.757608,27.4279832 L39.757608,0.371604934 L0.422204686,0.371604934 L0.422204686,27.4279832 Z"/>
        <path fill="#0A9CE5" d="M34.6735599 7.82139908L5.15441554 7.82139908C5.04886437 7.82139908 4.97849692 7.75061719 4.97849692 7.64444435 4.97849692 7.53827151 5.04886437 7.46748962 5.15441554 7.46748962L34.6735599 7.46748962C34.779111 7.46748962 34.8494785 7.53827151 34.8494785 7.64444435 34.8494785 7.75061719 34.779111 7.82139908 34.6735599 7.82139908zM34.6735599 9.73251017L5.15441554 9.73251017C5.04886437 9.73251017 4.97849692 9.66172828 4.97849692 9.55555544 4.97849692 9.4493826 5.04886437 9.37860071 5.15441554 9.37860071L34.6735599 9.37860071C34.779111 9.37860071 34.8494785 9.4493826 34.8494785 9.55555544 34.8494785 9.66172828 34.779111 9.73251017 34.6735599 9.73251017zM34.6735599 11.6436213L5.15441554 11.6436213C5.04886437 11.6436213 4.97849692 11.5728394 4.97849692 11.4666665 4.97849692 11.3604937 5.04886437 11.2897118 5.15441554 11.2897118L34.6735599 11.2897118C34.779111 11.2897118 34.8494785 11.3604937 34.8494785 11.4666665 34.8494785 11.5728394 34.779111 11.6436213 34.6735599 11.6436213zM23.1684822 13.5547323L5.17200741 13.5547323C5.06645623 13.5547323 4.99608879 13.4839505 4.99608879 13.3777776 4.99608879 13.2716048 5.06645623 13.2008229 5.17200741 13.2008229L23.1684822 13.2008229C23.2740333 13.2008229 23.3444008 13.2716048 23.3444008 13.3777776 23.3444008 13.4839505 23.2740333 13.5547323 23.1684822 13.5547323zM12.0680173 23.0572014L5.06645623 23.0572014 5.06645623 16.0144031 12.0680173 16.0144031 12.0680173 23.0572014zM5.41829347 22.7032919L11.71618 22.7032919 11.71618 16.3683126 5.41829347 16.3683126 5.41829347 22.7032919zM34.4272738 21.022222L14.4077349 21.022222C14.3021837 21.022222 14.2318163 20.9514401 14.2318163 20.8452672 14.2318163 20.7390944 14.3021837 20.6683125 14.4077349 20.6683125L34.4272738 20.6683125C34.532825 20.6683125 34.6031924 20.7390944 34.6031924 20.8452672 34.6031924 20.9514401 34.532825 21.022222 34.4272738 21.022222zM26.7396301 23.0218104L14.4077349 23.0218104C14.3021837 23.0218104 14.2318163 22.9510285 14.2318163 22.8448557 14.2318163 22.7386829 14.3021837 22.667901 14.4077349 22.667901L26.7396301 22.667901C26.8451813 22.667901 26.9155487 22.7386829 26.9155487 22.8448557 26.9155487 22.9510285 26.8275894 23.0218104 26.7396301 23.0218104z"/>
      </g>
      <g fill="#0A9CE5" transform="translate(191.4)">
        <path d="M33.2134353,66.588065 C14.9706745,66.588065 0.123143033,51.6530858 0.123143033,33.3028803 C0.123143033,14.9526747 14.9706745,0.017695473 33.2134353,0.017695473 C51.4561961,0.017695473 66.3037276,14.9526747 66.3037276,33.3028803 C66.3037276,51.6530858 51.473788,66.588065 33.2134353,66.588065 Z M33.2134353,0.371604934 C15.164185,0.371604934 0.474980272,15.1473249 0.474980272,33.3028803 C0.474980272,51.4584356 15.164185,66.2341556 33.2134353,66.2341556 C51.2626856,66.2341556 65.9518904,51.4584356 65.9518904,33.3028803 C65.9518904,15.1473249 51.2802775,0.371604934 33.2134353,0.371604934 Z"/>
        <ellipse cx="33.213" cy="33.303" rx="2.234" ry="2.247"/>
        <path d="M11.4171184 53.0510282C6.5617645 47.6185179 3.87020962 40.6111106 3.87020962 33.3028803 3.87020962 17.0230451 17.0289223 3.78683123 33.2134353 3.78683123 36.7318077 3.78683123 40.1798126 4.40617279 43.451899 5.6448559L43.3287559 5.98106989C40.0918533 4.76008225 36.696624 4.15843616 33.2134353 4.15843616 17.2224328 4.15843616 4.22204686 17.2353907 4.22204686 33.3205757 4.22204686 40.5403287 6.86082615 47.4769542 11.6809963 52.8386825L11.4171184 53.0510282zM33.2134353 62.8189293L33.2134353 62.4650198C49.2044378 62.4650198 62.2048238 49.3880652 62.2048238 33.3028803L62.556661 33.3028803C62.556661 49.5827154 49.3979483 62.8189293 33.2134353 62.8189293z"/>
        <path d="M46.6184341,46.94609 C46.5656585,46.94609 46.5304748,46.9283945 46.4952911,46.8930035 L33.0551086,33.3736621 L33.0551086,7.8744855 C33.0551086,7.76831266 33.125476,7.69753077 33.2310272,7.69753077 C33.3365783,7.69753077 33.4069458,7.76831266 33.4069458,7.8744855 L33.4069458,33.2320984 L46.7415771,46.6452669 C46.8119446,46.7160488 46.8119446,46.8222217 46.7415771,46.8930035 C46.7063934,46.9283945 46.6536178,46.94609 46.6184341,46.94609 Z"/>
      </g>
      <g transform="translate(226.583 84.407)">
        <path fill="#F9C973" fill-rule="nonzero" d="M13.4929581,0.283127569 C11.7513638,1.66337447 9.99217757,3.04362136 8.25058324,4.42386826 L6.20992726,3.89300407 C5.73494699,3.76913576 5.06645623,4.29999995 5.06645623,4.79547319 L5.10163996,6.88353901 C3.41282121,8.21069949 1.72400247,9.55555544 0.0351837238,10.8827159 C0.45738841,11.484362 0.879593096,12.1037036 1.30179778,12.7053496 C1.30179778,12.7230451 1.31938964,12.7230451 1.31938964,12.7407406 C1.31938964,12.7407406 1.33698151,12.7584361 1.33698151,12.7584361 C1.33698151,12.7584361 1.33698151,12.7584361 1.33698151,12.7584361 C1.42494082,12.8469134 1.56567571,12.8999998 1.74159433,12.8823044 L5.57662023,12.4753085 C5.66457954,12.4753085 5.73494699,12.4753085 5.80531444,12.493004 C5.89327374,12.9176953 5.96364119,13.3423867 6.0516005,13.7847735 C6.45621333,14.3510286 6.86082615,14.9172838 7.24784711,15.4835389 L7.24784711,15.4835389 C7.26543897,15.5366253 7.3006227,15.5720163 7.33580642,15.6074072 C7.33580642,15.6074072 7.35339828,15.6251027 7.35339828,15.6427982 C7.35339828,15.6427982 7.35339828,15.6427982 7.35339828,15.6427982 C7.63486808,15.8551438 8.21539952,15.6604936 8.51446117,15.2004113 L10.8189951,11.5905348 C10.95973,11.3781892 11.1708323,11.2012344 11.4171184,11.1127571 L15.4280629,9.67942375 C16.0085944,9.46707807 16.3428397,8.81234557 16.0261862,8.529218 C15.6215734,7.96296287 15.287328,7.44979415 14.8475315,6.83045259 C14.4077349,6.74197523 13.9503465,6.67119333 13.4929581,6.58271597 C13.4401825,6.47654313 13.4401825,6.33497935 13.4929581,6.19341556 L14.777164,2.53045264 C14.8475315,2.35349791 14.8123477,2.19423866 14.7419803,2.08806582 C14.7419803,2.08806582 14.7419803,2.08806582 14.7419803,2.08806582 C14.3373675,1.48641974 13.9327546,0.884773652 13.4929581,0.283127569 Z"/>
        <path fill="#FFF9B0" d="M4.96090506,2.14115224 L8.1802158,2.97283947 C8.37372628,3.02592589 8.62001234,2.955144 8.83111469,2.81358021 L12.6309569,0.336213988 C13.1938964,-0.0353909461 13.7216523,0.230041149 13.5457337,0.760905341 L12.2615278,4.42386826 C12.1911603,4.63621394 12.226344,4.83086414 12.3670789,4.93703698 L14.777164,6.7596707 C15.1290013,7.0251028 14.7947559,7.71522624 14.1966326,7.92757192 L10.1856881,9.36090524 C9.95699385,9.4493826 9.72829964,9.62633733 9.58756475,9.83868301 L7.28303084,13.4485595 C6.94878546,13.9794237 6.1923354,14.1563784 6.01641678,13.7493825 L4.82017017,10.9711933 C4.74980272,10.811934 4.5738841,10.7234567 4.3451899,10.7588476 L0.527755858,11.148148 C-0.0351837238,11.2012344 -0.158326757,10.6172838 0.316653515,10.1572015 L3.58873983,7.00740732 C3.78225031,6.83045259 3.88780149,6.60041144 3.88780149,6.40576124 L3.81743404,3.06131684 C3.81743404,2.54814812 4.48592479,2.01728393 4.96090506,2.14115224 Z"/>
        <path fill="#FFF" fill-opacity=".3" fill-rule="nonzero" d="M4.96090506,2.14115224 L8.1802158,2.97283947 C8.37372628,3.02592589 8.62001234,2.955144 8.83111469,2.81358021 L12.6309569,0.336213988 C13.1938964,-0.0353909461 13.7216523,0.230041149 13.5457337,0.760905341 L12.2615278,4.42386826 C12.1911603,4.63621394 12.226344,4.83086414 12.3670789,4.93703698 C9.46442172,9.59094639 5.64698768,5.99876536 4.3451899,10.7234567 L0.527755858,11.148148 C-0.0351837238,11.2012344 -0.158326757,10.6172838 0.316653515,10.1572015 L3.58873983,7.00740732 C3.78225031,6.83045259 3.88780149,6.60041144 3.88780149,6.40576124 L3.81743404,3.06131684 C3.81743404,2.54814812 4.48592479,2.01728393 4.96090506,2.14115224 Z" style="mix-blend-mode:lighten"/>
      </g>
      <g transform="translate(34.832 162.267)">
        <path fill="#F9C973" fill-rule="nonzero" d="M25.8424452,10.139506 C22.6407263,9.09547314 19.4390074,8.0691357 16.2196967,7.0251028 L15.0410419,3.98148143 C14.7595722,3.27366251 13.5281418,2.8843621 12.9476104,3.30905346 L10.4671578,5.16707813 C7.37099015,4.15843616 4.27482245,3.16748967 1.19624661,2.15884771 C0.844409372,3.22057609 0.492572134,4.28230447 0.140734895,5.34403286 C0.140734895,5.36172833 0.123143033,5.3794238 0.123143033,5.39711928 C0.123143033,5.41481475 0.123143033,5.41481475 0.105551172,5.43251022 C0.105551172,5.43251022 0.105551172,5.43251022 0.105551172,5.43251022 C0.0703674477,5.62716043 0.123143033,5.8395061 0.316653515,6.06954725 L4.204455,10.5995883 C4.29241431,10.6880657 4.3451899,10.7942386 4.38037362,10.9004114 C3.94057707,11.3781892 3.50078052,11.8382715 3.06098397,12.3160492 C2.74433046,13.3069957 2.41008508,14.3156377 2.09343157,15.3065842 L2.09343157,15.3065842 C2.05824785,15.3773661 2.04065598,15.448148 2.02306412,15.5189299 C2.02306412,15.5366253 2.00547226,15.5543208 2.00547226,15.5720163 C2.00547226,15.5720163 2.02306412,15.5720163 2.02306412,15.5720163 C2.00547226,16.1028805 2.76192232,16.6868311 3.57114797,16.6691356 L9.92181013,16.5098763 C10.2912392,16.4921809 10.6958521,16.6337447 11.0125056,16.8637858 L16.2900641,20.7390944 C17.0465142,21.3053495 18.1372096,21.1637858 18.1899852,20.5090532 C18.5066387,19.5004113 18.8408841,18.6333331 19.1927214,17.5539093 C18.8936597,16.9168722 18.5945981,16.2621397 18.2955364,15.6074072 C18.3659038,15.448148 18.5418225,15.3242796 18.7529248,15.2534978 L24.2767695,13.7316871 C24.5582392,13.6609052 24.716566,13.5016459 24.7693416,13.3069957 C24.7693416,13.3069957 24.7693416,13.3069957 24.7693416,13.3069957 C25.1387707,12.2629628 25.5081998,11.2189299 25.8424452,10.139506 Z"/>
        <path fill="#FFF9B0" d="M16.0789618,0.884773652 L17.9436992,5.69794232 C18.0492503,5.98106989 18.3307201,6.24650198 18.7177411,6.40576124 L25.0508114,9.11316861 C25.9831801,9.52016449 26.1590987,10.4049381 25.349873,10.6349793 L19.8260284,12.15679 C19.5093749,12.2452673 19.3158644,12.457613 19.2982725,12.7230451 L19.2630888,17.359259 C19.2630888,18.0493825 18.1196178,18.2086418 17.3455759,17.6246911 L12.0680173,13.7493825 C11.7513638,13.5193414 11.3467509,13.3954731 10.9773218,13.3954731 L4.62665969,13.5547323 C3.694291,13.5724278 2.81469791,12.7761315 3.14894328,12.1921809 L5.41829347,8.28148138 C5.55902837,8.05144023 5.48866092,7.75061719 5.25996672,7.48518509 L1.37216523,2.955144 C0.791633787,2.28271602 1.38975709,1.62798352 2.37490136,1.8403292 L9.04221703,3.29135798 C9.42923799,3.37983535 9.79866709,3.32674893 10.0273613,3.1497942 L13.9855302,0.194650203 C14.5660617,-0.212345676 15.797492,0.17695473 16.0789618,0.884773652 Z"/>
        <path fill="#FFF" fill-opacity=".3" fill-rule="nonzero" d="M16.0789618,0.884773652 L17.9436992,5.69794232 C18.0492503,5.98106989 18.3307201,6.24650198 18.7177411,6.40576124 L25.0508114,9.11316861 C25.9831801,9.52016449 26.1590987,10.4049381 25.349873,10.6349793 L19.8260284,12.15679 C19.5093749,12.2452673 19.3158644,12.457613 19.2982725,12.7230451 C13.2994476,12.2629628 13.9327546,5.14938265 2.19898274,3.91069954 C1.8471455,3.55679008 1.74159433,3.4152263 1.37216523,2.955144 C0.791633787,2.28271602 1.38975709,1.62798352 2.37490136,1.8403292 L9.04221703,3.29135798 C9.42923799,3.37983535 9.79866709,3.32674893 10.0273613,3.1497942 L13.9855302,0.194650203 C14.5660617,-0.212345676 15.797492,0.17695473 16.0789618,0.884773652 Z" style="mix-blend-mode:lighten"/>
      </g>
      <g fill="#0A9CE5" transform="translate(0 25.481)">
        <path d="M174.79274,115.250616 L174.739964,114.896706 C190.203211,112.720163 207.302501,107.553085 222.906482,100.351028 C240.023364,92.4588466 254.501466,82.5316862 264.810298,71.6843613 C274.802475,59.5452668 273.184024,50.0958842 271.336878,45.5481476 C268.258302,37.9921806 260.289189,32.8251025 250.015542,31.7633741 C240.867773,30.7724276 233.250497,30.7724276 225.316568,31.8164605 C216.274351,32.9843617 206.827521,35.4794234 195.603913,39.6732505 L195.48077,39.3370366 C206.739561,35.1432094 216.203983,32.6304523 225.281384,31.4625511 C233.250497,30.4362136 240.902957,30.4185181 250.068317,31.4094646 C260.4827,32.4888885 268.557364,37.7267485 271.688716,45.4065838 C273.236799,49.2111105 273.518269,53.3695467 272.515533,57.7757195 C271.442429,62.4827153 268.944385,67.2427975 265.091767,71.9320979 C254.765344,82.8325093 240.234466,92.7773651 223.082401,100.687242 C207.425644,107.889299 190.29117,113.056377 174.79274,115.250616 Z"/>
        <path d="M101.46986 121.851027C91.6711925 121.851027 82.5410162 121.390945 74.0969224 120.47078 61.8705784 119.14362 51.0691752 116.825513 42.0093663 113.587241 33.4773132 110.54362 26.4053847 106.650616 20.9870913 102.032098 16.6770851 98.3514391 13.3874069 94.193003 11.206016 89.6452664 9.11258448 85.29218 8.0394809 80.5674887 8.00429718 75.5950608 8.14503207 64.6238675 11.469894 55.7230446 18.4538632 47.6008225 24.7341579 40.2925921 33.3893539 34.3115222 42.554714 27.9765429 53.2681579 20.5621397 65.4241345 12.15679 75.7857412.141563784L76.0496191.371604934C65.6704206 12.4399175 53.4968521 20.8452672 42.7658163 28.2773659 33.6180481 34.5946498 24.9804439 40.5757197 18.7177411 47.8485591 11.7865475 55.9176948 8.47927745 64.7300404 8.33854255 75.6127563 8.37372628 80.5144023 9.44682985 85.1860072 11.5050777 89.5037026 13.6688767 93.9983528 16.9233712 98.121398 21.1981936 101.766665 26.5813034 106.367488 33.6180481 110.225102 42.1149174 113.268723 51.1395426 116.489299 61.923354 118.807406 74.1145143 120.134566 82.5410162 121.054731 91.6711925 121.514813 101.452268 121.514813 122.931931 121.514813 147.595722 119.302879 175.144577 114.896706L175.197353 115.250616C147.648497 119.639093 122.967115 121.851027 101.46986 121.851027zM70.2091209 170.495883C60.1817596 170.495883 50.1192146 169.681891 40.1446289 168.071603L40.1974045 167.717693C54.8690173 170.088887 69.7341407 170.725924 84.3529779 169.593414 101.082839 168.301644 117.689556 164.691768 133.733334 158.852261 145.555066 154.552261 157.148103 149.013578 168.213384 142.377776L168.389302 142.678599C157.306429 149.314401 145.6958 154.87078 133.856477 159.188475 117.795107 165.027982 101.135614 168.655554 84.3881617 169.947323 79.6735427 170.318928 74.9413318 170.495883 70.2091209 170.495883zM65.5120938 178.529627C55.9245291 178.529627 46.7767609 177.574072 38.3326671 175.645265 26.5637115 172.973249 20.2658249 169.381068 16.1141455 166.567488L16.307656 166.266665C20.4417436 169.080245 26.7044464 172.637035 38.4206264 175.309051 54.4292208 178.954319 73.0238188 179.131274 92.1989483 175.839916L92.2517239 176.193825C83.1391395 177.751027 74.149698 178.529627 65.5120938 178.529627z"/>
        <path d="M67.904587 126.752673C54.2533022 125.390122 41.5519779 121.992591 30.1700432 116.666254 22.4999914 113.074073 16.5715339 109.110287 11.5226696 104.155554 7.72282738 100.439505 4.82017017 96.5465009 2.90265722 92.5827149 1.63604316 89.9814804.668490753 87.2209866.0351837238 84.3897109L.3694291 84.318929C1.00273613 87.1325092 1.97028854 89.8576121 3.21931073 92.4411511 5.11923182 96.3518507 7.98670531 100.209464 11.7689556 103.907818 16.8002281 108.827159 22.6935019 112.790945 30.32837 116.347735 41.6927128 121.656377 54.3412615 125.036212 67.9573626 126.416459L67.904587 126.752673zM96.4561789 114.896706C84.0715081 114.896706 71.7572048 113.569546 59.759555 110.915225 52.5117078 109.322632 45.2814526 107.216871 38.2622997 104.668723L38.3854427 104.332509C45.3694119 106.880657 52.5820753 108.968723 59.8299224 110.561316 73.9737794 113.675719 88.5750248 114.967488 103.193862 114.401233L103.211454 114.755143C100.959696 114.861315 98.7079373 114.896706 96.4561789 114.896706zM238.897485 99.0238671L238.739158 98.7053486C248.660968 93.7683116 257.474491 87.4864187 264.933441 80.0189291 273.254391 71.6843613 275.664476 66.1987646 276.807947 62.3411515 277.898643 58.6781886 278.391215 54.8205755 278.232888 50.874485L278.584725 50.8567895C278.743052 54.8382709 278.25048 58.731275 277.142193 62.4296289 276.667212 64.004526 275.822803 66.4465013 273.90529 69.5786 271.864634 72.9053489 268.926793 76.4975299 265.179727 80.2666657 257.685593 87.7695463 248.854479 94.0868301 238.897485 99.0238671z"/>
      </g>
    </g>
    <g transform="translate(79 5)">
      <path fill="#BF2652" d="M11.1454584 27.3465304C7.88294285 30.5812543 5.62563483 32.8193335 4.10900601 34.288073 3.6328551 34.7426828 4.05610035 35.4420826 4.65569779 35.1972926 7.93584851 33.8684331 12.5562759 32.6794535 16.1009549 33.3963383 16.2773071 33.4313083 16.4536592 33.3788533 16.594741 33.2389733L25.78269 24.1992315C26.0824888 23.9019866 25.8003253 23.4298918 25.4123504 23.3774368 22.8552437 23.0976769 16.1362253 22.4332471 11.1454584 27.3465304zM27.634388 43.8348796C24.3366021 47.0346335 22.0616589 49.2727127 20.5803005 50.7414522 20.1041496 51.213547 19.416376 50.7764222 19.6632691 50.1819324 21.0388162 46.9472085 22.2556463 42.3661401 21.5678727 38.8516564 21.5326023 38.6768064 21.5855079 38.5019565 21.7265897 38.3620765L30.9145387 29.3223347C31.2143375 29.0250898 31.7257588 29.2698797 31.7610293 29.6545496 32.0431928 32.2248437 32.625155 38.9041113 27.634388 43.8348796z"/>
      <g transform="translate(0 40.39)">
        <path fill="#F9C973" fill-rule="nonzero" d="M0.0881760945,14.302725 C8.32382332,12.2220107 14.6019613,6.04980788 14.4256091,2.02825929 C14.4256091,0.961674662 13.7202003,0.244789914 12.5562759,0.157364945 C8.50017551,-0.0524549816 2.2396728,6.13723285 0.0705408756,14.28524 C0.0529056567,14.302725 0.0529056567,14.302725 0.0352704378,14.32021 C0.0529056567,14.32021 0.0529056567,14.32021 0.0705408756,14.32021 C0.0705408756,14.337695 0.0705408756,14.337695 0.0705408756,14.35518 C0.0705408756,14.32021 0.0881760945,14.32021 0.0881760945,14.302725 Z"/>
        <path fill="#FFF9B0" d="M5.23766002,9.30201674 C10.5458609,8.41028205 14.337433,4.68597836 13.9847286,2.02825929 C13.9318229,1.32885953 13.4204016,0.804309718 12.644452,0.681914761 C9.94626346,0.297244896 6.17232662,4.02154859 5.23766002,9.30201674 C5.2200248,9.30201674 5.20238958,9.30201674 5.20238958,9.30201674 C5.20238958,9.30201674 5.2200248,9.30201674 5.2200248,9.30201674 C5.2200248,9.30201674 5.2200248,9.31950173 5.2200248,9.31950173 C5.2200248,9.31950173 5.23766002,9.30201674 5.23766002,9.30201674 Z"/>
      </g>
      <g transform="translate(12.521)">
        <path fill="#F95070" d="M42.8712172,1.22394957 C43.2239215,0.507064822 42.6419593,-0.104909963 41.9012801,0.262274908 C33.348199,3.72430369 25.7297844,8.81243691 18.9578603,15.3343396 L5.89016312,28.1858101 C5.20238958,28.8677249 4.60279214,29.6370646 4.12664122,30.4588593 L0.335069159,36.980762 C-0.0176352189,37.5927368 0.0705408756,38.3620765 0.581962224,38.8691414 L3.61521988,41.8940453 C4.12664122,42.4011101 4.90259086,42.5060201 5.51982352,42.1563202 L12.1153954,38.4495015 C12.9618859,37.9774067 13.7378355,37.3829169 14.4256091,36.7184871 L27.4933063,23.8670166 C34.1241486,17.170264 39.3089029,9.66920161 42.8712172,1.22394957 Z"/>
        <path fill="#FC6C85" d="M42.7301354,0.297244896 C42.536148,0.104909963 42.2716197,0.0699399755 41.9012801,0.262274908 C33.348199,3.72430369 25.7297844,8.81243691 18.9578603,15.3343396 L5.89016312,28.1858101 C5.20238958,28.8677249 4.60279214,29.6370646 4.12664122,30.4588593 L0.335069159,36.980762 C-0.0176352189,37.5927368 0.0705408756,38.3620765 0.581962224,38.8691414 L1.99277974,40.2854259 C1.99277974,40.2679409 32.6075198,10.5434513 42.7301354,0.297244896 Z"/>
        <path fill="#F9C973" fill-rule="nonzero" d="M37.2455823,11.8198559 C39.4147143,8.46273703 41.3016827,4.93076827 42.8535819,1.22394957 C43.2062863,0.507064822 42.6243241,-0.104909963 41.8836449,0.262274908 C38.1273433,1.78346937 34.5473938,3.61939373 31.1614318,5.75256298 L37.2455823,11.8198559 Z"/>
        <path fill="#FFF9B0" d="M42.8006763,0.332214883 C42.6066889,0.139879951 42.2716197,0.0699399755 41.9012801,0.244789914 C38.1449785,1.76598438 34.5650291,3.60190874 31.179067,5.73507799 L34.2123247,8.75998193 C34.2123247,8.75998193 41.2135066,1.85340935 42.8006763,0.332214883 Z"/>
        <path fill="#F9C973" fill-rule="nonzero" d="M31.1261614,5.85747294 C31.0908909,5.85747294 31.0732557,5.83998795 31.0556205,5.82250296 C31.0379853,5.78753297 31.0379853,5.73507799 31.0908909,5.700108 C34.5297586,3.54945375 38.1449785,1.6960444 41.8836449,0.192334932 C42.2539845,0.0174849939 42.6243241,0.0524549816 42.8712172,0.279759902 C43.1181102,0.524549816 43.1533807,0.909219681 42.9593933,1.27640455 C42.941758,1.31137454 42.8888524,1.32885953 42.8359467,1.31137454 C42.7830411,1.29388955 42.7830411,1.24143456 42.8006763,1.18897958 C42.9593933,0.891734687 42.9241228,0.577004797 42.7477706,0.402154859 C42.5537832,0.209819926 42.2716197,0.192334932 41.9541858,0.349699877 C38.2331546,1.85340935 34.6179347,3.7068187 31.1967022,5.85747294 C31.1614318,5.83998795 31.1437966,5.85747294 31.1261614,5.85747294 Z"/>
        <path fill="#BF2652" d="M37.1926767,11.9947058 C37.1750415,11.9947058 37.1574062,11.9947058 37.139771,11.9772208 C37.1045006,11.9597358 37.0868654,11.8897958 37.1221358,11.8548258 C39.3265382,8.46273703 41.2311418,4.86082829 42.8006763,1.17149459 C42.8183115,1.11903961 42.8712172,1.10155461 42.9241228,1.11903961 C42.9770285,1.1365246 42.9946637,1.18897958 42.9770285,1.24143456 C41.4251292,4.94825326 39.5028904,8.550162 37.298488,11.9422508 C37.2455823,11.9947058 37.2103119,11.9947058 37.1926767,11.9947058 Z"/>
        <path fill="#BF2652" d="M4.72623867,42.4360801 C4.28535819,42.4360801 3.86211294,42.2612302 3.544679,41.9465003 L0.511421348,38.9215963 C-0.0176352189,38.3970465 -0.123446532,37.5752518 0.246893065,36.928307 L4.03846513,30.4064043 C4.53225126,29.5671246 5.1318487,28.7977849 5.81962224,28.1158701 L10.8456596,23.1676169 C10.8809301,23.1326469 10.9338357,23.1326469 10.9691062,23.1676169 C11.0043766,23.2025869 11.0043766,23.2550418 10.9691062,23.2900118 L5.94306877,28.2382651 C5.25529523,28.9026949 4.67333301,29.6720346 4.17954688,30.4938293 L0.387974816,37.015732 C0.0529056567,37.5927368 0.141081751,38.3271065 0.617232662,38.7992014 L3.65049031,41.8241053 C4.12664122,42.2962002 4.86732042,42.4011101 5.44928264,42.0688952 L12.0448545,38.3620765 C12.8737098,37.8899817 13.6496594,37.3129769 14.337433,36.6485471 L27.4051302,23.7970766 C31.1085262,20.072773 34.3710417,16.0512244 37.0868654,11.8897958 C37.1045006,11.8548258 37.1750415,11.8373408 37.2103119,11.8723108 C37.2455823,11.8897958 37.2632176,11.9597358 37.2279471,11.9947058 C34.5121234,16.1736193 31.2319727,20.1951679 27.5109415,23.9369566 L14.4432443,36.7884271 C13.7554707,37.4703418 12.9618859,38.0648316 12.1153954,38.5369265 L5.51982352,42.2437452 C5.30820089,42.3661401 5.00840217,42.4360801 4.72623867,42.4360801 Z"/>
        <path fill="#F95070" d="M10.9338357,23.3074968 C10.9162005,23.3074968 10.8809301,23.3074968 10.8632948,23.2900118 C10.8280244,23.2550418 10.8280244,23.2025869 10.8632948,23.1676169 L18.8873195,15.2643996 C20.8800992,13.3410503 22.961055,11.5400959 25.0596461,9.89650653 C25.0949165,9.86153654 25.1478222,9.87902153 25.1830926,9.91399152 C25.218363,9.94896151 25.2007278,10.0014165 25.1654574,10.0363865 C23.0668663,11.6799759 20.9859105,13.4809303 18.9931308,15.3867946 L10.9691062,23.2900118 C10.9691062,23.3074968 10.9514709,23.3074968 10.9338357,23.3074968 Z"/>
        <ellipse cx="29.08" cy="13.813" fill="#F9C973" fill-rule="nonzero" rx="2.134" ry="2.116"/>
        <ellipse cx="24.284" cy="18.517" fill="#F9C973" fill-rule="nonzero" rx="2.134" ry="2.116"/>
        <path fill="#FFF9B0" d="M27.5638472 15.2993696C26.7349919 14.4775749 26.7349919 13.1312304 27.5814824 12.3094357 28.4103377 11.487641 29.7682495 11.487641 30.5971048 12.3269207 29.4508156 13.4459603 28.6043251 14.28524 27.5638472 15.2993696zM22.7847028 20.020318C21.9558475 19.1985233 21.9558475 17.8521787 22.802338 17.030384 23.6311933 16.2085893 24.9891052 16.2085893 25.8179605 17.047869 24.5658599 18.2543336 23.7546399 19.0411583 22.7847028 20.020318z"/>
      </g>
      <path fill="#BF2652" d="M12.7502633,42.9955999 C12.2741124,43.4502097 11.5510684,42.733325 12.0272193,42.2612302 L19.6632691,34.0432831 L27.7049289,26.1400658 C27.9341868,25.9127609 28.2868911,25.9302459 28.516149,26.1400658 L29.0981112,26.7170706 C29.327369,26.9443755 29.3097338,27.2940754 29.0981112,27.5213803 L21.0564514,35.4245976 L12.7502633,42.9955999 Z"/>
    </g>
    <g transform="translate(16)">
      <g transform="translate(187.779 113.601)">
        <path fill="#F9C973" fill-rule="nonzero" d="M6.15319588,11.5193987 L6.15319588,11.5193987 L8.0274452,12.4749248 L13.3319244,1.1678653 L11.4223119,0.0884746441 L11.4223119,0.0884746441 C11.3339039,0.0530847865 11.2278143,0.0530847865 11.1217247,0.0707797153 L0.530447921,2.70732411 C0.159134376,2.81349368 0.0353631947,3.16739226 0.229860766,3.48590098 L5.9940615,11.3955342 C6.0294247,11.4486189 6.08246949,11.4840088 6.15319588,11.5193987 Z"/>
        <path fill="#FFF9B0" d="M8.54021152,12.2625857 L13.4910588,1.66332331 C13.6325116,1.34481459 13.349606,1.00861094 13.0136557,1.09708559 L2.42237884,3.8044097 C2.13947328,3.87518941 2.0157021,4.21139306 2.19251807,4.44142713 L7.81526603,12.3333654 C8.0097636,12.5810944 8.39875874,12.5457045 8.54021152,12.2625857 Z"/>
      </g>
      <g transform="translate(77.799 200.66)">
        <path fill="#F9C973" fill-rule="nonzero" d="M8.22194277,1.55715374 L8.22194277,1.55715374 L7.65613165,0.247729004 L0.0176815974,3.87518941 L0.548129518,5.25539386 L0.548129518,5.25539386 C0.583492713,5.30847865 0.636537505,5.36156343 0.707263894,5.39695329 L7.47931568,8.59973541 C7.67381325,8.68821005 7.85062923,8.52895569 7.86831082,8.3520064 L8.25730596,1.68101824 C8.25730596,1.64562838 8.25730596,1.59254359 8.22194277,1.55715374 Z"/>
        <path fill="#FFF9B0" d="M7.30249971,0.141559431 L0.159134376,3.55668069 C-0.0530447921,3.66285027 -0.0530447921,3.96366406 0.159134376,4.0521387 L6.86045977,7.20183603 C7.03727575,7.29031067 7.24945492,7.16644617 7.24945492,6.97180196 L7.69149485,0.406983363 C7.70917645,0.194644217 7.49699728,0.0353898576 7.30249971,0.141559431 Z"/>
      </g>
      <path fill="#F95070" d="M19.7503442,8.75898977 L3.60704586,0.106169573 C3.11196113,-0.159254359 2.54615002,0.30081379 2.7052844,0.849356583 L8.0451268,18.3673361 C8.16889798,18.7920144 8.6993459,18.9512688 9.05297785,18.6681499 L19.8564338,9.78529564 C20.1923842,9.51987171 20.1393394,8.97132891 19.7503442,8.75898977 Z" transform="translate(0 30.79)"/>
      <g transform="translate(267.876 .885)">
        <path fill="#BF2652" d="M13.9507803,14.2267228 L13.9507803,14.2267228 L16.072572,12.3333654 L4.49112573,0.123864502 L2.21019967,1.99952696 L2.21019967,2.01722189 C2.12179168,2.10569653 2.06874689,2.22956103 2.05106529,2.38881539 L0.176815974,17.146386 C0.141452779,17.6772339 0.530447921,17.8364883 0.884079868,17.7480136 L13.7209195,14.3505873 C13.8093275,14.3328923 13.8800539,14.2798076 13.9507803,14.2267228 Z"/>
        <path fill="#F95070" d="M16.0548904,11.5901784 L5.19838962,0.194644217 C4.88012087,-0.141559431 4.31430975,0.0530847865 4.26126496,0.513152936 L2.45774203,15.1291641 C2.40469724,15.5184526 2.75832919,15.8192664 3.14732433,15.7307917 L15.7896664,12.5280096 C16.1963432,12.4041451 16.3554776,11.8909922 16.0548904,11.5901784 Z"/>
      </g>
      <g transform="translate(55.697)">
        <path fill="#F9C973" fill-rule="nonzero" d="M12.3240734,2.2118661 L12.3240734,2.2118661 L11.3692671,0.265423932 L0.0707263894,6.28169973 L0.972487855,8.33431148 L0.972487855,8.33431148 C1.02553265,8.40509119 1.09625904,8.47587091 1.22003022,8.52895569 L11.5284015,12.8819082 C11.899715,13.0234676 12.2179838,12.8111285 12.2356654,12.42184 L12.3594366,2.38881539 C12.3771181,2.31803568 12.3594366,2.26495089 12.3240734,2.2118661 Z"/>
        <path fill="#FFF9B0" d="M10.8211376,0.123864502 L0.247542363,5.7685468 C-0.0707263894,5.92780116 -0.0353631947,6.3878693 0.282905558,6.52942874 L10.62664,10.8292964 C10.891864,10.935466 11.1924511,10.7408218 11.2101327,10.4577029 L11.4399935,0.513152936 C11.4576751,0.176949288 11.1040431,-0.0353898576 10.8211376,0.123864502 Z"/>
      </g>
    </g>
    <g fill="#A2E9FC" transform="translate(17 141)">
      <ellipse cx="187.961" cy="3.248" rx="3.236" ry="3.231"/>
      <ellipse cx="255.365" cy="19.685" rx="2.157" ry="2.154"/>
      <ellipse cx="265.444" cy="29.024" rx="1.432" ry="1.43"/>
    </g>
  </g>
</svg>
