<svg xmlns="http://www.w3.org/2000/svg" viewBox="0 0 308 180">
  <g fill="none" fill-rule="evenodd" transform="matrix(-1 0 0 1 308 0)">
    <g transform="translate(223.192)">
      <rect width="38.787" height="50.504" x="4.214" y="4.302" fill="#A2E9FC"/>
      <path fill="#0A9CE5" d="M39.2580096,51.0949787 L0.0613726049,51.0949787 L0.0613726049,0.163112462 L39.2580096,0.163112462 L39.2580096,51.0949787 Z M0.470523304,50.6871976 L38.8488589,50.6871976 L38.8488589,0.570893617 L0.470523304,0.570893617 L0.470523304,50.6871976 Z"/>
      <rect width="27.229" height="4.282" x="10.004" y="13.314" fill="#81DCFC"/>
      <g fill="#81DCFC" transform="translate(9.82 22.224)">
        <rect width="27.229" height="1" x=".184" y=".184"/>
        <rect width="27.229" height="1" x=".184" y="2.834"/>
        <rect width="27.229" height="1" x=".184" y="5.485"/>
        <rect width="27.229" height="1" x=".184" y="8.135"/>
        <rect width="14.607" height="1" x=".184" y="10.786"/>
      </g>
      <rect width="8.694" height="1" x="10.126" y="42.837" fill="#81DCFC"/>
      <ellipse cx="33.223" cy="40.493" fill="#81DCFC" rx="3.13" ry="3.12"/>
    </g>
    <path fill="#0A9CE5" d="M51.471158,66.7945532 L0.12274521,66.7945532 L0.12274521,0.0611671733 L51.471158,0.0611671733 L51.471158,66.7945532 Z M0.552353444,66.386772 L51.0824648,66.386772 L51.0824648,0.468948328 L0.552353444,0.468948328 L0.552353444,66.386772 Z" transform="translate(224.215 179.831)"/>
    <g transform="translate(0 85.838)">
      <rect width="68.676" height="89.447" x="6.628" y="6.157" fill="#A2E9FC"/>
      <path fill="#0A9CE5" d="M69.1055531,89.8749666 L0.020457535,89.8749666 L0.020457535,0.0203890578 L69.1055531,0.0203890578 L69.1055531,89.8749666 L69.1055531,89.8749666 Z M0.429608234,89.4671854 L68.6964024,89.4671854 L68.6964024,0.428170213 L0.429608234,0.428170213 L0.429608234,89.4671854 Z"/>
      <g fill="#81DCFC" transform="translate(18.82 19.981)">
        <rect width="44.188" height="4.791" x=".164" y=".041"/>
        <g transform="translate(0 10.195)">
          <rect width="44.188" height="1" x=".164" y=".02"/>
          <rect width="44.188" height="1" x=".164" y="2.997"/>
          <rect width="44.188" height="1" x=".164" y="5.974"/>
          <rect width="44.188" height="1" x=".164" y="8.951"/>
          <rect width="23.731" height="1" x=".164" y="11.928"/>
        </g>
        <rect width="10.413" height="1" x=".45" y="59.862"/>
        <ellipse cx="39.176" cy="56.09" rx="4.664" ry="4.649"/>
        <rect width="17.062" height="1" x=".45" y="57.13"/>
      </g>
    </g>
    <g transform="translate(54 11)">
      <path fill="#BF2652" d="M68.802973,177.820318 C71.454733,167.238699 116.391866,181.524908 126.427758,184.635945 C128.814342,185.106694 130.813361,185.127161 132.200435,185.045292 C132.200435,185.045292 134.444232,184.922487 137.157187,183.980989 C137.748733,183.776316 138.789039,183.469306 139.339789,182.691547 C139.706956,182.179863 139.727354,181.872853 139.645761,181.299767 C138.136298,179.293967 135.668121,176.449005 131.935259,174.033858 C124.959091,169.490107 118.45208,169.551509 105.234076,168.610011 C99.8693614,168.221132 91.8120906,167.566177 81.8373934,166.399538 C82.8980974,158.703815 83.6732272,150.127996 83.8568106,140.794886 C83.9791995,134.593279 83.8160143,128.760085 83.4896438,123.295303 C79.3692168,129.251301 76.6766604,134.634214 74.9632155,138.584412 C72.2706592,144.745084 65.9268333,160.218399 68.802973,177.820318 Z"/>
      <g fill-rule="nonzero" transform="translate(78.125 166.604)">
        <path fill="#35489E" d="M56.2989047,2.29234295 C37.6753902,1.55551843 19.0314776,0.818693912 0.407963078,0.0818693912 C0.224379693,3.66365526 0.0407963078,8.82142691 0.142787077,15.0025659 C0.203981539,19.0755682 0.448759385,25.8707276 2.06021354,40.6890874 C2.89653785,48.2415388 4.12042708,58.0863331 5.91546463,69.6913193 C5.99705724,78.3694748 6.69059447,85.3079057 7.28214094,89.8516569 C9.09757663,103.87179 12.0145126,112.099664 13.0548185,128.80102 C13.2180037,131.441308 13.2995963,133.569912 13.3199945,134.879822 C14.6458745,134.675149 16.2369305,134.531877 17.9911717,134.613747 C21.6220431,134.757018 24.5593773,135.698516 26.5176,136.537677 C27.3743225,135.882722 28.4758228,135.186832 29.822101,134.613747 C32.8206296,133.303836 35.5743804,133.160565 37.247029,133.242434 C37.9201681,126.611014 38.7360942,119.795387 39.7152056,112.795554 C41.5510395,99.8192553 43.8152345,87.5593139 46.3242075,76.0566645 C46.9973465,71.0421642 47.7316801,65.9867293 48.5272081,60.8698924 C50.9749866,45.1100346 53.8715244,30.0051319 57.0536364,15.5551843 C57.3596087,14.1634047 57.5839884,12.4850822 57.6043866,10.5816188 C57.7063773,7.10216969 56.9720438,4.236741 56.2989047,2.29234295 Z M29.3121471,52.846692 C29.1897582,59.1915699 28.7817951,66.8668253 28.2106468,72.4544112 C27.6598967,77.32564 27.1091465,84.4278097 26.5583964,89.2990385 C26.4564056,86.5973486 24.7633588,73.2731052 24.3553957,71.9017929 C23.9066364,62.1798026 24.0290253,51.2297716 25.1713219,39.2973078 C25.7832665,32.9319626 26.639989,26.9350297 27.6394985,21.3474438 C28.8429896,30.660087 29.556925,41.2417058 29.3121471,52.846692 Z"/>
        <path fill="#262F69" d="M0.346768616,1.04383474 C1.83583385,1.57598578 3.89604739,2.27187561 6.40502032,2.96776543 C16.706088,5.87412882 25.3753034,6.40627986 30.1484714,6.48814926 C41.6734284,6.69282273 51.3217552,4.70749 58.1551367,2.68122256 C58.1755349,4.6256206 58.1143404,6.73375743 57.9511552,8.96469834 C57.7879699,11.1547046 54.9322284,18.8504273 54.9322284,18.8504273 C54.9322284,18.8504273 51.7297182,17.5609844 48.8739767,14.2657414 C46.9769484,14.0406006 45.3246979,13.7949924 43.9988179,13.6107863 C39.898789,13.0172332 29.026573,11.2775086 17.5628105,8.84189425 C15.9309582,8.49394934 12.6264573,7.77759217 8.1388634,7.47058195 C4.7323717,7.22497378 1.93782462,7.30684317 0.163185231,7.40917991 C0.101990769,6.20160639 0.0815926155,4.89169613 0.163185231,3.47944913 C0.183583385,2.61982052 0.244777847,1.80112661 0.346768616,1.04383474 Z"/>
      </g>
      <g transform="translate(77.309 82.688)">
        <path fill="#FFF9B0" d="M28.2106468,0.286542869 C26.8847668,0.491216347 25.456896,0.634487782 23.9474327,0.695889826 C20.4389502,0.859628608 17.3180326,0.573085739 14.7274671,0.143271435 C13.6871613,2.41514704 12.1776979,5.93553086 10.7294289,10.356478 C9.66872494,13.5903189 6.97616863,22.4117459 5.50750155,39.2154384 C4.81396432,47.197704 5.20152924,47.8117245 4.69157539,55.0981003 C4.14082524,62.9575619 2.93733416,72.9865623 0.285574154,84.6529505 C2.18260247,85.3897751 4.16122339,86.0856649 6.20103878,86.7201527 C25.2937108,92.6147488 43.4072715,90.8136222 57.2780161,87.4160425 C55.0750155,77.6940523 53.157589,66.0071967 52.4640518,52.7443553 C51.6481256,37.2915077 52.6680333,23.7011888 54.2590893,12.6897556 C51.7297182,10.5406841 49.0575601,7.98226565 46.4058001,4.95309817 C45.2635035,3.64318791 44.2027995,2.353745 43.2440862,1.08476943 C38.2057422,0.83916126 33.2081945,0.573085739 28.2106468,0.286542869 Z"/>
        <path fill="#F9C973" fill-rule="nonzero" d="M37.5530013 90.44521C38.7360942 90.3838079 39.9191871 90.2814712 41.0818819 90.1791344 46.9157539 89.6469834 52.3416629 88.6440834 57.2576179 87.4365098 55.0546173 77.7145196 53.1371909 66.027664 52.4436536 52.7648227 51.6277275 37.3119751 52.6476352 23.7216561 54.2386912 12.710223 51.7093201 10.5611515 49.0371619 8.00273299 46.3854019 4.97356552 45.9162444 4.42094713 39.4296315 14.3066761 37.3694179 30.4554135 34.8808431 53.4607125 44.1824013 66.7235539 37.5530013 90.44521zM25.5996831.83916126C24.2738031 1.04383474 25.4772942.634487782 23.9474327.695889826 20.4389502.859628608 17.3180326.573085739 14.7274671.143271435 13.6871613 2.41514704 12.1776979 5.93553086 10.7294289 10.356478 9.66872494 13.5903189 6.97616863 22.4117459 5.50750155 39.2154384 4.81396432 47.197704 5.20152924 47.8117245 4.69157539 55.0981003 4.14082524 62.9575619 2.93733416 72.9865623.285574154 84.6529505 2.18260247 85.3897751 4.16122339 86.0856649 6.20103878 86.7201527 8.11846525 41.7329222 28.761397 29.8413931 25.5996831.83916126zM34.6156671 9.94713104C33.3509816 9.94713104 31.7395274 9.72199021 30.1076751 8.84189425 28.8837859 8.18693912 27.84348 7.26590847 26.9867576 6.11973699 26.9459613 6.0788023 26.9663594 6.01740026 27.0071557 5.97646556 27.047952 5.93553086 27.1091465 5.95599821 27.1499428 5.99693291 27.9862671 7.12263704 29.0061748 8.02320034 30.2096659 8.65768812 33.0654074 10.1927392 35.8599545 9.70152286 36.7778714 9.53778408 39.4296315 9.06703508 41.3266598 7.71619012 42.4485582 6.67235539 42.4893545 6.63142069 42.550549 6.63142069 42.5913453 6.67235539 42.6321416 6.71329008 42.6321416 6.77469212 42.5913453 6.81562682 41.4490487 7.87992891 39.5316222 9.25124121 36.8186678 9.74245756 36.3903065 9.8038596 35.6151767 9.94713104 34.6156671 9.94713104z"/>
        <path fill="#F9C973" fill-rule="nonzero" d="M31.9639071,90.7317528 C30.1280733,90.7317528 28.0882579,90.6703508 25.9056554,90.5270794 C19.4190425,90.0767977 12.8508369,88.8896915 6.91497417,87.0680976 C4.67117724,86.3722078 2.40698216,85.5944485 0.244777847,84.7143526 C0.183583385,84.6938852 0.163185231,84.6324832 0.183583385,84.5915485 C0.203981539,84.5301465 0.265176,84.5096791 0.305972308,84.5301465 C2.46817662,85.4102424 4.71197355,86.1880016 6.95577047,86.8838915 C12.8916333,88.6850181 19.4394406,89.8925916 25.9056554,90.3428732 C32.4126665,90.7931549 37.5733995,90.4042753 40.0415761,90.1996018 C42.1629841,90.035863 44.3251884,89.8107222 46.4261982,89.503712 C46.4873927,89.503712 46.528189,89.5446467 46.5485872,89.5855814 C46.5485872,89.6469834 46.5077909,89.6879181 46.4669945,89.7083854 C44.3659847,89.9949283 42.2037804,90.2405365 40.0619742,90.4042753 C38.4097238,90.506612 35.5743804,90.7317528 31.9639071,90.7317528 Z"/>
        <path fill="#F9C973" fill-rule="nonzero" d="M30.5768327,87.4569772 C29.6181194,87.4569772 28.6798044,87.4365098 27.7210911,87.3955751 C21.9688117,87.1909017 15.8697637,86.2494037 10.076688,84.6938852 C8.38364125,84.2436036 6.69059447,83.7319199 5.03834401,83.1793015 C4.97714955,83.1588341 4.95675139,83.0974321 4.97714955,83.0564974 C4.9975477,83.0155627 5.05874216,82.974628 5.09953847,82.9950954 C6.75178894,83.5477138 8.42443755,84.0593975 10.1174843,84.5096791 C15.8901619,86.0651975 21.9892099,86.9862282 27.7210911,87.1909017 C31.678333,87.3341731 35.7171674,87.1704343 39.6744093,86.6996853 C39.7356038,86.6996853 39.7764001,86.74062 39.7967982,86.7815547 C39.7967982,86.8429568 39.7560019,86.8838915 39.7152056,86.9043588 C36.6758807,87.2727711 33.6161576,87.4569772 30.5768327,87.4569772 Z"/>
      </g>
      <g transform="translate(131.16 102.132)">
        <path fill="#FC6C85" d="M12.0757071,0.122804087 C12.9732259,1.61692048 13.0548185,5.52618391 13.0344203,5.97646556 C12.9732259,9.78339225 17.1752456,26.2596072 20.0513853,31.4173789 C18.8886905,32.6454198 16.9508659,36.5342158 15.7881711,39.2154384 C13.8707446,43.6363855 14.054328,47.668453 14.2787077,49.6537858 C12.7692443,48.6304184 11.1781883,47.4023775 9.60753048,45.9082611 C4.38560308,40.9756303 1.61145416,35.4699138 0.101990769,31.5811177 C-0.0407963078,27.9174624 0.183583385,21.9614642 2.57016739,15.1663047 C5.24232555,7.59338604 9.48514156,2.88589604 12.0757071,0.122804087 Z"/>
        <path fill="#F95070" d="M3.08012124,18.7890253 C2.93733416,20.1194029 2.81494524,22.0638009 3.08012124,24.3970786 C3.22290831,25.6660542 3.81445478,30.127936 6.71099263,35.0400994 C7.81249294,36.9026281 9.01598402,38.4581465 10.1990769,39.7271221 C10.0154936,40.2388058 9.83191017,40.7914242 9.64832679,41.3440426 C9.24036371,42.6130181 8.9343914,43.841059 8.68961355,44.9872305 C7.81249294,44.1276019 6.89457601,43.1451692 5.97665909,42.0399324 C3.56967693,39.0926343 2.01941723,36.1453362 1.01990769,33.7097218 C1.01990769,31.7857911 1.12189846,29.6367196 1.38707446,27.303442 C1.75424123,24.069601 2.386584,21.2041723 3.08012124,18.7890253 Z"/>
        <path fill="#BF2652" d="M12.3408831,46.2766734 C12.3408831,46.2766734 12.3204849,46.2766734 12.3204849,46.2766734 C12.2592905,46.256206 12.2388923,46.2152714 12.2388923,46.1538693 C13.0548185,42.8176916 14.1971151,39.542916 15.6861803,36.4728138 C16.5836991,34.6102851 17.6036068,32.8091585 18.7255053,31.069434 C18.7663016,31.0284993 18.827496,31.0080319 18.8682923,31.0489666 C18.9090886,31.0899013 18.9294868,31.1513034 18.8886905,31.1922381 C17.766792,32.9114953 16.7468843,34.7126219 15.8697637,36.5751505 C14.4010966,39.6452527 13.2384019,42.899561 12.4428739,46.2152714 C12.4428739,46.256206 12.4020776,46.2766734 12.3408831,46.2766734 Z"/>
        <g fill-rule="nonzero" transform="translate(15.91 11.871)">
          <path fill="#F7B2B2" d="M0.36716677,37.2710404 C15.2986154,30.2916748 31.8007219,19.4849151 34.6156671,17.949864 C38.6748998,17.6019191 42.7341324,17.2539742 46.7729669,16.9060293 C48.5680044,16.7218232 50.3630419,16.537617 52.1580795,16.3534109 C53.6675429,15.534717 55.1770063,14.6955557 56.6864696,13.8768618 C57.7675718,13.2628414 56.7884604,12.6692883 56.7272659,12.5464842 C57.6043866,11.8710617 58.4815072,11.1956393 59.3586278,10.5202168 C60.2561466,9.94713104 59.4402204,9.31264325 59.3994241,9.23077386 C59.8277853,8.92376364 60.2969429,8.59628608 60.704906,8.28927586 C61.235258,7.87992891 60.3989336,6.20160639 58.2979238,7.20450643 C58.2571275,7.06123499 58.0531459,5.79225943 56.2377103,6.57001865 C55.8705435,6.75422478 54.0551078,7.81852686 54.0551078,7.81852686 L50.9341902,8.78049221 C50.9341902,8.78049221 48.119245,9.04656773 46.7729669,9.18983917 C44.8963367,9.02610038 43.0401047,8.8623616 41.1634745,8.67815547 C39.7152056,8.4325473 38.3281311,6.89749621 38.8788813,6.05833495 C38.9604739,5.97646556 39.0420665,5.87412882 39.2256499,5.73085739 C39.898789,5.178239 40.429141,4.93263082 41.2654653,4.60515326 C42.0609933,4.27767569 42.4281601,4.09346956 43.1012992,3.68412261 C43.3664752,3.43851443 43.9376235,2.96776543 44.0396142,2.06720213 C44.0600124,1.82159396 44.1620032,1.04383474 43.6928456,0.593553086 C43.3256788,0.266075522 42.8361232,0.307010217 42.6321416,0.327477565 C42.2241785,0.368412261 40.6331225,1.47364904 39.8171964,1.882996 C39.5316222,2.02626743 34.9216394,4.01160017 34.6972598,4.13440426 C33.4325742,4.78935939 32.5554536,5.66945534 32.1474905,6.11973699 C30.9643976,7.42964725 30.4136474,8.84189425 30.1280733,9.76292491 C27.435517,11.4821821 15.5229951,15.8417272 6.44581663,18.5843518 C1.87663016,24.7040888 0.428361232,33.7301892 0.36716677,37.2710404 Z"/>
          <path fill="#F38484" d="M25.5588868 11.9938658C25.5180905 11.9938658 25.4772942 11.9733985 25.456896 11.9324638 25.4364979 11.8710617 25.456896 11.830127 25.5180905 11.7891923L25.579285 11.768725C27.5579059 10.9704984 29.2713508 10.2746086 30.087277 9.66058817 30.5156382 8.26880851 31.1887773 7.04076765 32.1066942 6.01740026 32.1474905 5.97646556 32.208685 5.97646556 32.2494813 6.01740026 32.2902776 6.05833495 32.2902776 6.11973699 32.2494813 6.16067169 31.3315644 7.16357173 30.6788234 8.3916126 30.2504622 9.76292491L30.2504622 9.8038596 30.2300641 9.82432695C29.3937397 10.4588147 27.6598967 11.1547046 25.6404794 11.9733985L25.579285 11.9938658C25.579285 11.9938658 25.5588868 11.9938658 25.5588868 11.9938658zM.36716677 37.2710404C15.2986154 30.2916748 31.8007219 19.4849151 34.6156671 17.949864 27.2927299 21.183705 10.4846511 29.5753176.775129848 33.3208422.509953847 34.9377627.387564924 36.309075.36716677 37.2710404z"/>
          <path fill="#F38484" d="M0.183583385,37.4961812 L0.183583385,37.3324424 C0.265176,33.8325259 1.91742646,24.2333398 6.40502032,18.5638845 L6.42541847,18.5434171 C6.73139078,18.3796783 8.07766894,17.9293967 9.95429909,17.3358436 C11.2597809,16.9264966 12.8916333,16.3943456 14.5642819,15.8417272 C14.6254763,15.8212599 14.6662726,15.8621946 14.6866708,15.9031292 C14.7070689,15.9645313 14.6662726,16.005466 14.6254763,16.0259333 C12.9528277,16.5785517 11.3209754,17.1107028 10.0154936,17.5200497 C8.26125232,18.0726681 6.8537797,18.5229498 6.5478074,18.7071559 C2.18260247,24.2742745 0.509953847,33.5869178 0.387564924,37.189171 C9.81151202,33.013832 23.1111083,24.8473602 30.2708604,20.4468805 C32.3718702,19.1574375 33.8813336,18.2159396 34.5340745,17.8679946 L34.5748708,17.8475273 L46.7321705,16.8036926 L52.096885,16.2510742 C52.8516167,15.8417272 53.687941,15.3709782 54.5038672,14.9002292 C55.3197933,14.4294802 56.1561176,13.9587312 56.9312475,13.5289169 C57.0536364,13.4470475 57.1148309,13.3447108 57.1148309,13.242374 C57.135229,13.0377006 56.8904512,12.8330271 56.7680623,12.710223 C56.7068678,12.6488209 56.6660715,12.6078863 56.6456733,12.5669516 L56.604877,12.4850822 L59.2974333,10.41788 C59.2974333,10.41788 59.3382296,10.3769453 59.379026,10.356478 C59.5014149,10.2541413 59.7461927,10.0494678 59.7665909,9.90619634 C59.786989,9.74245756 59.5422112,9.51731673 59.4198223,9.39451264 C59.3586278,9.3331106 59.3178315,9.29217591 59.2974333,9.27170856 L59.256637,9.18983917 L59.3178315,9.14890447 C59.521813,8.98516569 59.7461927,8.84189425 59.9705724,8.67815547 C60.1949521,8.51441669 60.4193318,8.35067791 60.6233133,8.20740647 C60.7661004,8.08460238 60.7661004,7.79805952 60.6029152,7.53198399 C60.317341,7.06123499 59.521813,6.71329008 58.3183219,7.28637582 L58.195933,7.34777786 L58.1755349,7.22497378 C58.0939423,6.87702886 57.9511552,6.65188804 57.7063773,6.52908395 C57.3596087,6.34487782 56.870053,6.38581252 56.2581084,6.65188804 C55.9113398,6.81562682 54.0959041,7.87992891 54.0755059,7.87992891 L54.0551078,7.87992891 L50.9137921,8.84189425 C50.8933939,8.84189425 48.0784487,9.10796978 46.7525687,9.25124121 L46.7321705,9.25124121 L46.7117724,9.25124121 L41.1022801,8.73955751 C40.1027705,8.57581873 39.0828628,7.81852686 38.7360942,6.9793656 C38.572909,6.59048599 38.572909,6.24254108 38.7564924,5.95599821 C39.1236591,5.38291247 40.4087428,4.80982674 41.5714376,4.27767569 C42.1425859,4.03206752 42.6117435,3.80692669 42.8769195,3.64318791 C43.4684659,3.295243 43.8152345,2.74262461 43.9172253,2.00580009 C43.9784198,1.55551843 43.8560308,0.777759217 43.3868733,0.470749 C42.9789102,0.204673478 42.3669656,0.347944913 41.6122339,0.880095956 C41.5714376,0.921030651 41.5102432,0.900563304 41.4694468,0.859628608 C41.4286505,0.818693912 41.4490487,0.757291869 41.489845,0.716357173 C42.5097527,-6.98052727e-14 43.1420955,0.102336739 43.4888641,0.307010217 C44.0804105,0.675422478 44.1824013,1.57598578 44.1212068,2.04673478 C43.9988179,3.04963482 43.4276696,3.56131852 42.9993084,3.82739404 C42.7341324,4.01160017 42.2445767,4.21627365 41.6734284,4.48234917 C40.6127244,4.97356552 39.2868444,5.5671186 38.9604739,6.0788023 C38.7768905,6.36534517 38.8584831,6.69282273 38.9604739,6.91796356 C39.2460481,7.57291869 40.163965,8.37114525 41.1634745,8.55535138 L46.7525687,9.06703508 C48.0376524,8.92376364 50.7098106,8.67815547 50.8933939,8.65768812 L53.9939133,7.69572278 C54.1570986,7.59338604 55.8297472,6.63142069 56.1765158,6.44721456 C56.870053,6.16067169 57.4208032,6.11973699 57.8083681,6.32441047 C57.9919515,6.42674721 58.2367293,6.63142069 58.3591183,7.04076765 C59.644202,6.46768191 60.4601281,6.87702886 60.8068967,7.40917991 C61.0312764,7.75712482 61.0108783,8.16647178 60.7661004,8.35067791 C60.5417207,8.51441669 60.3377392,8.65768812 60.1133595,8.82142691 C59.9297761,8.96469834 59.7257946,9.08750243 59.5422112,9.23077386 C59.5422112,9.23077386 59.5422112,9.23077386 59.5626093,9.23077386 C59.7257946,9.39451264 60.0113687,9.64012082 59.9705724,9.92666369 C59.9297761,10.1313372 59.7053964,10.3360106 59.5014149,10.4997494 C59.4606186,10.5202168 59.4402204,10.5406841 59.4198223,10.5611515 L56.870053,12.5260169 C56.870053,12.5260169 56.8904512,12.5464842 56.8904512,12.5464842 C57.0536364,12.6897556 57.3188124,12.9558312 57.2984143,13.242374 C57.2984143,13.4061128 57.1964235,13.5493842 57.0128401,13.6926557 C56.2377103,14.12247 55.4013859,14.593219 54.5854598,15.063968 C53.7695336,15.534717 52.9332093,16.005466 52.1580795,16.4352803 L52.1172832,16.4557476 L46.7321705,17.008366 L34.595269,18.0522008 C33.9425281,18.420613 32.4330647,19.3416437 30.352453,20.6106192 C23.1519047,25.0315664 9.7299194,33.2799075 0.285574154,37.4347791 L0.183583385,37.4961812 Z"/>
          <path fill="#F38484" d="M48.3232265 14.5113496C48.2620321 14.5113496 48.2212358 14.4704149 48.2212358 14.4090129 48.2212358 14.3476108 48.2620321 14.3066761 48.3232265 14.3066761 48.8739767 14.2657414 49.3839305 14.2248067 49.8938844 14.183872 50.4038382 14.1429373 50.9137921 14.1020026 51.4441441 14.0610679 52.096885 13.7745251 52.6884315 13.5084496 53.2595798 13.242374 53.8511262 12.9762985 54.4222746 12.710223 55.0954136 12.4236801 55.5033767 12.239474 56.339701 12.0757352 56.8496549 12.5260169 56.8904512 12.5669516 56.8904512 12.6283536 56.8496549 12.6692883 56.8088586 12.710223 56.7476641 12.710223 56.7068678 12.6692883 56.2785066 12.2804087 55.5237749 12.4441475 55.1566081 12.6078863 54.5038672 12.8944291 53.9123207 13.1605046 53.3411724 13.4265802 52.7496259 13.6926557 52.1784776 13.9587312 51.5053386 14.2452741L51.4645422 14.2452741C50.9137921 14.2862088 50.4038382 14.3271435 49.8938844 14.3680782 49.4043287 14.4090129 48.8943749 14.4499476 48.3232265 14.5113496 48.3436247 14.5113496 48.3436247 14.5113496 48.3232265 14.5113496zM48.3436247 12.9353638C48.3028284 12.9353638 48.2416339 12.8944291 48.2416339 12.8534944 48.2416339 12.7920924 48.2824302 12.7511577 48.3232265 12.7306903 49.5879121 12.5669516 51.5053386 12.4441475 51.7297182 12.4236801L55.3401915 10.5611515 57.3596087 9.23077386C57.3596087 9.23077386 58.6038961 8.35067791 59.521813 9.21030651 59.5626093 9.25124121 59.5626093 9.31264325 59.521813 9.35357795 59.4810167 9.39451264 59.4198223 9.39451264 59.379026 9.35357795 58.583498 8.61675343 57.4819976 9.39451264 57.4819976 9.39451264L55.4421823 10.7453576 51.7501164 12.6283536C51.7501164 12.6488209 49.6899029 12.771625 48.3436247 12.9353638 48.3640229 12.9353638 48.3436247 12.9353638 48.3436247 12.9353638zM47.9560598 11.2365739C47.9152635 11.2365739 47.854069 11.1956393 47.854069 11.1547046 47.854069 11.0933025 47.8948653 11.0523678 47.9356616 11.0319005 48.6088007 10.9500311 49.2003472 10.9090964 49.7918936 10.8681617 50.3630419 10.827227 50.9341902 10.7862923 51.6073293 10.7044229 52.7088296 10.1313372 55.0546173 9.10796978 55.0750155 9.10796978 55.0750155 9.10796978 57.3188124 7.65478808 58.2571275 7.10216969 58.2979238 7.08170234 58.3591183 7.08170234 58.3999146 7.14310439 58.4203127 7.18403908 58.4203127 7.24544112 58.3591183 7.28637582 57.4208032 7.81852686 55.1770063 9.27170856 55.1566081 9.29217591 55.1158118 9.31264325 52.7700241 10.3360106 51.6685238 10.9090964L51.6277275 10.9295637C50.9545884 11.0114331 50.3630419 11.0523678 49.7714955 11.0933025 49.2207453 11.1137699 48.6291989 11.1547046 47.9560598 11.2365739 47.9560598 11.2365739 47.9560598 11.2365739 47.9560598 11.2365739z"/>
          <path fill="#F38484" d="M48.2008376 15.4937823C48.2008376 15.4937823 48.1804395 15.4937823 48.2008376 15.4937823 48.119245 15.4733149 48.0988469 15.4323802 48.0988469 15.3709782 48.2620321 14.3271435 48.2416339 13.2628414 48.0172542 12.239474 47.854069 11.5435842 47.6092912 10.8476943 47.2829207 10.2132066 47.2625225 10.1722719 47.2829207 10.1108698 47.323717 10.0699351 47.3645133 10.0494678 47.4257078 10.0699351 47.4665041 10.1108698 47.8132727 10.7658249 48.0580505 11.4617148 48.2212358 12.1780719 48.4456155 13.2219067 48.4864118 14.3066761 48.3028284 15.3914456 48.2824302 15.4528476 48.2416339 15.4937823 48.2008376 15.4937823zM55.7685527 14.3680782C55.7277564 14.3680782 55.6869601 14.3271435 55.6665619 14.2862088 55.6257656 14.12247 55.6461638 13.8768618 56.0337287 13.6312536 56.2173121 13.5289169 56.5028863 13.3651781 56.870053 13.2014393 56.9312475 13.180972 56.9720438 13.2014393 57.0128401 13.242374 57.0332383 13.3037761 57.0128401 13.3447108 56.9720438 13.3856455 56.6252752 13.5493842 56.339701 13.6926557 56.1765158 13.7949924 55.9521361 13.9382639 55.8501453 14.0815353 55.8909416 14.2248067 55.9113398 14.2862088 55.8705435 14.3271435 55.809349 14.3476108 55.7889509 14.3680782 55.7685527 14.3680782 55.7685527 14.3680782zM58.5223035 11.1956393C58.4815072 11.1956393 58.4407109 11.1751719 58.4203127 11.1342372 58.3999146 11.0728352 58.3387201 10.8476943 58.5223035 10.6020862 58.726285 10.3974127 59.1546463 10.0290004 59.4810167 9.8038596 59.521813 9.76292491 59.5830075 9.78339225 59.6238038 9.82432695 59.6646001 9.86526164 59.644202 9.92666369 59.6034056 9.96759838 59.2974333 10.1927392 58.8690721 10.5611515 58.6854887 10.7453576 58.5630998 10.888629 58.6038961 11.0319005 58.6242943 11.0728352 58.6446924 11.1342372 58.6242943 11.1751719 58.5630998 11.1956393 58.5427016 11.1956393 58.5223035 11.1956393 58.5223035 11.1956393zM59.644202 9.06703508C59.6034056 9.06703508 59.5626093 9.04656773 59.5422112 9.00563304 59.4606186 8.80095956 59.5014149 8.63722078 59.6238038 8.51441669 59.7665909 8.37114525 59.9501743 8.24834117 60.1337576 8.12553708 60.2561466 8.04366769 60.3785355 7.9617983 60.5009244 7.85946156 60.5417207 7.81852686 60.6029152 7.83899421 60.6437115 7.87992891 60.6845078 7.9208636 60.6641096 7.98226565 60.6233133 8.02320034 60.5009244 8.12553708 60.3785355 8.20740647 60.2561466 8.28927586 60.0725632 8.4325473 59.909378 8.53488404 59.7665909 8.65768812 59.6849983 8.73955751 59.7053964 8.84189425 59.7257946 8.94423099 59.7461927 9.00563304 59.7257946 9.04656773 59.6646001 9.06703508 59.6646001 9.06703508 59.6646001 9.06703508 59.644202 9.06703508z"/>
        </g>
        <path fill="#BF2652" d="M18.3175422,27.3853114 C18.6643108,27.5490502 18.9294868,27.774191 19.1334683,28.1630706 C19.8270056,29.4934482 19.7250148,30.1484033 21.0100985,30.189338 C21.5812468,29.9437298 22.0708025,30.1074686 22.5195619,30.3735441 C21.6424413,31.8267258 20.7653207,33.4436463 19.9493945,35.2447729 C17.6036068,40.484414 16.706088,45.3761101 16.3797176,49.1421021 C16.0941434,49.428645 15.5841896,49.7970572 14.9110505,49.8789266 C13.6667631,50.0426654 12.3204849,49.1625694 11.6065496,47.668453 C11.2189846,47.5251816 10.6886326,47.2795734 10.1378825,46.8497591 C9.30155817,46.1743367 8.87319694,45.3761101 8.6692154,44.9258284 C9.03638217,43.1861039 9.58713232,41.2621732 10.4030585,39.2154384 C12.6468554,33.7097218 15.8493656,29.8618605 18.3175422,27.3853114 Z"/>
        <path fill="#EA2856" d="M12.2184942 46.133402C12.2184942 46.133402 12.198096 46.133402 12.198096 46.133402 12.1369016 46.1129346 12.1165034 46.0719999 12.1165034 46.0105979 12.9732259 42.5516161 14.2379114 39.1949711 15.8493656 36.0429995 16.7672825 34.2623402 17.8075883 32.5021483 18.949885 30.8442931 18.9906813 30.8033585 19.0518757 30.7828911 19.092672 30.8238258 19.1334683 30.8647605 19.1538665 30.9261625 19.1130702 30.9670972 17.9707736 32.6249524 16.9304677 34.364677 16.0125508 36.1453362 14.4010966 39.2768404 13.1568093 42.6130181 12.3000868 46.0719999 12.3000868 46.1129346 12.2592905 46.133402 12.2184942 46.133402zM7.75129848 42.1832038C7.75129848 42.1832038 7.73090032 42.1832038 7.73090032 42.1832038 7.66970586 42.1627365 7.64930771 42.1218018 7.66970586 42.0603997 8.95478955 37.3733771 11.137392 33.2185055 14.1155225 29.6776543 14.9926431 28.6338196 15.9513563 27.6309195 16.971264 26.7303562 17.0120603 26.6894215 17.0732548 26.6894215 17.1140511 26.7303562 17.1548474 26.7712909 17.1548474 26.832693 17.1140511 26.8736277 16.1145416 27.7946583 15.1558283 28.777091 14.2787077 29.8004584 11.3209754 33.3003749 9.15877109 37.4552465 7.8736874 42.1013344 7.85328924 42.1627365 7.81249294 42.1832038 7.75129848 42.1832038z"/>
      </g>
      <path fill="#FC6C85" d="M90.3026272,82.5243464 C85.6518482,81.5214463 67.7218709,70.0187969 66.8243521,69.5685152 C66.2328057,71.1854357 65.478074,72.9660949 64.4785644,74.8081562 C62.6223324,78.2876054 60.5417207,81.03023 58.7058869,83.0974321 C59.7665909,84.1003321 61.1944616,85.4511771 62.826314,87.1090323 C68.7621767,93.0445631 73.3721595,97.7315858 77.2886051,104.506278 C78.4309017,106.512078 79.2468278,108.210868 79.7567817,109.336572 C81.5110229,106.553013 83.3060605,103.319172 84.9787091,99.6759838 C87.8956451,93.3515734 89.2623214,87.4365098 90.3026272,82.5243464 Z"/>
      <path fill="#F95070" d="M60.9088875,80.6822851 C63.5810457,82.7290198 66.273602,84.857624 68.9865564,87.0271629 C74.1880857,91.2229692 79.2264297,95.1936347 83.9384032,99.3485063 C83.4080512,100.55608 82.7349121,101.988794 82.1229675,103.237302 C81.2254488,105.058896 80.2871337,106.778154 79.3692168,108.395074 C76.9214383,103.380574 74.2900764,99.7169185 72.3114555,97.2608368 C70.5776124,95.1117653 68.9661583,93.4539101 66.0696204,90.44521 C63.1526844,87.4160425 60.6233133,84.9804281 58.8282758,83.2611709 C59.5014149,82.4015423 60.2153503,81.5419137 60.9088875,80.6822851 Z"/>
      <path fill="#F7B2B2" fill-rule="nonzero" d="M60.9088875,66.3346742 C55.6869601,62.7733557 33.8201391,48.5690164 26.782776,43.841059 C26.0892388,43.37031 25.5588868,42.7358222 25.2325164,41.958063 C24.3145994,39.7885241 23.4170807,37.6189853 22.4991637,35.4494464 C22.1931914,34.7330892 21.601645,34.1600035 20.8673114,33.8734606 C16.7876806,32.3588769 15.6045877,35.776924 17.23644,36.9640301 C17.5832086,37.5575832 17.7259957,38.1102016 17.7871902,38.4786139 C17.766792,38.66282 17.7259957,38.9698302 17.5832086,39.2973078 C17.4608197,39.5838507 13.3403926,47.1158347 15.91056,51.6391185 C16.2777268,51.78239 17.766792,52.1712696 18.2767459,52.2736063 C18.7866997,52.3964104 19.2762554,52.4578124 19.7046167,52.4782798 C20.2961631,52.5192145 20.8469133,52.7443553 21.2956727,53.1332349 C27.6598967,58.5570821 47.323717,74.0099297 52.4844499,78.5332135 C57.135229,74.4806787 59.0526555,70.4076765 60.9088875,66.3346742 Z"/>
      <path fill="#F38484" fill-rule="nonzero" d="M17.2772363 36.9844975C17.624005 37.5780506 17.766792 38.130669 17.8279865 38.4990812 17.8075883 38.6832874 17.766792 38.9902976 17.624005 39.3177751 17.501616 39.604318 13.3811889 47.136302 15.9513563 51.6595859 17.4200234 50.370143 22.2339877 40.3616099 17.2772363 36.9844975zM21.336469 53.1537023C27.700693 58.5775494 47.3645133 74.030397 52.5252462 78.5536809 53.0963946 78.0419972 54.6466543 76.5683482 55.1362099 76.0771318 43.9376235 68.790756 20.8877096 52.78529 21.336469 53.1537023z"/>
      <path fill="#F38484" fill-rule="nonzero" d="M52.5252462,78.6969523 L52.4640518,78.6355503 C49.7714955,76.2818053 43.0197065,70.8579581 36.4922973,65.6183171 C30.4952401,60.8084903 24.3145994,55.8349248 21.2752745,53.2355717 C20.8469133,52.8671594 20.2961631,52.6420186 19.745413,52.6010839 C19.2558573,52.5806165 18.7866997,52.4987471 18.3175422,52.3964104 C17.7871902,52.2736063 16.3185231,51.905194 15.9309582,51.7414553 C15.8697637,51.7209879 15.8493656,51.6595859 15.8697637,51.5981838 C15.8901619,51.5367818 15.9513563,51.5163144 16.0125508,51.5367818 C16.3593194,51.6800532 17.8075883,52.0484655 18.3583385,52.1712696 C18.827496,52.2736063 19.2966536,52.3350083 19.7658111,52.375943 C20.3573576,52.4168777 20.948904,52.6420186 21.4180616,53.0513655 C24.4573865,55.6507187 30.6584253,60.6242842 36.6350844,65.4341109 C43.1012992,70.6328173 49.7918936,75.9952624 52.5456444,78.3899421 C57.1760253,74.2760052 59.11385,70.0597316 60.8068967,66.3346742 C57.9919515,64.4107436 50.5262272,59.5190474 43.3052807,54.7910901 C36.7982696,50.5338817 30.087277,46.133402 26.7623779,43.9024611 C26.0484425,43.4317121 25.5180905,42.7562896 25.1713219,41.9785304 L22.927525,36.6160852 C22.9071268,36.5546832 22.927525,36.5137485 22.9887194,36.4728138 C23.0499139,36.4523464 23.0907102,36.4728138 23.1315065,36.5342158 L25.3753034,41.896661 C25.6812757,42.6539528 26.2116277,43.2884406 26.8847668,43.7387223 C30.1892677,45.9696632 36.9206585,50.370143 43.4276696,54.6273513 C50.7098106,59.3962433 58.2367293,64.3493415 61.0108783,66.2323375 L61.0720727,66.2732722 L61.0312764,66.3551416 C59.2974333,70.1416009 57.3596087,74.4192766 52.6068389,78.6150829 L52.5252462,78.6969523 Z"/>
      <path fill="#F9C973" fill-rule="nonzero" d="M31.0867865 24.6426868C31.0867865 24.6426868 31.0867865 24.6222194 31.0867865 24.6222194 31.5559441 23.5579173 32.0251016 22.4731479 32.4942591 21.4088458 32.6166481 21.1018356 32.8206296 20.8357601 33.0654074 20.6106192 34.3708893 19.4030457 38.3689275 15.6575211 39.368437 14.0610679 38.1853441 13.8768618 36.9206585 13.9587312 35.6151767 14.183872L36.0231398 12.9762985C37.0430475 12.6897556 38.2873348 12.710223 39.6744093 12.8739618 39.5928167 12.4850822 39.3276407 12.239474 38.9808721 12.1576046L38.9808721 12.1576046C38.8584831 12.1371373 38.7360942 12.1166699 38.6137053 12.0757352 37.5937976 11.7277903 37.0430475 10.6225535 37.3898161 9.61965347 37.7365847 8.59628608 38.838085 8.04366769 39.8375945 8.3916126 40.5107336 8.61675343 40.9798911 9.18983917 41.1226782 9.8447943L41.1226782 9.82432695C41.1226782 9.82432695 41.4490487 11.768725 41.6530302 12.8739618 41.8570118 13.9791986 41.4490487 15.12537 40.5923262 15.8417272 38.4097238 17.6837885 36.2475194 19.5258498 34.064917 21.3679111 33.799741 21.5930519 33.5753613 21.8386601 33.3509816 22.1047356 32.8614259 22.7392234 32.3718702 23.3737112 31.8823145 24.008199 32.0251016 23.9877316 32.1882868 24.008199 32.3310739 24.0491337 32.8818241 24.2333398 33.1673982 24.8268929 32.9838148 25.3590439 32.8002314 25.9116623 32.208685 26.1982052 31.678333 26.0139991 31.1275828 25.8297929 30.8420087 25.2362398 31.0255921 24.7040888 31.0663884 24.6836215 31.0867865 24.6631541 31.0867865 24.6426868zM16.5225046 61.0131638L2.06021354 56.141935 4.03883447 50.2268715C4.18162155 49.8175246 4.63038093 49.5923837 5.03834401 49.7151878L17.9911717 54.0747329C18.3991348 54.2180043 18.6235145 54.668286 18.5011256 55.077633L16.5225046 61.0131638zM16.5021065 61.0131638L2.01941723 56.141935.265176 57.6155841C-.0203981539 57.8407249.0611944616 58.2910066.407963078 58.4138106L16.4817083 63.8171905C16.828477 63.9399946 17.1752456 63.612517 17.0732548 63.2645721L16.5021065 61.0131638zM15.9921526 53.3993104L7.0781594 50.3906103 7.8736874 47.9959306C7.99607632 47.607051 8.42443755 47.4023775 8.79160432 47.5251816L16.3185231 50.0631327C16.706088 50.1859368 16.9100696 50.6157511 16.7876806 50.9841634L15.9921526 53.3993104z"/>
      <path fill="#F9C973" fill-rule="nonzero" d="M16.298125,50.0631327 L8.83240063,47.545649 L9.38315079,45.9082611 C9.64832679,45.0895672 10.5254474,44.6597529 11.3413736,44.9258284 L15.8697637,46.4608795 C16.6856899,46.726955 17.1140511,47.607051 16.8488751,48.4257449 L16.298125,50.0631327 Z"/>
      <path fill="#F9C973" fill-rule="nonzero" d="M15.9717545,46.5018142 L11.2393828,44.9053611 L12.8916333,41.8761936 C13.0344203,41.6101181 13.1568093,41.3031079 13.2384019,40.9960977 L15.2782173,32.9319626 C15.3598099,32.6249524 15.5637914,32.3793442 15.8493656,32.2565401 L16.3185231,32.0518667 L19.5822277,33.1571035 L19.8678019,33.6073851 C20.0309871,33.8734606 20.0717834,34.2214055 19.9493945,34.5284158 L16.7672825,42.2241385 C16.6652917,42.4902141 16.5836991,42.7767569 16.5225046,43.0632998 L15.9717545,46.5018142 Z"/>
      <path fill="#828282" fill-opacity=".3" fill-rule="nonzero" d="M15.9717545 46.5018142L13.5851705 45.7035877 17.9911717 32.6454198 19.5822277 33.1980381 19.8678019 33.6483198C20.0309871 33.9143953 20.0717834 34.2623402 19.9493945 34.5693504L16.7672825 42.2650732C16.6652917 42.5311487 16.5836991 42.8176916 16.5225046 43.1042345L15.9717545 46.5018142zM16.298125 50.0631327L13.2384019 49.0397654C13.6667631 47.5865837 14.319504 46.5427489 13.5851705 45.7035877L15.8697637 46.4813469C16.6856899 46.7474224 17.1140511 47.6275184 16.8488751 48.4462123L16.298125 50.0631327zM16.3389213 50.0836001L12.5040683 48.7941572 11.4637625 51.8847267 15.9921526 53.3993104 16.7876806 51.0046307C16.9304677 50.6157511 16.7264862 50.2064042 16.3389213 50.0836001z" style="mix-blend-mode:normal"/>
      <path fill="#828282" fill-opacity=".3" fill-rule="nonzero" d="M18.0115699,54.0747329 L11.4841606,51.8847267 L9.26076186,58.5570821 L16.5429028,61.0131638 L18.5215237,55.0981003 C18.6439126,54.668286 18.419533,54.2180043 18.0115699,54.0747329 Z" style="mix-blend-mode:normal"/>
      <path fill="#F9C973" fill-rule="nonzero" d="M20.683728,24.54035 L20.683728,24.54035 C20.683728,24.54035 20.683728,24.54035 20.683728,24.54035 L15.9921526,22.9643642 C18.1951533,27.2215726 14.7070689,30.4554135 16.3185231,32.0928014 L17.9707736,32.6454198 C17.9707736,32.6454198 17.9707736,32.6454198 17.9911717,32.6454198 L17.9911717,32.6658871 L19.6434222,33.2185055 C21.9076173,32.8910279 21.071293,28.2040053 25.3957016,26.1368032 L20.683728,24.54035 Z"/>
      <path fill="#828282" fill-opacity=".3" fill-rule="nonzero" d="M17.9707736,32.6249524 C17.9707736,32.6249524 17.9707736,32.6249524 17.9707736,32.6249524 L17.9707736,32.6249524 L19.623024,33.1775708 C21.8872191,32.8500932 21.0508948,28.1630706 25.3753034,26.0958685 L21.8872191,24.9292296 C20.9081077,28.1016685 19.623024,32.6863545 17.9707736,32.6249524 Z" style="mix-blend-mode:normal"/>
      <path fill="#F9C973" fill-rule="nonzero" d="M25.3549053,26.1163358 L16.032949,22.9848316 L16.032949,22.9848316 C16.4001157,21.9205295 17.5424123,21.3269764 18.6235145,21.6953887 L24.0902197,23.53745 C25.1305256,23.8649275 25.7016739,25.0315664 25.3549053,26.1163358 L25.3549053,26.1163358 Z"/>
      <polygon fill="#828282" fill-opacity=".3" fill-rule="nonzero" style="mix-blend-mode:normal" points="18.258 21.966 24.625 21.972 24.626 22.627 18.259 22.621" transform="rotate(18.547 21.442 22.296)"/>
      <path fill="#828282" fill-opacity=".3" fill-rule="nonzero" d="M25.3549053,26.1163358 L21.8872191,24.949697 C22.0912007,24.1924051 22.2135896,23.53745 21.744432,22.7392234 L24.0494234,23.5169826 C25.1305256,23.8649275 25.7016739,25.0315664 25.3549053,26.1163358 L25.3549053,26.1163358 Z" style="mix-blend-mode:normal"/>
      <path fill="#F9C973" fill-rule="nonzero" d="M23.9270345,22.8210928 L19.1130702,21.2041723 C14.5030874,19.6486539 12.0145126,14.6341537 13.5647723,10.0085331 L15.3598099,4.6256206 C15.5433933,4.07300221 16.0941434,3.7250573 16.6652917,3.80692669 C23.600664,4.72795734 30.1484714,6.93843091 36.3087139,10.41788 C36.8186678,10.7044229 37.0430475,11.3184433 36.8594641,11.8710617 L35.0644265,17.2539742 C33.534565,21.8795948 28.5370173,24.3766112 23.9270345,22.8210928 Z"/>
      <path fill="#828282" fill-opacity=".3" fill-rule="nonzero" d="M23.9270345,22.8210928 L22.53996,22.3503438 C22.53996,22.3503438 28.108656,22.1661377 30.5768327,7.59338604 C32.5350554,8.41207995 34.4524819,9.3740453 36.3291121,10.4383474 C36.8390659,10.7248903 37.0634456,11.3389107 36.8798622,11.8915291 L35.0848247,17.2744416 C33.534565,21.8795948 28.5370173,24.3766112 23.9270345,22.8210928 Z" style="mix-blend-mode:normal"/>
      <path fill="#F9C973" fill-rule="nonzero" d="M12.3612813,18.420613 C12.3612813,18.420613 12.3612813,18.4001457 12.3612813,18.4001457 C12.6264573,17.2539742 12.8916333,16.1282701 13.1568093,14.9820986 C13.2384019,14.654621 13.2384019,14.3271435 13.1772074,13.9996659 C12.8712351,12.239474 11.93292,6.83609417 12.0961053,4.95309817 C13.1568093,5.52618391 14.1155225,6.36534517 15.0130413,7.32731052 L15.4210043,6.11973699 C14.7682634,5.28057573 13.7687539,4.52328387 12.5652628,3.82739404 C12.8508369,3.56131852 13.2180037,3.54085117 13.5443742,3.66365526 L13.5443742,3.66365526 C13.6463649,3.7250573 13.7687539,3.78645934 13.8911428,3.82739404 C14.9110505,4.17533895 16.0125508,3.62272056 16.3389213,2.59935317 C16.6652917,1.57598578 16.1349397,0.470749 15.115032,0.143271435 C14.4418929,-0.0818693912 13.7279576,0.0818693912 13.2180037,0.532151043 L13.2180037,0.511683695 C13.2180037,0.511683695 11.7901329,1.86252865 10.9742068,2.61982052 C10.1378825,3.37711239 9.79111386,4.52328387 10.0358917,5.62852065 C10.6682345,8.41207995 11.3005773,11.1956393 11.9125219,13.9791986 C11.9941145,14.3066761 12.0349108,14.654621 12.0349108,15.0025659 C12.0349108,15.8007925 12.0553089,16.6194864 12.0553089,17.417713 C11.9533182,17.3153762 11.8309293,17.2335069 11.667744,17.1925722 C11.1169939,17.008366 10.5458456,17.2949089 10.3622622,17.8475273 C10.1786788,18.4001457 10.4642529,18.9732314 11.0150031,19.1574375 C11.5657533,19.3416437 12.1369016,19.0551008 12.3204849,18.5024824 C12.3408831,18.4615477 12.3408831,18.4410804 12.3612813,18.420613 Z"/>
      <path fill="#828282" fill-opacity=".3" fill-rule="nonzero" d="M19.5822277 33.1980381C19.5618296 33.1980381 19.5618296 33.1980381 19.5414314 33.1980381L16.2369305 32.0928014C16.175736 32.072334 16.1553379 32.010932 16.175736 31.9699973 16.1961342 31.9085952 16.2573286 31.8881279 16.298125 31.9085952L19.6026259 33.013832C19.6638203 33.0342994 19.6842185 33.0957014 19.6638203 33.1366361 19.6638203 33.1775708 19.623024 33.1980381 19.5822277 33.1980381zM15.7881711 46.4404122C15.767773 46.4404122 15.767773 46.4404122 15.7473748 46.4404122L11.2597809 44.9258284C11.1985865 44.9053611 11.1781883 44.8439591 11.1985865 44.8030244 11.2189846 44.7416223 11.2801791 44.721155 11.3209754 44.7416223L15.8085693 46.256206C15.8697637 46.2766734 15.8901619 46.3380754 15.8697637 46.3790101 15.8697637 46.4199448 15.8289674 46.4404122 15.7881711 46.4404122zM15.8085693 50.0017307C15.7881711 50.0017307 15.7881711 50.0017307 15.767773 50.0017307L8.79160432 47.6479857C8.73040986 47.6275184 8.71001171 47.5661163 8.73040986 47.5251816 8.75080802 47.4637796 8.81200248 47.4433122 8.85279878 47.4637796L15.8289674 49.8175246C15.8901619 49.8379919 15.91056 49.899394 15.8901619 49.9403287 15.8901619 49.9812634 15.8493656 50.0017307 15.8085693 50.0017307zM15.7269766 53.4197778C15.7065785 53.4197778 15.7065785 53.4197778 15.6861803 53.4197778L7.03736309 50.5134144C6.97616863 50.492947 6.95577047 50.431545 6.97616863 50.3906103 6.99656678 50.3292083 7.05776124 50.3087409 7.09855755 50.3292083L15.7473748 53.2355717C15.8085693 53.256039 15.8289674 53.317441 15.8085693 53.3583757 15.8085693 53.3993104 15.767773 53.4197778 15.7269766 53.4197778zM16.4613102 61.0950332C16.440912 61.0950332 16.440912 61.0950332 16.4205139 61.0950332L2.01941723 56.2442718C1.95822277 56.2238044 1.93782462 56.1624024 1.95822277 56.1214677 1.97862093 56.0600656 2.03981539 56.0395983 2.0806117 56.0600656L16.4817083 60.9108271C16.5429028 60.9312944 16.563301 60.9926965 16.5429028 61.0336312 16.5429028 61.0745659 16.5021065 61.0950332 16.4613102 61.0950332z" style="mix-blend-mode:normal"/>
      <path fill="#FFF9B0" d="M16.7876806 3.84786139C17.6648013 3.95019813 17.6036068 3.90926343 18.7255053 4.11393691 17.2160419 7.4910493 16.298125 10.0494678 15.8901619 12.3418107 15.1762265 16.8036926 17.501616 18.5434171 18.5215237 19.8737947 18.031968 19.6077192 13.0548185 17.4995824 14.054328 11.9119964 14.58468 9.55825143 15.4006062 6.81562682 16.7876806 3.84786139zM17.2160419 24.6017521C17.7463939 24.7859582 18.2563477 24.949697 18.7866997 25.1339031 18.6235145 25.8707276 18.419533 26.6280195 18.2155514 27.4057787 17.9707736 28.2654073 17.7259957 29.1045686 17.4608197 29.8823278 17.2568382 30.4963482 17.0324585 31.2945748 17.23644 31.7448565 17.093653 31.6425197 16.2573286 31.2945748 16.706088 29.6367196 16.9100696 29.0636339 17.624005 26.2186725 17.2160419 24.6017521z"/>
      <path fill="#828282" fill-opacity=".3" fill-rule="nonzero" d="M25.3345071 26.1572705C25.314109 26.1572705 25.314109 26.1572705 25.2937108 26.1572705L15.9921526 23.0257663C15.9309582 23.0052989 15.91056 22.9438969 15.9309582 22.9029622 15.9513563 22.8415602 16.0125508 22.8210928 16.0533471 22.8415602L25.3549053 25.9730644C25.4160997 25.9935317 25.4364979 26.0549338 25.4160997 26.0958685 25.4160997 26.1368032 25.3753034 26.1572705 25.3345071 26.1572705zM32.6166481 10.5816188C32.5962499 10.5816188 32.5758518 10.5816188 32.5758518 10.5611515 28.761397 8.59628608 24.7429607 7.14310439 20.6225336 6.24254108 19.1946628 5.93553086 17.7463939 5.68992269 16.298125 5.50571656 16.2369305 5.50571656 16.1961342 5.44431452 16.2165323 5.38291247 16.2165323 5.32151043 16.2777268 5.28057573 16.3389213 5.30104308 17.7871902 5.48524921 19.2558573 5.73085739 20.683728 6.0378676 24.8245533 6.93843091 28.8633877 8.3916126 32.6982407 10.3769453 32.739037 10.3974127 32.7594351 10.4588147 32.739037 10.5202168 32.6982407 10.5816188 32.6574444 10.5816188 32.6166481 10.5816188z" style="mix-blend-mode:normal"/>
      <path fill="#F7B2B2" fill-rule="nonzero" d="M21.3772653,34.1600035 C19.4394406,33.4027116 18.154357,32.5226157 16.4205139,31.6834544 C15.4210043,31.6629871 14.2175133,31.6629871 13.0752166,31.5197156 C12.2796886,31.4173789 11.5045588,31.2945748 10.8110216,31.1717707 C10.6682345,31.2331728 10.4030585,31.3764442 10.2602714,31.6629871 C10.0154936,32.1542034 10.3010677,32.543083 10.4438548,32.8500932 C10.7702252,33.4641137 11.3821699,33.7915912 12.0145126,34.1600035 C13.2995963,34.9172954 14.2583096,35.0810341 15.3598099,35.5517831 C15.7473748,35.7564566 16.6856899,36.0839342 17.2772363,37.0868342 C17.624005,37.6803873 18.0931625,38.6832874 18.154357,39.0516996 C19.5210333,42.6744202 24.5389791,40.4434793 22.4175711,35.1629035 C22.2135896,34.7126219 21.8464228,34.3442096 21.3772653,34.1600035 Z"/>
      <path fill="#F7B2B2" fill-rule="nonzero" d="M10.6682345,33.1775708 C10.5458456,33.2594402 10.2602714,33.5050484 10.1174843,33.9348627 C9.93390094,34.5079484 10.1378825,34.9991648 10.1786788,35.1015015 C10.3826603,35.6131852 10.5866419,36.1044015 10.7906234,36.6160852 C10.3826603,36.7388893 10.1378825,36.9640301 10.0358917,37.1073016 C9.52593786,37.6803873 9.50553971,38.6423527 9.97469725,39.5224486 C9.75031756,39.6452527 9.36275263,39.9317956 9.07717848,40.4230119 C8.60802094,41.2417058 8.75080802,42.0808671 8.81200248,42.2855406 C8.24085417,42.4492794 7.95528001,42.7562896 7.85328924,42.899561 C7.0781594,43.8615264 7.73090032,45.2737734 7.79209478,45.3761101 C7.99607632,45.8263917 9.09757663,46.7474224 9.09757663,46.7474224 L9.40354894,45.8059244 C9.40354894,45.8059244 9.54633602,45.314708 10.0562899,45.3556427 C10.1582806,45.3556427 10.8518179,45.3556427 11.2597809,44.9462958 C11.6065496,44.5983509 11.7289385,44.2094713 11.7493366,44.0866672 C12.5040683,44.1890039 12.8508369,44.2708733 13.2384019,44.3322754 C13.8707446,44.4346121 14.1971151,44.5164815 14.6050782,44.3936774 C14.8090597,44.3527427 15.2170228,44.250406 15.502597,43.9024611 C15.8901619,43.4317121 15.91056,42.6744202 15.5637914,41.9785304 C15.7065785,41.9989977 16.0941434,41.9989977 16.4613102,41.7738569 C17.0120603,41.4463793 17.1140511,40.8732936 17.1548474,40.7300221 C17.3180326,39.9317956 16.828477,39.3177751 16.7468843,39.2154384 C16.2369305,38.5809506 15.5229951,38.4786139 15.380208,38.4581465 C15.5229951,38.3148751 15.7473748,38.0283322 15.8697637,37.6394526 C16.1145416,36.8002914 15.6657822,36.0839342 15.6045877,35.9815974 C15.1558283,35.2857076 14.4418929,35.2243056 13.4015871,34.8149586 C12.6672536,34.5693504 11.7085403,34.0781341 10.6682345,33.1775708 Z"/>
      <path fill="#F38484" fill-rule="nonzero" d="M9.09757663,46.8906938 C9.07717848,46.8906938 9.05678032,46.8906938 9.03638217,46.8702265 C8.99558586,46.8292918 7.91448371,45.9082611 7.71050217,45.4579795 C7.62890955,45.2942407 6.99656678,43.8819937 7.79209478,42.8586263 C8.01647448,42.5720834 8.34284494,42.36741 8.71001171,42.2241385 C8.64881725,41.8557263 8.58762278,41.1189017 9.01598402,40.3820772 C9.21996555,40.0341323 9.50553971,39.7271221 9.87270648,39.5019813 C9.44434525,38.601418 9.48514156,37.65992 9.9950954,37.0458995 C10.1786788,36.8412261 10.4234566,36.6774873 10.6886326,36.5751505 L10.1174843,35.1629035 C10.0358917,34.9786974 9.85230833,34.4874811 10.0562899,33.9143953 C10.1990769,33.484581 10.4846511,33.2185055 10.6478363,33.0957014 C10.6886326,33.0752341 10.7294289,33.0752341 10.7702252,33.0957014 C11.6065496,33.8120586 12.4836702,34.364677 13.4219853,34.7330892 C13.6871613,34.835426 13.9319391,34.9172954 14.1359206,34.9991648 C14.7886616,35.2243056 15.2986154,35.3880444 15.6657822,35.9611301 C15.7473748,36.1044015 16.1961342,36.8412261 15.9513563,37.7008547 C15.8697637,37.9669302 15.7473748,38.2330057 15.5637914,38.4581465 C15.91056,38.5809506 16.6448936,38.9493629 17.0528566,39.542916 C17.3180326,39.9317956 17.3996253,40.3616099 17.2772363,40.8118915 C17.1752456,41.2826405 16.9100696,41.6715201 16.5429028,41.9171283 C16.2573286,42.1013344 15.9717545,42.1422691 15.7473748,42.1422691 C16.032949,42.8586263 15.9717545,43.5954508 15.6045877,44.0457325 C15.2986154,44.3936774 14.8702542,44.5164815 14.6662726,44.5574162 C14.2379114,44.6597529 13.9115409,44.5983509 13.3403926,44.4960141 L13.0956148,44.4550794 C12.7896425,44.3936774 12.463272,44.3527427 11.8717256,44.250406 C11.8309293,44.4346121 11.6881422,44.7620897 11.3821699,45.0690999 C10.9538086,45.4989142 10.2398732,45.5193815 10.0970862,45.5193815 C9.66872494,45.4989142 9.54633602,45.8877938 9.54633602,45.8877938 L9.24036371,46.8292918 C9.21996555,46.8702265 9.1995674,46.8906938 9.17916925,46.8906938 C9.09757663,46.8906938 9.09757663,46.8906938 9.09757663,46.8906938 Z M10.6682345,33.3208422 C10.5254474,33.4436463 10.3214659,33.6483198 10.2194751,33.9757974 C10.0562899,34.4670137 10.1990769,34.9172954 10.2806696,35.0810341 L10.8926142,36.5956179 C10.9130123,36.6160852 10.8926142,36.6570199 10.8926142,36.6774873 C10.872216,36.6979546 10.8518179,36.718422 10.8314197,36.7388893 C10.5458456,36.8412261 10.3010677,36.9844975 10.1174843,37.189171 C9.64832679,37.7417894 9.62792863,38.6423527 10.0562899,39.5019813 C10.076688,39.542916 10.0562899,39.604318 10.0154936,39.6452527 C9.77071571,39.7885241 9.42394709,40.0545997 9.15877109,40.5048813 C8.73040986,41.2417058 8.83240063,41.9989977 8.89359509,42.3060079 C8.91399325,42.36741 8.87319694,42.4083447 8.83240063,42.428812 C8.44483571,42.5516161 8.1388634,42.7358222 7.91448371,43.0223651 C7.18015017,43.9433957 7.83289109,45.3351754 7.85328924,45.3965774 C8.01647448,45.724055 8.73040986,46.3994775 9.01598402,46.6450857 L9.28116002,45.8673264 C9.34235448,45.6831203 9.56673417,45.314708 10.0358917,45.3556427 C10.0970862,45.3556427 10.7702252,45.3556427 11.1577902,44.9667631 C11.5045588,44.6188182 11.6065496,44.250406 11.6065496,44.1685366 C11.6065496,44.1480692 11.6269477,44.1071345 11.6473459,44.0866672 C11.667744,44.0661998 11.6881422,44.0661998 11.7289385,44.0661998 C12.3816794,44.1685366 12.728448,44.2299386 13.0548185,44.2708733 L13.2995963,44.311808 C13.8707446,44.4141447 14.1563188,44.4550794 14.5438837,44.3732101 C14.7274671,44.3322754 15.115032,44.2299386 15.380208,43.9229284 C15.7473748,43.4931141 15.767773,42.7767569 15.4414025,42.1013344 C15.4210043,42.0603997 15.4210043,42.0194651 15.4414025,41.9989977 C15.4618006,41.9785304 15.502597,41.958063 15.5433933,41.958063 C15.7065785,41.9785304 16.0533471,41.958063 16.3797176,41.7738569 C16.706088,41.5691834 16.9304677,41.2417058 17.0120603,40.8118915 C17.1140511,40.4230119 17.0528566,40.0545997 16.828477,39.7271221 C16.3593194,39.0312323 15.380208,38.6832874 15.2986154,38.66282 C15.2578191,38.66282 15.237421,38.6218853 15.2170228,38.601418 C15.1966246,38.5604833 15.2170228,38.5195486 15.237421,38.4990812 C15.4618006,38.2739404 15.6045877,38.0078649 15.6861803,37.721322 C15.91056,36.9435628 15.502597,36.2681403 15.4210043,36.1453362 C15.0946339,35.6541199 14.6458745,35.4903811 13.9931336,35.2652403 C13.7687539,35.1833709 13.523976,35.1015015 13.2588,34.9991648 C12.3816794,34.5693504 11.5045588,34.0167321 10.6682345,33.3208422 Z"/>
      <path fill="#F38484" fill-rule="nonzero" d="M15.5229951 38.6423527C15.5229951 38.6423527 15.502597 38.6423527 15.5229951 38.6423527 14.6662726 38.4786139 11.2597809 37.0458995 10.7498271 36.718422 10.7090308 36.6774873 10.6886326 36.6160852 10.7294289 36.5751505 10.7702252 36.5342158 10.8314197 36.5137485 10.872216 36.5546832 11.3413736 36.8616934 14.7274671 38.2944078 15.5433933 38.4376792 15.6045877 38.4581465 15.6249859 38.4990812 15.6249859 38.5604833 15.6045877 38.601418 15.5637914 38.6423527 15.5229951 38.6423527zM15.6657822 42.1627365C15.645384 42.1627365 15.6249859 42.1627365 15.6045877 42.1422691 14.2991059 41.2826405 11.3617717 40.1569364 10.2602714 39.7271221 10.1174843 39.6657201 9.9950954 39.6247854 9.91350279 39.5838507 9.85230833 39.5633833 9.83191017 39.5019813 9.85230833 39.4610466 9.87270648 39.3996445 9.93390094 39.3791772 9.97469725 39.3996445 10.0562899 39.4405792 10.1786788 39.4815139 10.3214659 39.542916 11.4229662 39.9727303 14.3806985 41.0984344 15.7065785 41.9785304 15.7473748 42.0194651 15.767773 42.0808671 15.7269766 42.1218018 15.7269766 42.1422691 15.6861803 42.1627365 15.6657822 42.1627365zM11.7289385 44.2299386C11.7289385 44.2299386 11.7289385 44.2299386 11.7289385 44.2299386 11.667744 44.2299386 11.6269477 44.1890039 11.6269477 44.1276019 11.6269477 43.9229284 11.5045588 43.6977876 11.2189846 43.4521794 10.4642529 42.8176916 9.01598402 42.36741 8.79160432 42.4083447 8.73040986 42.428812 8.68961355 42.3878773 8.6692154 42.3264753 8.64881725 42.2650732 8.68961355 42.2241385 8.75080802 42.2036712 9.03638217 42.1422691 10.5662437 42.6334855 11.3413736 43.2884406 11.667744 43.5749835 11.8309293 43.8615264 11.8309293 44.1276019 11.8309293 44.1890039 11.7901329 44.2299386 11.7289385 44.2299386zM19.4394406 40.7504895C19.4190425 40.7504895 19.4190425 40.7504895 19.3986443 40.7504895 19.0110794 40.5662834 18.684709 40.3002078 18.4399311 39.9727303 18.2359496 39.7271221 18.0931625 39.4405792 18.0115699 39.133569 17.23644 36.2272056 15.6657822 35.776924 15.0742357 35.6131852 14.9926431 35.5927178 14.9314486 35.5722505 14.8906523 35.5517831 14.8294579 35.5313158 14.8090597 35.4699138 14.8294579 35.4085117 14.849856 35.3471097 14.9110505 35.3266423 14.9722449 35.3471097 15.0130413 35.367577 15.0538376 35.367577 15.115032 35.3880444 15.6657822 35.5517831 17.3792271 36.0225321 18.1951533 39.0516996 18.2767459 39.3382425 18.419533 39.604318 18.5827182 39.8294588 18.8070979 40.1364691 19.1130702 40.3820772 19.480237 40.545816 19.5210333 40.5662834 19.5618296 40.6276854 19.5210333 40.6890874 19.5210333 40.7300221 19.480237 40.7504895 19.4394406 40.7504895zM13.2791982 37.250573C13.2384019 37.250573 13.1772074 37.2096383 13.1772074 37.1687036 13.0956148 36.6160852 13.2588 36.1248689 13.6259668 35.9611301 13.7483557 35.8997281 13.8911428 35.8792607 14.0339299 35.8997281 14.1971151 35.9201954 15.0538376 36.247673 15.237421 36.3500097 15.2782173 36.3704771 15.2986154 36.4523464 15.2782173 36.4932811 15.2578191 36.5342158 15.1762265 36.5546832 15.1354302 36.5342158 14.9926431 36.4523464 14.1563188 36.1453362 14.0135317 36.1248689 13.8911428 36.1044015 13.789152 36.1248689 13.7075594 36.1658036 13.4423834 36.309075 13.2995963 36.718422 13.3607908 37.1687036 13.4015871 37.189171 13.3607908 37.250573 13.2791982 37.250573 13.2995963 37.250573 13.2995963 37.250573 13.2791982 37.250573zM15.8289674 41.2621732C15.7881711 41.2621732 15.7473748 41.2621732 15.7065785 41.2417058 15.4618006 41.1803038 14.5234856 40.7300221 14.4010966 40.6072181 13.9115409 40.3206752 13.8503465 39.8294588 14.0339299 39.4815139 14.2175133 39.1131017 14.6458745 38.8674935 15.115032 39.072167 15.2986154 39.1131017 16.2369305 39.5224486 16.4205139 39.6861874 16.4613102 39.7271221 16.4613102 39.7885241 16.440912 39.8294588 16.4001157 39.8703935 16.3389213 39.8703935 16.298125 39.8499262 16.1349397 39.7066547 15.1966246 39.2973078 15.0742357 39.2768404 15.0742357 39.2768404 15.0538376 39.2768404 15.0538376 39.2768404 14.7070689 39.1131017 14.3806985 39.3177751 14.2379114 39.5838507 14.1155225 39.8294588 14.1155225 40.2183384 14.5438837 40.4639466 14.6866708 40.5662834 15.5637914 41.016565 15.7881711 41.0574997 15.8697637 41.0779671 15.9309582 41.0574997 16.0125508 41.0370324 16.2573286 40.955163 16.3185231 40.6481527 16.3185231 40.6276854 16.3389213 40.5662834 16.3797176 40.545816 16.440912 40.545816 16.5021065 40.5662834 16.5225046 40.6072181 16.5225046 40.6686201 16.5225046 40.7095548 16.4205139 41.0984344 16.0737453 41.2212385 15.9717545 41.2417058 15.91056 41.2621732 15.8289674 41.2621732zM14.4010966 43.9843304C14.3806985 43.9843304 14.3399022 43.9843304 14.319504 43.9843304 14.0747262 43.9433957 13.1160129 43.5340488 12.9732259 43.4317121 12.463272 43.1861039 12.3816794 42.6948875 12.5448646 42.3264753 12.7080499 41.958063 13.1160129 41.6715201 13.5851705 41.8352589 13.7687539 41.8761936 14.7274671 42.2036712 14.9314486 42.3469426 14.9722449 42.3878773 14.9926431 42.4492794 14.9518468 42.4902141 14.9110505 42.5311487 14.849856 42.5516161 14.8090597 42.5106814 14.6458745 42.3878773 13.6667631 42.0399324 13.5443742 42.0194651 13.5443742 42.0194651 13.523976 42.0194651 13.523976 42.0194651 13.1568093 41.8761936 12.8508369 42.1013344 12.728448 42.3878773 12.6264573 42.6539528 12.6468554 43.0223651 13.0752166 43.2475059 13.2180037 43.3498427 14.1359206 43.7387223 14.3603003 43.7591896 14.4418929 43.7591896 14.5030874 43.7591896 14.58468 43.7387223 14.6458745 43.7182549 14.7070689 43.6568529 14.7682634 43.5954508 14.8090597 43.5545161 14.8702542 43.5340488 14.9110505 43.5749835 14.9518468 43.6159182 14.9722449 43.6773202 14.9314486 43.7182549 14.8702542 43.8205917 14.7682634 43.8819937 14.6662726 43.9433957 14.5642819 43.9638631 14.4826893 43.9843304 14.4010966 43.9843304z"/>
      <path fill="#F38484" fill-rule="nonzero" d="M10.9538086 44.7006876C10.9334105 44.7006876 10.9334105 44.7006876 10.9538086 44.7006876 10.7498271 44.6802203 10.5662437 44.6392856 10.4030585 44.5778835 10.0970862 44.4550794 9.83191017 44.2708733 9.60753048 44.0252651 9.56673417 43.9638631 9.42394709 43.7387223 9.52593786 43.4317121 9.62792863 43.1247018 9.91350279 43.0223651 9.95429909 43.0223651 10.0154936 43.0018977 10.0562899 43.0428324 10.076688 43.0837671 10.0970862 43.1451692 10.0562899 43.1861039 10.0154936 43.2065712 10.0154936 43.2065712 9.79111386 43.2679733 9.7299194 43.4931141 9.66872494 43.6977876 9.77071571 43.8615264 9.79111386 43.8819937 9.97469725 44.0866672 10.2398732 44.250406 10.5050492 44.3732101 10.6682345 44.4346121 10.8314197 44.4755468 10.9946049 44.4960141 11.0557994 44.4960141 11.0965957 44.5574162 11.0965957 44.5983509 11.0354013 44.6597529 10.9946049 44.7006876 10.9538086 44.7006876zM12.5652628 32.0928014C11.9737163 32.0928014 11.137392 31.8881279 10.8518179 31.7448565 10.8110216 31.7243891 10.7702252 31.6629871 10.8110216 31.601585 10.8314197 31.5606503 10.8926142 31.5197156 10.9538086 31.5606503 11.2597809 31.7039218 12.2184942 31.9495299 12.7692443 31.8881279 12.9528277 31.8471932 12.993624 31.6629871 12.993624 31.6629871 12.993624 31.601585 13.0344203 31.5606503 13.0956148 31.5606503 13.1568093 31.5606503 13.1976056 31.601585 13.1976056 31.6629871 13.1976056 31.7448565 13.1160129 32.0313993 12.8100406 32.0928014 12.7080499 32.0928014 12.6468554 32.0928014 12.5652628 32.0928014z"/>
      <path fill="#BF2652" d="M67.4362967,69.8141234 C66.3959909,72.3520745 64.9069257,75.381242 62.6835269,78.5332135 C61.3168506,80.4776116 60.174554,81.8693912 58.8690721,83.2611709 C57.9919515,83.3021056 57.3392106,83.1178995 57.0332383,82.8722913 C56.2173121,82.2582708 56.1969139,81.6442504 55.278997,81.0711647 C54.7894413,80.7641545 54.6670524,80.8664912 54.1367004,80.6004157 C53.6063484,80.3343402 52.7292278,79.6998524 52.4640518,78.5127462 C53.9327189,77.2847053 55.544173,75.7291869 57.2780161,73.2526378 C59.1342481,70.6123499 60.1949521,68.0948662 60.847693,66.2323375 C61.2760543,66.2118702 62.1327767,66.2118702 63.09149,66.6007498 C63.9278143,66.9486947 64.4785644,67.4603784 64.7641386,67.7878559 C65.0701109,67.8083233 65.478074,67.8901927 65.9064352,68.1153335 C66.8651484,68.6270172 67.2935097,69.5071132 67.4362967,69.8141234 Z"/>
      <path fill="#EA2856" d="M56.0949232 80.3138728C56.074525 80.3138728 56.0541269 80.3138728 56.0337287 80.2934055 55.9929324 80.2524708 55.9929324 80.1910687 56.0133306 80.150134 57.7267755 78.1443339 59.3586278 75.9952624 60.8272949 73.8052562 61.908397 72.2088031 62.9283047 70.5304806 63.8462217 68.8316907 63.8666198 68.790756 63.9278143 68.7702886 63.9890087 68.790756 64.029805 68.8112233 64.0502032 68.8726254 64.029805 68.9340274 63.09149 70.6328173 62.0715823 72.3111398 60.9904801 73.9075929 59.521813 76.1180665 57.8899607 78.2466707 56.1561176 80.2729381 56.1561176 80.3138728 56.1357195 80.3138728 56.0949232 80.3138728zM60.5009244 83.916126C60.4805263 83.916126 60.43973 83.916126 60.4193318 83.8956587 60.3785355 83.854724 60.3785355 83.7933219 60.4193318 83.7523872 62.4999435 81.7056525 64.294981 79.3723748 65.7636481 76.8753584 66.7427595 75.2175032 67.5586857 73.4573113 68.2318247 71.6357173 68.2522229 71.5743153 68.3134174 71.5538479 68.3542137 71.5743153 68.4154081 71.5947826 68.4358063 71.6561847 68.4154081 71.6971194 67.742269 73.5187133 66.9059447 75.2993726 65.9268333 76.9572278 64.4581663 79.4951789 62.6427306 81.8079892 60.5417207 83.8751913 60.5621189 83.8956587 60.5213226 83.916126 60.5009244 83.916126z"/>
      <g transform="translate(117.493 88.01)">
        <path fill="#BF2652" d="M6.0582517,87.2318364 C7.79209478,77.1004992 7.56771509,68.9544948 7.01696494,63.3464415 C5.75227939,50.4110777 1.30548185,37.1073016 0.815926155,32.543083 C-0.224379693,25.5023154 2.32036612e-14,21.2655744 0.407963078,17.7656579 C1.12189846,21.245107 2.24379693,26.3824113 3.85525108,32.543083 C7.89408555,47.9959306 10.341864,52.0894002 11.2801791,59.1915699 C12.1572997,65.7001865 11.7901329,75.0946991 6.0582517,87.2318364 Z"/>
        <path fill="#F95070" d="M8.15926155,0.143271435 C9.83191017,2.04673478 11.8921237,4.13440426 14.3399022,6.22207373 C17.8075883,9.14890447 21.1732837,11.3184433 24.0698216,12.9148965 C24.2738031,13.0172332 24.518581,13.1400373 24.7633588,13.3242434 C25.2121182,13.651721 25.5180905,13.9996659 25.7424702,14.2862088 C23.7026548,17.0697681 21.5200523,20.5492172 19.623024,24.7859582 C15.7065785,33.5255157 14.7682634,41.5487161 14.6254763,46.9316285 C14.3806985,53.7063207 15.1558283,58.9868964 15.8697637,62.4663455 C17.4404216,70.0187969 19.623024,73.3754419 21.071293,81.5214463 C22.009608,86.7201527 22.131997,91.0387631 22.1115988,93.740453 C21.4588579,91.7755876 19.1742646,90.7522202 16.8692733,89.8516569 C11.93292,87.8867915 8.15926155,87.4774445 5.85427016,87.5183792 C9.1995674,77.0595645 9.75031756,69.0363642 9.1995674,62.1593353 C8.26125232,50.5338817 3.77365847,42.4492794 1.69304677,33.2594402 C0.469157539,26.832693 -0.958713232,20.3445437 1.060704,12.1371373 C1.89702831,8.73955751 3.08012124,6.05833495 3.97764001,4.27767569 C5.38511262,2.90636339 6.77218709,1.53505109 8.15926155,0.143271435 Z"/>
        <path fill="#EA2856" d="M3.38609354 5.5671186C3.61047324 5.50571656 3.97764001 5.44431452 4.34480678 5.5671186 5.01794586 5.79225943 5.34431632 6.46768191 5.58909416 6.93843091 5.58909416 6.93843091 6.18064063 8.12553708 7.28214094 9.8447943 7.73090032 10.5406841 8.54682648 11.3798454 10.1174843 11.9938658 10.5254474 12.1576046 10.9742068 11.8505944 10.9742068 11.4207801 10.9742068 10.7658249 10.9538086 10.0904025 10.9130123 9.39451264 10.7702252 6.57001865 10.3214659 4.05253487 9.77071571 1.882996 8.07766894 2.21047356 6.38462217 2.51748378 4.67117724 2.84496135 4.24281601 3.74552465 3.81445478 4.64608795 3.38609354 5.5671186zM16.7876806 32.8091585C16.2165323 34.835426 15.5637914 37.4961812 15.1354302 40.6890874 14.9926431 41.7943242 14.4214948 46.0924673 14.7274671 52.0075308 14.9314486 56.080533 15.5637914 61.729521 17.4812179 68.2995396 18.4399311 70.8374908 19.092672 73.027497 19.5414314 74.6444175 19.8678019 75.851991 21.1732837 80.7846218 21.8056265 87.620716 22.0300062 90.1381998 22.1115988 92.2463366 22.1523951 93.7609203 21.9892099 92.8194223 21.1324874 92.1849345 20.2961631 91.5504468 18.7663016 90.4042753 16.7264862 89.7493201 15.6861803 89.3399732 15.7881711 87.682118 15.8901619 85.0418301 15.6861803 81.8079892 15.3190136 75.7087195 14.1971151 72.556748 13.2180037 66.4779457 12.8916333 64.4312109 12.0757071 59.0073637 12.0553089 54.1770697 12.0145126 49.490047 12.6876517 42.0399324 16.7876806 32.8091585zM5.03834401 36.4728138C4.9975477 36.4728138 4.95675139 36.4523464 4.93635324 36.4114118 2.89653785 30.2302727 2.121408 23.9263296 2.63136185 17.6428538 2.83534339 15.0230333 3.28410278 12.4032128 3.9368437 9.8447943 3.95724185 9.78339225 3.99803816 9.76292491 4.05923262 9.76292491 4.12042708 9.78339225 4.14082524 9.82432695 4.14082524 9.88572899 3.48808431 12.4236801 3.05972308 15.0435006 2.83534339 17.6428538 2.32538954 23.9058622 3.10051939 30.189338 5.14033478 36.3295424 5.16073293 36.3909444 5.11993662 36.4318791 5.07914032 36.4523464 5.05874216 36.4728138 5.05874216 36.4728138 5.03834401 36.4728138z"/>
      </g>
      <g transform="translate(119.941 77.571)">
        <path fill="#FC6C85" d="M0.713935386,0.0818693912 C1.24428739,0.675422478 2.20300062,1.35084496 2.97813047,2.49701643 C6.73139078,7.4910493 8.20005786,13.2014393 7.50652063,19.9556641 C7.48612247,20.1808049 7.22094647,20.303609 7.03736309,20.1808049 C5.95626093,19.4235131 5.16073293,18.5638845 4.42639939,16.9264966 C3.9368437,15.8212599 3.26370462,14.5727516 1.32588,15.2686415 C1.75424123,14.0406006 1.95822277,12.9967659 2.0806117,12.300876 C2.42738031,10.2746086 3.03932493,6.75422478 1.18309293,3.80692669 C0.775129848,3.15197156 0.346768616,2.70168991 0.0815926155,2.43561439 C0.305972308,1.65785517 0.509953847,0.880095956 0.713935386,0.0818693912 Z"/>
        <path fill="#BF2652" d="M0.652740924,0.982432695 C1.71344493,2.57888582 2.24379693,4.05253487 2.50897293,5.05543491 C2.81494524,6.16067169 3.61047324,9.14890447 2.50897293,12.5874189 C2.14180616,13.7745251 1.63185231,14.6750884 1.26468554,15.2891088 C1.65225046,14.0610679 2.0806117,12.1166699 1.8154357,9.76292491 C1.69304677,8.69862282 1.44826893,7.75712482 1.20349108,6.99983295 C0.877120617,6.30394313 0.448759385,5.15777165 0.387564924,3.68412261 C0.326370462,2.55841848 0.489555693,1.63738782 0.652740924,0.982432695 Z"/>
      </g>
      <path fill="#EA2856" d="M134.892992,184.656412 C134.852195,184.656412 134.811399,184.615477 134.791001,184.574543 C134.770603,184.513141 134.811399,184.472206 134.872593,184.451738 C137.850724,183.837718 139.523373,182.937155 139.543771,181.89332 C139.584567,180.419671 136.606437,178.536675 131.608889,176.87882 L131.425305,176.837885 C129.303897,176.264799 127.468064,175.773583 123.429229,175.609844 C123.388433,175.609844 123.368035,175.589377 123.347637,175.56891 C123.327238,175.548442 123.327238,175.507507 123.327238,175.48704 C125.509841,168.835152 126.223776,162.961023 126.468554,160.05466 C126.978508,153.791651 126.448156,148.797619 126.203378,146.955557 C125.326257,140.508343 123.510822,135.289169 122.898877,133.569912 C121.736182,130.254201 118.982432,122.046795 118.350089,117.38024 C117.636153,112.570413 117.065005,108.763486 117.799339,103.687584 C118.2277,100.637949 119.104821,97.5269123 120.287913,94.681951 C120.736673,93.5971815 121.246627,92.5328794 121.797377,91.4890447 C122.470516,89.8516569 123.490424,86.5154792 122.470516,82.7290198 C122.082951,81.2758382 121.43021,79.8840585 120.553089,78.6150829 C120.512293,78.5741482 120.532691,78.5127462 120.573488,78.4718115 C120.614284,78.4308768 120.675478,78.4513442 120.716275,78.4922788 C121.613793,79.7817218 122.266534,81.1939688 122.654099,82.6676178 C123.674007,86.5154792 122.654099,89.8925916 121.960562,91.5709141 C121.409812,92.6147488 120.899858,93.6790509 120.451099,94.743353 C119.268006,97.567847 118.411283,100.658417 117.982922,103.687584 C117.268987,108.743019 117.819737,112.529478 118.533672,117.339305 C119.145617,121.964926 121.919766,130.172332 123.062062,133.488042 C123.674007,135.2073 125.489443,140.446941 126.366563,146.914623 C126.611341,148.777151 127.141693,153.771184 126.652137,160.05466 C126.427758,162.961023 125.713822,168.794217 123.551618,175.405171 C127.50886,175.589377 129.324296,176.080593 131.445704,176.633212 L131.649685,176.694614 C136.810418,178.413871 139.76815,180.296867 139.727354,181.89332 C139.706956,183.039491 138.034307,184.001457 134.892992,184.635945 C134.91339,184.656412 134.91339,184.656412 134.892992,184.656412 Z"/>
      <g transform="translate(65.07 82.483)">
        <path fill="#F95070" d="M37.3286216,3.95019813 C37.2674271,5.03496756 37.1654364,6.63142069 36.9002604,8.51441669 C35.6355748,17.7042559 32.2698794,24.4994153 29.6793139,29.2273727 C22.3359785,42.3469426 19.092672,43.8615264 12.7080499,55.548382 C9.68912309,61.2383046 6.67019632,67.0305641 4.85476062,75.0332971 C3.01892677,83.0769648 3.10051939,90.3019385 3.75326031,95.9509265 C3.44728801,96.2988714 2.28459323,97.035696 1.79503754,97.1994347 C0.611944616,92.389608 0.244777847,88.3575405 0.122388923,85.4921118 C-0.36716677,74.0508644 2.54976924,64.9224273 4.65077909,58.5980168 C6.62940001,52.6215512 7.26174278,52.6010839 9.36275263,46.256206 C12.1165034,37.9464628 13.6259668,30.598685 14.2583096,25.9116623 C16.1553379,22.6368867 17.8075883,19.2188396 19.6434222,15.1458374 C22.0708025,9.72199021 23.86584,4.6256206 25.2121182,0.0409346956 C26.4360074,0.0409346956 27.7210911,0.102336739 29.0877674,0.225140826 C31.9231108,0.470749 34.4524819,0.961965347 36.6350844,1.51458374 C36.8594641,2.3128103 37.0838438,3.13150421 37.3286216,3.95019813 Z"/>
        <path fill="#EA2856" d="M37.1042419 5.42384717C36.6146862 5.32151043 34.3504911 4.05253487 31.2295736 7.22497378 30.5972308 7.75712482 29.8017028 8.53488404 29.0061748 9.55825143 28.8225914 9.8038596 28.4350265 9.64012082 28.496221 9.3331106 28.5574154 8.94423099 28.6594062 8.53488404 28.761397 8.10506973 29.6589157 4.76889204 31.6987311 2.55841848 32.9838148 1.39177965 34.4320838 1.90346335 35.8803527 2.39467969 37.3490198 2.90636339 37.247029 3.64318791 37.1654364 4.6665553 37.1042419 5.42384717zM14.2991059 25.7683909C13.2588 35.1015015 8.71001171 48.3029408 8.24085417 49.5309817 7.32293724 51.843792 1.57065785 64.4516783.326370462 77.7145196 1.20349108 73.8052562 2.67215816 67.8083233 5.34431632 60.9926965 8.46523386 53.0513655 10.8926142 49.4491123 13.1976056 44.2708733 15.8289674 38.3353424 18.6031163 29.3501768 18.9090886 16.8446272 17.3384308 19.8123927 15.8493656 22.8210928 14.2991059 25.7683909zM19.5210333 40.3820772C19.5006351 40.3820772 19.480237 40.3820772 19.4598388 40.3616099 19.4190425 40.3206752 19.4190425 40.2592731 19.4394406 40.2183384 24.1922105 34.5488831 27.9862671 28.2244726 30.7196197 21.4702479 32.1066942 18.0522008 33.2081945 14.4704149 34.0241207 10.8476943 34.0445188 10.7862923 34.0853151 10.7658249 34.1465096 10.7658249 34.2077041 10.7862923 34.2281022 10.827227 34.2281022 10.888629 33.4121761 14.5113496 32.3106757 18.0931355 30.9236013 21.5316499 28.1902487 28.3268094 24.396192 34.6512198 19.623024 40.3411425 19.5822277 40.3616099 19.5414314 40.3820772 19.5210333 40.3820772z"/>
        <path fill="#EA2856" d="M1.08110216,85.1236995 C1.08110216,85.1236995 1.08110216,85.1236995 1.08110216,85.1236995 C1.01990769,85.1236995 0.979111386,85.0827648 0.979111386,85.0213628 C1.18309293,80.9892953 1.73384308,76.9776951 2.63136185,73.1298337 C5.05874216,62.7119537 9.58713232,55.0981003 11.9941145,51.0046307 C13.4831797,48.487147 15.115032,46.0310652 16.8080788,43.6773202 C16.8488751,43.6363855 16.9100696,43.6159182 16.9508659,43.6568529 C16.9916622,43.6977876 17.0120603,43.7591896 16.971264,43.8001243 C15.2578191,46.133402 13.6463649,48.609951 12.1572997,51.1069675 C9.7299194,55.1799697 5.22192739,62.7733557 2.81494524,73.1707684 C1.91742646,77.0186298 1.36667631,81.0097626 1.16269477,85.0213628 C1.18309293,85.0827648 1.12189846,85.1236995 1.08110216,85.1236995 Z"/>
      </g>
      <g transform="translate(94.647 77.98)">
        <path fill="#FC6C85" d="M10.5866419,0.0614020434 C6.71099263,0.798226565 1.77463939,7.08170234 0.203981539,11.297976 C0.142787077,11.4412474 0.326370462,11.5435842 0.428361232,11.4207801 C0.877120617,10.8681617 1.48906523,10.2541413 2.28459323,9.72199021 C2.81494524,9.35357795 4.34480678,8.02320034 6.3234277,8.4325473 C6.95577047,8.57581873 7.44532617,8.8623616 7.69010401,9.06703508 C7.66970586,8.10506973 7.73090032,6.44721456 8.56722463,4.56421856 C9.26076186,3.00870013 10.1786788,1.92393069 10.8110216,1.28944291 C10.7498271,0.900563304 10.6682345,0.491216347 10.5866419,0.0614020434 Z"/>
        <path fill="#BF2652" d="M10.7294289,0.65495513 C10.1990769,1.24850822 9.58713232,2.02626743 9.07717848,3.00870013 C7.77169663,5.48524921 7.64930771,7.83899421 7.71050217,9.14890447 C7.97567817,8.59628608 8.44483571,7.81852686 9.21996555,7.08170234 C9.62792863,6.69282273 10.0358917,6.40627986 10.3826603,6.18113904 C10.5050492,4.33907774 10.60704,2.49701643 10.7294289,0.65495513 Z"/>
      </g>
      <path fill="#EA2856" d="M68.8233712,178.393404 C68.7825749,178.393404 68.7213804,178.352469 68.7213804,178.311534 C68.1094358,173.235632 68.129834,168.118795 68.7825749,163.083827 C69.1089454,160.525409 70.0268623,155.34717 72.2910574,149.2479 C74.1268912,144.356204 76.0647158,140.897222 77.941346,137.561045 C79.8995688,134.102063 81.4906248,131.686916 83.5304401,128.637281 C85.7334408,125.321571 86.9981263,123.643248 88.0996266,122.149132 C89.2419232,120.614081 90.139442,119.406507 91.6489054,116.970893 C94.91261,111.751719 96.7892402,107.678717 97.6255645,105.734319 C99.5837873,101.149633 100.522102,97.6292491 100.930065,95.9509265 C101.480816,93.5562468 101.909177,90.9364263 102.09276,88.5826813 C102.153955,87.8049221 102.194751,87.0066955 102.235547,86.2494037 C102.296742,84.2640709 102.827094,82.3401402 103.765409,80.6822851 C104.173372,79.9659279 104.662928,79.2905054 105.213678,78.6560176 C105.254474,78.6150829 105.315668,78.6150829 105.356465,78.6560176 C105.397261,78.6969523 105.397261,78.7583544 105.356465,78.7992891 C104.805715,79.4133095 104.316159,80.0682646 103.928594,80.7846218 C103.010677,82.4015423 102.480325,84.3050056 102.419131,86.269871 C102.398732,87.0476302 102.337538,87.8458568 102.276344,88.623616 C102.072362,90.977361 101.664399,93.6176489 101.113649,96.0327959 C100.726084,97.7315858 99.7673706,101.272437 97.8091479,105.857123 C96.9728236,107.821988 95.0757952,111.89499 91.8120906,117.134632 C90.2822291,119.590713 89.3847103,120.798287 88.2424137,122.333338 C87.1409134,123.827454 85.896626,125.505777 83.6936254,128.821487 C81.6742081,131.871122 80.062754,134.265802 78.1249294,137.724783 C76.2482992,141.060961 74.3104746,144.499476 72.4950389,149.391172 C70.2308438,155.469974 69.333325,160.648213 68.9865564,163.186164 C68.3338155,168.200664 68.3134174,173.297034 68.925362,178.352469 C68.9457601,178.332001 68.9049638,178.372936 68.8233712,178.393404 C68.8437694,178.393404 68.8437694,178.393404 68.8233712,178.393404 Z"/>
      <g fill-rule="nonzero" transform="translate(99.543 42.572)">
        <path fill="#353437" d="M4.40600124,11.2161066 C3.9368437,11.1751719 2.79454708,10.9909658 1.75424123,10.1108698 C0.122388923,8.73955751 0.0203981539,6.75422478 0.0203981539,6.42674721 C0.224379693,6.63142069 0.63234277,6.95889826 1.20349108,7.16357173 C1.97862093,7.42964725 2.65176,7.32731052 2.93733416,7.24544112 C2.63136185,6.73375743 2.3457877,6.0788023 2.121408,5.32151043 C1.52986154,3.35664504 1.73384308,1.63738782 1.93782462,0.634487782 C2.06021354,1.04383474 2.36618585,1.86252865 3.12091754,2.55841848 C4.34480678,3.66365526 5.81347386,3.66365526 6.13984432,3.66365526 C5.7930757,3.21337361 5.30352001,2.47654908 5.03834401,1.45318169 C4.91595509,0.961965347 4.87515878,0.532151043 4.85476062,0.163738782 C5.18113109,0.470749 5.71148309,0.900563304 6.40502032,1.26897556 C7.46572432,1.82159396 8.56722463,2.06720213 10.7090308,2.19000622 C12.993624,2.3128103 12.9732259,2.08766948 14.8294579,2.19000622 C16.7468843,2.29234295 18.3583385,2.37421235 20.153376,3.19290626 C21.0304967,3.60225321 22.397173,4.25720834 23.457877,5.77179208 C24.5593773,7.36824521 24.7225625,9.00563304 24.7429607,9.72199021 C25.4976924,10.2541413 26.5787945,11.1547046 27.4967114,12.5669516 C29.6385176,15.8826619 29.1897582,19.3825784 29.0469711,20.3854784 C28.6798044,22.9848316 27.3539244,26.0549338 25.4772942,27.5695175 C24.783757,28.1221359 23.8454419,28.5928849 23.2742936,29.7799911 C23.0295157,30.2712074 22.8255342,30.9261625 22.1727933,31.6220524 C21.8260247,31.9699973 21.4996542,32.2156055 21.2548763,32.3588769 C21.5404505,31.0899013 22.7439416,25.011099 19.0518757,19.1983722 C14.1971151,11.5231168 5.14033478,11.2161066 4.40600124,11.2161066 Z"/>
        <path fill="#F38484" d="M23.600664,27.0168991 C23.2538954,27.6104522 22.7847379,28.4700808 22.3563767,29.5753176 C20.948904,33.1775708 21.0100985,36.3295424 21.0508948,37.8645934 C21.0916911,38.8879608 21.1936819,40.3002078 21.5404505,41.9375957 C18.2359496,48.9783633 6.8129834,48.4257449 5.30352001,41.9989977 C5.42590893,40.7709568 5.67068678,37.5575832 5.7930757,36.3295424 C5.77267755,36.1453362 5.7930757,34.7944913 3.95724185,34.0781341 C2.24379693,33.3822443 2.22339877,32.9319626 2.22339877,32.7477565 C2.22339877,31.7448565 2.28459323,31.4173789 3.03932493,30.598685 C7.44532617,25.9730644 15.6657822,24.3152092 21.5608487,26.1777378 C22.4991637,26.4847481 23.2334973,26.832693 23.600664,27.0168991 Z"/>
        <path fill="#828282" fill-opacity=".3" d="M23.600664,27.0168991 C23.2538954,27.6104522 22.7847379,28.4700808 22.3563767,29.5753176 C22.2951822,29.7390564 22.2339877,29.9027951 22.1727933,30.0665339 C20.7041262,34.4056117 13.3403926,37.9259955 5.60949232,35.5927178 C5.42590893,35.1015015 4.97714955,34.4874811 3.9368437,34.0986015 C2.22339877,33.4027116 2.20300062,32.95243 2.20300062,32.7682238 C2.20300062,31.7653238 2.26419508,31.4378462 3.01892677,30.6191523 C7.42492801,25.9935317 15.645384,24.3356765 21.5404505,26.1982052 C22.4991637,26.4847481 23.2334973,26.832693 23.600664,27.0168991 Z" style="mix-blend-mode:normal"/>
        <path fill="#F7B2B2" d="M5.42590893,10.9909658 C4.28361232,12.5464842 3.1413157,14.12247 1.97862093,15.6779884 C1.856232,15.9645313 1.77463939,16.2715415 1.71344493,16.6399538 C1.44826893,18.1136028 1.95822277,19.362111 2.26419508,19.9556641 C1.856232,20.242207 1.24428739,20.7948254 0.815926155,21.6749213 C0.285574154,22.8006255 0.387564924,23.8649275 0.469157539,24.6426868 C0.63234277,26.1368032 1.12189846,26.5461501 1.63185231,28.5724175 C1.856232,29.4934482 1.95822277,31.3559768 1.97862093,31.7448565 C1.99901908,32.2770075 2.14180616,32.7068218 2.24379693,32.9933647 C1.73384308,31.2741075 5.85427016,32.2156055 6.99656678,32.5021483 C7.6085114,32.6658871 10.1174843,33.2799075 12.5040683,33.1980381 C13.8095502,33.1571035 15.6249859,33.0957014 17.2568382,31.8881279 C18.3379403,31.0899013 19.0110794,30.0255992 19.5210333,29.186438 C20.1329779,28.2040053 20.5205428,27.2829746 20.7653207,26.6280195 C20.8673114,26.7712909 22.2543859,28.7975584 24.0086271,26.894095 C24.6205717,26.423346 25.8852573,24.3152092 25.8852573,22.3912785 C25.8852573,21.8795948 25.5588868,20.9176295 24.7021644,20.5492172 C23.7842474,20.1603376 22.8663305,20.7538907 22.7847379,20.8152927 C22.2135896,21.183705 21.2752745,22.4731479 21.2752745,22.4731479 C21.2752745,22.4731479 20.3573576,21.654454 19.5822277,19.3211763 C19.1742646,18.0522008 18.5827182,16.005466 19.215061,13.0172332 C19.2762554,12.6692883 19.4394406,12.1780719 19.7658111,11.6459209 C19.9901908,11.2775086 20.2553668,11.0114331 20.4593483,10.827227 C20.0513853,10.8067596 19.4394406,10.7248903 18.7459034,10.4792821 C17.5424123,10.0699351 16.828477,9.43544734 16.4817083,9.16937182 C14.6050782,7.73665747 11.3821699,7.65478808 9.05678032,8.47348199 C8.26125232,8.76002486 6.8129834,9.39451264 5.42590893,10.9909658 Z"/>
        <ellipse cx="11.206" cy="16.385" fill="#353437" rx="1" ry="1" transform="rotate(-22.829 11.206 16.385)"/>
        <ellipse cx="3.274" cy="17.066" fill="#353437" rx="1" ry="1" transform="rotate(-22.829 3.274 17.066)"/>
        <path fill="#353437" d="M9.28116002 14.6955557C9.83191017 14.5113496 10.1990769 14.3066761 10.7498271 14.12247 11.1985865 13.9791986 11.8513274 13.9996659 12.3204849 14.12247 12.6264573 14.2043394 12.9528277 14.3066761 13.2791982 14.4499476 14.2175133 14.8183598 15.0130413 15.2481741 15.645384 15.6779884 15.7269766 15.7393905 15.8289674 15.6165864 15.767773 15.534717 14.4826893 13.9996659 12.7692443 13.2014393 12.1776979 13.0172332 11.2801791 12.8125597 10.4030585 13.0377006 10.4030585 13.0377006 9.89310463 13.2014393 9.52593786 13.3651781 9.32195632 13.7745251 9.21996555 13.9791986 9.11797479 14.183872 9.01598402 14.3885455 8.91399325 14.5522843 9.09757663 14.7569578 9.28116002 14.6955557zM3.28410278 13.9177965C3.48808431 13.8563945 3.99803816 13.6926557 4.67117724 14.0815353 5.01794586 14.3476108 5.14033478 14.6955557 4.87515878 14.6955557 4.2020197 14.654621 3.81445478 14.7978925 3.44728801 15.0025659 3.18211201 15.1663047 2.40698216 15.6779884 1.67264862 16.8650946 1.856232 15.5551843 2.6109637 14.2862088 3.28410278 13.9177965zM1.97862093 17.5405171C1.93782462 17.5405171 1.89702831 17.5200497 1.87663016 17.4995824 1.77463939 17.4381803 1.75424123 17.3153762 1.8154357 17.2130395 1.95822277 16.9878987 2.14180616 16.7832252 2.36618585 16.6194864 2.73335262 16.3329436 3.08012124 16.2101395 3.32489908 16.1692048 3.89604739 16.0464007 4.36520493 16.1487374 4.67117724 16.2715415 4.77316801 16.3124762 4.83436247 16.4352803 4.79356616 16.537617 4.75276985 16.6399538 4.63038093 16.7013558 4.52839016 16.6604211 4.28361232 16.5580844 3.87564924 16.476215 3.4064917 16.5785517 3.24330647 16.6194864 2.93733416 16.7013558 2.6109637 16.946964 2.42738031 17.0902354 2.28459323 17.2539742 2.16220431 17.4586477 2.121408 17.5200497 2.03981539 17.5405171 1.97862093 17.5405171z"/>
        <path fill="#353437" d="M14.2379114,17.2744416 C14.1767169,17.2744416 14.1359206,17.2539742 14.0951243,17.2130395 C12.0553089,15.1049027 10.9742068,15.8417272 10.60704,16.0873354 C10.5866419,16.1078027 10.5458456,16.1282701 10.5254474,16.1282701 C10.3826603,16.2306068 10.2194751,16.3534109 10.076688,16.476215 C9.87270648,16.6399538 9.66872494,16.8241599 9.42394709,16.9674313 C9.32195632,17.0288334 9.1995674,16.9878987 9.13837294,16.8855619 C9.07717848,16.7832252 9.11797479,16.6604211 9.21996555,16.5990191 C9.42394709,16.476215 9.62792863,16.3124762 9.81151202,16.1692048 C9.97469725,16.0259333 10.1378825,15.9031292 10.3214659,15.7803252 C10.341864,15.7598578 10.3622622,15.7598578 10.3826603,15.7393905 C10.8110216,15.4528476 12.0961053,14.5727516 14.3806985,16.9264966 C14.4622911,17.008366 14.4622911,17.1311701 14.3806985,17.2130395 C14.3399022,17.2539742 14.2787077,17.2744416 14.2379114,17.2744416 Z"/>
        <path fill="#F38484" d="M22.4787656 26.8736277C22.4379693 26.8736277 22.3767748 26.8736277 22.3359785 26.8531603 22.274784 26.832693 22.2543859 26.7917583 22.2543859 26.7303562 22.274784 26.6689542 22.3155803 26.6484868 22.3767748 26.6484868 22.6419508 26.7098889 23.070312 26.4847481 23.3150899 26.2186725 23.335488 26.1982052 24.8449514 24.5198827 24.9061459 22.9029622 24.926544 22.5550173 24.783757 21.5521172 23.9474327 21.4907152 23.8250437 21.4702479 23.600664 21.4702479 23.335488 21.5725846 23.2742936 21.5930519 23.2334973 21.5725846 23.192701 21.5111825 23.1723028 21.4497805 23.192701 21.4088458 23.2538954 21.3679111 23.5598677 21.245107 23.8250437 21.245107 23.9678308 21.2655744 24.9469422 21.3474438 25.1101274 22.4936152 25.1101274 22.8824949 25.048933 24.6017521 23.457877 26.3210093 23.457877 26.3414766 23.2130991 26.6280195 22.805136 26.8736277 22.4787656 26.8736277zM2.57016739 21.5521172C2.44777847 21.1632376 2.44777847 19.6281865 2.75375077 19.300709 3.18211201 18.9936988 3.71246401 19.2802416 3.73286216 19.300709 5.24232555 19.6077192 8.48563202 21.715856 8.42443755 21.9614642 5.97665909 21.245107 3.10051939 21.4702479 2.57016739 21.5521172z"/>
        <path fill="#F38484" d="M2.71295447,19.4644478 C2.69255631,19.4644478 2.67215816,19.4644478 2.65176,19.4439804 C2.6109637,19.4030457 2.6109637,19.3416437 2.63136185,19.300709 L5.5278997,15.8621946 C5.69108493,15.6984558 5.77267755,15.4528476 5.71148309,15.2686415 C5.67068678,15.1458374 5.58909416,15.063968 5.54829786,15.0025659 C5.50750155,14.9616312 5.48710339,14.9002292 5.5278997,14.8592945 C5.56869601,14.8183598 5.62989047,14.7978925 5.67068678,14.8388272 C5.75227939,14.9002292 5.85427016,15.0230333 5.91546463,15.2072394 C5.99705724,15.4733149 5.89506647,15.7803252 5.69108493,16.005466 L2.81494524,19.4439804 C2.75375077,19.4439804 2.73335262,19.4644478 2.71295447,19.4644478 Z"/>
        <path fill="#828282" fill-opacity=".3" d="M6.93537232 21.6135193C6.73139078 21.3883785 6.42541847 21.0404335 5.97665909 20.7948254 5.36471447 20.4673478 4.52839016 20.2217396 4.42639939 20.4468805 4.34480678 20.6310866 4.83436247 21.3883785 5.87466832 21.5111825 6.40502032 21.5521172 6.60900186 21.5725846 6.93537232 21.6135193zM3.44728801 20.3854784C3.52888062 20.5082825 3.48808431 20.6515539 3.42688985 20.8562274 3.32489908 21.1632376 2.8761397 21.5316499 2.8761397 21.5316499L2.52937108 21.5521172C2.52937108 21.5521172 2.52937108 21.2246397 2.65176 20.9585642 2.81494524 20.6106192 3.20251016 20.1194029 3.44728801 20.3854784z" style="mix-blend-mode:normal"/>
        <path fill="#F38484" d="M22.53996 24.5812847C22.4583674 24.5812847 22.3767748 24.5608174 22.2951822 24.54035 22.2339877 24.5198827 22.2135896 24.478948 22.2135896 24.4175459 22.2339877 24.3561439 22.274784 24.3356765 22.3359785 24.3356765 22.5603582 24.3970786 22.8663305 24.3561439 23.0295157 24.1514704 23.192701 23.9467969 23.1519047 23.6193194 22.9071268 23.1895051 22.5195619 22.5140826 22.7031453 22.0023989 22.8459323 21.7772581 22.8663305 21.7363234 22.9479231 21.715856 22.9887194 21.7363234 23.0295157 21.7567907 23.0499139 21.8386601 23.0295157 21.8795948 22.9071268 22.0842683 22.7643397 22.4936152 23.0907102 23.0871683 23.4374788 23.7216561 23.335488 24.0900684 23.192701 24.2742745 23.0499139 24.4994153 22.7847379 24.5812847 22.53996 24.5812847zM6.99656678 32.5226157C7.6085114 32.6863545 10.1174843 33.3003749 12.5040683 33.2185055 13.8095502 33.1775708 15.6249859 33.1161688 17.2568382 31.9085952 18.3379403 31.1103687 19.0110794 30.0460666 19.5210333 29.2069053 20.1329779 28.2244726 20.5205428 27.303442 20.7653207 26.6484868 17.1140511 28.1221359 16.0737453 32.481681 6.99656678 32.5226157zM8.42443755 21.9409969C8.4040394 21.9409969 8.38364125 21.9409969 8.36324309 21.9205295 7.50652063 21.2246397 5.24232555 19.7305233 3.65126954 19.3416437 3.34529724 19.2597743 3.03932493 19.1983722 2.85574154 19.4030457 2.85574154 19.4030457 2.83534339 19.4030457 2.83534339 19.4235131 2.50897293 19.6281865 2.57016739 20.774358 2.69255631 21.4702479 2.69255631 21.5316499 2.67215816 21.5725846 2.6109637 21.5930519 2.54976924 21.5930519 2.50897293 21.5725846 2.48857477 21.5111825 2.44777847 21.3269764 2.18260247 19.6077192 2.71295447 19.2597743 2.99852862 18.9936988 3.42688985 19.0960355 3.69206585 19.1574375 5.30352001 19.5667845 7.6085114 21.0609009 8.48563202 21.7772581 8.52642832 21.8181928 8.52642832 21.8795948 8.50603017 21.9205295 8.48563202 21.9409969 8.44483571 21.9409969 8.42443755 21.9409969z"/>
        <path fill="#F38484" d="M8.44483571,21.8386601 C8.42443755,21.8386601 8.4040394,21.8386601 8.38364125,21.8181928 C8.34284494,21.7772581 8.32244678,21.715856 8.36324309,21.6749213 C8.60802094,21.3679111 8.64881725,20.8766948 8.46523386,20.4264131 C8.28165048,19.9556641 7.8736874,19.6281865 7.38413171,19.5463172 C7.32293724,19.5463172 7.28214094,19.4849151 7.30253909,19.4235131 C7.32293724,19.362111 7.36373355,19.3211763 7.42492801,19.3416437 C7.99607632,19.4235131 8.46523386,19.7919253 8.6692154,20.3445437 C8.87319694,20.8562274 8.81200248,21.4497805 8.52642832,21.7977254 C8.50603017,21.8386601 8.48563202,21.8386601 8.44483571,21.8386601 Z"/>
        <path fill="#FFF" d="M2.26419508,25.0520337 C2.52937108,24.7245562 3.01892677,24.2538072 3.75326031,23.9877316 C4.65077909,23.6602541 5.44630709,23.8239928 6.36422401,24.0286663 C7.09855755,24.1924051 8.17965971,24.5198827 9.38315079,25.2771745 C8.20005786,25.1953052 7.3433354,25.3999786 6.77218709,25.5841848 C6.22143693,25.7683909 5.85427016,25.9935317 5.11993662,26.0754011 C4.77316801,26.1163358 4.22241785,26.1572705 3.56967693,25.9321297 C2.91693601,25.6865215 2.48857477,25.2771745 2.26419508,25.0520337 Z"/>
        <path fill="#F38484" d="M2.40698216,25.1134358 C4.67117724,27.4467134 7.26174278,24.7450235 9.11797479,25.2157725 C8.07766894,25.3999786 5.73188124,27.5081155 3.63087139,26.7098889 C2.63136185,26.3005419 2.3457877,25.3385766 2.40698216,25.1134358 Z"/>
        <path fill="#828282" fill-opacity=".3" d="M1.99901908,25.8707276 C1.97862093,25.8707276 1.95822277,25.8707276 1.95822277,25.8707276 C1.856232,25.8502603 1.77463939,25.7274562 1.8154357,25.6251195 C1.91742646,25.2362398 2.14180616,24.6836215 2.69255631,24.2538072 C3.42688985,23.6807214 4.30401047,23.6602541 4.87515878,23.6397867 C5.99705724,23.598852 6.83338155,23.9058622 7.79209478,24.2742745 C8.60802094,24.5812847 9.38315079,24.949697 10.0970862,25.420446 C10.1990769,25.481848 10.2194751,25.6046521 10.1582806,25.7069888 C10.0970862,25.8093256 9.97469725,25.8297929 9.87270648,25.7683909 C9.15877109,25.3181092 8.42443755,24.949697 7.62890955,24.6631541 C6.71099263,24.3152092 5.91546463,24.0286663 4.87515878,24.069601 C4.32440862,24.0900684 3.56967693,24.1105357 2.93733416,24.6017521 C2.46817662,24.9701643 2.28459323,25.420446 2.20300062,25.7479235 C2.18260247,25.8093256 2.10100985,25.8707276 1.99901908,25.8707276 Z" style="mix-blend-mode:normal"/>
      </g>
      <path fill="#F9C973" fill-rule="nonzero" d="M112.577411,89.7083854 C112.516217,89.7083854 112.455022,89.7083854 112.414226,89.7083854 C111.353522,89.6879181 108.885345,89.6469834 106.84553,87.8253894 C105.948011,87.0066955 105.234076,85.9423935 104.826113,84.7348199 C104.805715,84.6734179 104.826113,84.6324832 104.887307,84.6120158 C104.948502,84.5915485 104.989298,84.6120158 105.009696,84.6734179 C105.417659,85.8400567 106.090798,86.8838915 106.967919,87.6616507 C108.94654,89.4423099 111.37392,89.4832446 112.414226,89.503712 C114.270458,89.5446467 115.739125,89.032963 116.636644,88.623616 C118.839645,87.6002486 120.145126,85.9833281 120.859062,84.796222 C120.87946,84.7552873 120.961053,84.7348199 121.001849,84.7552873 C121.042645,84.7757546 121.063043,84.8371567 121.042645,84.8985587 C120.32871,86.1061322 118.982432,87.7639874 116.738635,88.8078221 C115.820718,89.2171691 114.372449,89.7083854 112.577411,89.7083854 Z"/>
    </g>
    <g fill="#A2E9FC" transform="translate(18 18)">
      <ellipse cx="190.122" cy="42.772" rx="3.666" ry="3.673"/>
      <ellipse cx="281.385" cy="81.606" rx="1.711" ry="1.714"/>
      <ellipse cx="294.969" cy="92.177" rx="5.01" ry="5.02"/>
      <ellipse cx="9.002" cy="18.101" rx="4.196" ry="4.204"/>
      <ellipse cx="1.955" cy="1.796" rx="1.792" ry="1.796"/>
      <ellipse cx="102.464" cy="28.222" rx="8.045" ry="8.061"/>
    </g>
    <g transform="translate(46 144)">
      <g transform="translate(209.5 6.303)">
        <path fill="#F9C973" fill-rule="nonzero" d="M20.0889968,0.325338378 C17.5061258,2.3383696 14.9027558,4.37173446 12.2993858,6.38476568 L9.28603627,5.61208703 C8.58907108,5.42908419 7.58462124,6.22209649 7.60512021,6.93377419 L7.66661714,10.0041551 C5.16574203,11.9561854 2.66486692,13.9082157 0.163991811,15.8602459 C0.799460076,16.7549265 1.41442937,17.6292734 2.04989763,18.5239539 C2.04989763,18.5442876 2.07039661,18.5442876 2.07039661,18.5646212 C2.07039661,18.5646212 2.09089558,18.5849549 2.09089558,18.5849549 C2.09089558,18.5849549 2.09089558,18.5849549 2.09089558,18.5849549 C2.21388944,18.7272904 2.41887921,18.808625 2.70586487,18.7679577 L8.40458029,18.1579482 C8.52757415,18.1376146 8.63006903,18.1579482 8.73256391,18.1782819 C8.85555777,18.808625 8.97855163,19.4186345 9.10154548,20.0489776 C9.6960158,20.8623235 10.2904861,21.7163368 10.8849564,22.5296827 L10.8849564,22.5296827 C10.9259544,22.5906837 10.9669523,22.6516846 11.0079503,22.7126855 C11.0079503,22.7330192 11.0284493,22.7330192 11.0284493,22.7533528 C11.0284493,22.7533528 11.0284493,22.7533528 11.0284493,22.7330192 C11.4384288,23.0380239 12.2993858,22.7533528 12.7503633,22.1026761 L16.1736923,16.8362611 C16.3786821,16.5312564 16.7066657,16.2669189 17.0551483,16.144917 L22.9998514,14.0505512 C23.8608084,13.7455465 24.3527839,12.7695314 23.8813074,12.3628584 C23.2868371,11.5291788 22.7948617,10.7768338 22.1388944,9.88215324 C21.4829272,9.76015135 20.806461,9.63814946 20.1299947,9.51614757 C20.0479988,9.35347838 20.0479988,9.15014189 20.1094958,8.94680541 L21.9954016,3.59905581 C22.0978965,3.33471838 22.0568985,3.11104824 21.9544036,2.9687127 C21.9544036,2.9687127 21.9544036,2.9687127 21.9544036,2.9687127 C21.3394343,2.07403216 20.7244651,1.19968527 20.0889968,0.325338378 Z"/>
        <path fill="#FFF9B0" d="M7.4411284,3.02971365 L12.2173899,4.24973257 C12.5043756,4.31073351 12.8528582,4.22939892 13.1808418,4.02606243 L18.8180603,0.406672973 C19.6380193,-0.122001892 20.4374794,0.244003784 20.1709927,1.03701608 L18.2850869,6.38476568 C18.182592,6.68977041 18.2235899,6.97444149 18.4490787,7.13711068 L22.0159006,9.80081865 C22.5488739,10.187158 22.0363995,11.2038404 21.1549436,11.5088451 L15.2102404,13.6032109 C14.8617578,13.7252128 14.5337742,13.9895503 14.3287844,14.294555 L10.9054554,19.56097 C10.392981,20.3336487 9.28603627,20.5979861 9.04004856,19.9879766 L7.25663762,15.9212469 C7.15414273,15.6772431 6.88765604,15.5552412 6.55967242,15.5959085 L0.860957005,16.205918 C0.0204989763,16.2872526 -0.163991811,15.4332393 0.553472361,14.7622289 L5.41172975,10.1668243 C5.69871542,9.90248689 5.86270723,9.55681487 5.86270723,9.27214379 L5.76021235,4.37173446 C5.73971337,3.63972311 6.74416321,2.84671081 7.4411284,3.02971365 Z"/>
        <path fill="#FFF" fill-opacity=".3" fill-rule="nonzero" d="M7.4411284,3.02971365 L12.2173899,4.24973257 C12.5043756,4.31073351 12.8528582,4.22939892 13.1808418,4.02606243 L18.8180603,0.406672973 C19.6380193,-0.122001892 20.4374794,0.244003784 20.1709927,1.03701608 L18.2850869,6.38476568 C18.182592,6.68977041 18.2235899,6.97444149 18.4490787,7.13711068 C14.1442937,13.948883 8.4865762,8.68246797 6.55967242,15.5959085 L0.860957005,16.205918 C0.0204989763,16.2872526 -0.163991811,15.4332393 0.553472361,14.7622289 L5.41172975,10.1668243 C5.69871542,9.90248689 5.86270723,9.55681487 5.86270723,9.27214379 L5.76021235,4.37173446 C5.73971337,3.63972311 6.74416321,2.84671081 7.4411284,3.02971365 Z" style="mix-blend-mode:lighten"/>
      </g>
      <path fill="#F9C973" fill-rule="nonzero" d="M24.2912869,17.7919426 C21.7699128,15.5145739 19.2690377,13.2168716 16.7476637,10.939503 L16.9526534,7.68611919 C16.9936514,6.93377419 16.0301995,6.0594273 15.3127353,6.20176284 L12.2583878,6.8524396 C9.83950863,4.65640554 7.40013045,2.44003784 4.98125125,0.244003784 C4.22278912,1.05734973 3.44382802,1.87069568 2.6853659,2.68404162 C2.66486692,2.70437527 2.66486692,2.70437527 2.64436794,2.72470892 C2.64436794,2.72470892 2.62386897,2.74504257 2.62386897,2.74504257 C2.62386897,2.74504257 2.62386897,2.74504257 2.62386897,2.74504257 C2.50087511,2.90771176 2.45987716,3.13138189 2.56237204,3.41605297 L4.2432881,9.15014189 C4.28428605,9.27214379 4.28428605,9.39414568 4.28428605,9.49581392 C3.68981574,9.7398177 3.07484645,9.98382149 2.48037613,10.2278253 C1.78341094,11.0005039 1.04544779,11.7731826 0.327983621,12.5458612 L0.327983621,12.5458612 C0.266486692,12.5865285 0.204989763,12.6475295 0.184490787,12.7085304 C0.163991811,12.7288641 0.163991811,12.7288641 0.143492834,12.7491977 C0.143492834,12.7491977 0.143492834,12.7491977 0.163991811,12.7491977 C-0.061496929,13.2168716 0.38948055,14.0708849 1.1274437,14.3962232 L7.05164785,16.9175957 C7.40013045,17.0599312 7.7076151,17.3446023 7.91260486,17.6902743 L11.1309441,23.4243632 C11.6024206,24.2580428 12.6683674,24.5833812 12.975852,24.0140391 C13.6933162,23.2413604 14.3492834,22.5906837 15.1282445,21.7570041 C15.1282445,21.0453264 15.1077455,20.3336487 15.1077455,19.6219709 C15.2512384,19.4999691 15.4562281,19.4593018 15.6817169,19.4999691 L21.4009313,20.4353169 C21.6879169,20.4759842 21.8929067,20.4149832 22.0363995,20.2726477 C22.0363995,20.2726477 22.0363995,20.2726477 22.0363995,20.2726477 C22.7538637,19.4186345 23.5328248,18.6256222 24.2912869,17.7919426 Z"/>
      <path fill="#FFF9B0" d="M19.1870418,5.3070823 L18.8795572,10.4514954 C18.8590582,10.7565001 19.02305,11.1021722 19.2895367,11.4071769 L23.9838023,16.5109227 C24.6807675,17.2632677 24.4552787,18.1579482 23.6148207,18.0156127 L17.8956063,17.0802649 C17.5676227,17.0192639 17.301136,17.1412658 17.1781422,17.3852696 L15.2102404,21.5740012 C14.9232548,22.1840107 13.81631,21.8586723 13.3448336,21.0249927 L10.1264943,15.2909038 C9.94200351,14.9655654 9.61401989,14.6605607 9.2655373,14.5182251 L3.34133314,11.9968527 C2.45987716,11.630847 2.00889968,10.53283 2.54187306,10.1464907 L6.27268675,7.54378365 C6.49817549,7.38111446 6.55967242,7.09644338 6.45717754,6.771105 L4.77626148,1.03701608 C4.53027377,0.183002838 5.35023282,-0.162669189 6.17019187,0.44734027 L11.7049155,4.5547373 C12.0328991,4.79874108 12.4018807,4.90040933 12.6683674,4.83940838 L17.5471237,3.8023923 C18.2440889,3.68039041 19.2280398,4.5547373 19.1870418,5.3070823 Z"/>
      <path fill="#FFF" fill-opacity=".3" fill-rule="nonzero" d="M19.1870418,5.3070823 L18.8795572,10.4514954 C18.8590582,10.7565001 19.02305,11.1021722 19.2895367,11.4071769 L23.9838023,16.5109227 C24.6807675,17.2632677 24.4552787,18.1579482 23.6148207,18.0156127 L17.8956063,17.0802649 C17.5676227,17.0192639 17.301136,17.1412658 17.1781422,17.3852696 C11.8484083,14.4572242 15.4152302,8.25546135 5.14524306,2.2163677 C4.96075227,1.74869378 4.94025329,1.56569095 4.77626148,1.01668243 C4.53027377,0.162669189 5.35023282,-0.183002838 6.17019187,0.427006622 L11.7049155,4.53440365 C12.0328991,4.77840743 12.4018807,4.88007568 12.6683674,4.81907473 L17.5471237,3.78205865 C18.2440889,3.68039041 19.2280398,4.5547373 19.1870418,5.3070823 Z" style="mix-blend-mode:lighten"/>
    </g>
    <g transform="translate(27 18)">
      <g transform="translate(205.141 71.437)">
        <path fill="#BF2652" d="M8.794683,1.52643624 L8.794683,1.52643624 L8.11974222,0.162819866 L0.143169258,4.37578389 L0.777204545,5.8208102 L0.777204545,5.8208102 C0.818110047,5.88186764 0.859015549,5.92257261 0.940826554,5.96327758 L8.20155322,9.01615006 C8.46743899,9.11791247 8.69241925,8.97544509 8.712872,8.69051033 L8.81513576,1.64855114 C8.83558851,1.60784617 8.81513576,1.56714121 8.794683,1.52643624 Z"/>
        <path fill="#F95070" d="M7.73113994,0.0610574496 L0.265885765,4.00943919 C0.0409055023,4.13155409 0.0613582535,4.43684134 0.286338516,4.53860375 L7.58797069,7.55077127 C7.77204545,7.6321812 7.99702571,7.48971382 7.99702571,7.28618899 L8.16064772,0.305287248 C8.18110047,0.101762416 7.93566746,-0.0407049664 7.73113994,0.0610574496 Z"/>
      </g>
      <g transform="translate(63.199 95.86)">
        <path fill="#BF2652" d="M12.7011585,7.9985259 L2.14753887,0.264582282 L0.306791268,1.75031356 C0.102263756,1.85207597 -0.0204527512,2.0556008 0.0613582535,2.2998306 L3.98828648,14.9997801 C4.09055023,15.3050674 4.47915251,15.4271823 4.72458552,15.2236574 L12.7829695,8.64980536 C13.0488552,8.44628053 13.0079497,8.16134576 12.7011585,7.9985259 Z"/>
        <path fill="#F95070" d="M14.4191896,6.51279462 L2.6384049,0.244229798 C2.27025538,0.0407049664 1.86120036,0.386697181 1.98391686,0.773394362 L5.86993959,13.4936964 C5.97220334,13.7989836 6.34035286,13.9210985 6.60623863,13.7175737 L14.4805478,7.28618899 C14.7464336,7.06231167 14.7055281,6.65526201 14.4191896,6.51279462 Z"/>
      </g>
      <g transform="translate(152.168)">
        <path fill="#BF2652" d="M14.8077918,3.03252 L14.8077918,3.03252 L14.8691501,0.56986953 L0.163622009,0.691984429 L0,3.25639731 L0,3.25639731 C0,3.35815973 0.0613582535,3.48027463 0.143169258,3.58203704 L8.44698623,13.5140488 C8.7537775,13.8600411 9.10147427,13.6972212 9.26509628,13.4122864 L14.7464336,3.23604483 C14.7873391,3.17498738 14.8077918,3.11392993 14.8077918,3.03252 Z"/>
        <path fill="#F95070" d="M14.3782841,0.122114899 L0.613582535,0.264582282 C0.204527512,0.264582282 -0.0204527512,0.732689395 0.245433014,1.05832913 L8.50834449,10.868226 C8.73332475,11.1328083 9.14237977,11.0921033 9.30600178,10.7868161 L14.8077918,0.834451811 C14.9918666,0.50881208 14.7464336,0.122114899 14.3782841,0.122114899 Z"/>
      </g>
    </g>
  </g>
</svg>
