<svg xmlns="http://www.w3.org/2000/svg" viewBox="0 0 499.996 499.996">
  <path d="M362.488 55.896H171.864c-2.208 0-4 1.788-4 4s1.792 4 4 4h190.624c2.208 0 4-1.788 4-4 0-2.212-1.792-4-4-4zM494.756 87.016H323.584c-2.208 0-4 1.788-4 4s1.792 4 4 4h171.172c2.212 0 4-1.788 4-4s-1.792-4-4-4zM280.792 87.016H171.864c-2.208 0-4 1.788-4 4s1.792 4 4 4h108.928c2.208 0 4-1.788 4-4s-1.792-4-4-4zM311.916 234.848H171.864c-2.208 0-4 1.788-4 4 0 2.212 1.792 4 4 4h140.048c2.212 0 4.004-1.788 4.004-4 0-2.212-1.792-4-4-4zM401.392 234.848h-50.576c-2.208 0-4 1.788-4 4 0 2.212 1.792 4 4 4h50.576c2.208 0 4-1.788 4-4 0-2.212-1.792-4-4-4zM494.756 265.972H261.34c-2.208 0-4 1.788-4 4 0 2.212 1.792 4 4 4h233.416c2.212 0 4-1.788 4-4 0-2.212-1.792-4-4-4zM218.548 265.972h-46.684c-2.208 0-4 1.788-4 4 0 2.212 1.792 4 4 4h46.684c2.208 0 4-1.788 4-4s-1.792-4-4-4zM362.488 417.696H171.864c-2.208 0-4 1.788-4 4 0 2.212 1.792 4 4 4h190.624c2.208 0 4-1.788 4-4 0-2.212-1.792-4-4-4zM494.756 448.816H323.584c-2.208 0-4 1.788-4 4 0 2.212 1.792 4 4 4h171.172c2.212 0 4-1.788 4-4 0-2.212-1.792-4-4-4zM280.792 448.816H171.864c-2.208 0-4 1.788-4 4 0 2.212 1.792 4 4 4h108.928c2.208 0 4-1.788 4-4 0-2.212-1.792-4-4-4zM141.496 50.852c-.548-1.636-2.072-2.736-3.796-2.736H90.008L75.268 2.764C74.732 1.116 73.196 0 71.464 0s-3.268 1.116-3.804 2.764L52.932 48.12H5.24c-1.724 0-3.252 1.104-3.796 2.74-.544 1.632.02 3.432 1.4 4.464L41.496 84.24l-14.772 46.284c-.524 1.648.068 3.444 1.472 4.46.7.504 1.52.752 2.34.752.828 0 1.656-.26 2.356-.768L71.48 106.82l38.588 27.812c1.4 1.012 3.296 1.008 4.692-.012 1.396-1.016 1.984-2.816 1.456-4.46l-14.764-45.872L140.1 55.316c1.38-1.032 1.944-2.828 1.396-4.464zM94.372 79.6c-1.368 1.02-1.932 2.8-1.412 4.424l11.908 36.996-31.064-22.392c-1.4-1.008-3.3-1-4.696.016l-31.04 22.644 11.916-37.336c.516-1.62-.052-3.392-1.416-4.416l-31.304-23.42h38.58c1.732 0 3.268-1.116 3.804-2.764l11.824-36.408 11.832 36.408c.536 1.648 2.072 2.764 3.804 2.764H125.7L94.372 79.6zM141.5 233.712c-.544-1.64-2.072-2.748-3.8-2.748H90.008l-14.74-45.356c-.536-1.648-2.072-2.764-3.804-2.764s-3.268 1.116-3.804 2.764L52.936 230.96H5.244c-1.728 0-3.26 1.112-3.8 2.752-.544 1.636.032 3.44 1.42 4.464l38.62 28.552-14.756 45.916c-.532 1.648.06 3.448 1.464 4.464.7.504 1.52.756 2.344.756.824 0 1.652-.252 2.352-.764l38.584-28.104L110.06 316.9c1.404 1.012 3.3 1.016 4.696-.008a3.9965 3.9965 0 0 0 1.456-4.464l-14.752-45.664 38.62-28.584c1.388-1.028 1.96-2.828 1.42-4.468zM94.388 262.04c-1.38 1.02-1.956 2.808-1.428 4.444l11.876 36.76-31.028-22.436a4.0111 4.0111 0 0 0-4.7.008l-31.012 22.588L49.98 266.44c.524-1.632-.052-3.416-1.432-4.436L17.38 238.96h38.456c1.732 0 3.268-1.116 3.804-2.764l11.824-36.412 11.832 36.412c.536 1.648 2.072 2.764 3.804 2.764h38.468l-31.18 23.08zM141.504 416.564c-.54-1.644-2.072-2.756-3.804-2.756H90.008l-14.74-45.356c-.536-1.648-2.072-2.764-3.804-2.764s-3.268 1.116-3.804 2.764l-14.724 45.356H5.244c-1.732 0-3.268 1.112-3.804 2.756a4.0004 4.0004 0 0 0 1.444 4.472l38.592 28.196-14.744 45.536c-.536 1.644.052 3.448 1.456 4.468.7.508 1.524.76 2.348.76.824 0 1.652-.252 2.356-.764l38.584-28.06 38.584 27.992c1.404 1.016 3.3 1.02 4.7-.004 1.4-1.016 1.988-2.82 1.452-4.468l-14.744-45.452 38.592-28.204c1.4-1.024 1.984-2.828 1.444-4.472zm-47.092 27.92c-1.396 1.02-1.976 2.82-1.444 4.464l11.844 36.52-30.996-22.484c-1.404-1.016-3.304-1.02-4.704.004l-30.984 22.536 11.848-36.588c.536-1.64-.048-3.44-1.444-4.46l-31.036-22.672v-.004h38.348c1.732 0 3.268-1.116 3.804-2.764l11.824-36.412 11.832 36.412c.536 1.648 2.072 2.764 3.804 2.764h38.344l-31.04 22.684z" fill="#99a3af"/>
</svg>
