<svg xmlns="http://www.w3.org/2000/svg" viewBox="0 0 1102 102.23" preserveAspectRatio="none"><path class="qx-shape-fill" opacity=".46" d="M1102 9c0 46.48-49.69 76.06-90.55 53.91l-34-18.41a84 84 0 0 0-79.19-.46 290.19 290.19 0 0 1-227.7 18.4l-30.07-10.09a183.13 183.13 0 0 0-120.75 1.46l-70 25.41a252.93 252.93 0 0 1-179.66-2.71 121.39 121.39 0 0 0-112.16 11.81A82.76 82.76 0 0 1 45.53 68.74L0 0"/><path class="qx-shape-fill" opacity=".57" d="M1102 5c0 46.48-49.69 76.06-90.55 53.91l-34-18.41a84 84 0 0 0-79.19-.46 290.19 290.19 0 0 1-227.7 18.4l-30.07-10.09a183.13 183.13 0 0 0-120.75 1.46l-70 25.41a252.93 252.93 0 0 1-179.66-2.71 121.39 121.39 0 0 0-112.16 11.81A82.76 82.76 0 0 1 45.53 64.74L0 0"/><path class="qx-shape-fill" d="M2 0h1100c0 46.48-49.69 76.06-90.55 53.91l-34-18.41a84 84 0 0 0-79.19-.46 290.19 290.19 0 0 1-227.7 18.4l-30.07-10.09a183.13 183.13 0 0 0-120.75 1.46l-70 25.41a252.93 252.93 0 0 1-179.66-2.71 121.39 121.39 0 0 0-112.16 11.81A82.76 82.76 0 0 1 45.53 59.74L0 0z"/></svg>