<svg xmlns="http://www.w3.org/2000/svg" viewBox="0 0 1047.1 3.7" preserveAspectRatio="xMidYMin slice"><path class="qx-shape-fill" d="M1047.1 0H0v1.6S.6.1 2.7 1.3c1.2.7 3.4 2.8 5.6 2.2.9-.2 1.5-1.9 1.5-1.9s.6-1.5 2.7-.3c1.3.7 3.5 2.8 5.7 2.2.9-.2 1.5-1.9 1.5-1.9s.6-1.5 2.7-.3c1.2.7 3.5 2.8 5.6 2.2.9-.2 1.5-1.9 1.5-1.9s.6-1.5 2.7-.3c1.2.7 3.5 2.8 5.6 2.2.9-.2 1.5-1.9 1.5-1.9s.6-1.5 2.7-.3c1.2.7 3.5 2.8 5.6 2.2.9-.2 1.5-1.9 1.5-1.9s.6-1.5 2.7-.3c1.2.7 3.5 2.8 5.6 2.2.9-.2 1.5-1.9 1.5-1.9s.6-1.5 2.7-.3c1.4.7 3.7 2.8 5.8 2.2.9-.2 1.6-1.9 1.6-1.9s.6-1.5 2.7-.3c1.2.7 3.5 2.8 5.6 2.2.9-.2 1.5-1.9 1.5-1.9s.6-1.5 2.7-.3c1.2.7 3.5 2.8 5.6 2.2.9-.2 1.5-1.9 1.5-1.9s.6-1.5 2.7-.3c1.3.7 3.5 2.8 5.7 2.2.9-.2 1.5-1.9 1.5-1.9s.6-1.5 2.7-.3c1.2.7 3.5 2.8 5.6 2.2.9-.2 1.5-1.9 1.5-1.9s.6-1.5 2.7-.3c1.2.7 3.5 2.8 5.6 2.2.9-.2 1.5-1.9 1.5-1.9s.6-1.5 2.7-.3c1.2.7 3.5 2.8 5.6 2.2.9-.2 1.5-1.9 1.5-1.9s.6-1.5 2.7-.3c1.2.7 3.5 2.8 5.6 2.2.9-.2 1.5-1.9 1.5-1.9s.6-1.5 2.7-.3c1.2.7 3.5 2.8 5.6 2.2.9-.2 1.5-1.9 1.5-1.9s.6-1.5 2.7-.3c1.2.7 3.5 2.8 5.6 2.2.9-.2 1.5-1.9 1.5-1.9s.6-1.5 2.7-.3c1.2.7 3.5 2.8 5.6 2.2.9-.2 1.5-1.9 1.5-1.9s.6-1.5 2.7-.3c1.2.7 3.5 2.8 5.6 2.2.9-.2 1.5-1.9 1.5-1.9s.6-1.5 2.7-.3c1.2.7 3.5 2.8 5.6 2.2.9-.2 1.5-1.9 1.5-1.9s.6-1.5 2.7-.3c1.2.7 3.5 2.8 5.6 2.2.9-.2 1.5-1.9 1.5-1.9s.6-1.5 2.7-.3c1.2.7 3.5 2.8 5.6 2.2.9-.2 1.5-1.9 1.5-1.9s.6-1.5 2.7-.3c1.2.7 3.5 2.8 5.6 2.2.9-.2 1.5-1.9 1.5-1.9s.6-1.5 2.7-.3c1.2.7 3.5 2.8 5.6 2.2.9-.2 1.5-1.9 1.5-1.9s.6-1.5 2.7-.3c1.2.7 3.5 2.8 5.6 2.2.9-.2 1.5-1.9 1.5-1.9s.6-1.5 2.7-.3c1.2.7 3.5 2.8 5.6 2.2.9-.2 1.5-1.9 1.5-1.9s.6-1.5 2.7-.3c1.2.7 3.5 2.8 5.6 2.2.9-.2 1.5-1.9 1.5-1.9s.6-1.5 2.7-.3c1.2.7 3.5 2.8 5.6 2.2.9-.2 1.5-1.9 1.5-1.9s.6-1.5 2.7-.3c1.2.7 3.5 2.8 5.6 2.2.9-.2 1.5-1.9 1.5-1.9s.6-1.5 2.7-.3c1.2.7 3.5 2.8 5.6 2.2.9-.2 1.5-1.9 1.5-1.9s.6-1.5 2.7-.3c1.2.7 3.5 2.8 5.6 2.2.9-.2 1.5-1.9 1.5-1.9s.6-1.5 2.7-.3c1.2.7 3.5 2.8 5.6 2.2.9-.2 1.5-1.9 1.5-1.9s.6-1.5 2.7-.3c1.2.7 3.5 2.8 5.6 2.2.9-.2 1.5-1.9 1.5-1.9s.6-1.5 2.7-.3c1.2.7 3.5 2.8 5.6 2.2.9-.2 1.5-1.9 1.5-1.9s.6-1.5 2.7-.3c1.2.7 3.5 2.8 5.6 2.2.9-.2 1.5-1.9 1.5-1.9s.6-1.5 2.7-.3c1.2.7 3.5 2.8 5.6 2.2.9-.2 1.5-1.9 1.5-1.9s.6-1.5 2.7-.3c1.2.7 3.5 2.8 5.6 2.2.9-.2 1.5-1.9 1.5-1.9s.6-1.5 2.7-.3c1.2.7 3.5 2.8 5.6 2.2.9-.2 1.5-1.9 1.5-1.9s.6-1.5 2.7-.3c1.2.7 3.5 2.8 5.6 2.2.9-.2 1.5-1.9 1.5-1.9s.6-1.5 2.7-.3c1.2.7 3.5 2.8 5.6 2.2.9-.2 1.5-1.9 1.5-1.9s.6-1.5 2.7-.3c1.2.7 3.5 2.8 5.6 2.2.9-.2 1.5-1.9 1.5-1.9s.6-1.5 2.7-.3c1.2.7 3.5 2.8 5.6 2.2.9-.2 1.5-1.9 1.5-1.9s.6-1.5 2.7-.3c1.2.7 3.5 2.8 5.6 2.2.9-.2 1.5-1.9 1.5-1.9s.6-1.5 2.7-.3c1.2.7 3.5 2.8 5.6 2.2.9-.2 1.5-1.9 1.5-1.9s.6-1.5 2.7-.3c1.2.7 3.5 2.8 5.6 2.2.9-.2 1.5-1.9 1.5-1.9s.6-1.5 2.7-.3c1.2.7 3.5 2.8 5.6 2.2.9-.2 1.5-1.9 1.5-1.9s.6-1.5 2.7-.3c1.2.7 3.5 2.8 5.6 2.2.9-.2 1.5-1.9 1.5-1.9s.6-1.5 2.7-.3c1.2.7 3.5 2.8 5.6 2.2.9-.2 1.5-1.9 1.5-1.9s.6-1.5 2.7-.3c1.2.7 3.5 2.8 5.6 2.2.9-.2 1.5-1.9 1.5-1.9s.6-1.5 2.7-.3c1.2.7 3.5 2.8 5.6 2.2.9-.2 1.5-1.9 1.5-1.9s.6-1.5 2.7-.3c1.2.7 3.5 2.8 5.6 2.2.9-.2 1.5-1.9 1.5-1.9s.6-1.5 2.7-.3c1.2.7 3.5 2.8 5.6 2.2.9-.2 1.5-1.9 1.5-1.9s.6-1.5 2.7-.3c1.2.7 3.5 2.8 5.6 2.2.9-.2 1.5-1.9 1.5-1.9s.6-1.5 2.7-.3c1.2.7 3.5 2.8 5.6 2.2.9-.2 1.5-1.9 1.5-1.9s.6-1.5 2.7-.3c1.2.7 3.5 2.8 5.6 2.2.9-.2 1.5-1.9 1.5-1.9s.6-1.5 2.7-.3c1.2.7 3.5 2.8 5.6 2.2.9-.2 1.5-1.9 1.5-1.9s.6-1.5 2.7-.3c1.2.7 3.5 2.8 5.6 2.2.9-.2 1.5-1.9 1.5-1.9s.6-1.5 2.7-.3c1.2.7 3.5 2.8 5.6 2.2.9-.2 1.5-1.9 1.5-1.9s.6-1.5 2.7-.3c1.2.7 3.5 2.8 5.6 2.2.9-.2 1.5-1.9 1.5-1.9s.6-1.5 2.7-.3c1.2.7 3.5 2.8 5.6 2.2.9-.2 1.5-1.9 1.5-1.9s.6-1.5 2.7-.3c1.2.7 3.5 2.8 5.6 2.2.9-.2 1.5-1.9 1.5-1.9s.6-1.5 2.7-.3c1.2.7 3.5 2.8 5.6 2.2.9-.2 1.5-1.9 1.5-1.9s.6-1.5 2.7-.3c1.2.7 3.5 2.8 5.6 2.2.9-.2 1.5-1.9 1.5-1.9s.6-1.5 2.7-.3c1.2.7 3.5 2.8 5.6 2.2.9-.2 1.5-1.9 1.5-1.9s.6-1.5 2.7-.3c1.2.7 3.5 2.8 5.6 2.2.9-.2 1.5-1.9 1.5-1.9s.6-1.5 2.7-.3c1.2.7 3.5 2.8 5.6 2.2.9-.2 1.5-1.9 1.5-1.9s.6-1.5 2.7-.3c1.2.7 3.5 2.8 5.6 2.2.9-.2 1.5-1.9 1.5-1.9s.6-1.5 2.7-.3c1.2.7 3.5 2.8 5.6 2.2.9-.2 1.5-1.9 1.5-1.9s.6-1.5 2.7-.3c1.2.7 3.5 2.8 5.6 2.2.9-.2 1.5-1.9 1.5-1.9s.6-1.5 2.7-.3c1.2.7 3.5 2.8 5.6 2.2.9-.2 1.5-1.9 1.5-1.9s.6-1.5 2.7-.3c1.2.7 3.5 2.8 5.6 2.2.9-.2 1.5-1.9 1.5-1.9s.6-1.5 2.7-.3c1.2.7 3.5 2.8 5.6 2.2.9-.2 1.5-1.9 1.5-1.9s.6-1.5 2.7-.3c1.2.7 3.5 2.8 5.6 2.2.9-.2 1.5-1.9 1.5-1.9s.6-1.5 2.7-.3c1.2.7 3.5 2.8 5.6 2.2.9-.2 1.5-1.9 1.5-1.9s.6-1.5 2.7-.3c1.2.7 3.5 2.8 5.6 2.2.9-.2 1.5-1.9 1.5-1.9s.6-1.5 2.7-.3c1.2.7 3.5 2.8 5.6 2.2.9-.2 1.5-1.9 1.5-1.9s.6-1.5 2.7-.3c1.2.7 3.5 2.8 5.6 2.2.9-.2 1.5-1.9 1.5-1.9s.6-1.5 2.7-.3c1.2.7 3.5 2.8 5.6 2.2.9-.2 1.5-1.9 1.5-1.9s.6-1.5 2.7-.3c1.2.7 3.5 2.8 5.6 2.2.9-.2 1.5-1.9 1.5-1.9s.6-1.5 2.7-.3c1.2.7 3.5 2.8 5.6 2.2.9-.2 1.5-1.9 1.5-1.9s.6-1.5 2.7-.3c1.2.7 3.5 2.8 5.6 2.2.9-.2 1.5-1.9 1.5-1.9s.6-1.5 2.7-.3c1.2.7 3.5 2.8 5.6 2.2.9-.2 1.5-1.9 1.5-1.9s.6-1.5 2.7-.3c1.2.7 3.5 2.8 5.6 2.2.9-.2 1.5-1.9 1.5-1.9s.6-1.5 2.7-.3c1.2.7 3.5 2.8 5.6 2.2.9-.2 1.5-1.9 1.5-1.9s.6-1.5 2.7-.3c1.2.7 3.5 2.8 5.6 2.2.9-.2 1.5-1.9 1.5-1.9s.6-1.5 2.7-.3c1.2.7 3.5 2.8 5.6 2.2.9-.2 1.5-1.9 1.5-1.9s.6-1.5 2.7-.3c1.2.7 3.5 2.8 5.6 2.2.9-.2 1.5-1.9 1.5-1.9s.6-1.5 2.7-.3c1.2.7 3.5 2.8 5.6 2.2.9-.2 1.5-1.9 1.5-1.9s.6-1.5 2.7-.3c1.2.7 3.5 2.8 5.6 2.2.9-.2 1.5-1.9 1.5-1.9s.6-1.5 2.7-.3c1.2.7 3.5 2.8 5.6 2.2.9-.2 1.5-1.9 1.5-1.9s.6-1.5 2.7-.3c1.2.7 3.5 2.8 5.6 2.2.9-.2 1.5-1.9 1.5-1.9s.6-1.5 2.7-.3c1.2.7 3.5 2.8 5.6 2.2.9-.2 1.5-1.9 1.5-1.9s.6-1.5 2.7-.3c1.2.7 3.5 2.8 5.6 2.2.9-.2 1.5-1.9 1.5-1.9s.6-1.5 2.7-.3c1.2.7 3.5 2.8 5.6 2.2.9-.2 1.5-1.9 1.5-1.9s.6-1.5 2.7-.3c1.2.7 3.5 2.8 5.6 2.2.9-.2 1.5-1.9 1.5-1.9s.6-1.5 2.7-.3c1.2.7 3.5 2.8 5.6 2.2.9-.2 1.5-1.9 1.5-1.9s.6-1.5 2.7-.3c1.2.7 3.5 2.8 5.6 2.2.9-.2 1.5-1.9 1.5-1.9s.6-1.5 2.7-.3c1.2.7 3.5 2.8 5.6 2.2.9-.2 1.5-1.9 1.5-1.9s.6-1.5 2.7-.3c1.2.7 3.5 2.8 5.6 2.2.9-.2 1.5-1.9 1.5-1.9s.6-1.5 2.7-.3c1.2.7 3.5 2.8 5.6 2.2.9-.2 1.5-1.9 1.5-1.9s.6-1.5 2.7-.3c1.2.7 3.5 2.8 5.6 2.2.9-.2 1.5-1.9 1.5-1.9s.6-1.5 2.7-.3c1.2.7 3.5 2.8 5.6 2.2.9-.2 1.5-1.9 1.5-1.9s.6-1.5 2.7-.3c1.2.7 3.5 2.8 5.6 2.2.9-.2 1.5-1.9 1.5-1.9s.6-1.5 2.7-.3c1.2.7 3.5 2.8 5.6 2.2.9-.2 1.5-1.9 1.5-1.9s.6-1.5 2.7-.3c1.2.7 3.5 2.8 5.6 2.2.9-.2 1.5-1.9 1.5-1.9s.6-1.5 2.7-.3c1.2.7 3.5 2.8 5.6 2.2.9-.2 1.5-1.9 1.5-1.9s.6-1.5 2.7-.3c1.2.7 3.5 2.8 5.6 2.2.9-.2 1.5-1.9 1.5-1.9s.6-1.5 2.6-.4V0zM2.5 1.2zm.2.2c.1 0 .1.1.1.1 0-.1 0-.1-.1-.1z"/></svg>