<svg xmlns="http://www.w3.org/2000/svg" viewBox="0 0 30 30">
  <g fill="#99a3af">
    <path d="M6.8 15.2l-.5-.5C4.9 13.3 4.5 11.2 5 9.3 3.5 9 2.4 7.7 2.4 6.1c0-1.8 1.5-3.3 3.3-3.3 1.7 0 3 1.2 3.3 2.8 1.8-.4 3.7.1 5.1 1.5l.2.2-2.5 2.5-.2-.2c-.8-.8-2.1-.8-2.9 0-.8.8-.8 2.1 0 2.9l.5.5 2.5 2.5 2.6 2.6-2.5 2.5L9.2 18l-2.4-2.8z"/>
    <path d="M9.6 12.5l2.6-2.6 2.5-2.5.4-.4c1.5-1.5 3.6-1.9 5.4-1.4.2-1.6 1.6-2.9 3.3-2.9 1.8 0 3.3 1.5 3.3 3.3 0 1.7-1.3 3.1-2.9 3.3.5 1.9.1 3.9-1.4 5.4l-.2.3-2.4-2.5.2-.2c.8-.8.8-2.1 0-2.9s-2.1-.8-2.9 0l-.5.5-2.5 2.5-2.6 2.6-2.3-2.5z"/>
    <path d="M20.6 24.9c-1.9.6-4 .1-5.5-1.4l-.2-.2 2.5-2.5.2.2c.8.8 2.1.8 2.9 0 .8-.8.8-2.1 0-2.9l-.5-.4-2.5-2.5-2.5-2.5 2.5-2.5 2.6 2.6 2.5 2.5.5.5c1.4 1.4 1.9 3.4 1.5 5.2 1.6.2 2.9 1.6 2.9 3.3 0 1.8-1.5 3.3-3.3 3.3-1.9-.1-3.3-1.2-3.6-2.7z"/>
    <path d="M19.7 18l-2.6 2.6-2.5 2.4-.5.5c-1.4 1.4-3.4 1.9-5.2 1.5-.3 1.5-1.7 2.6-3.2 2.6-1.8 0-3.3-1.5-3.3-3.3 0-1.6 1.1-2.9 2.6-3.2-.5-1.9 0-3.8 1.4-5.3l.2-.2L9 18l-.2.2c-.8.8-.8 2.1 0 2.9.8.8 2.1.8 2.9 0l.5-.5 2.5-2.5 2.6-2.6 2.4 2.5z"/>
  </g>
</svg>